<?xml version="1.0" encoding="UTF-8" standalone="no"?>
<!DOCTYPE svg PUBLIC "-//W3C//DTD SVG 1.1//EN"
 "http://www.w3.org/Graphics/SVG/1.1/DTD/svg11.dtd">
<!-- Generated by graphviz version 2.40.1 (0)
 -->
<!-- Title: snakemake_dag Pages: 1 -->
<svg width="1930pt" height="359pt"
 viewBox="0.00 0.00 1930.12 359.00" xmlns="http://www.w3.org/2000/svg" xmlns:xlink="http://www.w3.org/1999/xlink">
<g id="graph0" class="graph" transform="scale(1 1) rotate(0) translate(4 355)">
<title>snakemake_dag</title>
<polygon fill="#ffffff" stroke="transparent" points="-4,4 -4,-355 1926.1248,-355 1926.1248,4 -4,4"/>
<!-- 0 -->
<g id="node1" class="node">
<title>0</title>
<path fill="none" stroke="#d6d856" stroke-width="2" d="M875.5,-36C875.5,-36 845.5,-36 845.5,-36 839.5,-36 833.5,-30 833.5,-24 833.5,-24 833.5,-12 833.5,-12 833.5,-6 839.5,0 845.5,0 845.5,0 875.5,0 875.5,0 881.5,0 887.5,-6 887.5,-12 887.5,-12 887.5,-24 887.5,-24 887.5,-30 881.5,-36 875.5,-36"/>
<text text-anchor="middle" x="860.5" y="-15.5" font-family="sans" font-size="10.00" fill="#000000">all</text>
</g>
<!-- 1 -->
<g id="node2" class="node">
<title>1</title>
<path fill="none" stroke="#569ad8" stroke-width="2" d="M986.5,-108C986.5,-108 956.5,-108 956.5,-108 950.5,-108 944.5,-102 944.5,-96 944.5,-96 944.5,-84 944.5,-84 944.5,-78 950.5,-72 956.5,-72 956.5,-72 986.5,-72 986.5,-72 992.5,-72 998.5,-78 998.5,-84 998.5,-84 998.5,-96 998.5,-96 998.5,-102 992.5,-108 986.5,-108"/>
<text text-anchor="middle" x="971.5" y="-87.5" font-family="sans" font-size="10.00" fill="#000000">multiqc</text>
</g>
<!-- 1&#45;&gt;0 -->
<g id="edge1" class="edge">
<title>1&#45;&gt;0</title>
<path fill="none" stroke="#c0c0c0" stroke-width="2" d="M944.3463,-72.3868C929.8331,-62.9728 911.7848,-51.2658 896.1548,-41.1274"/>
<polygon fill="#c0c0c0" stroke="#c0c0c0" stroke-width="2" points="898.0523,-38.1865 887.758,-35.6809 894.243,-44.0592 898.0523,-38.1865"/>
</g>
<!-- 2 -->
<g id="node3" class="node">
<title>2</title>
<path fill="none" stroke="#56d8d8" stroke-width="2" d="M520,-252C520,-252 479,-252 479,-252 473,-252 467,-246 467,-240 467,-240 467,-228 467,-228 467,-222 473,-216 479,-216 479,-216 520,-216 520,-216 526,-216 532,-222 532,-228 532,-228 532,-240 532,-240 532,-246 526,-252 520,-252"/>
<text text-anchor="middle" x="499.5" y="-231.5" font-family="sans" font-size="10.00" fill="#000000">fastqc_raw</text>
</g>
<!-- 2&#45;&gt;1 -->
<g id="edge5" class="edge">
<title>2&#45;&gt;1</title>
<path fill="none" stroke="#c0c0c0" stroke-width="2" d="M529.8131,-215.8753C565.247,-195.4624 626.2236,-162.7053 682.5,-144 770.0948,-114.885 878.1527,-99.9572 934.0495,-93.7016"/>
<polygon fill="#c0c0c0" stroke="#c0c0c0" stroke-width="2" points="934.6247,-97.1598 944.1875,-92.5987 933.8676,-90.2008 934.6247,-97.1598"/>
</g>
<!-- 3 -->
<g id="node4" class="node">
<title>3</title>
<path fill="none" stroke="#d85656" stroke-width="2" d="M435,-351C435,-351 340,-351 340,-351 334,-351 328,-345 328,-339 328,-339 328,-300 328,-300 328,-294 334,-288 340,-288 340,-288 435,-288 435,-288 441,-288 447,-294 447,-300 447,-300 447,-339 447,-339 447,-345 441,-351 435,-351"/>
<text text-anchor="middle" x="387.5" y="-339" font-family="sans" font-size="10.00" fill="#000000">get_fastq_raw</text>
<text text-anchor="middle" x="387.5" y="-328" font-family="sans" font-size="10.00" fill="#000000">lane: L002</text>
<text text-anchor="middle" x="387.5" y="-317" font-family="sans" font-size="10.00" fill="#000000">library: lib1</text>
<text text-anchor="middle" x="387.5" y="-306" font-family="sans" font-size="10.00" fill="#000000">read_type_raw: R2</text>
<text text-anchor="middle" x="387.5" y="-295" font-family="sans" font-size="10.00" fill="#000000">sample: HD827sonic_1</text>
</g>
<!-- 3&#45;&gt;2 -->
<g id="edge26" class="edge">
<title>3&#45;&gt;2</title>
<path fill="none" stroke="#c0c0c0" stroke-width="2" d="M428.8865,-287.9059C441.7464,-278.0886 455.7119,-267.4275 467.8024,-258.1978"/>
<polygon fill="#c0c0c0" stroke="#c0c0c0" stroke-width="2" points="470.0116,-260.9146 475.8365,-252.0646 465.764,-255.3505 470.0116,-260.9146"/>
</g>
<!-- 15 -->
<g id="node16" class="node">
<title>15</title>
<path fill="none" stroke="#56d89a" stroke-width="2" d="M303,-252C303,-252 246,-252 246,-252 240,-252 234,-246 234,-240 234,-240 234,-228 234,-228 234,-222 240,-216 246,-216 246,-216 303,-216 303,-216 309,-216 315,-222 315,-228 315,-228 315,-240 315,-240 315,-246 309,-252 303,-252"/>
<text text-anchor="middle" x="274.5" y="-231.5" font-family="sans" font-size="10.00" fill="#000000">fastp_fastq_pe</text>
</g>
<!-- 3&#45;&gt;15 -->
<g id="edge35" class="edge">
<title>3&#45;&gt;15</title>
<path fill="none" stroke="#c0c0c0" stroke-width="2" d="M345.744,-287.9059C332.7692,-278.0886 318.679,-267.4275 306.4807,-258.1978"/>
<polygon fill="#c0c0c0" stroke="#c0c0c0" stroke-width="2" points="308.4612,-255.3074 298.3748,-252.0646 304.2375,-260.8895 308.4612,-255.3074"/>
</g>
<!-- 4 -->
<g id="node5" class="node">
<title>4</title>
<path fill="none" stroke="#56d8d8" stroke-width="2" d="M53,-252C53,-252 12,-252 12,-252 6,-252 0,-246 0,-240 0,-240 0,-228 0,-228 0,-222 6,-216 12,-216 12,-216 53,-216 53,-216 59,-216 65,-222 65,-228 65,-228 65,-240 65,-240 65,-246 59,-252 53,-252"/>
<text text-anchor="middle" x="32.5" y="-231.5" font-family="sans" font-size="10.00" fill="#000000">fastqc_raw</text>
</g>
<!-- 4&#45;&gt;1 -->
<g id="edge6" class="edge">
<title>4&#45;&gt;1</title>
<path fill="none" stroke="#c0c0c0" stroke-width="2" d="M25.7255,-215.8098C19.4689,-195.4925 13.5847,-162.974 31.5,-144 63.0179,-110.6195 763.2844,-94.2369 934.1514,-90.7281"/>
<polygon fill="#c0c0c0" stroke="#c0c0c0" stroke-width="2" points="934.4757,-94.2223 944.4026,-90.52 934.3336,-87.2237 934.4757,-94.2223"/>
</g>
<!-- 5 -->
<g id="node6" class="node">
<title>5</title>
<path fill="none" stroke="#d85656" stroke-width="2" d="M205,-351C205,-351 110,-351 110,-351 104,-351 98,-345 98,-339 98,-339 98,-300 98,-300 98,-294 104,-288 110,-288 110,-288 205,-288 205,-288 211,-288 217,-294 217,-300 217,-300 217,-339 217,-339 217,-345 211,-351 205,-351"/>
<text text-anchor="middle" x="157.5" y="-339" font-family="sans" font-size="10.00" fill="#000000">get_fastq_raw</text>
<text text-anchor="middle" x="157.5" y="-328" font-family="sans" font-size="10.00" fill="#000000">lane: L002</text>
<text text-anchor="middle" x="157.5" y="-317" font-family="sans" font-size="10.00" fill="#000000">library: lib1</text>
<text text-anchor="middle" x="157.5" y="-306" font-family="sans" font-size="10.00" fill="#000000">read_type_raw: R1</text>
<text text-anchor="middle" x="157.5" y="-295" font-family="sans" font-size="10.00" fill="#000000">sample: HD827sonic_1</text>
</g>
<!-- 5&#45;&gt;4 -->
<g id="edge27" class="edge">
<title>5&#45;&gt;4</title>
<path fill="none" stroke="#c0c0c0" stroke-width="2" d="M111.3098,-287.9059C96.8191,-277.9943 81.0708,-267.2224 67.4882,-257.9319"/>
<polygon fill="#c0c0c0" stroke="#c0c0c0" stroke-width="2" points="69.1401,-254.8214 58.9102,-252.0646 65.1881,-260.5991 69.1401,-254.8214"/>
</g>
<!-- 5&#45;&gt;15 -->
<g id="edge34" class="edge">
<title>5&#45;&gt;15</title>
<path fill="none" stroke="#c0c0c0" stroke-width="2" d="M200.7341,-287.9059C214.1682,-278.0886 228.7571,-267.4275 241.3873,-258.1978"/>
<polygon fill="#c0c0c0" stroke="#c0c0c0" stroke-width="2" points="243.7712,-260.7907 249.78,-252.0646 239.641,-255.1389 243.7712,-260.7907"/>
</g>
<!-- 6 -->
<g id="node7" class="node">
<title>6</title>
<path fill="none" stroke="#56d8d8" stroke-width="2" d="M695,-252C695,-252 654,-252 654,-252 648,-252 642,-246 642,-240 642,-240 642,-228 642,-228 642,-222 648,-216 654,-216 654,-216 695,-216 695,-216 701,-216 707,-222 707,-228 707,-228 707,-240 707,-240 707,-246 701,-252 695,-252"/>
<text text-anchor="middle" x="674.5" y="-231.5" font-family="sans" font-size="10.00" fill="#000000">fastqc_raw</text>
</g>
<!-- 6&#45;&gt;1 -->
<g id="edge7" class="edge">
<title>6&#45;&gt;1</title>
<path fill="none" stroke="#c0c0c0" stroke-width="2" d="M676.4377,-215.8513C679.6365,-195.2575 687.9869,-162.1785 709.5,-144 743.1029,-115.6057 870.4611,-99.6634 934.4037,-93.2937"/>
<polygon fill="#c0c0c0" stroke="#c0c0c0" stroke-width="2" points="934.8504,-96.7669 944.4661,-92.3184 934.175,-89.7995 934.8504,-96.7669"/>
</g>
<!-- 7 -->
<g id="node8" class="node">
<title>7</title>
<path fill="none" stroke="#d85656" stroke-width="2" d="M907,-351C907,-351 812,-351 812,-351 806,-351 800,-345 800,-339 800,-339 800,-300 800,-300 800,-294 806,-288 812,-288 812,-288 907,-288 907,-288 913,-288 919,-294 919,-300 919,-300 919,-339 919,-339 919,-345 913,-351 907,-351"/>
<text text-anchor="middle" x="859.5" y="-339" font-family="sans" font-size="10.00" fill="#000000">get_fastq_raw</text>
<text text-anchor="middle" x="859.5" y="-328" font-family="sans" font-size="10.00" fill="#000000">lane: L001</text>
<text text-anchor="middle" x="859.5" y="-317" font-family="sans" font-size="10.00" fill="#000000">library: lib1</text>
<text text-anchor="middle" x="859.5" y="-306" font-family="sans" font-size="10.00" fill="#000000">read_type_raw: R1</text>
<text text-anchor="middle" x="859.5" y="-295" font-family="sans" font-size="10.00" fill="#000000">sample: HD827sonic_1</text>
</g>
<!-- 7&#45;&gt;6 -->
<g id="edge28" class="edge">
<title>7&#45;&gt;6</title>
<path fill="none" stroke="#c0c0c0" stroke-width="2" d="M799.9465,-291.9766C772.6909,-279.3801 741.0453,-264.7547 716.3573,-253.3449"/>
<polygon fill="#c0c0c0" stroke="#c0c0c0" stroke-width="2" points="717.8055,-250.1585 707.2597,-249.1403 714.8688,-256.5127 717.8055,-250.1585"/>
</g>
<!-- 14 -->
<g id="node15" class="node">
<title>14</title>
<path fill="none" stroke="#56d89a" stroke-width="2" d="M991,-252C991,-252 934,-252 934,-252 928,-252 922,-246 922,-240 922,-240 922,-228 922,-228 922,-222 928,-216 934,-216 934,-216 991,-216 991,-216 997,-216 1003,-222 1003,-228 1003,-228 1003,-240 1003,-240 1003,-246 997,-252 991,-252"/>
<text text-anchor="middle" x="962.5" y="-231.5" font-family="sans" font-size="10.00" fill="#000000">fastp_fastq_pe</text>
</g>
<!-- 7&#45;&gt;14 -->
<g id="edge32" class="edge">
<title>7&#45;&gt;14</title>
<path fill="none" stroke="#c0c0c0" stroke-width="2" d="M897.5608,-287.9059C909.2736,-278.183 921.9837,-267.6324 933.0283,-258.4644"/>
<polygon fill="#c0c0c0" stroke="#c0c0c0" stroke-width="2" points="935.279,-261.1448 940.738,-252.0646 930.808,-255.7587 935.279,-261.1448"/>
</g>
<!-- 8 -->
<g id="node9" class="node">
<title>8</title>
<path fill="none" stroke="#56d8d8" stroke-width="2" d="M1382,-252C1382,-252 1341,-252 1341,-252 1335,-252 1329,-246 1329,-240 1329,-240 1329,-228 1329,-228 1329,-222 1335,-216 1341,-216 1341,-216 1382,-216 1382,-216 1388,-216 1394,-222 1394,-228 1394,-228 1394,-240 1394,-240 1394,-246 1388,-252 1382,-252"/>
<text text-anchor="middle" x="1361.5" y="-231.5" font-family="sans" font-size="10.00" fill="#000000">fastqc_raw</text>
</g>
<!-- 8&#45;&gt;1 -->
<g id="edge8" class="edge">
<title>8&#45;&gt;1</title>
<path fill="none" stroke="#c0c0c0" stroke-width="2" d="M1352.4968,-215.8259C1341.1053,-194.8833 1319.4295,-161.156 1290.5,-144 1243.3003,-116.0092 1082.3194,-99.2888 1008.7389,-92.9404"/>
<polygon fill="#c0c0c0" stroke="#c0c0c0" stroke-width="2" points="1008.8001,-89.4332 998.5409,-92.0789 1008.2108,-96.4084 1008.8001,-89.4332"/>
</g>
<!-- 9 -->
<g id="node10" class="node">
<title>9</title>
<path fill="none" stroke="#d85656" stroke-width="2" d="M1599,-351C1599,-351 1504,-351 1504,-351 1498,-351 1492,-345 1492,-339 1492,-339 1492,-300 1492,-300 1492,-294 1498,-288 1504,-288 1504,-288 1599,-288 1599,-288 1605,-288 1611,-294 1611,-300 1611,-300 1611,-339 1611,-339 1611,-345 1605,-351 1599,-351"/>
<text text-anchor="middle" x="1551.5" y="-339" font-family="sans" font-size="10.00" fill="#000000">get_fastq_raw</text>
<text text-anchor="middle" x="1551.5" y="-328" font-family="sans" font-size="10.00" fill="#000000">lane: L002</text>
<text text-anchor="middle" x="1551.5" y="-317" font-family="sans" font-size="10.00" fill="#000000">library: lib1</text>
<text text-anchor="middle" x="1551.5" y="-306" font-family="sans" font-size="10.00" fill="#000000">read_type_raw: R1</text>
<text text-anchor="middle" x="1551.5" y="-295" font-family="sans" font-size="10.00" fill="#000000">sample: HD827sonic_2</text>
</g>
<!-- 9&#45;&gt;8 -->
<g id="edge29" class="edge">
<title>9&#45;&gt;8</title>
<path fill="none" stroke="#c0c0c0" stroke-width="2" d="M1491.9041,-292.6819C1463.117,-279.7276 1429.2686,-264.4959 1403.272,-252.7974"/>
<polygon fill="#c0c0c0" stroke="#c0c0c0" stroke-width="2" points="1404.6291,-249.5701 1394.0736,-248.6581 1401.7565,-255.9535 1404.6291,-249.5701"/>
</g>
<!-- 16 -->
<g id="node17" class="node">
<title>16</title>
<path fill="none" stroke="#56d89a" stroke-width="2" d="M1680,-252C1680,-252 1623,-252 1623,-252 1617,-252 1611,-246 1611,-240 1611,-240 1611,-228 1611,-228 1611,-222 1617,-216 1623,-216 1623,-216 1680,-216 1680,-216 1686,-216 1692,-222 1692,-228 1692,-228 1692,-240 1692,-240 1692,-246 1686,-252 1680,-252"/>
<text text-anchor="middle" x="1651.5" y="-231.5" font-family="sans" font-size="10.00" fill="#000000">fastp_fastq_pe</text>
</g>
<!-- 9&#45;&gt;16 -->
<g id="edge36" class="edge">
<title>9&#45;&gt;16</title>
<path fill="none" stroke="#c0c0c0" stroke-width="2" d="M1588.4522,-287.9059C1599.7135,-278.2774 1611.9243,-267.8372 1622.5739,-258.7318"/>
<polygon fill="#c0c0c0" stroke="#c0c0c0" stroke-width="2" points="1625.0457,-261.2234 1630.3718,-252.0646 1620.4967,-255.9029 1625.0457,-261.2234"/>
</g>
<!-- 10 -->
<g id="node11" class="node">
<title>10</title>
<path fill="none" stroke="#56d8d8" stroke-width="2" d="M1906,-252C1906,-252 1865,-252 1865,-252 1859,-252 1853,-246 1853,-240 1853,-240 1853,-228 1853,-228 1853,-222 1859,-216 1865,-216 1865,-216 1906,-216 1906,-216 1912,-216 1918,-222 1918,-228 1918,-228 1918,-240 1918,-240 1918,-246 1912,-252 1906,-252"/>
<text text-anchor="middle" x="1885.5" y="-231.5" font-family="sans" font-size="10.00" fill="#000000">fastqc_raw</text>
</g>
<!-- 10&#45;&gt;1 -->
<g id="edge9" class="edge">
<title>10&#45;&gt;1</title>
<path fill="none" stroke="#c0c0c0" stroke-width="2" d="M1900.364,-215.7733C1914.84,-195.7289 1932.1499,-163.7497 1913.5,-144 1881.8974,-110.534 1179.458,-94.2038 1008.6721,-90.7198"/>
<polygon fill="#c0c0c0" stroke="#c0c0c0" stroke-width="2" points="1008.7236,-87.2202 998.655,-90.5178 1008.5824,-94.2188 1008.7236,-87.2202"/>
</g>
<!-- 11 -->
<g id="node12" class="node">
<title>11</title>
<path fill="none" stroke="#d85656" stroke-width="2" d="M1798,-351C1798,-351 1703,-351 1703,-351 1697,-351 1691,-345 1691,-339 1691,-339 1691,-300 1691,-300 1691,-294 1697,-288 1703,-288 1703,-288 1798,-288 1798,-288 1804,-288 1810,-294 1810,-300 1810,-300 1810,-339 1810,-339 1810,-345 1804,-351 1798,-351"/>
<text text-anchor="middle" x="1750.5" y="-339" font-family="sans" font-size="10.00" fill="#000000">get_fastq_raw</text>
<text text-anchor="middle" x="1750.5" y="-328" font-family="sans" font-size="10.00" fill="#000000">lane: L002</text>
<text text-anchor="middle" x="1750.5" y="-317" font-family="sans" font-size="10.00" fill="#000000">library: lib1</text>
<text text-anchor="middle" x="1750.5" y="-306" font-family="sans" font-size="10.00" fill="#000000">read_type_raw: R2</text>
<text text-anchor="middle" x="1750.5" y="-295" font-family="sans" font-size="10.00" fill="#000000">sample: HD827sonic_2</text>
</g>
<!-- 11&#45;&gt;10 -->
<g id="edge30" class="edge">
<title>11&#45;&gt;10</title>
<path fill="none" stroke="#c0c0c0" stroke-width="2" d="M1800.3855,-287.9059C1816.1844,-277.8999 1833.3677,-267.0171 1848.1313,-257.6669"/>
<polygon fill="#c0c0c0" stroke="#c0c0c0" stroke-width="2" points="1850.4015,-260.372 1856.977,-252.0646 1846.6561,-254.4583 1850.4015,-260.372"/>
</g>
<!-- 11&#45;&gt;16 -->
<g id="edge37" class="edge">
<title>11&#45;&gt;16</title>
<path fill="none" stroke="#c0c0c0" stroke-width="2" d="M1713.9173,-287.9059C1702.7686,-278.2774 1690.6799,-267.8372 1680.1368,-258.7318"/>
<polygon fill="#c0c0c0" stroke="#c0c0c0" stroke-width="2" points="1682.2728,-255.9519 1672.4169,-252.0646 1677.6975,-261.2497 1682.2728,-255.9519"/>
</g>
<!-- 12 -->
<g id="node13" class="node">
<title>12</title>
<path fill="none" stroke="#56d8d8" stroke-width="2" d="M1198,-252C1198,-252 1157,-252 1157,-252 1151,-252 1145,-246 1145,-240 1145,-240 1145,-228 1145,-228 1145,-222 1151,-216 1157,-216 1157,-216 1198,-216 1198,-216 1204,-216 1210,-222 1210,-228 1210,-228 1210,-240 1210,-240 1210,-246 1204,-252 1198,-252"/>
<text text-anchor="middle" x="1177.5" y="-231.5" font-family="sans" font-size="10.00" fill="#000000">fastqc_raw</text>
</g>
<!-- 12&#45;&gt;1 -->
<g id="edge10" class="edge">
<title>12&#45;&gt;1</title>
<path fill="none" stroke="#c0c0c0" stroke-width="2" d="M1210.4447,-225.0204C1232.5407,-217.0928 1259.9845,-203.1094 1273.5,-180 1281.5775,-166.1886 1283.7699,-156.2691 1273.5,-144 1240.1008,-104.099 1081.7573,-93.6492 1008.6521,-90.9376"/>
<polygon fill="#c0c0c0" stroke="#c0c0c0" stroke-width="2" points="1008.6233,-87.4347 998.5096,-90.5911 1008.3842,-94.4306 1008.6233,-87.4347"/>
</g>
<!-- 13 -->
<g id="node14" class="node">
<title>13</title>
<path fill="none" stroke="#d85656" stroke-width="2" d="M1126,-351C1126,-351 1031,-351 1031,-351 1025,-351 1019,-345 1019,-339 1019,-339 1019,-300 1019,-300 1019,-294 1025,-288 1031,-288 1031,-288 1126,-288 1126,-288 1132,-288 1138,-294 1138,-300 1138,-300 1138,-339 1138,-339 1138,-345 1132,-351 1126,-351"/>
<text text-anchor="middle" x="1078.5" y="-339" font-family="sans" font-size="10.00" fill="#000000">get_fastq_raw</text>
<text text-anchor="middle" x="1078.5" y="-328" font-family="sans" font-size="10.00" fill="#000000">lane: L001</text>
<text text-anchor="middle" x="1078.5" y="-317" font-family="sans" font-size="10.00" fill="#000000">library: lib1</text>
<text text-anchor="middle" x="1078.5" y="-306" font-family="sans" font-size="10.00" fill="#000000">read_type_raw: R2</text>
<text text-anchor="middle" x="1078.5" y="-295" font-family="sans" font-size="10.00" fill="#000000">sample: HD827sonic_1</text>
</g>
<!-- 13&#45;&gt;12 -->
<g id="edge31" class="edge">
<title>13&#45;&gt;12</title>
<path fill="none" stroke="#c0c0c0" stroke-width="2" d="M1115.0827,-287.9059C1126.2314,-278.2774 1138.3201,-267.8372 1148.8632,-258.7318"/>
<polygon fill="#c0c0c0" stroke="#c0c0c0" stroke-width="2" points="1151.3025,-261.2497 1156.5831,-252.0646 1146.7272,-255.9519 1151.3025,-261.2497"/>
</g>
<!-- 13&#45;&gt;14 -->
<g id="edge33" class="edge">
<title>13&#45;&gt;14</title>
<path fill="none" stroke="#c0c0c0" stroke-width="2" d="M1035.6355,-287.9059C1022.3162,-278.0886 1007.8519,-267.4275 995.3297,-258.1978"/>
<polygon fill="#c0c0c0" stroke="#c0c0c0" stroke-width="2" points="997.135,-255.1804 987.0087,-252.0646 992.9818,-260.8152 997.135,-255.1804"/>
</g>
<!-- 14&#45;&gt;0 -->
<g id="edge4" class="edge">
<title>14&#45;&gt;0</title>
<path fill="none" stroke="#c0c0c0" stroke-width="2" d="M921.9889,-231.3791C857.4247,-226.2642 735.7724,-212.4717 709.5,-180 664.1416,-123.9388 766.3003,-63.0662 824.1664,-34.5248"/>
<polygon fill="#c0c0c0" stroke="#c0c0c0" stroke-width="2" points="825.9078,-37.5705 833.3857,-30.0651 822.8595,-31.269 825.9078,-37.5705"/>
</g>
<!-- 14&#45;&gt;1 -->
<g id="edge11" class="edge">
<title>14&#45;&gt;1</title>
<path fill="none" stroke="#c0c0c0" stroke-width="2" d="M1003.2264,-228.5596C1032.6621,-222.2646 1070.4665,-208.7756 1089.5,-180 1098.3269,-166.6551 1098.145,-157.4634 1089.5,-144 1071.7979,-116.4314 1036.1304,-102.7587 1008.6204,-96.0907"/>
<polygon fill="#c0c0c0" stroke="#c0c0c0" stroke-width="2" points="1009.0501,-92.6013 998.5308,-93.8637 1007.5413,-99.4368 1009.0501,-92.6013"/>
</g>
<!-- 17 -->
<g id="node18" class="node">
<title>17</title>
<path fill="none" stroke="#d89556" stroke-width="2" d="M1252.5,-180C1252.5,-180 1148.5,-180 1148.5,-180 1142.5,-180 1136.5,-174 1136.5,-168 1136.5,-168 1136.5,-156 1136.5,-156 1136.5,-150 1142.5,-144 1148.5,-144 1148.5,-144 1252.5,-144 1252.5,-144 1258.5,-144 1264.5,-150 1264.5,-156 1264.5,-156 1264.5,-168 1264.5,-168 1264.5,-174 1258.5,-180 1252.5,-180"/>
<text text-anchor="middle" x="1200.5" y="-165" font-family="sans" font-size="10.00" fill="#000000">fastqc_trim</text>
<text text-anchor="middle" x="1200.5" y="-154" font-family="sans" font-size="10.00" fill="#000000">read_type_trim: collapsed</text>
</g>
<!-- 14&#45;&gt;17 -->
<g id="edge38" class="edge">
<title>14&#45;&gt;17</title>
<path fill="none" stroke="#c0c0c0" stroke-width="2" d="M1003.1432,-221.7046C1038.1729,-211.1073 1089.5096,-195.5769 1131.0439,-183.0119"/>
<polygon fill="#c0c0c0" stroke="#c0c0c0" stroke-width="2" points="1132.2726,-186.297 1140.8307,-180.0512 1130.2456,-179.5968 1132.2726,-186.297"/>
</g>
<!-- 22 -->
<g id="node23" class="node">
<title>22</title>
<path fill="none" stroke="#d89556" stroke-width="2" d="M832.5,-180C832.5,-180 730.5,-180 730.5,-180 724.5,-180 718.5,-174 718.5,-168 718.5,-168 718.5,-156 718.5,-156 718.5,-150 724.5,-144 730.5,-144 730.5,-144 832.5,-144 832.5,-144 838.5,-144 844.5,-150 844.5,-156 844.5,-156 844.5,-168 844.5,-168 844.5,-174 838.5,-180 832.5,-180"/>
<text text-anchor="middle" x="781.5" y="-165" font-family="sans" font-size="10.00" fill="#000000">fastqc_trim</text>
<text text-anchor="middle" x="781.5" y="-154" font-family="sans" font-size="10.00" fill="#000000">read_type_trim: singleton</text>
</g>
<!-- 14&#45;&gt;22 -->
<g id="edge43" class="edge">
<title>14&#45;&gt;22</title>
<path fill="none" stroke="#c0c0c0" stroke-width="2" d="M921.8801,-217.8418C896.6133,-207.7909 863.8029,-194.7393 836.2565,-183.7816"/>
<polygon fill="#c0c0c0" stroke="#c0c0c0" stroke-width="2" points="837.339,-180.4455 826.7535,-180.0014 834.7516,-186.9498 837.339,-180.4455"/>
</g>
<!-- 23 -->
<g id="node24" class="node">
<title>23</title>
<path fill="none" stroke="#d89556" stroke-width="2" d="M950.5,-180C950.5,-180 874.5,-180 874.5,-180 868.5,-180 862.5,-174 862.5,-168 862.5,-168 862.5,-156 862.5,-156 862.5,-150 868.5,-144 874.5,-144 874.5,-144 950.5,-144 950.5,-144 956.5,-144 962.5,-150 962.5,-156 962.5,-156 962.5,-168 962.5,-168 962.5,-174 956.5,-180 950.5,-180"/>
<text text-anchor="middle" x="912.5" y="-165" font-family="sans" font-size="10.00" fill="#000000">fastqc_trim</text>
<text text-anchor="middle" x="912.5" y="-154" font-family="sans" font-size="10.00" fill="#000000">read_type_trim: R2</text>
</g>
<!-- 14&#45;&gt;23 -->
<g id="edge44" class="edge">
<title>14&#45;&gt;23</title>
<path fill="none" stroke="#c0c0c0" stroke-width="2" d="M949.8829,-215.8314C944.1828,-207.6232 937.3337,-197.7606 931.0641,-188.7323"/>
<polygon fill="#c0c0c0" stroke="#c0c0c0" stroke-width="2" points="933.8658,-186.6306 925.287,-180.4133 928.1162,-190.6234 933.8658,-186.6306"/>
</g>
<!-- 26 -->
<g id="node27" class="node">
<title>26</title>
<path fill="none" stroke="#d89556" stroke-width="2" d="M1068.5,-180C1068.5,-180 992.5,-180 992.5,-180 986.5,-180 980.5,-174 980.5,-168 980.5,-168 980.5,-156 980.5,-156 980.5,-150 986.5,-144 992.5,-144 992.5,-144 1068.5,-144 1068.5,-144 1074.5,-144 1080.5,-150 1080.5,-156 1080.5,-156 1080.5,-168 1080.5,-168 1080.5,-174 1074.5,-180 1068.5,-180"/>
<text text-anchor="middle" x="1030.5" y="-165" font-family="sans" font-size="10.00" fill="#000000">fastqc_trim</text>
<text text-anchor="middle" x="1030.5" y="-154" font-family="sans" font-size="10.00" fill="#000000">read_type_trim: R1</text>
</g>
<!-- 14&#45;&gt;26 -->
<g id="edge47" class="edge">
<title>14&#45;&gt;26</title>
<path fill="none" stroke="#c0c0c0" stroke-width="2" d="M979.6593,-215.8314C987.6511,-207.3694 997.3038,-197.1489 1006.0416,-187.8971"/>
<polygon fill="#c0c0c0" stroke="#c0c0c0" stroke-width="2" points="1008.788,-190.0866 1013.1097,-180.4133 1003.6989,-185.2802 1008.788,-190.0866"/>
</g>
<!-- 15&#45;&gt;0 -->
<g id="edge3" class="edge">
<title>15&#45;&gt;0</title>
<path fill="none" stroke="#c0c0c0" stroke-width="2" d="M233.791,-232.6367C150.5548,-228.4486 -26.5616,-211.5533 31.5,-144 84.1403,-82.7544 668.389,-33.0148 823.0964,-20.851"/>
<polygon fill="#c0c0c0" stroke="#c0c0c0" stroke-width="2" points="823.3714,-24.3403 833.0686,-20.0724 822.8264,-17.3616 823.3714,-24.3403"/>
</g>
<!-- 15&#45;&gt;1 -->
<g id="edge12" class="edge">
<title>15&#45;&gt;1</title>
<path fill="none" stroke="#c0c0c0" stroke-width="2" d="M315.0849,-222.8253C343.901,-213.8239 382.7684,-199.4587 413.5,-180 433.1556,-167.5544 430.3624,-153.7179 451.5,-144 537.7053,-104.3677 829.9281,-93.4531 934.1721,-90.7832"/>
<polygon fill="#c0c0c0" stroke="#c0c0c0" stroke-width="2" points="934.3202,-94.2807 944.2313,-90.5365 934.1485,-87.2828 934.3202,-94.2807"/>
</g>
<!-- 19 -->
<g id="node20" class="node">
<title>19</title>
<path fill="none" stroke="#d89556" stroke-width="2" d="M574.5,-180C574.5,-180 472.5,-180 472.5,-180 466.5,-180 460.5,-174 460.5,-168 460.5,-168 460.5,-156 460.5,-156 460.5,-150 466.5,-144 472.5,-144 472.5,-144 574.5,-144 574.5,-144 580.5,-144 586.5,-150 586.5,-156 586.5,-156 586.5,-168 586.5,-168 586.5,-174 580.5,-180 574.5,-180"/>
<text text-anchor="middle" x="523.5" y="-165" font-family="sans" font-size="10.00" fill="#000000">fastqc_trim</text>
<text text-anchor="middle" x="523.5" y="-154" font-family="sans" font-size="10.00" fill="#000000">read_type_trim: singleton</text>
</g>
<!-- 15&#45;&gt;19 -->
<g id="edge40" class="edge">
<title>15&#45;&gt;19</title>
<path fill="none" stroke="#c0c0c0" stroke-width="2" d="M315.0603,-222.2717C351.83,-211.6395 406.8839,-195.7203 451.1791,-182.9121"/>
<polygon fill="#c0c0c0" stroke="#c0c0c0" stroke-width="2" points="452.3979,-186.2031 461.0321,-180.063 450.4534,-179.4786 452.3979,-186.2031"/>
</g>
<!-- 21 -->
<g id="node22" class="node">
<title>21</title>
<path fill="none" stroke="#d89556" stroke-width="2" d="M128.5,-180C128.5,-180 52.5,-180 52.5,-180 46.5,-180 40.5,-174 40.5,-168 40.5,-168 40.5,-156 40.5,-156 40.5,-150 46.5,-144 52.5,-144 52.5,-144 128.5,-144 128.5,-144 134.5,-144 140.5,-150 140.5,-156 140.5,-156 140.5,-168 140.5,-168 140.5,-174 134.5,-180 128.5,-180"/>
<text text-anchor="middle" x="90.5" y="-165" font-family="sans" font-size="10.00" fill="#000000">fastqc_trim</text>
<text text-anchor="middle" x="90.5" y="-154" font-family="sans" font-size="10.00" fill="#000000">read_type_trim: R2</text>
</g>
<!-- 15&#45;&gt;21 -->
<g id="edge42" class="edge">
<title>15&#45;&gt;21</title>
<path fill="none" stroke="#c0c0c0" stroke-width="2" d="M233.6644,-218.0209C207.8864,-207.9338 174.2504,-194.7719 146.0593,-183.7406"/>
<polygon fill="#c0c0c0" stroke="#c0c0c0" stroke-width="2" points="147.3147,-180.4735 136.7268,-180.0888 144.7639,-186.9922 147.3147,-180.4735"/>
</g>
<!-- 24 -->
<g id="node25" class="node">
<title>24</title>
<path fill="none" stroke="#d89556" stroke-width="2" d="M246.5,-180C246.5,-180 170.5,-180 170.5,-180 164.5,-180 158.5,-174 158.5,-168 158.5,-168 158.5,-156 158.5,-156 158.5,-150 164.5,-144 170.5,-144 170.5,-144 246.5,-144 246.5,-144 252.5,-144 258.5,-150 258.5,-156 258.5,-156 258.5,-168 258.5,-168 258.5,-174 252.5,-180 246.5,-180"/>
<text text-anchor="middle" x="208.5" y="-165" font-family="sans" font-size="10.00" fill="#000000">fastqc_trim</text>
<text text-anchor="middle" x="208.5" y="-154" font-family="sans" font-size="10.00" fill="#000000">read_type_trim: R1</text>
</g>
<!-- 15&#45;&gt;24 -->
<g id="edge45" class="edge">
<title>15&#45;&gt;24</title>
<path fill="none" stroke="#c0c0c0" stroke-width="2" d="M257.8454,-215.8314C250.0886,-207.3694 240.7198,-197.1489 232.239,-187.8971"/>
<polygon fill="#c0c0c0" stroke="#c0c0c0" stroke-width="2" points="234.7162,-185.4198 225.3788,-180.4133 229.5561,-190.1499 234.7162,-185.4198"/>
</g>
<!-- 27 -->
<g id="node28" class="node">
<title>27</title>
<path fill="none" stroke="#d89556" stroke-width="2" d="M392.5,-180C392.5,-180 288.5,-180 288.5,-180 282.5,-180 276.5,-174 276.5,-168 276.5,-168 276.5,-156 276.5,-156 276.5,-150 282.5,-144 288.5,-144 288.5,-144 392.5,-144 392.5,-144 398.5,-144 404.5,-150 404.5,-156 404.5,-156 404.5,-168 404.5,-168 404.5,-174 398.5,-180 392.5,-180"/>
<text text-anchor="middle" x="340.5" y="-165" font-family="sans" font-size="10.00" fill="#000000">fastqc_trim</text>
<text text-anchor="middle" x="340.5" y="-154" font-family="sans" font-size="10.00" fill="#000000">read_type_trim: collapsed</text>
</g>
<!-- 15&#45;&gt;27 -->
<g id="edge48" class="edge">
<title>15&#45;&gt;27</title>
<path fill="none" stroke="#c0c0c0" stroke-width="2" d="M291.1546,-215.8314C298.9114,-207.3694 308.2802,-197.1489 316.761,-187.8971"/>
<polygon fill="#c0c0c0" stroke="#c0c0c0" stroke-width="2" points="319.4439,-190.1499 323.6212,-180.4133 314.2838,-185.4198 319.4439,-190.1499"/>
</g>
<!-- 16&#45;&gt;0 -->
<g id="edge2" class="edge">
<title>16&#45;&gt;0</title>
<path fill="none" stroke="#c0c0c0" stroke-width="2" d="M1692.0953,-231.7011C1758.5734,-226.9949 1886.0319,-213.7068 1913.5,-180 1923.6075,-167.5968 1924.1204,-155.9669 1913.5,-144 1844.4854,-66.2349 1077.4304,-27.6046 897.9208,-19.5922"/>
<polygon fill="#c0c0c0" stroke="#c0c0c0" stroke-width="2" points="897.8107,-16.084 887.666,-19.1394 897.5019,-23.0772 897.8107,-16.084"/>
</g>
<!-- 16&#45;&gt;1 -->
<g id="edge13" class="edge">
<title>16&#45;&gt;1</title>
<path fill="none" stroke="#c0c0c0" stroke-width="2" d="M1610.6121,-229.6295C1557.7765,-223.0894 1463.5475,-208.3709 1387.5,-180 1356.9229,-168.5927 1354.3503,-154.6465 1323.5,-144 1213.3302,-105.98 1074.5488,-94.6727 1009.0276,-91.3531"/>
<polygon fill="#c0c0c0" stroke="#c0c0c0" stroke-width="2" points="1008.9375,-87.845 998.7836,-90.8697 1008.6075,-94.8373 1008.9375,-87.845"/>
</g>
<!-- 18 -->
<g id="node19" class="node">
<title>18</title>
<path fill="none" stroke="#d89556" stroke-width="2" d="M1512.5,-180C1512.5,-180 1408.5,-180 1408.5,-180 1402.5,-180 1396.5,-174 1396.5,-168 1396.5,-168 1396.5,-156 1396.5,-156 1396.5,-150 1402.5,-144 1408.5,-144 1408.5,-144 1512.5,-144 1512.5,-144 1518.5,-144 1524.5,-150 1524.5,-156 1524.5,-156 1524.5,-168 1524.5,-168 1524.5,-174 1518.5,-180 1512.5,-180"/>
<text text-anchor="middle" x="1460.5" y="-165" font-family="sans" font-size="10.00" fill="#000000">fastqc_trim</text>
<text text-anchor="middle" x="1460.5" y="-154" font-family="sans" font-size="10.00" fill="#000000">read_type_trim: collapsed</text>
</g>
<!-- 16&#45;&gt;18 -->
<g id="edge39" class="edge">
<title>16&#45;&gt;18</title>
<path fill="none" stroke="#c0c0c0" stroke-width="2" d="M1610.9938,-218.7307C1583.9197,-208.5247 1547.9002,-194.9467 1517.888,-183.6332"/>
<polygon fill="#c0c0c0" stroke="#c0c0c0" stroke-width="2" points="1518.9657,-180.2991 1508.3739,-180.0467 1516.4965,-186.8491 1518.9657,-180.2991"/>
</g>
<!-- 20 -->
<g id="node21" class="node">
<title>20</title>
<path fill="none" stroke="#d89556" stroke-width="2" d="M1630.5,-180C1630.5,-180 1554.5,-180 1554.5,-180 1548.5,-180 1542.5,-174 1542.5,-168 1542.5,-168 1542.5,-156 1542.5,-156 1542.5,-150 1548.5,-144 1554.5,-144 1554.5,-144 1630.5,-144 1630.5,-144 1636.5,-144 1642.5,-150 1642.5,-156 1642.5,-156 1642.5,-168 1642.5,-168 1642.5,-174 1636.5,-180 1630.5,-180"/>
<text text-anchor="middle" x="1592.5" y="-165" font-family="sans" font-size="10.00" fill="#000000">fastqc_trim</text>
<text text-anchor="middle" x="1592.5" y="-154" font-family="sans" font-size="10.00" fill="#000000">read_type_trim: R2</text>
</g>
<!-- 16&#45;&gt;20 -->
<g id="edge41" class="edge">
<title>16&#45;&gt;20</title>
<path fill="none" stroke="#c0c0c0" stroke-width="2" d="M1636.6118,-215.8314C1629.747,-207.454 1621.4699,-197.3531 1613.9489,-188.1749"/>
<polygon fill="#c0c0c0" stroke="#c0c0c0" stroke-width="2" points="1616.6341,-185.9297 1607.5886,-180.4133 1611.2197,-190.3665 1616.6341,-185.9297"/>
</g>
<!-- 25 -->
<g id="node26" class="node">
<title>25</title>
<path fill="none" stroke="#d89556" stroke-width="2" d="M1748.5,-180C1748.5,-180 1672.5,-180 1672.5,-180 1666.5,-180 1660.5,-174 1660.5,-168 1660.5,-168 1660.5,-156 1660.5,-156 1660.5,-150 1666.5,-144 1672.5,-144 1672.5,-144 1748.5,-144 1748.5,-144 1754.5,-144 1760.5,-150 1760.5,-156 1760.5,-156 1760.5,-168 1760.5,-168 1760.5,-174 1754.5,-180 1748.5,-180"/>
<text text-anchor="middle" x="1710.5" y="-165" font-family="sans" font-size="10.00" fill="#000000">fastqc_trim</text>
<text text-anchor="middle" x="1710.5" y="-154" font-family="sans" font-size="10.00" fill="#000000">read_type_trim: R1</text>
</g>
<!-- 16&#45;&gt;25 -->
<g id="edge46" class="edge">
<title>16&#45;&gt;25</title>
<path fill="none" stroke="#c0c0c0" stroke-width="2" d="M1666.3882,-215.8314C1673.253,-207.454 1681.5301,-197.3531 1689.0511,-188.1749"/>
<polygon fill="#c0c0c0" stroke="#c0c0c0" stroke-width="2" points="1691.7803,-190.3665 1695.4114,-180.4133 1686.3659,-185.9297 1691.7803,-190.3665"/>
</g>
<!-- 28 -->
<g id="node29" class="node">
<title>28</title>
<path fill="none" stroke="#d89556" stroke-width="2" d="M1892.5,-180C1892.5,-180 1790.5,-180 1790.5,-180 1784.5,-180 1778.5,-174 1778.5,-168 1778.5,-168 1778.5,-156 1778.5,-156 1778.5,-150 1784.5,-144 1790.5,-144 1790.5,-144 1892.5,-144 1892.5,-144 1898.5,-144 1904.5,-150 1904.5,-156 1904.5,-156 1904.5,-168 1904.5,-168 1904.5,-174 1898.5,-180 1892.5,-180"/>
<text text-anchor="middle" x="1841.5" y="-165" font-family="sans" font-size="10.00" fill="#000000">fastqc_trim</text>
<text text-anchor="middle" x="1841.5" y="-154" font-family="sans" font-size="10.00" fill="#000000">read_type_trim: singleton</text>
</g>
<!-- 16&#45;&gt;28 -->
<g id="edge49" class="edge">
<title>16&#45;&gt;28</title>
<path fill="none" stroke="#c0c0c0" stroke-width="2" d="M1692.2598,-218.5542C1719.1206,-208.3754 1754.6815,-194.8996 1784.3529,-183.6558"/>
<polygon fill="#c0c0c0" stroke="#c0c0c0" stroke-width="2" points="1785.6501,-186.9071 1793.761,-180.0906 1783.1696,-180.3613 1785.6501,-186.9071"/>
</g>
<!-- 17&#45;&gt;1 -->
<g id="edge14" class="edge">
<title>17&#45;&gt;1</title>
<path fill="none" stroke="#c0c0c0" stroke-width="2" d="M1143.0092,-143.9243C1100.7443,-130.6358 1044.5657,-112.9726 1008.2192,-101.5449"/>
<polygon fill="#c0c0c0" stroke="#c0c0c0" stroke-width="2" points="1009.1109,-98.1564 998.5215,-98.4958 1007.0113,-104.8341 1009.1109,-98.1564"/>
</g>
<!-- 18&#45;&gt;1 -->
<g id="edge15" class="edge">
<title>18&#45;&gt;1</title>
<path fill="none" stroke="#c0c0c0" stroke-width="2" d="M1396.328,-146.6761C1391.6589,-145.7195 1387.0131,-144.8153 1382.5,-144 1245.4722,-119.2465 1080.7992,-101.0638 1008.5439,-93.6595"/>
<polygon fill="#c0c0c0" stroke="#c0c0c0" stroke-width="2" points="1008.8708,-90.1748 998.5682,-92.6458 1008.163,-97.1389 1008.8708,-90.1748"/>
</g>
<!-- 19&#45;&gt;1 -->
<g id="edge16" class="edge">
<title>19&#45;&gt;1</title>
<path fill="none" stroke="#c0c0c0" stroke-width="2" d="M586.8583,-146.7384C591.4654,-145.7672 596.0487,-144.8427 600.5,-144 721.91,-121.0166 867.2768,-102.4246 934.3009,-94.3502"/>
<polygon fill="#c0c0c0" stroke="#c0c0c0" stroke-width="2" points="934.8561,-97.8088 944.3695,-93.1456 934.0245,-90.8584 934.8561,-97.8088"/>
</g>
<!-- 20&#45;&gt;1 -->
<g id="edge17" class="edge">
<title>20&#45;&gt;1</title>
<path fill="none" stroke="#c0c0c0" stroke-width="2" d="M1542.462,-145.9882C1539.4448,-145.2553 1536.4412,-144.5838 1533.5,-144 1338.3645,-105.2655 1099.3871,-94.0075 1008.7434,-91.0053"/>
<polygon fill="#c0c0c0" stroke="#c0c0c0" stroke-width="2" points="1008.7921,-87.5052 998.6861,-90.6863 1008.5701,-94.5016 1008.7921,-87.5052"/>
</g>
<!-- 21&#45;&gt;1 -->
<g id="edge18" class="edge">
<title>21&#45;&gt;1</title>
<path fill="none" stroke="#c0c0c0" stroke-width="2" d="M140.5179,-145.8824C143.5401,-145.1761 146.5503,-144.5394 149.5,-144 303.4074,-115.8572 794.6919,-96.3745 934.2223,-91.3066"/>
<polygon fill="#c0c0c0" stroke="#c0c0c0" stroke-width="2" points="934.5316,-94.7978 944.3991,-90.94 934.2795,-87.8024 934.5316,-94.7978"/>
</g>
<!-- 22&#45;&gt;1 -->
<g id="edge19" class="edge">
<title>22&#45;&gt;1</title>
<path fill="none" stroke="#c0c0c0" stroke-width="2" d="M829.445,-143.8314C862.1373,-131.4427 904.776,-115.2849 934.7779,-103.9158"/>
<polygon fill="#c0c0c0" stroke="#c0c0c0" stroke-width="2" points="936.3245,-107.0726 944.4353,-100.2561 933.8439,-100.5268 936.3245,-107.0726"/>
</g>
<!-- 23&#45;&gt;1 -->
<g id="edge20" class="edge">
<title>23&#45;&gt;1</title>
<path fill="none" stroke="#c0c0c0" stroke-width="2" d="M927.3882,-143.8314C934.253,-135.454 942.5301,-125.3531 950.0511,-116.1749"/>
<polygon fill="#c0c0c0" stroke="#c0c0c0" stroke-width="2" points="952.7803,-118.3665 956.4114,-108.4133 947.3659,-113.9297 952.7803,-118.3665"/>
</g>
<!-- 24&#45;&gt;1 -->
<g id="edge21" class="edge">
<title>24&#45;&gt;1</title>
<path fill="none" stroke="#c0c0c0" stroke-width="2" d="M258.525,-145.9208C261.5455,-145.2048 264.5533,-144.5555 267.5,-144 397.2769,-119.5342 807.3235,-97.9982 933.9081,-91.7923"/>
<polygon fill="#c0c0c0" stroke="#c0c0c0" stroke-width="2" points="934.4221,-95.2715 944.24,-91.289 934.0815,-88.2798 934.4221,-95.2715"/>
</g>
<!-- 25&#45;&gt;1 -->
<g id="edge22" class="edge">
<title>25&#45;&gt;1</title>
<path fill="none" stroke="#c0c0c0" stroke-width="2" d="M1660.4732,-145.9302C1657.4532,-145.2119 1654.4459,-144.5595 1651.5,-144 1526.4356,-120.2483 1131.8661,-98.3065 1008.642,-91.8852"/>
<polygon fill="#c0c0c0" stroke="#c0c0c0" stroke-width="2" points="1008.7402,-88.3857 998.5725,-91.3637 1008.3781,-95.3763 1008.7402,-88.3857"/>
</g>
<!-- 26&#45;&gt;1 -->
<g id="edge23" class="edge">
<title>26&#45;&gt;1</title>
<path fill="none" stroke="#c0c0c0" stroke-width="2" d="M1015.6118,-143.8314C1008.747,-135.454 1000.4699,-125.3531 992.9489,-116.1749"/>
<polygon fill="#c0c0c0" stroke="#c0c0c0" stroke-width="2" points="995.6341,-113.9297 986.5886,-108.4133 990.2197,-118.3665 995.6341,-113.9297"/>
</g>
<!-- 27&#45;&gt;1 -->
<g id="edge24" class="edge">
<title>27&#45;&gt;1</title>
<path fill="none" stroke="#c0c0c0" stroke-width="2" d="M404.6426,-146.5048C409.3186,-145.5884 413.9739,-144.74 418.5,-144 611.067,-112.5146 844.5767,-97.0715 934.1023,-91.9764"/>
<polygon fill="#c0c0c0" stroke="#c0c0c0" stroke-width="2" points="934.5051,-95.4595 944.2938,-91.406 934.1138,-88.4704 934.5051,-95.4595"/>
</g>
<!-- 28&#45;&gt;1 -->
<g id="edge25" class="edge">
<title>28&#45;&gt;1</title>
<path fill="none" stroke="#c0c0c0" stroke-width="2" d="M1778.4141,-145.556C1775.4099,-144.9849 1772.4274,-144.4612 1769.5,-144 1619.9243,-120.4333 1146.0298,-97.8286 1008.9689,-91.6511"/>
<polygon fill="#c0c0c0" stroke="#c0c0c0" stroke-width="2" points="1008.7346,-88.1372 998.5878,-91.1857 1008.421,-95.1302 1008.7346,-88.1372"/>
</g>
</g>
</svg>
