<?xml version="1.0" encoding="UTF-8" standalone="no"?>
<!DOCTYPE svg PUBLIC "-//W3C//DTD SVG 1.1//EN"
 "http://www.w3.org/Graphics/SVG/1.1/DTD/svg11.dtd">
<!-- Generated by graphviz version 2.40.1 (0)
 -->
<!-- Title: snakemake_dag Pages: 1 -->
<svg width="1564pt" height="359pt"
 viewBox="0.00 0.00 1563.84 359.00" xmlns="http://www.w3.org/2000/svg" xmlns:xlink="http://www.w3.org/1999/xlink">
<g id="graph0" class="graph" transform="scale(1 1) rotate(0) translate(4 355)">
<title>snakemake_dag</title>
<polygon fill="#ffffff" stroke="transparent" points="-4,4 -4,-355 1559.8365,-355 1559.8365,4 -4,4"/>
<!-- 0 -->
<g id="node1" class="node">
<title>0</title>
<path fill="none" stroke="#97d856" stroke-width="2" d="M793.0322,-36C793.0322,-36 763.0322,-36 763.0322,-36 757.0322,-36 751.0322,-30 751.0322,-24 751.0322,-24 751.0322,-12 751.0322,-12 751.0322,-6 757.0322,0 763.0322,0 763.0322,0 793.0322,0 793.0322,0 799.0322,0 805.0322,-6 805.0322,-12 805.0322,-12 805.0322,-24 805.0322,-24 805.0322,-30 799.0322,-36 793.0322,-36"/>
<text text-anchor="middle" x="778.0322" y="-15.5" font-family="sans" font-size="10.00" fill="#000000">all</text>
</g>
<!-- 1 -->
<g id="node2" class="node">
<title>1</title>
<path fill="none" stroke="#569ad8" stroke-width="2" d="M793.0322,-108C793.0322,-108 763.0322,-108 763.0322,-108 757.0322,-108 751.0322,-102 751.0322,-96 751.0322,-96 751.0322,-84 751.0322,-84 751.0322,-78 757.0322,-72 763.0322,-72 763.0322,-72 793.0322,-72 793.0322,-72 799.0322,-72 805.0322,-78 805.0322,-84 805.0322,-84 805.0322,-96 805.0322,-96 805.0322,-102 799.0322,-108 793.0322,-108"/>
<text text-anchor="middle" x="778.0322" y="-87.5" font-family="sans" font-size="10.00" fill="#000000">multiqc</text>
</g>
<!-- 1&#45;&gt;0 -->
<g id="edge1" class="edge">
<title>1&#45;&gt;0</title>
<path fill="none" stroke="#c0c0c0" stroke-width="2" d="M778.0322,-71.8314C778.0322,-64.131 778.0322,-54.9743 778.0322,-46.4166"/>
<polygon fill="#c0c0c0" stroke="#c0c0c0" stroke-width="2" points="781.5323,-46.4132 778.0322,-36.4133 774.5323,-46.4133 781.5323,-46.4132"/>
</g>
<!-- 2 -->
<g id="node3" class="node">
<title>2</title>
<path fill="none" stroke="#59d856" stroke-width="2" d="M709.5322,-252C709.5322,-252 668.5322,-252 668.5322,-252 662.5322,-252 656.5322,-246 656.5322,-240 656.5322,-240 656.5322,-228 656.5322,-228 656.5322,-222 662.5322,-216 668.5322,-216 668.5322,-216 709.5322,-216 709.5322,-216 715.5322,-216 721.5322,-222 721.5322,-228 721.5322,-228 721.5322,-240 721.5322,-240 721.5322,-246 715.5322,-252 709.5322,-252"/>
<text text-anchor="middle" x="689.0322" y="-231.5" font-family="sans" font-size="10.00" fill="#000000">fastqc_raw</text>
</g>
<!-- 2&#45;&gt;1 -->
<g id="edge4" class="edge">
<title>2&#45;&gt;1</title>
<path fill="none" stroke="#c0c0c0" stroke-width="2" d="M709.257,-215.9324C719.4489,-206.0567 731.4346,-193.1751 740.0322,-180 752.7017,-160.585 762.6751,-136.2449 769.2196,-117.774"/>
<polygon fill="#c0c0c0" stroke="#c0c0c0" stroke-width="2" points="772.5748,-118.7793 772.498,-108.1848 765.9512,-116.5148 772.5748,-118.7793"/>
</g>
<!-- 3 -->
<g id="node4" class="node">
<title>3</title>
<path fill="none" stroke="#56d8d8" stroke-width="2" d="M688.5322,-351C688.5322,-351 593.5322,-351 593.5322,-351 587.5322,-351 581.5322,-345 581.5322,-339 581.5322,-339 581.5322,-300 581.5322,-300 581.5322,-294 587.5322,-288 593.5322,-288 593.5322,-288 688.5322,-288 688.5322,-288 694.5322,-288 700.5322,-294 700.5322,-300 700.5322,-300 700.5322,-339 700.5322,-339 700.5322,-345 694.5322,-351 688.5322,-351"/>
<text text-anchor="middle" x="641.0322" y="-339" font-family="sans" font-size="10.00" fill="#000000">get_fastq_raw</text>
<text text-anchor="middle" x="641.0322" y="-328" font-family="sans" font-size="10.00" fill="#000000">lane: L002</text>
<text text-anchor="middle" x="641.0322" y="-317" font-family="sans" font-size="10.00" fill="#000000">library: lib1</text>
<text text-anchor="middle" x="641.0322" y="-306" font-family="sans" font-size="10.00" fill="#000000">read_type_raw: R2</text>
<text text-anchor="middle" x="641.0322" y="-295" font-family="sans" font-size="10.00" fill="#000000">sample: HD827sonic_1</text>
</g>
<!-- 3&#45;&gt;2 -->
<g id="edge20" class="edge">
<title>3&#45;&gt;2</title>
<path fill="none" stroke="#c0c0c0" stroke-width="2" d="M658.9056,-287.663C663.8384,-278.8765 669.1412,-269.4309 673.902,-260.9506"/>
<polygon fill="#c0c0c0" stroke="#c0c0c0" stroke-width="2" points="676.9688,-262.6375 678.8123,-252.2043 670.8649,-259.2108 676.9688,-262.6375"/>
</g>
<!-- 11 -->
<g id="node12" class="node">
<title>11</title>
<path fill="none" stroke="#d85656" stroke-width="2" d="M299.0322,-252C299.0322,-252 197.0322,-252 197.0322,-252 191.0322,-252 185.0322,-246 185.0322,-240 185.0322,-240 185.0322,-228 185.0322,-228 185.0322,-222 191.0322,-216 197.0322,-216 197.0322,-216 299.0322,-216 299.0322,-216 305.0322,-216 311.0322,-222 311.0322,-228 311.0322,-228 311.0322,-240 311.0322,-240 311.0322,-246 305.0322,-252 299.0322,-252"/>
<text text-anchor="middle" x="248.0322" y="-231.5" font-family="sans" font-size="10.00" fill="#000000">adapterremoval_fastq_pe</text>
</g>
<!-- 3&#45;&gt;11 -->
<g id="edge27" class="edge">
<title>3&#45;&gt;11</title>
<path fill="none" stroke="#c0c0c0" stroke-width="2" d="M581.344,-306.5144C511.5764,-291.3359 396.1292,-266.2196 321.0744,-249.8909"/>
<polygon fill="#c0c0c0" stroke="#c0c0c0" stroke-width="2" points="321.7326,-246.4522 311.2171,-247.7463 320.2444,-253.2922 321.7326,-246.4522"/>
</g>
<!-- 4 -->
<g id="node5" class="node">
<title>4</title>
<path fill="none" stroke="#59d856" stroke-width="2" d="M63.5322,-252C63.5322,-252 22.5322,-252 22.5322,-252 16.5322,-252 10.5322,-246 10.5322,-240 10.5322,-240 10.5322,-228 10.5322,-228 10.5322,-222 16.5322,-216 22.5322,-216 22.5322,-216 63.5322,-216 63.5322,-216 69.5322,-216 75.5322,-222 75.5322,-228 75.5322,-228 75.5322,-240 75.5322,-240 75.5322,-246 69.5322,-252 63.5322,-252"/>
<text text-anchor="middle" x="43.0322" y="-231.5" font-family="sans" font-size="10.00" fill="#000000">fastqc_raw</text>
</g>
<!-- 4&#45;&gt;1 -->
<g id="edge5" class="edge">
<title>4&#45;&gt;1</title>
<path fill="none" stroke="#c0c0c0" stroke-width="2" d="M26.0595,-215.9979C9.4049,-196.1548 -10.9456,-164.3553 8.0322,-144 33.2989,-116.8993 589.7437,-96.3167 740.5974,-91.2205"/>
<polygon fill="#c0c0c0" stroke="#c0c0c0" stroke-width="2" points="740.8679,-94.7135 750.745,-90.8804 740.6334,-87.7174 740.8679,-94.7135"/>
</g>
<!-- 5 -->
<g id="node6" class="node">
<title>5</title>
<path fill="none" stroke="#56d8d8" stroke-width="2" d="M193.5322,-351C193.5322,-351 98.5322,-351 98.5322,-351 92.5322,-351 86.5322,-345 86.5322,-339 86.5322,-339 86.5322,-300 86.5322,-300 86.5322,-294 92.5322,-288 98.5322,-288 98.5322,-288 193.5322,-288 193.5322,-288 199.5322,-288 205.5322,-294 205.5322,-300 205.5322,-300 205.5322,-339 205.5322,-339 205.5322,-345 199.5322,-351 193.5322,-351"/>
<text text-anchor="middle" x="146.0322" y="-339" font-family="sans" font-size="10.00" fill="#000000">get_fastq_raw</text>
<text text-anchor="middle" x="146.0322" y="-328" font-family="sans" font-size="10.00" fill="#000000">lane: L002</text>
<text text-anchor="middle" x="146.0322" y="-317" font-family="sans" font-size="10.00" fill="#000000">library: lib1</text>
<text text-anchor="middle" x="146.0322" y="-306" font-family="sans" font-size="10.00" fill="#000000">read_type_raw: R1</text>
<text text-anchor="middle" x="146.0322" y="-295" font-family="sans" font-size="10.00" fill="#000000">sample: HD827sonic_1</text>
</g>
<!-- 5&#45;&gt;4 -->
<g id="edge21" class="edge">
<title>5&#45;&gt;4</title>
<path fill="none" stroke="#c0c0c0" stroke-width="2" d="M107.9715,-287.9059C96.2586,-278.183 83.5485,-267.6324 72.5039,-258.4644"/>
<polygon fill="#c0c0c0" stroke="#c0c0c0" stroke-width="2" points="74.7242,-255.7587 64.7942,-252.0646 70.2532,-261.1448 74.7242,-255.7587"/>
</g>
<!-- 5&#45;&gt;11 -->
<g id="edge26" class="edge">
<title>5&#45;&gt;11</title>
<path fill="none" stroke="#c0c0c0" stroke-width="2" d="M183.7235,-287.9059C195.21,-278.2774 207.665,-267.8372 218.5276,-258.7318"/>
<polygon fill="#c0c0c0" stroke="#c0c0c0" stroke-width="2" points="221.0662,-261.1709 226.4815,-252.0646 216.5694,-255.8063 221.0662,-261.1709"/>
</g>
<!-- 6 -->
<g id="node7" class="node">
<title>6</title>
<path fill="none" stroke="#59d856" stroke-width="2" d="M887.5322,-252C887.5322,-252 846.5322,-252 846.5322,-252 840.5322,-252 834.5322,-246 834.5322,-240 834.5322,-240 834.5322,-228 834.5322,-228 834.5322,-222 840.5322,-216 846.5322,-216 846.5322,-216 887.5322,-216 887.5322,-216 893.5322,-216 899.5322,-222 899.5322,-228 899.5322,-228 899.5322,-240 899.5322,-240 899.5322,-246 893.5322,-252 887.5322,-252"/>
<text text-anchor="middle" x="867.0322" y="-231.5" font-family="sans" font-size="10.00" fill="#000000">fastqc_raw</text>
</g>
<!-- 6&#45;&gt;1 -->
<g id="edge6" class="edge">
<title>6&#45;&gt;1</title>
<path fill="none" stroke="#c0c0c0" stroke-width="2" d="M846.8074,-215.9324C836.6155,-206.0567 824.6298,-193.1751 816.0322,-180 803.3627,-160.585 793.3893,-136.2449 786.8448,-117.774"/>
<polygon fill="#c0c0c0" stroke="#c0c0c0" stroke-width="2" points="790.1133,-116.5148 783.5664,-108.1848 783.4897,-118.7793 790.1133,-116.5148"/>
</g>
<!-- 7 -->
<g id="node8" class="node">
<title>7</title>
<path fill="none" stroke="#56d8d8" stroke-width="2" d="M962.5322,-351C962.5322,-351 867.5322,-351 867.5322,-351 861.5322,-351 855.5322,-345 855.5322,-339 855.5322,-339 855.5322,-300 855.5322,-300 855.5322,-294 861.5322,-288 867.5322,-288 867.5322,-288 962.5322,-288 962.5322,-288 968.5322,-288 974.5322,-294 974.5322,-300 974.5322,-300 974.5322,-339 974.5322,-339 974.5322,-345 968.5322,-351 962.5322,-351"/>
<text text-anchor="middle" x="915.0322" y="-339" font-family="sans" font-size="10.00" fill="#000000">get_fastq_raw</text>
<text text-anchor="middle" x="915.0322" y="-328" font-family="sans" font-size="10.00" fill="#000000">lane: L001</text>
<text text-anchor="middle" x="915.0322" y="-317" font-family="sans" font-size="10.00" fill="#000000">library: lib1</text>
<text text-anchor="middle" x="915.0322" y="-306" font-family="sans" font-size="10.00" fill="#000000">read_type_raw: R1</text>
<text text-anchor="middle" x="915.0322" y="-295" font-family="sans" font-size="10.00" fill="#000000">sample: HD827sonic_1</text>
</g>
<!-- 7&#45;&gt;6 -->
<g id="edge22" class="edge">
<title>7&#45;&gt;6</title>
<path fill="none" stroke="#c0c0c0" stroke-width="2" d="M897.1588,-287.663C892.2261,-278.8765 886.9233,-269.4309 882.1624,-260.9506"/>
<polygon fill="#c0c0c0" stroke="#c0c0c0" stroke-width="2" points="885.1995,-259.2108 877.2522,-252.2043 879.0956,-262.6375 885.1995,-259.2108"/>
</g>
<!-- 10 -->
<g id="node11" class="node">
<title>10</title>
<path fill="none" stroke="#d85656" stroke-width="2" d="M1240.0322,-252C1240.0322,-252 1138.0322,-252 1138.0322,-252 1132.0322,-252 1126.0322,-246 1126.0322,-240 1126.0322,-240 1126.0322,-228 1126.0322,-228 1126.0322,-222 1132.0322,-216 1138.0322,-216 1138.0322,-216 1240.0322,-216 1240.0322,-216 1246.0322,-216 1252.0322,-222 1252.0322,-228 1252.0322,-228 1252.0322,-240 1252.0322,-240 1252.0322,-246 1246.0322,-252 1240.0322,-252"/>
<text text-anchor="middle" x="1189.0322" y="-231.5" font-family="sans" font-size="10.00" fill="#000000">adapterremoval_fastq_pe</text>
</g>
<!-- 7&#45;&gt;10 -->
<g id="edge24" class="edge">
<title>7&#45;&gt;10</title>
<path fill="none" stroke="#c0c0c0" stroke-width="2" d="M974.8241,-300.8423C1018.1006,-287.3382 1076.6383,-269.0718 1121.5836,-255.0469"/>
<polygon fill="#c0c0c0" stroke="#c0c0c0" stroke-width="2" points="1122.7428,-258.3517 1131.2463,-252.0317 1120.6576,-251.6695 1122.7428,-258.3517"/>
</g>
<!-- 8 -->
<g id="node9" class="node">
<title>8</title>
<path fill="none" stroke="#59d856" stroke-width="2" d="M1474.5322,-252C1474.5322,-252 1433.5322,-252 1433.5322,-252 1427.5322,-252 1421.5322,-246 1421.5322,-240 1421.5322,-240 1421.5322,-228 1421.5322,-228 1421.5322,-222 1427.5322,-216 1433.5322,-216 1433.5322,-216 1474.5322,-216 1474.5322,-216 1480.5322,-216 1486.5322,-222 1486.5322,-228 1486.5322,-228 1486.5322,-240 1486.5322,-240 1486.5322,-246 1480.5322,-252 1474.5322,-252"/>
<text text-anchor="middle" x="1454.0322" y="-231.5" font-family="sans" font-size="10.00" fill="#000000">fastqc_raw</text>
</g>
<!-- 8&#45;&gt;1 -->
<g id="edge7" class="edge">
<title>8&#45;&gt;1</title>
<path fill="none" stroke="#c0c0c0" stroke-width="2" d="M1486.7766,-224.6599C1508.341,-216.6159 1534.9274,-202.6416 1548.0322,-180 1556.0472,-166.1523 1558.943,-155.7028 1548.0322,-144 1522.7655,-116.8993 966.3207,-96.3167 815.4671,-91.2205"/>
<polygon fill="#c0c0c0" stroke="#c0c0c0" stroke-width="2" points="815.4311,-87.7174 805.3194,-90.8804 815.1966,-94.7135 815.4311,-87.7174"/>
</g>
<!-- 9 -->
<g id="node10" class="node">
<title>9</title>
<path fill="none" stroke="#56d8d8" stroke-width="2" d="M1368.5322,-351C1368.5322,-351 1273.5322,-351 1273.5322,-351 1267.5322,-351 1261.5322,-345 1261.5322,-339 1261.5322,-339 1261.5322,-300 1261.5322,-300 1261.5322,-294 1267.5322,-288 1273.5322,-288 1273.5322,-288 1368.5322,-288 1368.5322,-288 1374.5322,-288 1380.5322,-294 1380.5322,-300 1380.5322,-300 1380.5322,-339 1380.5322,-339 1380.5322,-345 1374.5322,-351 1368.5322,-351"/>
<text text-anchor="middle" x="1321.0322" y="-339" font-family="sans" font-size="10.00" fill="#000000">get_fastq_raw</text>
<text text-anchor="middle" x="1321.0322" y="-328" font-family="sans" font-size="10.00" fill="#000000">lane: L001</text>
<text text-anchor="middle" x="1321.0322" y="-317" font-family="sans" font-size="10.00" fill="#000000">library: lib1</text>
<text text-anchor="middle" x="1321.0322" y="-306" font-family="sans" font-size="10.00" fill="#000000">read_type_raw: R2</text>
<text text-anchor="middle" x="1321.0322" y="-295" font-family="sans" font-size="10.00" fill="#000000">sample: HD827sonic_1</text>
</g>
<!-- 9&#45;&gt;8 -->
<g id="edge23" class="edge">
<title>9&#45;&gt;8</title>
<path fill="none" stroke="#c0c0c0" stroke-width="2" d="M1370.1786,-287.9059C1385.7436,-277.8999 1402.6722,-267.0171 1417.2171,-257.6669"/>
<polygon fill="#c0c0c0" stroke="#c0c0c0" stroke-width="2" points="1419.4126,-260.4163 1425.9318,-252.0646 1415.6273,-254.5281 1419.4126,-260.4163"/>
</g>
<!-- 9&#45;&gt;10 -->
<g id="edge25" class="edge">
<title>9&#45;&gt;10</title>
<path fill="none" stroke="#c0c0c0" stroke-width="2" d="M1272.2553,-287.9059C1256.8074,-277.8999 1240.006,-267.0171 1225.5705,-257.6669"/>
<polygon fill="#c0c0c0" stroke="#c0c0c0" stroke-width="2" points="1227.2173,-254.5635 1216.9214,-252.0646 1223.4118,-260.4387 1227.2173,-254.5635"/>
</g>
<!-- 10&#45;&gt;0 -->
<g id="edge2" class="edge">
<title>10&#45;&gt;0</title>
<path fill="none" stroke="#c0c0c0" stroke-width="2" d="M1252.1689,-228.941C1350.0021,-220.4548 1529.0146,-202.0922 1548.0322,-180 1558.4706,-167.874 1558.3922,-156.1931 1548.0322,-144 1499.6863,-87.0999 963.4559,-34.7486 815.5927,-21.3173"/>
<polygon fill="#c0c0c0" stroke="#c0c0c0" stroke-width="2" points="815.5094,-17.7956 805.2352,-20.3826 814.8802,-24.7673 815.5094,-17.7956"/>
</g>
<!-- 10&#45;&gt;1 -->
<g id="edge8" class="edge">
<title>10&#45;&gt;1</title>
<path fill="none" stroke="#c0c0c0" stroke-width="2" d="M1125.5888,-226.945C1080.5622,-219.9113 1019.8708,-206.205 972.0322,-180 951.6284,-168.8232 953.9165,-156.0768 934.0322,-144 896.5664,-121.2449 848.1848,-106.4047 815.304,-98.1443"/>
<polygon fill="#c0c0c0" stroke="#c0c0c0" stroke-width="2" points="815.7501,-94.651 805.2066,-95.6919 814.098,-101.4532 815.7501,-94.651"/>
</g>
<!-- 13 -->
<g id="node14" class="node">
<title>13</title>
<path fill="none" stroke="#56d89a" stroke-width="2" d="M1095.0322,-180C1095.0322,-180 993.0322,-180 993.0322,-180 987.0322,-180 981.0322,-174 981.0322,-168 981.0322,-168 981.0322,-156 981.0322,-156 981.0322,-150 987.0322,-144 993.0322,-144 993.0322,-144 1095.0322,-144 1095.0322,-144 1101.0322,-144 1107.0322,-150 1107.0322,-156 1107.0322,-156 1107.0322,-168 1107.0322,-168 1107.0322,-174 1101.0322,-180 1095.0322,-180"/>
<text text-anchor="middle" x="1044.0322" y="-165" font-family="sans" font-size="10.00" fill="#000000">fastqc_trim</text>
<text text-anchor="middle" x="1044.0322" y="-154" font-family="sans" font-size="10.00" fill="#000000">read_type_trim: singleton</text>
</g>
<!-- 10&#45;&gt;13 -->
<g id="edge29" class="edge">
<title>10&#45;&gt;13</title>
<path fill="none" stroke="#c0c0c0" stroke-width="2" d="M1152.4426,-215.8314C1133.3083,-206.3302 1109.7093,-194.6121 1089.42,-184.5374"/>
<polygon fill="#c0c0c0" stroke="#c0c0c0" stroke-width="2" points="1090.8719,-181.3506 1080.3587,-180.038 1087.7587,-187.6203 1090.8719,-181.3506"/>
</g>
<!-- 15 -->
<g id="node16" class="node">
<title>15</title>
<path fill="none" stroke="#56d89a" stroke-width="2" d="M1241.0322,-180C1241.0322,-180 1137.0322,-180 1137.0322,-180 1131.0322,-180 1125.0322,-174 1125.0322,-168 1125.0322,-168 1125.0322,-156 1125.0322,-156 1125.0322,-150 1131.0322,-144 1137.0322,-144 1137.0322,-144 1241.0322,-144 1241.0322,-144 1247.0322,-144 1253.0322,-150 1253.0322,-156 1253.0322,-156 1253.0322,-168 1253.0322,-168 1253.0322,-174 1247.0322,-180 1241.0322,-180"/>
<text text-anchor="middle" x="1189.0322" y="-165" font-family="sans" font-size="10.00" fill="#000000">fastqc_trim</text>
<text text-anchor="middle" x="1189.0322" y="-154" font-family="sans" font-size="10.00" fill="#000000">read_type_trim: collapsed</text>
</g>
<!-- 10&#45;&gt;15 -->
<g id="edge31" class="edge">
<title>10&#45;&gt;15</title>
<path fill="none" stroke="#c0c0c0" stroke-width="2" d="M1189.0322,-215.8314C1189.0322,-208.131 1189.0322,-198.9743 1189.0322,-190.4166"/>
<polygon fill="#c0c0c0" stroke="#c0c0c0" stroke-width="2" points="1192.5323,-190.4132 1189.0322,-180.4133 1185.5323,-190.4133 1192.5323,-190.4132"/>
</g>
<!-- 16 -->
<g id="node17" class="node">
<title>16</title>
<path fill="none" stroke="#56d89a" stroke-width="2" d="M1359.0322,-180C1359.0322,-180 1283.0322,-180 1283.0322,-180 1277.0322,-180 1271.0322,-174 1271.0322,-168 1271.0322,-168 1271.0322,-156 1271.0322,-156 1271.0322,-150 1277.0322,-144 1283.0322,-144 1283.0322,-144 1359.0322,-144 1359.0322,-144 1365.0322,-144 1371.0322,-150 1371.0322,-156 1371.0322,-156 1371.0322,-168 1371.0322,-168 1371.0322,-174 1365.0322,-180 1359.0322,-180"/>
<text text-anchor="middle" x="1321.0322" y="-165" font-family="sans" font-size="10.00" fill="#000000">fastqc_trim</text>
<text text-anchor="middle" x="1321.0322" y="-154" font-family="sans" font-size="10.00" fill="#000000">read_type_trim: R2</text>
</g>
<!-- 10&#45;&gt;16 -->
<g id="edge32" class="edge">
<title>10&#45;&gt;16</title>
<path fill="none" stroke="#c0c0c0" stroke-width="2" d="M1222.3414,-215.8314C1239.4595,-206.4942 1260.5028,-195.016 1278.7544,-185.0606"/>
<polygon fill="#c0c0c0" stroke="#c0c0c0" stroke-width="2" points="1280.6307,-188.024 1287.7337,-180.1628 1277.2787,-181.8788 1280.6307,-188.024"/>
</g>
<!-- 20 -->
<g id="node21" class="node">
<title>20</title>
<path fill="none" stroke="#56d89a" stroke-width="2" d="M1527.0322,-180C1527.0322,-180 1401.0322,-180 1401.0322,-180 1395.0322,-180 1389.0322,-174 1389.0322,-168 1389.0322,-168 1389.0322,-156 1389.0322,-156 1389.0322,-150 1395.0322,-144 1401.0322,-144 1401.0322,-144 1527.0322,-144 1527.0322,-144 1533.0322,-144 1539.0322,-150 1539.0322,-156 1539.0322,-156 1539.0322,-168 1539.0322,-168 1539.0322,-174 1533.0322,-180 1527.0322,-180"/>
<text text-anchor="middle" x="1464.0322" y="-165" font-family="sans" font-size="10.00" fill="#000000">fastqc_trim</text>
<text text-anchor="middle" x="1464.0322" y="-154" font-family="sans" font-size="10.00" fill="#000000">read_type_trim: collapsedtrunc</text>
</g>
<!-- 10&#45;&gt;20 -->
<g id="edge36" class="edge">
<title>10&#45;&gt;20</title>
<path fill="none" stroke="#c0c0c0" stroke-width="2" d="M1252.1228,-217.4817C1291.6964,-207.1207 1343.0375,-193.6786 1385.2727,-182.6207"/>
<polygon fill="#c0c0c0" stroke="#c0c0c0" stroke-width="2" points="1386.1793,-186.0014 1394.9667,-180.0826 1384.4063,-179.2296 1386.1793,-186.0014"/>
</g>
<!-- 21 -->
<g id="node22" class="node">
<title>21</title>
<path fill="none" stroke="#56d89a" stroke-width="2" d="M913.0322,-180C913.0322,-180 837.0322,-180 837.0322,-180 831.0322,-180 825.0322,-174 825.0322,-168 825.0322,-168 825.0322,-156 825.0322,-156 825.0322,-150 831.0322,-144 837.0322,-144 837.0322,-144 913.0322,-144 913.0322,-144 919.0322,-144 925.0322,-150 925.0322,-156 925.0322,-156 925.0322,-168 925.0322,-168 925.0322,-174 919.0322,-180 913.0322,-180"/>
<text text-anchor="middle" x="875.0322" y="-165" font-family="sans" font-size="10.00" fill="#000000">fastqc_trim</text>
<text text-anchor="middle" x="875.0322" y="-154" font-family="sans" font-size="10.00" fill="#000000">read_type_trim: R1</text>
</g>
<!-- 10&#45;&gt;21 -->
<g id="edge37" class="edge">
<title>10&#45;&gt;21</title>
<path fill="none" stroke="#c0c0c0" stroke-width="2" d="M1125.8544,-221.4723C1075.161,-211.1514 1002.2732,-195.7075 939.0322,-180 937.772,-179.687 936.499,-179.3667 935.2167,-179.0405"/>
<polygon fill="#c0c0c0" stroke="#c0c0c0" stroke-width="2" points="935.8231,-175.5816 925.2633,-176.4421 934.0549,-182.3546 935.8231,-175.5816"/>
</g>
<!-- 11&#45;&gt;0 -->
<g id="edge3" class="edge">
<title>11&#45;&gt;0</title>
<path fill="none" stroke="#c0c0c0" stroke-width="2" d="M184.9252,-228.5911C121.4095,-221.6844 29.8095,-207.2216 8.0322,-180 -1.9629,-167.5061 -2.3278,-156.1931 8.0322,-144 56.3781,-87.0999 592.6085,-34.7486 740.4717,-21.3173"/>
<polygon fill="#c0c0c0" stroke="#c0c0c0" stroke-width="2" points="741.1843,-24.7673 750.8292,-20.3826 740.5551,-17.7956 741.1843,-24.7673"/>
</g>
<!-- 11&#45;&gt;1 -->
<g id="edge9" class="edge">
<title>11&#45;&gt;1</title>
<path fill="none" stroke="#c0c0c0" stroke-width="2" d="M203.0533,-215.9855C187.8582,-207.4759 172.589,-195.6732 164.0322,-180 156.3652,-165.9566 153.2255,-155.7989 164.0322,-144 203.0925,-101.3537 614.0009,-92.2257 740.9095,-90.4177"/>
<polygon fill="#c0c0c0" stroke="#c0c0c0" stroke-width="2" points="740.9731,-93.9173 750.9247,-90.282 740.8782,-86.9179 740.9731,-93.9173"/>
</g>
<!-- 12 -->
<g id="node13" class="node">
<title>12</title>
<path fill="none" stroke="#56d89a" stroke-width="2" d="M311.0322,-180C311.0322,-180 185.0322,-180 185.0322,-180 179.0322,-180 173.0322,-174 173.0322,-168 173.0322,-168 173.0322,-156 173.0322,-156 173.0322,-150 179.0322,-144 185.0322,-144 185.0322,-144 311.0322,-144 311.0322,-144 317.0322,-144 323.0322,-150 323.0322,-156 323.0322,-156 323.0322,-168 323.0322,-168 323.0322,-174 317.0322,-180 311.0322,-180"/>
<text text-anchor="middle" x="248.0322" y="-165" font-family="sans" font-size="10.00" fill="#000000">fastqc_trim</text>
<text text-anchor="middle" x="248.0322" y="-154" font-family="sans" font-size="10.00" fill="#000000">read_type_trim: collapsedtrunc</text>
</g>
<!-- 11&#45;&gt;12 -->
<g id="edge28" class="edge">
<title>11&#45;&gt;12</title>
<path fill="none" stroke="#c0c0c0" stroke-width="2" d="M248.0322,-215.8314C248.0322,-208.131 248.0322,-198.9743 248.0322,-190.4166"/>
<polygon fill="#c0c0c0" stroke="#c0c0c0" stroke-width="2" points="251.5323,-190.4132 248.0322,-180.4133 244.5323,-190.4133 251.5323,-190.4132"/>
</g>
<!-- 14 -->
<g id="node15" class="node">
<title>14</title>
<path fill="none" stroke="#56d89a" stroke-width="2" d="M457.0322,-180C457.0322,-180 353.0322,-180 353.0322,-180 347.0322,-180 341.0322,-174 341.0322,-168 341.0322,-168 341.0322,-156 341.0322,-156 341.0322,-150 347.0322,-144 353.0322,-144 353.0322,-144 457.0322,-144 457.0322,-144 463.0322,-144 469.0322,-150 469.0322,-156 469.0322,-156 469.0322,-168 469.0322,-168 469.0322,-174 463.0322,-180 457.0322,-180"/>
<text text-anchor="middle" x="405.0322" y="-165" font-family="sans" font-size="10.00" fill="#000000">fastqc_trim</text>
<text text-anchor="middle" x="405.0322" y="-154" font-family="sans" font-size="10.00" fill="#000000">read_type_trim: collapsed</text>
</g>
<!-- 11&#45;&gt;14 -->
<g id="edge30" class="edge">
<title>11&#45;&gt;14</title>
<path fill="none" stroke="#c0c0c0" stroke-width="2" d="M287.6499,-215.8314C308.5544,-206.2446 334.3806,-194.4008 356.481,-184.2655"/>
<polygon fill="#c0c0c0" stroke="#c0c0c0" stroke-width="2" points="358.0686,-187.388 365.6994,-180.038 355.1506,-181.0252 358.0686,-187.388"/>
</g>
<!-- 17 -->
<g id="node18" class="node">
<title>17</title>
<path fill="none" stroke="#56d89a" stroke-width="2" d="M575.0322,-180C575.0322,-180 499.0322,-180 499.0322,-180 493.0322,-180 487.0322,-174 487.0322,-168 487.0322,-168 487.0322,-156 487.0322,-156 487.0322,-150 493.0322,-144 499.0322,-144 499.0322,-144 575.0322,-144 575.0322,-144 581.0322,-144 587.0322,-150 587.0322,-156 587.0322,-156 587.0322,-168 587.0322,-168 587.0322,-174 581.0322,-180 575.0322,-180"/>
<text text-anchor="middle" x="537.0322" y="-165" font-family="sans" font-size="10.00" fill="#000000">fastqc_trim</text>
<text text-anchor="middle" x="537.0322" y="-154" font-family="sans" font-size="10.00" fill="#000000">read_type_trim: R1</text>
</g>
<!-- 11&#45;&gt;17 -->
<g id="edge33" class="edge">
<title>11&#45;&gt;17</title>
<path fill="none" stroke="#c0c0c0" stroke-width="2" d="M311.2763,-220.3231C355.2826,-210.5367 415.5052,-196.6107 477.0056,-180.1987"/>
<polygon fill="#c0c0c0" stroke="#c0c0c0" stroke-width="2" points="478.1359,-183.5192 486.8847,-177.5435 476.319,-176.7591 478.1359,-183.5192"/>
</g>
<!-- 18 -->
<g id="node19" class="node">
<title>18</title>
<path fill="none" stroke="#56d89a" stroke-width="2" d="M719.0322,-180C719.0322,-180 617.0322,-180 617.0322,-180 611.0322,-180 605.0322,-174 605.0322,-168 605.0322,-168 605.0322,-156 605.0322,-156 605.0322,-150 611.0322,-144 617.0322,-144 617.0322,-144 719.0322,-144 719.0322,-144 725.0322,-144 731.0322,-150 731.0322,-156 731.0322,-156 731.0322,-168 731.0322,-168 731.0322,-174 725.0322,-180 719.0322,-180"/>
<text text-anchor="middle" x="668.0322" y="-165" font-family="sans" font-size="10.00" fill="#000000">fastqc_trim</text>
<text text-anchor="middle" x="668.0322" y="-154" font-family="sans" font-size="10.00" fill="#000000">read_type_trim: singleton</text>
</g>
<!-- 11&#45;&gt;18 -->
<g id="edge34" class="edge">
<title>11&#45;&gt;18</title>
<path fill="none" stroke="#c0c0c0" stroke-width="2" d="M311.2052,-225.9581C379.0501,-216.9254 490.1715,-200.9903 595.084,-180.1017"/>
<polygon fill="#c0c0c0" stroke="#c0c0c0" stroke-width="2" points="595.7757,-183.5328 604.89,-178.131 594.3964,-176.67 595.7757,-183.5328"/>
</g>
<!-- 19 -->
<g id="node20" class="node">
<title>19</title>
<path fill="none" stroke="#56d89a" stroke-width="2" d="M105.0322,-180C105.0322,-180 29.0322,-180 29.0322,-180 23.0322,-180 17.0322,-174 17.0322,-168 17.0322,-168 17.0322,-156 17.0322,-156 17.0322,-150 23.0322,-144 29.0322,-144 29.0322,-144 105.0322,-144 105.0322,-144 111.0322,-144 117.0322,-150 117.0322,-156 117.0322,-156 117.0322,-168 117.0322,-168 117.0322,-174 111.0322,-180 105.0322,-180"/>
<text text-anchor="middle" x="67.0322" y="-165" font-family="sans" font-size="10.00" fill="#000000">fastqc_trim</text>
<text text-anchor="middle" x="67.0322" y="-154" font-family="sans" font-size="10.00" fill="#000000">read_type_trim: R2</text>
</g>
<!-- 11&#45;&gt;19 -->
<g id="edge35" class="edge">
<title>11&#45;&gt;19</title>
<path fill="none" stroke="#c0c0c0" stroke-width="2" d="M202.3583,-215.8314C177.9354,-206.1162 147.6856,-194.0831 121.9839,-183.8592"/>
<polygon fill="#c0c0c0" stroke="#c0c0c0" stroke-width="2" points="122.9633,-180.4821 112.3777,-180.038 120.3759,-186.9864 122.9633,-180.4821"/>
</g>
<!-- 12&#45;&gt;1 -->
<g id="edge10" class="edge">
<title>12&#45;&gt;1</title>
<path fill="none" stroke="#c0c0c0" stroke-width="2" d="M323.0735,-145.5675C326.0953,-145.0175 329.0902,-144.4923 332.0322,-144 482.8312,-118.7672 664.2006,-100.5146 740.8999,-93.3476"/>
<polygon fill="#c0c0c0" stroke="#c0c0c0" stroke-width="2" points="741.3795,-96.8182 751.0138,-92.4103 740.7334,-89.8481 741.3795,-96.8182"/>
</g>
<!-- 13&#45;&gt;1 -->
<g id="edge11" class="edge">
<title>13&#45;&gt;1</title>
<path fill="none" stroke="#c0c0c0" stroke-width="2" d="M980.9939,-144.937C929.2222,-130.9236 857.6787,-111.5585 814.817,-99.9568"/>
<polygon fill="#c0c0c0" stroke="#c0c0c0" stroke-width="2" points="815.6536,-96.5573 805.0865,-97.323 813.8246,-103.3142 815.6536,-96.5573"/>
</g>
<!-- 14&#45;&gt;1 -->
<g id="edge12" class="edge">
<title>14&#45;&gt;1</title>
<path fill="none" stroke="#c0c0c0" stroke-width="2" d="M469.0731,-145.9645C472.0979,-145.2841 475.0959,-144.6256 478.0322,-144 572.3168,-123.9116 684.3209,-105.0698 741.0878,-95.872"/>
<polygon fill="#c0c0c0" stroke="#c0c0c0" stroke-width="2" points="741.7129,-99.3165 751.0279,-94.2687 740.5981,-92.4058 741.7129,-99.3165"/>
</g>
<!-- 15&#45;&gt;1 -->
<g id="edge13" class="edge">
<title>15&#45;&gt;1</title>
<path fill="none" stroke="#c0c0c0" stroke-width="2" d="M1125.0062,-145.8927C1121.9774,-145.2315 1118.9746,-144.5967 1116.0322,-144 1007.5755,-122.0047 878.0491,-103.4345 815.5003,-94.9458"/>
<polygon fill="#c0c0c0" stroke="#c0c0c0" stroke-width="2" points="815.7123,-91.4428 805.3343,-93.575 814.7769,-98.38 815.7123,-91.4428"/>
</g>
<!-- 16&#45;&gt;1 -->
<g id="edge14" class="edge">
<title>16&#45;&gt;1</title>
<path fill="none" stroke="#c0c0c0" stroke-width="2" d="M1270.9833,-146.0418C1267.9689,-145.2954 1264.9688,-144.6063 1262.0322,-144 1097.5996,-110.0489 897.032,-96.2769 815.3362,-91.8071"/>
<polygon fill="#c0c0c0" stroke="#c0c0c0" stroke-width="2" points="815.2371,-88.2969 805.0651,-91.2603 814.8649,-95.287 815.2371,-88.2969"/>
</g>
<!-- 17&#45;&gt;1 -->
<g id="edge15" class="edge">
<title>17&#45;&gt;1</title>
<path fill="none" stroke="#c0c0c0" stroke-width="2" d="M587.2363,-146.6548C590.2117,-145.7543 593.1608,-144.864 596.0322,-144 646.2289,-128.8963 704.3028,-111.7166 741.0908,-100.8702"/>
<polygon fill="#c0c0c0" stroke="#c0c0c0" stroke-width="2" points="742.2755,-104.17 750.8783,-97.9859 740.2967,-97.4555 742.2755,-104.17"/>
</g>
<!-- 18&#45;&gt;1 -->
<g id="edge16" class="edge">
<title>18&#45;&gt;1</title>
<path fill="none" stroke="#c0c0c0" stroke-width="2" d="M695.7899,-143.8314C709.8357,-134.6377 727.0527,-123.3684 742.0977,-113.5208"/>
<polygon fill="#c0c0c0" stroke="#c0c0c0" stroke-width="2" points="744.2143,-116.3185 750.6645,-107.9134 740.3807,-110.4616 744.2143,-116.3185"/>
</g>
<!-- 19&#45;&gt;1 -->
<g id="edge17" class="edge">
<title>19&#45;&gt;1</title>
<path fill="none" stroke="#c0c0c0" stroke-width="2" d="M117.1296,-146.9339C121.8028,-145.8244 126.4889,-144.8207 131.0322,-144 360.3269,-102.5789 641.186,-92.8419 740.824,-90.628"/>
<polygon fill="#c0c0c0" stroke="#c0c0c0" stroke-width="2" points="741.0582,-94.124 750.9826,-90.4148 740.9113,-87.1255 741.0582,-94.124"/>
</g>
<!-- 20&#45;&gt;1 -->
<g id="edge18" class="edge">
<title>20&#45;&gt;1</title>
<path fill="none" stroke="#c0c0c0" stroke-width="2" d="M1389.0095,-145.451C1385.9826,-144.9332 1382.9815,-144.4466 1380.0322,-144 1167.7431,-111.8554 910.2271,-96.5982 815.4002,-91.7683"/>
<polygon fill="#c0c0c0" stroke="#c0c0c0" stroke-width="2" points="815.3359,-88.2608 805.1733,-91.2559 814.9856,-95.252 815.3359,-88.2608"/>
</g>
<!-- 21&#45;&gt;1 -->
<g id="edge19" class="edge">
<title>21&#45;&gt;1</title>
<path fill="none" stroke="#c0c0c0" stroke-width="2" d="M850.555,-143.8314C838.4928,-134.8779 823.7783,-123.9558 810.7636,-114.2955"/>
<polygon fill="#c0c0c0" stroke="#c0c0c0" stroke-width="2" points="812.6174,-111.3127 802.5016,-108.1628 808.4452,-116.9335 812.6174,-111.3127"/>
</g>
</g>
</svg>
