<?xml version="1.0" encoding="UTF-8" standalone="no"?>
<!DOCTYPE svg PUBLIC "-//W3C//DTD SVG 1.1//EN"
 "http://www.w3.org/Graphics/SVG/1.1/DTD/svg11.dtd">
<!-- Generated by graphviz version 2.40.1 (0)
 -->
<!-- Title: snakemake_dag Pages: 1 -->
<svg width="3238pt" height="359pt"
 viewBox="0.00 0.00 3238.37 359.00" xmlns="http://www.w3.org/2000/svg" xmlns:xlink="http://www.w3.org/1999/xlink">
<g id="graph0" class="graph" transform="scale(1 1) rotate(0) translate(4 355)">
<title>snakemake_dag</title>
<polygon fill="#ffffff" stroke="transparent" points="-4,4 -4,-355 3234.3717,-355 3234.3717,4 -4,4"/>
<!-- 0 -->
<g id="node1" class="node">
<title>0</title>
<path fill="none" stroke="#97d856" stroke-width="2" d="M1621.4553,-36C1621.4553,-36 1591.4553,-36 1591.4553,-36 1585.4553,-36 1579.4553,-30 1579.4553,-24 1579.4553,-24 1579.4553,-12 1579.4553,-12 1579.4553,-6 1585.4553,0 1591.4553,0 1591.4553,0 1621.4553,0 1621.4553,0 1627.4553,0 1633.4553,-6 1633.4553,-12 1633.4553,-12 1633.4553,-24 1633.4553,-24 1633.4553,-30 1627.4553,-36 1621.4553,-36"/>
<text text-anchor="middle" x="1606.4553" y="-15.5" font-family="sans" font-size="10.00" fill="#000000">all</text>
</g>
<!-- 1 -->
<g id="node2" class="node">
<title>1</title>
<path fill="none" stroke="#569ad8" stroke-width="2" d="M1621.4553,-108C1621.4553,-108 1591.4553,-108 1591.4553,-108 1585.4553,-108 1579.4553,-102 1579.4553,-96 1579.4553,-96 1579.4553,-84 1579.4553,-84 1579.4553,-78 1585.4553,-72 1591.4553,-72 1591.4553,-72 1621.4553,-72 1621.4553,-72 1627.4553,-72 1633.4553,-78 1633.4553,-84 1633.4553,-84 1633.4553,-96 1633.4553,-96 1633.4553,-102 1627.4553,-108 1621.4553,-108"/>
<text text-anchor="middle" x="1606.4553" y="-87.5" font-family="sans" font-size="10.00" fill="#000000">multiqc</text>
</g>
<!-- 1&#45;&gt;0 -->
<g id="edge1" class="edge">
<title>1&#45;&gt;0</title>
<path fill="none" stroke="#c0c0c0" stroke-width="2" d="M1606.4553,-71.8314C1606.4553,-64.131 1606.4553,-54.9743 1606.4553,-46.4166"/>
<polygon fill="#c0c0c0" stroke="#c0c0c0" stroke-width="2" points="1609.9554,-46.4132 1606.4553,-36.4133 1602.9554,-46.4133 1609.9554,-46.4132"/>
</g>
<!-- 2 -->
<g id="node3" class="node">
<title>2</title>
<path fill="none" stroke="#59d856" stroke-width="2" d="M57.9553,-252C57.9553,-252 16.9553,-252 16.9553,-252 10.9553,-252 4.9553,-246 4.9553,-240 4.9553,-240 4.9553,-228 4.9553,-228 4.9553,-222 10.9553,-216 16.9553,-216 16.9553,-216 57.9553,-216 57.9553,-216 63.9553,-216 69.9553,-222 69.9553,-228 69.9553,-228 69.9553,-240 69.9553,-240 69.9553,-246 63.9553,-252 57.9553,-252"/>
<text text-anchor="middle" x="37.4553" y="-231.5" font-family="sans" font-size="10.00" fill="#000000">fastqc_raw</text>
</g>
<!-- 2&#45;&gt;1 -->
<g id="edge6" class="edge">
<title>2&#45;&gt;1</title>
<path fill="none" stroke="#c0c0c0" stroke-width="2" d="M23.6664,-215.9901C10.0065,-195.8383 -6.3674,-163.4712 12.4553,-144 40.4122,-115.08 1331.5703,-94.1608 1569.1108,-90.5536"/>
<polygon fill="#c0c0c0" stroke="#c0c0c0" stroke-width="2" points="1569.3623,-94.0503 1579.3082,-90.3996 1569.2565,-87.0511 1569.3623,-94.0503"/>
</g>
<!-- 3 -->
<g id="node4" class="node">
<title>3</title>
<path fill="none" stroke="#56d8d8" stroke-width="2" d="M234.9553,-351C234.9553,-351 139.9553,-351 139.9553,-351 133.9553,-351 127.9553,-345 127.9553,-339 127.9553,-339 127.9553,-300 127.9553,-300 127.9553,-294 133.9553,-288 139.9553,-288 139.9553,-288 234.9553,-288 234.9553,-288 240.9553,-288 246.9553,-294 246.9553,-300 246.9553,-300 246.9553,-339 246.9553,-339 246.9553,-345 240.9553,-351 234.9553,-351"/>
<text text-anchor="middle" x="187.4553" y="-339" font-family="sans" font-size="10.00" fill="#000000">get_fastq_raw</text>
<text text-anchor="middle" x="187.4553" y="-328" font-family="sans" font-size="10.00" fill="#000000">lane: L001</text>
<text text-anchor="middle" x="187.4553" y="-317" font-family="sans" font-size="10.00" fill="#000000">library: lib1</text>
<text text-anchor="middle" x="187.4553" y="-306" font-family="sans" font-size="10.00" fill="#000000">read_type_raw: R1</text>
<text text-anchor="middle" x="187.4553" y="-295" font-family="sans" font-size="10.00" fill="#000000">sample: HD827sonic_2</text>
</g>
<!-- 3&#45;&gt;2 -->
<g id="edge38" class="edge">
<title>3&#45;&gt;2</title>
<path fill="none" stroke="#c0c0c0" stroke-width="2" d="M132.027,-287.9059C114.1414,-277.7111 94.6591,-266.6062 78.0505,-257.1393"/>
<polygon fill="#c0c0c0" stroke="#c0c0c0" stroke-width="2" points="79.5686,-253.9759 69.1476,-252.0646 76.1021,-260.0574 79.5686,-253.9759"/>
</g>
<!-- 21 -->
<g id="node22" class="node">
<title>21</title>
<path fill="none" stroke="#d85656" stroke-width="2" d="M306.4553,-252C306.4553,-252 204.4553,-252 204.4553,-252 198.4553,-252 192.4553,-246 192.4553,-240 192.4553,-240 192.4553,-228 192.4553,-228 192.4553,-222 198.4553,-216 204.4553,-216 204.4553,-216 306.4553,-216 306.4553,-216 312.4553,-216 318.4553,-222 318.4553,-228 318.4553,-228 318.4553,-240 318.4553,-240 318.4553,-246 312.4553,-252 306.4553,-252"/>
<text text-anchor="middle" x="255.4553" y="-231.5" font-family="sans" font-size="10.00" fill="#000000">adapterremoval_fastq_pe</text>
</g>
<!-- 3&#45;&gt;21 -->
<g id="edge52" class="edge">
<title>3&#45;&gt;21</title>
<path fill="none" stroke="#c0c0c0" stroke-width="2" d="M212.776,-287.663C219.9871,-278.5961 227.7564,-268.8273 234.6643,-260.1417"/>
<polygon fill="#c0c0c0" stroke="#c0c0c0" stroke-width="2" points="237.4917,-262.2095 240.977,-252.2043 232.0131,-257.8522 237.4917,-262.2095"/>
</g>
<!-- 4 -->
<g id="node5" class="node">
<title>4</title>
<path fill="none" stroke="#59d856" stroke-width="2" d="M918.9553,-252C918.9553,-252 877.9553,-252 877.9553,-252 871.9553,-252 865.9553,-246 865.9553,-240 865.9553,-240 865.9553,-228 865.9553,-228 865.9553,-222 871.9553,-216 877.9553,-216 877.9553,-216 918.9553,-216 918.9553,-216 924.9553,-216 930.9553,-222 930.9553,-228 930.9553,-228 930.9553,-240 930.9553,-240 930.9553,-246 924.9553,-252 918.9553,-252"/>
<text text-anchor="middle" x="898.4553" y="-231.5" font-family="sans" font-size="10.00" fill="#000000">fastqc_raw</text>
</g>
<!-- 4&#45;&gt;1 -->
<g id="edge7" class="edge">
<title>4&#45;&gt;1</title>
<path fill="none" stroke="#c0c0c0" stroke-width="2" d="M880.2387,-215.7356C862.6903,-195.9552 841.3946,-164.4903 860.4553,-144 884.8305,-117.7966 1420.5778,-96.6736 1568.7683,-91.3167"/>
<polygon fill="#c0c0c0" stroke="#c0c0c0" stroke-width="2" points="1569.2834,-94.8006 1579.1515,-90.9444 1569.0325,-87.8051 1569.2834,-94.8006"/>
</g>
<!-- 5 -->
<g id="node6" class="node">
<title>5</title>
<path fill="none" stroke="#56d8d8" stroke-width="2" d="M997.9553,-351C997.9553,-351 902.9553,-351 902.9553,-351 896.9553,-351 890.9553,-345 890.9553,-339 890.9553,-339 890.9553,-300 890.9553,-300 890.9553,-294 896.9553,-288 902.9553,-288 902.9553,-288 997.9553,-288 997.9553,-288 1003.9553,-288 1009.9553,-294 1009.9553,-300 1009.9553,-300 1009.9553,-339 1009.9553,-339 1009.9553,-345 1003.9553,-351 997.9553,-351"/>
<text text-anchor="middle" x="950.4553" y="-339" font-family="sans" font-size="10.00" fill="#000000">get_fastq_raw</text>
<text text-anchor="middle" x="950.4553" y="-328" font-family="sans" font-size="10.00" fill="#000000">lane: L001</text>
<text text-anchor="middle" x="950.4553" y="-317" font-family="sans" font-size="10.00" fill="#000000">library: lib1</text>
<text text-anchor="middle" x="950.4553" y="-306" font-family="sans" font-size="10.00" fill="#000000">read_type_raw: R2</text>
<text text-anchor="middle" x="950.4553" y="-295" font-family="sans" font-size="10.00" fill="#000000">sample: HD827sonic_1</text>
</g>
<!-- 5&#45;&gt;4 -->
<g id="edge39" class="edge">
<title>5&#45;&gt;4</title>
<path fill="none" stroke="#c0c0c0" stroke-width="2" d="M931.0924,-287.663C925.7486,-278.8765 920.0039,-269.4309 914.8463,-260.9506"/>
<polygon fill="#c0c0c0" stroke="#c0c0c0" stroke-width="2" points="917.7136,-258.9295 909.5269,-252.2043 911.7329,-262.5669 917.7136,-258.9295"/>
</g>
<!-- 20 -->
<g id="node21" class="node">
<title>20</title>
<path fill="none" stroke="#d85656" stroke-width="2" d="M1130.4553,-252C1130.4553,-252 1028.4553,-252 1028.4553,-252 1022.4553,-252 1016.4553,-246 1016.4553,-240 1016.4553,-240 1016.4553,-228 1016.4553,-228 1016.4553,-222 1022.4553,-216 1028.4553,-216 1028.4553,-216 1130.4553,-216 1130.4553,-216 1136.4553,-216 1142.4553,-222 1142.4553,-228 1142.4553,-228 1142.4553,-240 1142.4553,-240 1142.4553,-246 1136.4553,-252 1130.4553,-252"/>
<text text-anchor="middle" x="1079.4553" y="-231.5" font-family="sans" font-size="10.00" fill="#000000">adapterremoval_fastq_pe</text>
</g>
<!-- 5&#45;&gt;20 -->
<g id="edge51" class="edge">
<title>5&#45;&gt;20</title>
<path fill="none" stroke="#c0c0c0" stroke-width="2" d="M998.1236,-287.9059C1013.2204,-277.8999 1029.64,-267.0171 1043.7474,-257.6669"/>
<polygon fill="#c0c0c0" stroke="#c0c0c0" stroke-width="2" points="1045.7982,-260.5066 1052.2,-252.0646 1041.9309,-254.6719 1045.7982,-260.5066"/>
</g>
<!-- 6 -->
<g id="node7" class="node">
<title>6</title>
<path fill="none" stroke="#59d856" stroke-width="2" d="M1841.9553,-252C1841.9553,-252 1800.9553,-252 1800.9553,-252 1794.9553,-252 1788.9553,-246 1788.9553,-240 1788.9553,-240 1788.9553,-228 1788.9553,-228 1788.9553,-222 1794.9553,-216 1800.9553,-216 1800.9553,-216 1841.9553,-216 1841.9553,-216 1847.9553,-216 1853.9553,-222 1853.9553,-228 1853.9553,-228 1853.9553,-240 1853.9553,-240 1853.9553,-246 1847.9553,-252 1841.9553,-252"/>
<text text-anchor="middle" x="1821.4553" y="-231.5" font-family="sans" font-size="10.00" fill="#000000">fastqc_raw</text>
</g>
<!-- 6&#45;&gt;1 -->
<g id="edge8" class="edge">
<title>6&#45;&gt;1</title>
<path fill="none" stroke="#c0c0c0" stroke-width="2" d="M1788.8451,-227.5086C1743.8386,-217.9836 1665.811,-199.2543 1644.4553,-180 1626.5414,-163.8488 1616.8037,-137.8686 1611.6864,-117.9638"/>
<polygon fill="#c0c0c0" stroke="#c0c0c0" stroke-width="2" points="1615.0881,-117.1393 1609.4127,-108.1929 1608.2703,-118.7259 1615.0881,-117.1393"/>
</g>
<!-- 7 -->
<g id="node8" class="node">
<title>7</title>
<path fill="none" stroke="#56d8d8" stroke-width="2" d="M1979.9553,-351C1979.9553,-351 1884.9553,-351 1884.9553,-351 1878.9553,-351 1872.9553,-345 1872.9553,-339 1872.9553,-339 1872.9553,-300 1872.9553,-300 1872.9553,-294 1878.9553,-288 1884.9553,-288 1884.9553,-288 1979.9553,-288 1979.9553,-288 1985.9553,-288 1991.9553,-294 1991.9553,-300 1991.9553,-300 1991.9553,-339 1991.9553,-339 1991.9553,-345 1985.9553,-351 1979.9553,-351"/>
<text text-anchor="middle" x="1932.4553" y="-339" font-family="sans" font-size="10.00" fill="#000000">get_fastq_raw</text>
<text text-anchor="middle" x="1932.4553" y="-328" font-family="sans" font-size="10.00" fill="#000000">lane: L002</text>
<text text-anchor="middle" x="1932.4553" y="-317" font-family="sans" font-size="10.00" fill="#000000">library: lib1</text>
<text text-anchor="middle" x="1932.4553" y="-306" font-family="sans" font-size="10.00" fill="#000000">read_type_raw: R1</text>
<text text-anchor="middle" x="1932.4553" y="-295" font-family="sans" font-size="10.00" fill="#000000">sample: HD827sonic_1</text>
</g>
<!-- 7&#45;&gt;6 -->
<g id="edge40" class="edge">
<title>7&#45;&gt;6</title>
<path fill="none" stroke="#c0c0c0" stroke-width="2" d="M1891.4384,-287.9059C1878.6932,-278.0886 1864.8524,-267.4275 1852.8699,-258.1978"/>
<polygon fill="#c0c0c0" stroke="#c0c0c0" stroke-width="2" points="1854.9657,-255.3941 1844.9076,-252.0646 1850.694,-260.9397 1854.9657,-255.3941"/>
</g>
<!-- 19 -->
<g id="node20" class="node">
<title>19</title>
<path fill="none" stroke="#d85656" stroke-width="2" d="M2212.4553,-252C2212.4553,-252 2110.4553,-252 2110.4553,-252 2104.4553,-252 2098.4553,-246 2098.4553,-240 2098.4553,-240 2098.4553,-228 2098.4553,-228 2098.4553,-222 2104.4553,-216 2110.4553,-216 2110.4553,-216 2212.4553,-216 2212.4553,-216 2218.4553,-216 2224.4553,-222 2224.4553,-228 2224.4553,-228 2224.4553,-240 2224.4553,-240 2224.4553,-246 2218.4553,-252 2212.4553,-252"/>
<text text-anchor="middle" x="2161.4553" y="-231.5" font-family="sans" font-size="10.00" fill="#000000">adapterremoval_fastq_pe</text>
</g>
<!-- 7&#45;&gt;19 -->
<g id="edge48" class="edge">
<title>7&#45;&gt;19</title>
<path fill="none" stroke="#c0c0c0" stroke-width="2" d="M1992.0246,-297.2591C2026.2796,-284.4695 2069.131,-268.4704 2103.1682,-255.7622"/>
<polygon fill="#c0c0c0" stroke="#c0c0c0" stroke-width="2" points="2104.8293,-258.8781 2112.9734,-252.1013 2102.3809,-252.3202 2104.8293,-258.8781"/>
</g>
<!-- 8 -->
<g id="node9" class="node">
<title>8</title>
<path fill="none" stroke="#59d856" stroke-width="2" d="M1410.9553,-252C1410.9553,-252 1369.9553,-252 1369.9553,-252 1363.9553,-252 1357.9553,-246 1357.9553,-240 1357.9553,-240 1357.9553,-228 1357.9553,-228 1357.9553,-222 1363.9553,-216 1369.9553,-216 1369.9553,-216 1410.9553,-216 1410.9553,-216 1416.9553,-216 1422.9553,-222 1422.9553,-228 1422.9553,-228 1422.9553,-240 1422.9553,-240 1422.9553,-246 1416.9553,-252 1410.9553,-252"/>
<text text-anchor="middle" x="1390.4553" y="-231.5" font-family="sans" font-size="10.00" fill="#000000">fastqc_raw</text>
</g>
<!-- 8&#45;&gt;1 -->
<g id="edge9" class="edge">
<title>8&#45;&gt;1</title>
<path fill="none" stroke="#c0c0c0" stroke-width="2" d="M1423.2485,-227.531C1468.5075,-218.0334 1546.974,-199.337 1568.4553,-180 1586.3819,-163.8629 1596.1182,-137.8811 1601.2317,-117.9721"/>
<polygon fill="#c0c0c0" stroke="#c0c0c0" stroke-width="2" points="1604.6484,-118.7316 1603.5033,-108.1988 1597.8302,-117.1468 1604.6484,-118.7316"/>
</g>
<!-- 9 -->
<g id="node10" class="node">
<title>9</title>
<path fill="none" stroke="#56d8d8" stroke-width="2" d="M1193.9553,-351C1193.9553,-351 1098.9553,-351 1098.9553,-351 1092.9553,-351 1086.9553,-345 1086.9553,-339 1086.9553,-339 1086.9553,-300 1086.9553,-300 1086.9553,-294 1092.9553,-288 1098.9553,-288 1098.9553,-288 1193.9553,-288 1193.9553,-288 1199.9553,-288 1205.9553,-294 1205.9553,-300 1205.9553,-300 1205.9553,-339 1205.9553,-339 1205.9553,-345 1199.9553,-351 1193.9553,-351"/>
<text text-anchor="middle" x="1146.4553" y="-339" font-family="sans" font-size="10.00" fill="#000000">get_fastq_raw</text>
<text text-anchor="middle" x="1146.4553" y="-328" font-family="sans" font-size="10.00" fill="#000000">lane: L001</text>
<text text-anchor="middle" x="1146.4553" y="-317" font-family="sans" font-size="10.00" fill="#000000">library: lib1</text>
<text text-anchor="middle" x="1146.4553" y="-306" font-family="sans" font-size="10.00" fill="#000000">read_type_raw: R1</text>
<text text-anchor="middle" x="1146.4553" y="-295" font-family="sans" font-size="10.00" fill="#000000">sample: HD827sonic_1</text>
</g>
<!-- 9&#45;&gt;8 -->
<g id="edge41" class="edge">
<title>9&#45;&gt;8</title>
<path fill="none" stroke="#c0c0c0" stroke-width="2" d="M1206.1444,-298.5843C1250.2359,-283.1343 1309.1701,-262.4831 1348.4006,-248.7364"/>
<polygon fill="#c0c0c0" stroke="#c0c0c0" stroke-width="2" points="1349.6489,-252.0077 1357.9289,-245.3976 1347.334,-245.4015 1349.6489,-252.0077"/>
</g>
<!-- 9&#45;&gt;20 -->
<g id="edge50" class="edge">
<title>9&#45;&gt;20</title>
<path fill="none" stroke="#c0c0c0" stroke-width="2" d="M1121.507,-287.663C1114.402,-278.5961 1106.7469,-268.8273 1099.9406,-260.1417"/>
<polygon fill="#c0c0c0" stroke="#c0c0c0" stroke-width="2" points="1102.6437,-257.9166 1093.7207,-252.2043 1097.1338,-262.2343 1102.6437,-257.9166"/>
</g>
<!-- 10 -->
<g id="node11" class="node">
<title>10</title>
<path fill="none" stroke="#59d856" stroke-width="2" d="M2541.9553,-252C2541.9553,-252 2500.9553,-252 2500.9553,-252 2494.9553,-252 2488.9553,-246 2488.9553,-240 2488.9553,-240 2488.9553,-228 2488.9553,-228 2488.9553,-222 2494.9553,-216 2500.9553,-216 2500.9553,-216 2541.9553,-216 2541.9553,-216 2547.9553,-216 2553.9553,-222 2553.9553,-228 2553.9553,-228 2553.9553,-240 2553.9553,-240 2553.9553,-246 2547.9553,-252 2541.9553,-252"/>
<text text-anchor="middle" x="2521.4553" y="-231.5" font-family="sans" font-size="10.00" fill="#000000">fastqc_raw</text>
</g>
<!-- 10&#45;&gt;1 -->
<g id="edge10" class="edge">
<title>10&#45;&gt;1</title>
<path fill="none" stroke="#c0c0c0" stroke-width="2" d="M2503.8378,-215.9525C2481.562,-194.4561 2440.9608,-159.5101 2398.4553,-144 2327.0911,-117.9595 1791.173,-96.7188 1643.8395,-91.3261"/>
<polygon fill="#c0c0c0" stroke="#c0c0c0" stroke-width="2" points="1643.6424,-87.8168 1633.5218,-90.9512 1643.3881,-94.8121 1643.6424,-87.8168"/>
</g>
<!-- 11 -->
<g id="node12" class="node">
<title>11</title>
<path fill="none" stroke="#56d8d8" stroke-width="2" d="M2717.9553,-351C2717.9553,-351 2622.9553,-351 2622.9553,-351 2616.9553,-351 2610.9553,-345 2610.9553,-339 2610.9553,-339 2610.9553,-300 2610.9553,-300 2610.9553,-294 2616.9553,-288 2622.9553,-288 2622.9553,-288 2717.9553,-288 2717.9553,-288 2723.9553,-288 2729.9553,-294 2729.9553,-300 2729.9553,-300 2729.9553,-339 2729.9553,-339 2729.9553,-345 2723.9553,-351 2717.9553,-351"/>
<text text-anchor="middle" x="2670.4553" y="-339" font-family="sans" font-size="10.00" fill="#000000">get_fastq_raw</text>
<text text-anchor="middle" x="2670.4553" y="-328" font-family="sans" font-size="10.00" fill="#000000">lane: L001</text>
<text text-anchor="middle" x="2670.4553" y="-317" font-family="sans" font-size="10.00" fill="#000000">library: lib2</text>
<text text-anchor="middle" x="2670.4553" y="-306" font-family="sans" font-size="10.00" fill="#000000">read_type_raw: R1</text>
<text text-anchor="middle" x="2670.4553" y="-295" font-family="sans" font-size="10.00" fill="#000000">sample: HD827sonic_2</text>
</g>
<!-- 11&#45;&gt;10 -->
<g id="edge42" class="edge">
<title>11&#45;&gt;10</title>
<path fill="none" stroke="#c0c0c0" stroke-width="2" d="M2615.3965,-287.9059C2597.6301,-277.7111 2578.2777,-266.6062 2561.7799,-257.1393"/>
<polygon fill="#c0c0c0" stroke="#c0c0c0" stroke-width="2" points="2563.3517,-254.006 2552.9363,-252.0646 2559.8678,-260.0774 2563.3517,-254.006"/>
</g>
<!-- 18 -->
<g id="node19" class="node">
<title>18</title>
<path fill="none" stroke="#d85656" stroke-width="2" d="M3008.4553,-252C3008.4553,-252 2906.4553,-252 2906.4553,-252 2900.4553,-252 2894.4553,-246 2894.4553,-240 2894.4553,-240 2894.4553,-228 2894.4553,-228 2894.4553,-222 2900.4553,-216 2906.4553,-216 2906.4553,-216 3008.4553,-216 3008.4553,-216 3014.4553,-216 3020.4553,-222 3020.4553,-228 3020.4553,-228 3020.4553,-240 3020.4553,-240 3020.4553,-246 3014.4553,-252 3008.4553,-252"/>
<text text-anchor="middle" x="2957.4553" y="-231.5" font-family="sans" font-size="10.00" fill="#000000">adapterremoval_fastq_pe</text>
</g>
<!-- 11&#45;&gt;18 -->
<g id="edge46" class="edge">
<title>11&#45;&gt;18</title>
<path fill="none" stroke="#c0c0c0" stroke-width="2" d="M2730.2706,-301.6805C2775.917,-288.082 2838.9285,-269.3102 2887.0139,-254.9852"/>
<polygon fill="#c0c0c0" stroke="#c0c0c0" stroke-width="2" points="2888.1447,-258.3004 2896.7291,-252.0909 2886.146,-251.5917 2888.1447,-258.3004"/>
</g>
<!-- 12 -->
<g id="node13" class="node">
<title>12</title>
<path fill="none" stroke="#59d856" stroke-width="2" d="M2402.9553,-252C2402.9553,-252 2361.9553,-252 2361.9553,-252 2355.9553,-252 2349.9553,-246 2349.9553,-240 2349.9553,-240 2349.9553,-228 2349.9553,-228 2349.9553,-222 2355.9553,-216 2361.9553,-216 2361.9553,-216 2402.9553,-216 2402.9553,-216 2408.9553,-216 2414.9553,-222 2414.9553,-228 2414.9553,-228 2414.9553,-240 2414.9553,-240 2414.9553,-246 2408.9553,-252 2402.9553,-252"/>
<text text-anchor="middle" x="2382.4553" y="-231.5" font-family="sans" font-size="10.00" fill="#000000">fastqc_raw</text>
</g>
<!-- 12&#45;&gt;1 -->
<g id="edge11" class="edge">
<title>12&#45;&gt;1</title>
<path fill="none" stroke="#c0c0c0" stroke-width="2" d="M2387.4775,-215.6466C2391.8442,-195.1796 2394.9154,-162.5239 2376.4553,-144 2350.3008,-117.7551 1794.5024,-96.5494 1643.8409,-91.2679"/>
<polygon fill="#c0c0c0" stroke="#c0c0c0" stroke-width="2" points="1643.822,-87.7652 1633.7063,-90.9153 1643.5785,-94.761 1643.822,-87.7652"/>
</g>
<!-- 13 -->
<g id="node14" class="node">
<title>13</title>
<path fill="none" stroke="#56d8d8" stroke-width="2" d="M2293.9553,-351C2293.9553,-351 2198.9553,-351 2198.9553,-351 2192.9553,-351 2186.9553,-345 2186.9553,-339 2186.9553,-339 2186.9553,-300 2186.9553,-300 2186.9553,-294 2192.9553,-288 2198.9553,-288 2198.9553,-288 2293.9553,-288 2293.9553,-288 2299.9553,-288 2305.9553,-294 2305.9553,-300 2305.9553,-300 2305.9553,-339 2305.9553,-339 2305.9553,-345 2299.9553,-351 2293.9553,-351"/>
<text text-anchor="middle" x="2246.4553" y="-339" font-family="sans" font-size="10.00" fill="#000000">get_fastq_raw</text>
<text text-anchor="middle" x="2246.4553" y="-328" font-family="sans" font-size="10.00" fill="#000000">lane: L002</text>
<text text-anchor="middle" x="2246.4553" y="-317" font-family="sans" font-size="10.00" fill="#000000">library: lib1</text>
<text text-anchor="middle" x="2246.4553" y="-306" font-family="sans" font-size="10.00" fill="#000000">read_type_raw: R2</text>
<text text-anchor="middle" x="2246.4553" y="-295" font-family="sans" font-size="10.00" fill="#000000">sample: HD827sonic_1</text>
</g>
<!-- 13&#45;&gt;12 -->
<g id="edge43" class="edge">
<title>13&#45;&gt;12</title>
<path fill="none" stroke="#c0c0c0" stroke-width="2" d="M2296.7103,-287.9059C2312.7765,-277.8055 2330.2636,-266.8117 2345.23,-257.4027"/>
<polygon fill="#c0c0c0" stroke="#c0c0c0" stroke-width="2" points="2347.1179,-260.3501 2353.721,-252.0646 2343.3922,-254.4239 2347.1179,-260.3501"/>
</g>
<!-- 13&#45;&gt;19 -->
<g id="edge49" class="edge">
<title>13&#45;&gt;19</title>
<path fill="none" stroke="#c0c0c0" stroke-width="2" d="M2214.8044,-287.663C2205.5118,-278.3157 2195.4776,-268.2224 2186.6461,-259.3389"/>
<polygon fill="#c0c0c0" stroke="#c0c0c0" stroke-width="2" points="2189.0856,-256.8285 2179.5531,-252.2043 2184.1213,-261.7637 2189.0856,-256.8285"/>
</g>
<!-- 14 -->
<g id="node15" class="node">
<title>14</title>
<path fill="none" stroke="#59d856" stroke-width="2" d="M3195.9553,-252C3195.9553,-252 3154.9553,-252 3154.9553,-252 3148.9553,-252 3142.9553,-246 3142.9553,-240 3142.9553,-240 3142.9553,-228 3142.9553,-228 3142.9553,-222 3148.9553,-216 3154.9553,-216 3154.9553,-216 3195.9553,-216 3195.9553,-216 3201.9553,-216 3207.9553,-222 3207.9553,-228 3207.9553,-228 3207.9553,-240 3207.9553,-240 3207.9553,-246 3201.9553,-252 3195.9553,-252"/>
<text text-anchor="middle" x="3175.4553" y="-231.5" font-family="sans" font-size="10.00" fill="#000000">fastqc_raw</text>
</g>
<!-- 14&#45;&gt;1 -->
<g id="edge12" class="edge">
<title>14&#45;&gt;1</title>
<path fill="none" stroke="#c0c0c0" stroke-width="2" d="M3196.7145,-215.8935C3217.3056,-196.2513 3242.6752,-164.9068 3222.4553,-144 3194.0913,-114.6723 1883.7461,-94.0668 1643.9334,-90.538"/>
<polygon fill="#c0c0c0" stroke="#c0c0c0" stroke-width="2" points="1643.6934,-87.0342 1633.6432,-90.3874 1643.5909,-94.0335 1643.6934,-87.0342"/>
</g>
<!-- 15 -->
<g id="node16" class="node">
<title>15</title>
<path fill="none" stroke="#56d8d8" stroke-width="2" d="M3113.9553,-351C3113.9553,-351 3018.9553,-351 3018.9553,-351 3012.9553,-351 3006.9553,-345 3006.9553,-339 3006.9553,-339 3006.9553,-300 3006.9553,-300 3006.9553,-294 3012.9553,-288 3018.9553,-288 3018.9553,-288 3113.9553,-288 3113.9553,-288 3119.9553,-288 3125.9553,-294 3125.9553,-300 3125.9553,-300 3125.9553,-339 3125.9553,-339 3125.9553,-345 3119.9553,-351 3113.9553,-351"/>
<text text-anchor="middle" x="3066.4553" y="-339" font-family="sans" font-size="10.00" fill="#000000">get_fastq_raw</text>
<text text-anchor="middle" x="3066.4553" y="-328" font-family="sans" font-size="10.00" fill="#000000">lane: L001</text>
<text text-anchor="middle" x="3066.4553" y="-317" font-family="sans" font-size="10.00" fill="#000000">library: lib2</text>
<text text-anchor="middle" x="3066.4553" y="-306" font-family="sans" font-size="10.00" fill="#000000">read_type_raw: R2</text>
<text text-anchor="middle" x="3066.4553" y="-295" font-family="sans" font-size="10.00" fill="#000000">sample: HD827sonic_2</text>
</g>
<!-- 15&#45;&gt;14 -->
<g id="edge44" class="edge">
<title>15&#45;&gt;14</title>
<path fill="none" stroke="#c0c0c0" stroke-width="2" d="M3106.7332,-287.9059C3119.1284,-278.183 3132.5789,-267.6324 3144.2668,-258.4644"/>
<polygon fill="#c0c0c0" stroke="#c0c0c0" stroke-width="2" points="3146.7176,-260.9903 3152.4256,-252.0646 3142.3972,-255.4826 3146.7176,-260.9903"/>
</g>
<!-- 15&#45;&gt;18 -->
<g id="edge47" class="edge">
<title>15&#45;&gt;18</title>
<path fill="none" stroke="#c0c0c0" stroke-width="2" d="M3026.1774,-287.9059C3013.7822,-278.183 3000.3318,-267.6324 2988.6438,-258.4644"/>
<polygon fill="#c0c0c0" stroke="#c0c0c0" stroke-width="2" points="2990.5134,-255.4826 2980.485,-252.0646 2986.1931,-260.9903 2990.5134,-255.4826"/>
</g>
<!-- 16 -->
<g id="node17" class="node">
<title>16</title>
<path fill="none" stroke="#59d856" stroke-width="2" d="M657.9553,-252C657.9553,-252 616.9553,-252 616.9553,-252 610.9553,-252 604.9553,-246 604.9553,-240 604.9553,-240 604.9553,-228 604.9553,-228 604.9553,-222 610.9553,-216 616.9553,-216 616.9553,-216 657.9553,-216 657.9553,-216 663.9553,-216 669.9553,-222 669.9553,-228 669.9553,-228 669.9553,-240 669.9553,-240 669.9553,-246 663.9553,-252 657.9553,-252"/>
<text text-anchor="middle" x="637.4553" y="-231.5" font-family="sans" font-size="10.00" fill="#000000">fastqc_raw</text>
</g>
<!-- 16&#45;&gt;1 -->
<g id="edge13" class="edge">
<title>16&#45;&gt;1</title>
<path fill="none" stroke="#c0c0c0" stroke-width="2" d="M670.0656,-216.1177C710.7222,-194.7878 782.9819,-160.0097 849.4553,-144 988.5151,-110.5084 1436.2174,-94.9838 1568.999,-91.0408"/>
<polygon fill="#c0c0c0" stroke="#c0c0c0" stroke-width="2" points="1569.1881,-94.5369 1579.0814,-90.7458 1568.9833,-87.5398 1569.1881,-94.5369"/>
</g>
<!-- 17 -->
<g id="node18" class="node">
<title>17</title>
<path fill="none" stroke="#56d8d8" stroke-width="2" d="M579.9553,-351C579.9553,-351 484.9553,-351 484.9553,-351 478.9553,-351 472.9553,-345 472.9553,-339 472.9553,-339 472.9553,-300 472.9553,-300 472.9553,-294 478.9553,-288 484.9553,-288 484.9553,-288 579.9553,-288 579.9553,-288 585.9553,-288 591.9553,-294 591.9553,-300 591.9553,-300 591.9553,-339 591.9553,-339 591.9553,-345 585.9553,-351 579.9553,-351"/>
<text text-anchor="middle" x="532.4553" y="-339" font-family="sans" font-size="10.00" fill="#000000">get_fastq_raw</text>
<text text-anchor="middle" x="532.4553" y="-328" font-family="sans" font-size="10.00" fill="#000000">lane: L001</text>
<text text-anchor="middle" x="532.4553" y="-317" font-family="sans" font-size="10.00" fill="#000000">library: lib1</text>
<text text-anchor="middle" x="532.4553" y="-306" font-family="sans" font-size="10.00" fill="#000000">read_type_raw: R2</text>
<text text-anchor="middle" x="532.4553" y="-295" font-family="sans" font-size="10.00" fill="#000000">sample: HD827sonic_2</text>
</g>
<!-- 17&#45;&gt;16 -->
<g id="edge45" class="edge">
<title>17&#45;&gt;16</title>
<path fill="none" stroke="#c0c0c0" stroke-width="2" d="M571.2551,-287.9059C583.1954,-278.183 596.1523,-267.6324 607.4113,-258.4644"/>
<polygon fill="#c0c0c0" stroke="#c0c0c0" stroke-width="2" points="609.7264,-261.0929 615.2707,-252.0646 605.3063,-255.6648 609.7264,-261.0929"/>
</g>
<!-- 17&#45;&gt;21 -->
<g id="edge53" class="edge">
<title>17&#45;&gt;21</title>
<path fill="none" stroke="#c0c0c0" stroke-width="2" d="M472.6915,-301.053C428.9808,-287.5611 369.6026,-269.2332 323.9717,-255.1486"/>
<polygon fill="#c0c0c0" stroke="#c0c0c0" stroke-width="2" points="324.7483,-251.7254 314.1608,-252.1203 322.6837,-258.414 324.7483,-251.7254"/>
</g>
<!-- 18&#45;&gt;0 -->
<g id="edge4" class="edge">
<title>18&#45;&gt;0</title>
<path fill="none" stroke="#c0c0c0" stroke-width="2" d="M3020.7105,-230.0985C3090.8601,-224.2969 3197.469,-210.5914 3222.4553,-180 3232.5767,-167.6082 3233.3204,-155.7452 3222.4553,-144 3166.9358,-83.9831 1880.1294,-29.083 1643.624,-19.4816"/>
<polygon fill="#c0c0c0" stroke="#c0c0c0" stroke-width="2" points="1643.6051,-15.9781 1633.4718,-19.0711 1643.3222,-22.9723 1643.6051,-15.9781"/>
</g>
<!-- 18&#45;&gt;1 -->
<g id="edge14" class="edge">
<title>18&#45;&gt;1</title>
<path fill="none" stroke="#c0c0c0" stroke-width="2" d="M2983.5182,-215.6843C3007.8795,-196.4293 3037.5732,-165.9421 3016.4553,-144 2991.9332,-118.5208 1863.9274,-95.0614 1643.561,-90.7171"/>
<polygon fill="#c0c0c0" stroke="#c0c0c0" stroke-width="2" points="1643.54,-87.2161 1633.4732,-90.5192 1643.4025,-94.2148 1643.54,-87.2161"/>
</g>
<!-- 24 -->
<g id="node25" class="node">
<title>24</title>
<path fill="none" stroke="#56d89a" stroke-width="2" d="M3201.4553,-180C3201.4553,-180 3075.4553,-180 3075.4553,-180 3069.4553,-180 3063.4553,-174 3063.4553,-168 3063.4553,-168 3063.4553,-156 3063.4553,-156 3063.4553,-150 3069.4553,-144 3075.4553,-144 3075.4553,-144 3201.4553,-144 3201.4553,-144 3207.4553,-144 3213.4553,-150 3213.4553,-156 3213.4553,-156 3213.4553,-168 3213.4553,-168 3213.4553,-174 3207.4553,-180 3201.4553,-180"/>
<text text-anchor="middle" x="3138.4553" y="-165" font-family="sans" font-size="10.00" fill="#000000">fastqc_trim</text>
<text text-anchor="middle" x="3138.4553" y="-154" font-family="sans" font-size="10.00" fill="#000000">read_type_trim: collapsedtrunc</text>
</g>
<!-- 18&#45;&gt;24 -->
<g id="edge56" class="edge">
<title>18&#45;&gt;24</title>
<path fill="none" stroke="#c0c0c0" stroke-width="2" d="M3003.1293,-215.8314C3027.5521,-206.1162 3057.8019,-194.0831 3083.5037,-183.8592"/>
<polygon fill="#c0c0c0" stroke="#c0c0c0" stroke-width="2" points="3085.1117,-186.9864 3093.1098,-180.038 3082.5243,-180.4821 3085.1117,-186.9864"/>
</g>
<!-- 32 -->
<g id="node33" class="node">
<title>32</title>
<path fill="none" stroke="#56d89a" stroke-width="2" d="M2587.4553,-180C2587.4553,-180 2511.4553,-180 2511.4553,-180 2505.4553,-180 2499.4553,-174 2499.4553,-168 2499.4553,-168 2499.4553,-156 2499.4553,-156 2499.4553,-150 2505.4553,-144 2511.4553,-144 2511.4553,-144 2587.4553,-144 2587.4553,-144 2593.4553,-144 2599.4553,-150 2599.4553,-156 2599.4553,-156 2599.4553,-168 2599.4553,-168 2599.4553,-174 2593.4553,-180 2587.4553,-180"/>
<text text-anchor="middle" x="2549.4553" y="-165" font-family="sans" font-size="10.00" fill="#000000">fastqc_trim</text>
<text text-anchor="middle" x="2549.4553" y="-154" font-family="sans" font-size="10.00" fill="#000000">read_type_trim: R1</text>
</g>
<!-- 18&#45;&gt;32 -->
<g id="edge64" class="edge">
<title>18&#45;&gt;32</title>
<path fill="none" stroke="#c0c0c0" stroke-width="2" d="M2894.213,-226.9682C2826.0298,-218.7698 2714.2447,-203.5435 2609.3396,-180.0363"/>
<polygon fill="#c0c0c0" stroke="#c0c0c0" stroke-width="2" points="2610.0631,-176.6115 2599.5363,-177.8104 2608.5132,-183.4378 2610.0631,-176.6115"/>
</g>
<!-- 33 -->
<g id="node34" class="node">
<title>33</title>
<path fill="none" stroke="#56d89a" stroke-width="2" d="M2733.4553,-180C2733.4553,-180 2629.4553,-180 2629.4553,-180 2623.4553,-180 2617.4553,-174 2617.4553,-168 2617.4553,-168 2617.4553,-156 2617.4553,-156 2617.4553,-150 2623.4553,-144 2629.4553,-144 2629.4553,-144 2733.4553,-144 2733.4553,-144 2739.4553,-144 2745.4553,-150 2745.4553,-156 2745.4553,-156 2745.4553,-168 2745.4553,-168 2745.4553,-174 2739.4553,-180 2733.4553,-180"/>
<text text-anchor="middle" x="2681.4553" y="-165" font-family="sans" font-size="10.00" fill="#000000">fastqc_trim</text>
<text text-anchor="middle" x="2681.4553" y="-154" font-family="sans" font-size="10.00" fill="#000000">read_type_trim: collapsed</text>
</g>
<!-- 18&#45;&gt;33 -->
<g id="edge65" class="edge">
<title>18&#45;&gt;33</title>
<path fill="none" stroke="#c0c0c0" stroke-width="2" d="M2894.1353,-217.4817C2852.9414,-206.7355 2799.0427,-192.675 2755.8129,-181.3976"/>
<polygon fill="#c0c0c0" stroke="#c0c0c0" stroke-width="2" points="2756.4757,-177.9535 2745.916,-178.8158 2754.7087,-184.7268 2756.4757,-177.9535"/>
</g>
<!-- 39 -->
<g id="node40" class="node">
<title>39</title>
<path fill="none" stroke="#56d89a" stroke-width="2" d="M2877.4553,-180C2877.4553,-180 2775.4553,-180 2775.4553,-180 2769.4553,-180 2763.4553,-174 2763.4553,-168 2763.4553,-168 2763.4553,-156 2763.4553,-156 2763.4553,-150 2769.4553,-144 2775.4553,-144 2775.4553,-144 2877.4553,-144 2877.4553,-144 2883.4553,-144 2889.4553,-150 2889.4553,-156 2889.4553,-156 2889.4553,-168 2889.4553,-168 2889.4553,-174 2883.4553,-180 2877.4553,-180"/>
<text text-anchor="middle" x="2826.4553" y="-165" font-family="sans" font-size="10.00" fill="#000000">fastqc_trim</text>
<text text-anchor="middle" x="2826.4553" y="-154" font-family="sans" font-size="10.00" fill="#000000">read_type_trim: singleton</text>
</g>
<!-- 18&#45;&gt;39 -->
<g id="edge71" class="edge">
<title>18&#45;&gt;39</title>
<path fill="none" stroke="#c0c0c0" stroke-width="2" d="M2924.3985,-215.8314C2907.4876,-206.5368 2886.7168,-195.1208 2868.6612,-185.1971"/>
<polygon fill="#c0c0c0" stroke="#c0c0c0" stroke-width="2" points="2869.951,-181.9122 2859.5016,-180.1628 2866.5793,-188.0468 2869.951,-181.9122"/>
</g>
<!-- 41 -->
<g id="node42" class="node">
<title>41</title>
<path fill="none" stroke="#56d89a" stroke-width="2" d="M2995.4553,-180C2995.4553,-180 2919.4553,-180 2919.4553,-180 2913.4553,-180 2907.4553,-174 2907.4553,-168 2907.4553,-168 2907.4553,-156 2907.4553,-156 2907.4553,-150 2913.4553,-144 2919.4553,-144 2919.4553,-144 2995.4553,-144 2995.4553,-144 3001.4553,-144 3007.4553,-150 3007.4553,-156 3007.4553,-156 3007.4553,-168 3007.4553,-168 3007.4553,-174 3001.4553,-180 2995.4553,-180"/>
<text text-anchor="middle" x="2957.4553" y="-165" font-family="sans" font-size="10.00" fill="#000000">fastqc_trim</text>
<text text-anchor="middle" x="2957.4553" y="-154" font-family="sans" font-size="10.00" fill="#000000">read_type_trim: R2</text>
</g>
<!-- 18&#45;&gt;41 -->
<g id="edge73" class="edge">
<title>18&#45;&gt;41</title>
<path fill="none" stroke="#c0c0c0" stroke-width="2" d="M2957.4553,-215.8314C2957.4553,-208.131 2957.4553,-198.9743 2957.4553,-190.4166"/>
<polygon fill="#c0c0c0" stroke="#c0c0c0" stroke-width="2" points="2960.9554,-190.4132 2957.4553,-180.4133 2953.9554,-190.4133 2960.9554,-190.4132"/>
</g>
<!-- 19&#45;&gt;0 -->
<g id="edge3" class="edge">
<title>19&#45;&gt;0</title>
<path fill="none" stroke="#c0c0c0" stroke-width="2" d="M2224.4952,-229.0626C2303.3171,-220.5226 2422.6345,-198.3499 2376.4553,-144 2328.1094,-87.0999 1791.879,-34.7486 1644.0158,-21.3173"/>
<polygon fill="#c0c0c0" stroke="#c0c0c0" stroke-width="2" points="1643.9325,-17.7956 1633.6583,-20.3826 1643.3033,-24.7673 1643.9325,-17.7956"/>
</g>
<!-- 19&#45;&gt;1 -->
<g id="edge15" class="edge">
<title>19&#45;&gt;1</title>
<path fill="none" stroke="#c0c0c0" stroke-width="2" d="M2187.3009,-215.8884C2211.4807,-196.8037 2241.0243,-166.4574 2220.4553,-144 2181.395,-101.3537 1770.4866,-92.2257 1643.578,-90.4177"/>
<polygon fill="#c0c0c0" stroke="#c0c0c0" stroke-width="2" points="1643.6093,-86.9179 1633.5628,-90.282 1643.5144,-93.9173 1643.6093,-86.9179"/>
</g>
<!-- 23 -->
<g id="node24" class="node">
<title>23</title>
<path fill="none" stroke="#56d89a" stroke-width="2" d="M2355.4553,-180C2355.4553,-180 2279.4553,-180 2279.4553,-180 2273.4553,-180 2267.4553,-174 2267.4553,-168 2267.4553,-168 2267.4553,-156 2267.4553,-156 2267.4553,-150 2273.4553,-144 2279.4553,-144 2279.4553,-144 2355.4553,-144 2355.4553,-144 2361.4553,-144 2367.4553,-150 2367.4553,-156 2367.4553,-156 2367.4553,-168 2367.4553,-168 2367.4553,-174 2361.4553,-180 2355.4553,-180"/>
<text text-anchor="middle" x="2317.4553" y="-165" font-family="sans" font-size="10.00" fill="#000000">fastqc_trim</text>
<text text-anchor="middle" x="2317.4553" y="-154" font-family="sans" font-size="10.00" fill="#000000">read_type_trim: R1</text>
</g>
<!-- 19&#45;&gt;23 -->
<g id="edge55" class="edge">
<title>19&#45;&gt;23</title>
<path fill="none" stroke="#c0c0c0" stroke-width="2" d="M2200.8207,-215.8314C2221.592,-206.2446 2247.2537,-194.4008 2269.2134,-184.2655"/>
<polygon fill="#c0c0c0" stroke="#c0c0c0" stroke-width="2" points="2270.7601,-187.4065 2278.373,-180.038 2267.8267,-181.0508 2270.7601,-187.4065"/>
</g>
<!-- 36 -->
<g id="node37" class="node">
<title>36</title>
<path fill="none" stroke="#56d89a" stroke-width="2" d="M1767.4553,-180C1767.4553,-180 1665.4553,-180 1665.4553,-180 1659.4553,-180 1653.4553,-174 1653.4553,-168 1653.4553,-168 1653.4553,-156 1653.4553,-156 1653.4553,-150 1659.4553,-144 1665.4553,-144 1665.4553,-144 1767.4553,-144 1767.4553,-144 1773.4553,-144 1779.4553,-150 1779.4553,-156 1779.4553,-156 1779.4553,-168 1779.4553,-168 1779.4553,-174 1773.4553,-180 1767.4553,-180"/>
<text text-anchor="middle" x="1716.4553" y="-165" font-family="sans" font-size="10.00" fill="#000000">fastqc_trim</text>
<text text-anchor="middle" x="1716.4553" y="-154" font-family="sans" font-size="10.00" fill="#000000">read_type_trim: singleton</text>
</g>
<!-- 19&#45;&gt;36 -->
<g id="edge68" class="edge">
<title>19&#45;&gt;36</title>
<path fill="none" stroke="#c0c0c0" stroke-width="2" d="M2098.4294,-226.8505C2026.1074,-218.2042 1903.8038,-202.233 1789.5576,-180.1171"/>
<polygon fill="#c0c0c0" stroke="#c0c0c0" stroke-width="2" points="1790.0761,-176.6523 1779.5902,-178.1677 1788.7324,-183.5221 1790.0761,-176.6523"/>
</g>
<!-- 37 -->
<g id="node38" class="node">
<title>37</title>
<path fill="none" stroke="#56d89a" stroke-width="2" d="M1935.4553,-180C1935.4553,-180 1809.4553,-180 1809.4553,-180 1803.4553,-180 1797.4553,-174 1797.4553,-168 1797.4553,-168 1797.4553,-156 1797.4553,-156 1797.4553,-150 1803.4553,-144 1809.4553,-144 1809.4553,-144 1935.4553,-144 1935.4553,-144 1941.4553,-144 1947.4553,-150 1947.4553,-156 1947.4553,-156 1947.4553,-168 1947.4553,-168 1947.4553,-174 1941.4553,-180 1935.4553,-180"/>
<text text-anchor="middle" x="1872.4553" y="-165" font-family="sans" font-size="10.00" fill="#000000">fastqc_trim</text>
<text text-anchor="middle" x="1872.4553" y="-154" font-family="sans" font-size="10.00" fill="#000000">read_type_trim: collapsedtrunc</text>
</g>
<!-- 19&#45;&gt;37 -->
<g id="edge69" class="edge">
<title>19&#45;&gt;37</title>
<path fill="none" stroke="#c0c0c0" stroke-width="2" d="M2098.3902,-218.2883C2056.226,-207.7837 2000.3269,-193.8573 1954.6802,-182.4851"/>
<polygon fill="#c0c0c0" stroke="#c0c0c0" stroke-width="2" points="1955.3568,-179.0467 1944.8072,-180.0254 1953.6645,-185.8391 1955.3568,-179.0467"/>
</g>
<!-- 38 -->
<g id="node39" class="node">
<title>38</title>
<path fill="none" stroke="#56d89a" stroke-width="2" d="M2081.4553,-180C2081.4553,-180 1977.4553,-180 1977.4553,-180 1971.4553,-180 1965.4553,-174 1965.4553,-168 1965.4553,-168 1965.4553,-156 1965.4553,-156 1965.4553,-150 1971.4553,-144 1977.4553,-144 1977.4553,-144 2081.4553,-144 2081.4553,-144 2087.4553,-144 2093.4553,-150 2093.4553,-156 2093.4553,-156 2093.4553,-168 2093.4553,-168 2093.4553,-174 2087.4553,-180 2081.4553,-180"/>
<text text-anchor="middle" x="2029.4553" y="-165" font-family="sans" font-size="10.00" fill="#000000">fastqc_trim</text>
<text text-anchor="middle" x="2029.4553" y="-154" font-family="sans" font-size="10.00" fill="#000000">read_type_trim: collapsed</text>
</g>
<!-- 19&#45;&gt;38 -->
<g id="edge70" class="edge">
<title>19&#45;&gt;38</title>
<path fill="none" stroke="#c0c0c0" stroke-width="2" d="M2128.1461,-215.8314C2111.028,-206.4942 2089.9847,-195.016 2071.7332,-185.0606"/>
<polygon fill="#c0c0c0" stroke="#c0c0c0" stroke-width="2" points="2073.2088,-181.8788 2062.7538,-180.1628 2069.8568,-188.024 2073.2088,-181.8788"/>
</g>
<!-- 40 -->
<g id="node41" class="node">
<title>40</title>
<path fill="none" stroke="#56d89a" stroke-width="2" d="M2199.4553,-180C2199.4553,-180 2123.4553,-180 2123.4553,-180 2117.4553,-180 2111.4553,-174 2111.4553,-168 2111.4553,-168 2111.4553,-156 2111.4553,-156 2111.4553,-150 2117.4553,-144 2123.4553,-144 2123.4553,-144 2199.4553,-144 2199.4553,-144 2205.4553,-144 2211.4553,-150 2211.4553,-156 2211.4553,-156 2211.4553,-168 2211.4553,-168 2211.4553,-174 2205.4553,-180 2199.4553,-180"/>
<text text-anchor="middle" x="2161.4553" y="-165" font-family="sans" font-size="10.00" fill="#000000">fastqc_trim</text>
<text text-anchor="middle" x="2161.4553" y="-154" font-family="sans" font-size="10.00" fill="#000000">read_type_trim: R2</text>
</g>
<!-- 19&#45;&gt;40 -->
<g id="edge72" class="edge">
<title>19&#45;&gt;40</title>
<path fill="none" stroke="#c0c0c0" stroke-width="2" d="M2161.4553,-215.8314C2161.4553,-208.131 2161.4553,-198.9743 2161.4553,-190.4166"/>
<polygon fill="#c0c0c0" stroke="#c0c0c0" stroke-width="2" points="2164.9554,-190.4132 2161.4553,-180.4133 2157.9554,-190.4133 2164.9554,-190.4132"/>
</g>
<!-- 20&#45;&gt;0 -->
<g id="edge2" class="edge">
<title>20&#45;&gt;0</title>
<path fill="none" stroke="#c0c0c0" stroke-width="2" d="M1016.4073,-227.062C958.7333,-219.2622 879.5632,-204.3918 860.4553,-180 850.5884,-167.4046 850.1266,-156.2195 860.4553,-144 907.0894,-88.8289 1424.4861,-35.4312 1569.1032,-21.5022"/>
<polygon fill="#c0c0c0" stroke="#c0c0c0" stroke-width="2" points="1569.6258,-24.9682 1579.2468,-20.5312 1568.9587,-18.0001 1569.6258,-24.9682"/>
</g>
<!-- 20&#45;&gt;1 -->
<g id="edge16" class="edge">
<title>20&#45;&gt;1</title>
<path fill="none" stroke="#c0c0c0" stroke-width="2" d="M1016.3166,-227.5525C940.3126,-217.4579 828.2926,-193.6936 874.4553,-144 898.3313,-118.2978 1422.8994,-96.8522 1568.9907,-91.3622"/>
<polygon fill="#c0c0c0" stroke="#c0c0c0" stroke-width="2" points="1569.3711,-94.8506 1579.2337,-90.9802 1569.1102,-87.8554 1569.3711,-94.8506"/>
</g>
<!-- 25 -->
<g id="node26" class="node">
<title>25</title>
<path fill="none" stroke="#56d89a" stroke-width="2" d="M999.4553,-180C999.4553,-180 895.4553,-180 895.4553,-180 889.4553,-180 883.4553,-174 883.4553,-168 883.4553,-168 883.4553,-156 883.4553,-156 883.4553,-150 889.4553,-144 895.4553,-144 895.4553,-144 999.4553,-144 999.4553,-144 1005.4553,-144 1011.4553,-150 1011.4553,-156 1011.4553,-156 1011.4553,-168 1011.4553,-168 1011.4553,-174 1005.4553,-180 999.4553,-180"/>
<text text-anchor="middle" x="947.4553" y="-165" font-family="sans" font-size="10.00" fill="#000000">fastqc_trim</text>
<text text-anchor="middle" x="947.4553" y="-154" font-family="sans" font-size="10.00" fill="#000000">read_type_trim: collapsed</text>
</g>
<!-- 20&#45;&gt;25 -->
<g id="edge57" class="edge">
<title>20&#45;&gt;25</title>
<path fill="none" stroke="#c0c0c0" stroke-width="2" d="M1046.1461,-215.8314C1029.028,-206.4942 1007.9847,-195.016 989.7332,-185.0606"/>
<polygon fill="#c0c0c0" stroke="#c0c0c0" stroke-width="2" points="991.2088,-181.8788 980.7538,-180.1628 987.8568,-188.024 991.2088,-181.8788"/>
</g>
<!-- 26 -->
<g id="node27" class="node">
<title>26</title>
<path fill="none" stroke="#56d89a" stroke-width="2" d="M1117.4553,-180C1117.4553,-180 1041.4553,-180 1041.4553,-180 1035.4553,-180 1029.4553,-174 1029.4553,-168 1029.4553,-168 1029.4553,-156 1029.4553,-156 1029.4553,-150 1035.4553,-144 1041.4553,-144 1041.4553,-144 1117.4553,-144 1117.4553,-144 1123.4553,-144 1129.4553,-150 1129.4553,-156 1129.4553,-156 1129.4553,-168 1129.4553,-168 1129.4553,-174 1123.4553,-180 1117.4553,-180"/>
<text text-anchor="middle" x="1079.4553" y="-165" font-family="sans" font-size="10.00" fill="#000000">fastqc_trim</text>
<text text-anchor="middle" x="1079.4553" y="-154" font-family="sans" font-size="10.00" fill="#000000">read_type_trim: R2</text>
</g>
<!-- 20&#45;&gt;26 -->
<g id="edge58" class="edge">
<title>20&#45;&gt;26</title>
<path fill="none" stroke="#c0c0c0" stroke-width="2" d="M1079.4553,-215.8314C1079.4553,-208.131 1079.4553,-198.9743 1079.4553,-190.4166"/>
<polygon fill="#c0c0c0" stroke="#c0c0c0" stroke-width="2" points="1082.9554,-190.4132 1079.4553,-180.4133 1075.9554,-190.4133 1082.9554,-190.4132"/>
</g>
<!-- 27 -->
<g id="node28" class="node">
<title>27</title>
<path fill="none" stroke="#56d89a" stroke-width="2" d="M1285.4553,-180C1285.4553,-180 1159.4553,-180 1159.4553,-180 1153.4553,-180 1147.4553,-174 1147.4553,-168 1147.4553,-168 1147.4553,-156 1147.4553,-156 1147.4553,-150 1153.4553,-144 1159.4553,-144 1159.4553,-144 1285.4553,-144 1285.4553,-144 1291.4553,-144 1297.4553,-150 1297.4553,-156 1297.4553,-156 1297.4553,-168 1297.4553,-168 1297.4553,-174 1291.4553,-180 1285.4553,-180"/>
<text text-anchor="middle" x="1222.4553" y="-165" font-family="sans" font-size="10.00" fill="#000000">fastqc_trim</text>
<text text-anchor="middle" x="1222.4553" y="-154" font-family="sans" font-size="10.00" fill="#000000">read_type_trim: collapsedtrunc</text>
</g>
<!-- 20&#45;&gt;27 -->
<g id="edge59" class="edge">
<title>20&#45;&gt;27</title>
<path fill="none" stroke="#c0c0c0" stroke-width="2" d="M1115.5402,-215.8314C1134.2542,-206.4089 1157.2985,-194.8062 1177.1953,-184.7883"/>
<polygon fill="#c0c0c0" stroke="#c0c0c0" stroke-width="2" points="1179.0242,-187.7861 1186.3819,-180.1628 1175.8762,-181.5339 1179.0242,-187.7861"/>
</g>
<!-- 29 -->
<g id="node30" class="node">
<title>29</title>
<path fill="none" stroke="#56d89a" stroke-width="2" d="M1429.4553,-180C1429.4553,-180 1327.4553,-180 1327.4553,-180 1321.4553,-180 1315.4553,-174 1315.4553,-168 1315.4553,-168 1315.4553,-156 1315.4553,-156 1315.4553,-150 1321.4553,-144 1327.4553,-144 1327.4553,-144 1429.4553,-144 1429.4553,-144 1435.4553,-144 1441.4553,-150 1441.4553,-156 1441.4553,-156 1441.4553,-168 1441.4553,-168 1441.4553,-174 1435.4553,-180 1429.4553,-180"/>
<text text-anchor="middle" x="1378.4553" y="-165" font-family="sans" font-size="10.00" fill="#000000">fastqc_trim</text>
<text text-anchor="middle" x="1378.4553" y="-154" font-family="sans" font-size="10.00" fill="#000000">read_type_trim: singleton</text>
</g>
<!-- 20&#45;&gt;29 -->
<g id="edge61" class="edge">
<title>20&#45;&gt;29</title>
<path fill="none" stroke="#c0c0c0" stroke-width="2" d="M1142.6156,-219.1793C1185.8714,-208.982 1244.8098,-194.9956 1305.4966,-180.2222"/>
<polygon fill="#c0c0c0" stroke="#c0c0c0" stroke-width="2" points="1306.3627,-183.6137 1315.2493,-177.8449 1304.7049,-176.8128 1306.3627,-183.6137"/>
</g>
<!-- 30 -->
<g id="node31" class="node">
<title>30</title>
<path fill="none" stroke="#56d89a" stroke-width="2" d="M1547.4553,-180C1547.4553,-180 1471.4553,-180 1471.4553,-180 1465.4553,-180 1459.4553,-174 1459.4553,-168 1459.4553,-168 1459.4553,-156 1459.4553,-156 1459.4553,-150 1465.4553,-144 1471.4553,-144 1471.4553,-144 1547.4553,-144 1547.4553,-144 1553.4553,-144 1559.4553,-150 1559.4553,-156 1559.4553,-156 1559.4553,-168 1559.4553,-168 1559.4553,-174 1553.4553,-180 1547.4553,-180"/>
<text text-anchor="middle" x="1509.4553" y="-165" font-family="sans" font-size="10.00" fill="#000000">fastqc_trim</text>
<text text-anchor="middle" x="1509.4553" y="-154" font-family="sans" font-size="10.00" fill="#000000">read_type_trim: R1</text>
</g>
<!-- 20&#45;&gt;30 -->
<g id="edge62" class="edge">
<title>20&#45;&gt;30</title>
<path fill="none" stroke="#c0c0c0" stroke-width="2" d="M1142.6751,-227.7517C1214.8395,-219.9597 1336.4599,-204.8221 1449.519,-180.0337"/>
<polygon fill="#c0c0c0" stroke="#c0c0c0" stroke-width="2" points="1450.379,-183.4281 1459.3813,-177.8417 1448.8601,-176.5948 1450.379,-183.4281"/>
</g>
<!-- 21&#45;&gt;0 -->
<g id="edge5" class="edge">
<title>21&#45;&gt;0</title>
<path fill="none" stroke="#c0c0c0" stroke-width="2" d="M192.3511,-230.8612C103.1496,-224.2542 -43.1134,-204.1346 12.4553,-144 67.134,-84.8286 1333.8141,-29.3449 1569.047,-19.5326"/>
<polygon fill="#c0c0c0" stroke="#c0c0c0" stroke-width="2" points="1569.308,-23.0248 1579.1541,-19.1127 1569.0174,-16.0309 1569.308,-23.0248"/>
</g>
<!-- 21&#45;&gt;1 -->
<g id="edge17" class="edge">
<title>21&#45;&gt;1</title>
<path fill="none" stroke="#c0c0c0" stroke-width="2" d="M192.2398,-229.3172C108.0836,-220.8904 -24.352,-198.6453 28.4553,-144 56.1123,-115.3804 1332.9749,-94.2358 1569.1109,-90.5667"/>
<polygon fill="#c0c0c0" stroke="#c0c0c0" stroke-width="2" points="1569.3082,-94.0642 1579.2529,-90.4099 1569.2,-87.065 1569.3082,-94.0642"/>
</g>
<!-- 22 -->
<g id="node23" class="node">
<title>22</title>
<path fill="none" stroke="#56d89a" stroke-width="2" d="M175.4553,-180C175.4553,-180 49.4553,-180 49.4553,-180 43.4553,-180 37.4553,-174 37.4553,-168 37.4553,-168 37.4553,-156 37.4553,-156 37.4553,-150 43.4553,-144 49.4553,-144 49.4553,-144 175.4553,-144 175.4553,-144 181.4553,-144 187.4553,-150 187.4553,-156 187.4553,-156 187.4553,-168 187.4553,-168 187.4553,-174 181.4553,-180 175.4553,-180"/>
<text text-anchor="middle" x="112.4553" y="-165" font-family="sans" font-size="10.00" fill="#000000">fastqc_trim</text>
<text text-anchor="middle" x="112.4553" y="-154" font-family="sans" font-size="10.00" fill="#000000">read_type_trim: collapsedtrunc</text>
</g>
<!-- 21&#45;&gt;22 -->
<g id="edge54" class="edge">
<title>21&#45;&gt;22</title>
<path fill="none" stroke="#c0c0c0" stroke-width="2" d="M219.3704,-215.8314C200.6564,-206.4089 177.6121,-194.8062 157.7154,-184.7883"/>
<polygon fill="#c0c0c0" stroke="#c0c0c0" stroke-width="2" points="159.0345,-181.5339 148.5287,-180.1628 155.8865,-187.7861 159.0345,-181.5339"/>
</g>
<!-- 28 -->
<g id="node29" class="node">
<title>28</title>
<path fill="none" stroke="#56d89a" stroke-width="2" d="M293.4553,-180C293.4553,-180 217.4553,-180 217.4553,-180 211.4553,-180 205.4553,-174 205.4553,-168 205.4553,-168 205.4553,-156 205.4553,-156 205.4553,-150 211.4553,-144 217.4553,-144 217.4553,-144 293.4553,-144 293.4553,-144 299.4553,-144 305.4553,-150 305.4553,-156 305.4553,-156 305.4553,-168 305.4553,-168 305.4553,-174 299.4553,-180 293.4553,-180"/>
<text text-anchor="middle" x="255.4553" y="-165" font-family="sans" font-size="10.00" fill="#000000">fastqc_trim</text>
<text text-anchor="middle" x="255.4553" y="-154" font-family="sans" font-size="10.00" fill="#000000">read_type_trim: R1</text>
</g>
<!-- 21&#45;&gt;28 -->
<g id="edge60" class="edge">
<title>21&#45;&gt;28</title>
<path fill="none" stroke="#c0c0c0" stroke-width="2" d="M255.4553,-215.8314C255.4553,-208.131 255.4553,-198.9743 255.4553,-190.4166"/>
<polygon fill="#c0c0c0" stroke="#c0c0c0" stroke-width="2" points="258.9554,-190.4132 255.4553,-180.4133 251.9554,-190.4133 258.9554,-190.4132"/>
</g>
<!-- 31 -->
<g id="node32" class="node">
<title>31</title>
<path fill="none" stroke="#56d89a" stroke-width="2" d="M439.4553,-180C439.4553,-180 335.4553,-180 335.4553,-180 329.4553,-180 323.4553,-174 323.4553,-168 323.4553,-168 323.4553,-156 323.4553,-156 323.4553,-150 329.4553,-144 335.4553,-144 335.4553,-144 439.4553,-144 439.4553,-144 445.4553,-144 451.4553,-150 451.4553,-156 451.4553,-156 451.4553,-168 451.4553,-168 451.4553,-174 445.4553,-180 439.4553,-180"/>
<text text-anchor="middle" x="387.4553" y="-165" font-family="sans" font-size="10.00" fill="#000000">fastqc_trim</text>
<text text-anchor="middle" x="387.4553" y="-154" font-family="sans" font-size="10.00" fill="#000000">read_type_trim: collapsed</text>
</g>
<!-- 21&#45;&gt;31 -->
<g id="edge63" class="edge">
<title>21&#45;&gt;31</title>
<path fill="none" stroke="#c0c0c0" stroke-width="2" d="M288.7645,-215.8314C305.8826,-206.4942 326.9259,-195.016 345.1775,-185.0606"/>
<polygon fill="#c0c0c0" stroke="#c0c0c0" stroke-width="2" points="347.0538,-188.024 354.1568,-180.1628 343.7018,-181.8788 347.0538,-188.024"/>
</g>
<!-- 34 -->
<g id="node35" class="node">
<title>34</title>
<path fill="none" stroke="#56d89a" stroke-width="2" d="M583.4553,-180C583.4553,-180 481.4553,-180 481.4553,-180 475.4553,-180 469.4553,-174 469.4553,-168 469.4553,-168 469.4553,-156 469.4553,-156 469.4553,-150 475.4553,-144 481.4553,-144 481.4553,-144 583.4553,-144 583.4553,-144 589.4553,-144 595.4553,-150 595.4553,-156 595.4553,-156 595.4553,-168 595.4553,-168 595.4553,-174 589.4553,-180 583.4553,-180"/>
<text text-anchor="middle" x="532.4553" y="-165" font-family="sans" font-size="10.00" fill="#000000">fastqc_trim</text>
<text text-anchor="middle" x="532.4553" y="-154" font-family="sans" font-size="10.00" fill="#000000">read_type_trim: singleton</text>
</g>
<!-- 21&#45;&gt;34 -->
<g id="edge66" class="edge">
<title>21&#45;&gt;34</title>
<path fill="none" stroke="#c0c0c0" stroke-width="2" d="M318.6575,-217.572C360.5199,-206.6908 415.5684,-192.3822 459.3226,-181.0092"/>
<polygon fill="#c0c0c0" stroke="#c0c0c0" stroke-width="2" points="460.2478,-184.3851 469.0457,-178.4819 458.4868,-177.6102 460.2478,-184.3851"/>
</g>
<!-- 35 -->
<g id="node36" class="node">
<title>35</title>
<path fill="none" stroke="#56d89a" stroke-width="2" d="M701.4553,-180C701.4553,-180 625.4553,-180 625.4553,-180 619.4553,-180 613.4553,-174 613.4553,-168 613.4553,-168 613.4553,-156 613.4553,-156 613.4553,-150 619.4553,-144 625.4553,-144 625.4553,-144 701.4553,-144 701.4553,-144 707.4553,-144 713.4553,-150 713.4553,-156 713.4553,-156 713.4553,-168 713.4553,-168 713.4553,-174 707.4553,-180 701.4553,-180"/>
<text text-anchor="middle" x="663.4553" y="-165" font-family="sans" font-size="10.00" fill="#000000">fastqc_trim</text>
<text text-anchor="middle" x="663.4553" y="-154" font-family="sans" font-size="10.00" fill="#000000">read_type_trim: R2</text>
</g>
<!-- 21&#45;&gt;35 -->
<g id="edge67" class="edge">
<title>21&#45;&gt;35</title>
<path fill="none" stroke="#c0c0c0" stroke-width="2" d="M318.6976,-226.9682C386.8808,-218.7698 498.666,-203.5435 603.571,-180.0363"/>
<polygon fill="#c0c0c0" stroke="#c0c0c0" stroke-width="2" points="604.3975,-183.4378 613.3743,-177.8104 602.8475,-176.6115 604.3975,-183.4378"/>
</g>
<!-- 22&#45;&gt;1 -->
<g id="edge18" class="edge">
<title>22&#45;&gt;1</title>
<path fill="none" stroke="#c0c0c0" stroke-width="2" d="M187.9063,-145.1889C190.7865,-144.7517 193.6436,-144.3524 196.4553,-144 473.4709,-109.2798 1374.9577,-93.5786 1569.3113,-90.553"/>
<polygon fill="#c0c0c0" stroke="#c0c0c0" stroke-width="2" points="1569.3677,-94.0526 1579.3126,-90.3988 1569.2598,-87.0534 1569.3677,-94.0526"/>
</g>
<!-- 23&#45;&gt;1 -->
<g id="edge19" class="edge">
<title>23&#45;&gt;1</title>
<path fill="none" stroke="#c0c0c0" stroke-width="2" d="M2267.3579,-146.9339C2262.6847,-145.8244 2257.9987,-144.8207 2253.4553,-144 2024.1606,-102.5789 1743.3016,-92.8419 1643.6635,-90.628"/>
<polygon fill="#c0c0c0" stroke="#c0c0c0" stroke-width="2" points="1643.5762,-87.1255 1633.505,-90.4148 1643.4293,-94.124 1643.5762,-87.1255"/>
</g>
<!-- 24&#45;&gt;1 -->
<g id="edge20" class="edge">
<title>24&#45;&gt;1</title>
<path fill="none" stroke="#c0c0c0" stroke-width="2" d="M3063.3309,-145.9153C3058.6481,-145.1893 3053.9949,-144.5404 3049.4553,-144 2765.4451,-110.1921 1841.3382,-93.7513 1643.8212,-90.5769"/>
<polygon fill="#c0c0c0" stroke="#c0c0c0" stroke-width="2" points="1643.7198,-87.0749 1633.6653,-90.4151 1643.6083,-94.074 1643.7198,-87.0749"/>
</g>
<!-- 25&#45;&gt;1 -->
<g id="edge21" class="edge">
<title>25&#45;&gt;1</title>
<path fill="none" stroke="#c0c0c0" stroke-width="2" d="M1011.8325,-145.5712C1014.7392,-145.0047 1017.6235,-144.4768 1020.4553,-144 1226.1167,-109.3694 1476.3923,-95.632 1569.3648,-91.4871"/>
<polygon fill="#c0c0c0" stroke="#c0c0c0" stroke-width="2" points="1569.5634,-94.9818 1579.4016,-91.0499 1569.2588,-87.9885 1569.5634,-94.9818"/>
</g>
<!-- 26&#45;&gt;1 -->
<g id="edge22" class="edge">
<title>26&#45;&gt;1</title>
<path fill="none" stroke="#c0c0c0" stroke-width="2" d="M1129.5069,-146.0549C1132.5207,-145.3052 1135.5198,-144.6119 1138.4553,-144 1296.6917,-111.0175 1489.5236,-96.7772 1569.2354,-91.9979"/>
<polygon fill="#c0c0c0" stroke="#c0c0c0" stroke-width="2" points="1569.4961,-95.4887 1579.2746,-91.4105 1569.0872,-88.5007 1569.4961,-95.4887"/>
</g>
<!-- 27&#45;&gt;1 -->
<g id="edge23" class="edge">
<title>27&#45;&gt;1</title>
<path fill="none" stroke="#c0c0c0" stroke-width="2" d="M1297.5358,-145.783C1300.5467,-145.1733 1303.5287,-144.5768 1306.4553,-144 1400.7923,-125.4074 1512.3372,-106.0055 1569.1446,-96.3085"/>
<polygon fill="#c0c0c0" stroke="#c0c0c0" stroke-width="2" points="1569.828,-99.7426 1579.0983,-94.6132 1568.6526,-92.842 1569.828,-99.7426"/>
</g>
<!-- 28&#45;&gt;1 -->
<g id="edge24" class="edge">
<title>28&#45;&gt;1</title>
<path fill="none" stroke="#c0c0c0" stroke-width="2" d="M305.4584,-145.7987C308.4844,-145.1134 311.4994,-144.5042 314.4553,-144 565.1952,-101.2315 1384.3387,-91.8675 1569.172,-90.2808"/>
<polygon fill="#c0c0c0" stroke="#c0c0c0" stroke-width="2" points="1569.24,-93.7805 1579.2104,-90.197 1569.1815,-86.7807 1569.24,-93.7805"/>
</g>
<!-- 29&#45;&gt;1 -->
<g id="edge25" class="edge">
<title>29&#45;&gt;1</title>
<path fill="none" stroke="#c0c0c0" stroke-width="2" d="M1435.695,-143.9243C1477.6548,-130.6738 1533.3882,-113.0738 1569.5849,-101.6433"/>
<polygon fill="#c0c0c0" stroke="#c0c0c0" stroke-width="2" points="1570.7667,-104.9405 1579.2485,-98.5916 1568.6587,-98.2655 1570.7667,-104.9405"/>
</g>
<!-- 30&#45;&gt;1 -->
<g id="edge26" class="edge">
<title>30&#45;&gt;1</title>
<path fill="none" stroke="#c0c0c0" stroke-width="2" d="M1533.9325,-143.8314C1545.9948,-134.8779 1560.7093,-123.9558 1573.7239,-114.2955"/>
<polygon fill="#c0c0c0" stroke="#c0c0c0" stroke-width="2" points="1576.0423,-116.9335 1581.9859,-108.1628 1571.8701,-111.3127 1576.0423,-116.9335"/>
</g>
<!-- 31&#45;&gt;1 -->
<g id="edge27" class="edge">
<title>31&#45;&gt;1</title>
<path fill="none" stroke="#c0c0c0" stroke-width="2" d="M451.8075,-145.4119C454.721,-144.8885 457.6135,-144.4133 460.4553,-144 681.9955,-111.781 1398.1002,-94.5078 1569.3954,-90.7753"/>
<polygon fill="#c0c0c0" stroke="#c0c0c0" stroke-width="2" points="1569.5066,-94.2739 1579.4286,-90.5587 1569.3554,-87.2755 1569.5066,-94.2739"/>
</g>
<!-- 32&#45;&gt;1 -->
<g id="edge28" class="edge">
<title>32&#45;&gt;1</title>
<path fill="none" stroke="#c0c0c0" stroke-width="2" d="M2499.3766,-146.8275C2494.6994,-145.7404 2490.0074,-144.7709 2485.4553,-144 2319.6394,-115.9185 1789.6805,-96.2225 1643.8874,-91.2376"/>
<polygon fill="#c0c0c0" stroke="#c0c0c0" stroke-width="2" points="1643.7884,-87.7324 1633.6754,-90.8911 1643.551,-94.7283 1643.7884,-87.7324"/>
</g>
<!-- 33&#45;&gt;1 -->
<g id="edge29" class="edge">
<title>33&#45;&gt;1</title>
<path fill="none" stroke="#c0c0c0" stroke-width="2" d="M2617.0996,-145.4359C2614.187,-144.906 2611.2957,-144.4229 2608.4553,-144 2416.8534,-115.4739 1801.9761,-95.7581 1643.826,-91.0729"/>
<polygon fill="#c0c0c0" stroke="#c0c0c0" stroke-width="2" points="1643.7572,-87.5694 1633.6586,-90.7738 1643.5513,-94.5664 1643.7572,-87.5694"/>
</g>
<!-- 34&#45;&gt;1 -->
<g id="edge30" class="edge">
<title>34&#45;&gt;1</title>
<path fill="none" stroke="#c0c0c0" stroke-width="2" d="M595.5336,-145.506C598.5398,-144.9483 601.5248,-144.4411 604.4553,-144 796.011,-115.1649 1410.9224,-95.6769 1569.0822,-91.0569"/>
<polygon fill="#c0c0c0" stroke="#c0c0c0" stroke-width="2" points="1569.3559,-94.5505 1579.2502,-90.762 1569.153,-87.5534 1569.3559,-94.5505"/>
</g>
<!-- 35&#45;&gt;1 -->
<g id="edge31" class="edge">
<title>35&#45;&gt;1</title>
<path fill="none" stroke="#c0c0c0" stroke-width="2" d="M713.5341,-146.8275C718.2112,-145.7404 722.9032,-144.7709 727.4553,-144 893.2712,-115.9185 1423.2301,-96.2225 1569.0232,-91.2376"/>
<polygon fill="#c0c0c0" stroke="#c0c0c0" stroke-width="2" points="1569.3597,-94.7283 1579.2352,-90.8911 1569.1222,-87.7324 1569.3597,-94.7283"/>
</g>
<!-- 36&#45;&gt;1 -->
<g id="edge32" class="edge">
<title>36&#45;&gt;1</title>
<path fill="none" stroke="#c0c0c0" stroke-width="2" d="M1688.6977,-143.8314C1674.6519,-134.6377 1657.4348,-123.3684 1642.3899,-113.5208"/>
<polygon fill="#c0c0c0" stroke="#c0c0c0" stroke-width="2" points="1644.1069,-110.4616 1633.823,-107.9134 1640.2732,-116.3185 1644.1069,-110.4616"/>
</g>
<!-- 37&#45;&gt;1 -->
<g id="edge33" class="edge">
<title>37&#45;&gt;1</title>
<path fill="none" stroke="#c0c0c0" stroke-width="2" d="M1805.6756,-143.9243C1754.3513,-130.032 1685.3633,-111.3585 1643.4989,-100.0268"/>
<polygon fill="#c0c0c0" stroke="#c0c0c0" stroke-width="2" points="1644.2889,-96.6148 1633.7218,-97.3804 1642.4599,-103.3716 1644.2889,-96.6148"/>
</g>
<!-- 38&#45;&gt;1 -->
<g id="edge34" class="edge">
<title>38&#45;&gt;1</title>
<path fill="none" stroke="#c0c0c0" stroke-width="2" d="M1965.4333,-145.8731C1962.4034,-145.2172 1959.3992,-144.5888 1956.4553,-144 1843.3788,-121.3823 1708.1215,-102.9204 1643.8818,-94.6654"/>
<polygon fill="#c0c0c0" stroke="#c0c0c0" stroke-width="2" points="1644.1921,-91.1767 1633.8295,-93.3827 1643.306,-98.1204 1644.1921,-91.1767"/>
</g>
<!-- 39&#45;&gt;1 -->
<g id="edge35" class="edge">
<title>39&#45;&gt;1</title>
<path fill="none" stroke="#c0c0c0" stroke-width="2" d="M2763.3808,-145.4811C2760.3736,-144.93 2757.3873,-144.4311 2754.4553,-144 2532.5803,-111.3761 1815.1866,-94.4091 1643.5823,-90.7573"/>
<polygon fill="#c0c0c0" stroke="#c0c0c0" stroke-width="2" points="1643.6024,-87.257 1633.5308,-90.5454 1643.4548,-94.2555 1643.6024,-87.257"/>
</g>
<!-- 40&#45;&gt;1 -->
<g id="edge36" class="edge">
<title>40&#45;&gt;1</title>
<path fill="none" stroke="#c0c0c0" stroke-width="2" d="M2111.4084,-146.0324C2108.3934,-145.2884 2105.3927,-144.6024 2102.4553,-144 1933.3707,-109.3234 1726.9955,-95.9127 1643.8268,-91.6716"/>
<polygon fill="#c0c0c0" stroke="#c0c0c0" stroke-width="2" points="1643.7749,-88.1649 1633.6139,-91.1658 1643.4285,-95.1563 1643.7749,-88.1649"/>
</g>
<!-- 41&#45;&gt;1 -->
<g id="edge37" class="edge">
<title>41&#45;&gt;1</title>
<path fill="none" stroke="#c0c0c0" stroke-width="2" d="M2907.4522,-145.7987C2904.4263,-145.1134 2901.4112,-144.5042 2898.4553,-144 2647.7154,-101.2315 1828.5719,-91.8675 1643.7386,-90.2808"/>
<polygon fill="#c0c0c0" stroke="#c0c0c0" stroke-width="2" points="1643.7291,-86.7807 1633.7002,-90.197 1643.6706,-93.7805 1643.7291,-86.7807"/>
</g>
</g>
</svg>
