<?xml version="1.0" encoding="UTF-8" standalone="no"?>
<!DOCTYPE svg PUBLIC "-//W3C//DTD SVG 1.1//EN"
 "http://www.w3.org/Graphics/SVG/1.1/DTD/svg11.dtd">
<!-- Generated by graphviz version 2.40.1 (0)
 -->
<!-- Title: snakemake_dag Pages: 1 -->
<svg width="1918pt" height="359pt"
 viewBox="0.00 0.00 1918.00 359.00" xmlns="http://www.w3.org/2000/svg" xmlns:xlink="http://www.w3.org/1999/xlink">
<g id="graph0" class="graph" transform="scale(1 1) rotate(0) translate(4 355)">
<title>snakemake_dag</title>
<polygon fill="#ffffff" stroke="transparent" points="-4,4 -4,-355 1914,-355 1914,4 -4,4"/>
<!-- 0 -->
<g id="node1" class="node">
<title>0</title>
<path fill="none" stroke="#97d856" stroke-width="2" d="M854.5,-36C854.5,-36 824.5,-36 824.5,-36 818.5,-36 812.5,-30 812.5,-24 812.5,-24 812.5,-12 812.5,-12 812.5,-6 818.5,0 824.5,0 824.5,0 854.5,0 854.5,0 860.5,0 866.5,-6 866.5,-12 866.5,-12 866.5,-24 866.5,-24 866.5,-30 860.5,-36 854.5,-36"/>
<text text-anchor="middle" x="839.5" y="-15.5" font-family="sans" font-size="10.00" fill="#000000">all</text>
</g>
<!-- 1 -->
<g id="node2" class="node">
<title>1</title>
<path fill="none" stroke="#d85656" stroke-width="2" d="M959.5,-108C959.5,-108 929.5,-108 929.5,-108 923.5,-108 917.5,-102 917.5,-96 917.5,-96 917.5,-84 917.5,-84 917.5,-78 923.5,-72 929.5,-72 929.5,-72 959.5,-72 959.5,-72 965.5,-72 971.5,-78 971.5,-84 971.5,-84 971.5,-96 971.5,-96 971.5,-102 965.5,-108 959.5,-108"/>
<text text-anchor="middle" x="944.5" y="-87.5" font-family="sans" font-size="10.00" fill="#000000">multiqc</text>
</g>
<!-- 1&#45;&gt;0 -->
<g id="edge1" class="edge">
<title>1&#45;&gt;0</title>
<path fill="none" stroke="#c0c0c0" stroke-width="2" d="M918.0041,-71.8314C904.8226,-62.7927 888.7153,-51.7476 874.5289,-42.0198"/>
<polygon fill="#c0c0c0" stroke="#c0c0c0" stroke-width="2" points="876.2141,-38.9316 865.9875,-36.1628 872.2554,-44.7047 876.2141,-38.9316"/>
</g>
<!-- 2 -->
<g id="node3" class="node">
<title>2</title>
<path fill="none" stroke="#56d89a" stroke-width="2" d="M580,-252C580,-252 539,-252 539,-252 533,-252 527,-246 527,-240 527,-240 527,-228 527,-228 527,-222 533,-216 539,-216 539,-216 580,-216 580,-216 586,-216 592,-222 592,-228 592,-228 592,-240 592,-240 592,-246 586,-252 580,-252"/>
<text text-anchor="middle" x="559.5" y="-231.5" font-family="sans" font-size="10.00" fill="#000000">fastqc_raw</text>
</g>
<!-- 2&#45;&gt;1 -->
<g id="edge5" class="edge">
<title>2&#45;&gt;1</title>
<path fill="none" stroke="#c0c0c0" stroke-width="2" d="M575.6935,-215.6376C595.1201,-194.8431 629.7017,-161.5757 666.5,-144 708.7177,-123.8359 841.8112,-103.8078 907.3275,-94.858"/>
<polygon fill="#c0c0c0" stroke="#c0c0c0" stroke-width="2" points="907.797,-98.3264 917.238,-93.5184 906.8592,-91.3895 907.797,-98.3264"/>
</g>
<!-- 3 -->
<g id="node4" class="node">
<title>3</title>
<path fill="none" stroke="#d6d856" stroke-width="2" d="M556.5,-351C556.5,-351 472.5,-351 472.5,-351 466.5,-351 460.5,-345 460.5,-339 460.5,-339 460.5,-300 460.5,-300 460.5,-294 466.5,-288 472.5,-288 472.5,-288 556.5,-288 556.5,-288 562.5,-288 568.5,-294 568.5,-300 568.5,-300 568.5,-339 568.5,-339 568.5,-345 562.5,-351 556.5,-351"/>
<text text-anchor="middle" x="514.5" y="-339" font-family="sans" font-size="10.00" fill="#000000">get_fastq_raw</text>
<text text-anchor="middle" x="514.5" y="-328" font-family="sans" font-size="10.00" fill="#000000">lane: L002</text>
<text text-anchor="middle" x="514.5" y="-317" font-family="sans" font-size="10.00" fill="#000000">library: lib1</text>
<text text-anchor="middle" x="514.5" y="-306" font-family="sans" font-size="10.00" fill="#000000">read_type_raw: R2</text>
<text text-anchor="middle" x="514.5" y="-295" font-family="sans" font-size="10.00" fill="#000000">sample: HD827sonic</text>
</g>
<!-- 3&#45;&gt;2 -->
<g id="edge26" class="edge">
<title>3&#45;&gt;2</title>
<path fill="none" stroke="#c0c0c0" stroke-width="2" d="M531.2563,-287.663C535.8316,-278.97 540.7464,-269.6318 545.1728,-261.2216"/>
<polygon fill="#c0c0c0" stroke="#c0c0c0" stroke-width="2" points="548.3585,-262.6836 549.9188,-252.2043 542.1641,-259.4234 548.3585,-262.6836"/>
</g>
<!-- 16 -->
<g id="node17" class="node">
<title>16</title>
<path fill="none" stroke="#569ad8" stroke-width="2" d="M295,-252C295,-252 238,-252 238,-252 232,-252 226,-246 226,-240 226,-240 226,-228 226,-228 226,-222 232,-216 238,-216 238,-216 295,-216 295,-216 301,-216 307,-222 307,-228 307,-228 307,-240 307,-240 307,-246 301,-252 295,-252"/>
<text text-anchor="middle" x="266.5" y="-231.5" font-family="sans" font-size="10.00" fill="#000000">fastp_fastq_pe</text>
</g>
<!-- 3&#45;&gt;16 -->
<g id="edge37" class="edge">
<title>3&#45;&gt;16</title>
<path fill="none" stroke="#c0c0c0" stroke-width="2" d="M460.3818,-300.8423C417.6318,-286.1039 358.4284,-265.6931 316.7224,-251.3146"/>
<polygon fill="#c0c0c0" stroke="#c0c0c0" stroke-width="2" points="317.6414,-247.9293 307.0467,-247.9788 315.3598,-254.5471 317.6414,-247.9293"/>
</g>
<!-- 4 -->
<g id="node5" class="node">
<title>4</title>
<path fill="none" stroke="#56d89a" stroke-width="2" d="M686,-252C686,-252 645,-252 645,-252 639,-252 633,-246 633,-240 633,-240 633,-228 633,-228 633,-222 639,-216 645,-216 645,-216 686,-216 686,-216 692,-216 698,-222 698,-228 698,-228 698,-240 698,-240 698,-246 692,-252 686,-252"/>
<text text-anchor="middle" x="665.5" y="-231.5" font-family="sans" font-size="10.00" fill="#000000">fastqc_raw</text>
</g>
<!-- 4&#45;&gt;1 -->
<g id="edge6" class="edge">
<title>4&#45;&gt;1</title>
<path fill="none" stroke="#c0c0c0" stroke-width="2" d="M664.857,-215.6876C665.1936,-195.2582 669.0574,-162.6369 688.5,-144 719.42,-114.3613 843.714,-99.0854 907.0284,-93.0956"/>
<polygon fill="#c0c0c0" stroke="#c0c0c0" stroke-width="2" points="907.7356,-96.5456 917.3748,-92.1483 907.0973,-89.5748 907.7356,-96.5456"/>
</g>
<!-- 5 -->
<g id="node6" class="node">
<title>5</title>
<path fill="none" stroke="#d6d856" stroke-width="2" d="M883.5,-351C883.5,-351 799.5,-351 799.5,-351 793.5,-351 787.5,-345 787.5,-339 787.5,-339 787.5,-300 787.5,-300 787.5,-294 793.5,-288 799.5,-288 799.5,-288 883.5,-288 883.5,-288 889.5,-288 895.5,-294 895.5,-300 895.5,-300 895.5,-339 895.5,-339 895.5,-345 889.5,-351 883.5,-351"/>
<text text-anchor="middle" x="841.5" y="-339" font-family="sans" font-size="10.00" fill="#000000">get_fastq_raw</text>
<text text-anchor="middle" x="841.5" y="-328" font-family="sans" font-size="10.00" fill="#000000">lane: L002</text>
<text text-anchor="middle" x="841.5" y="-317" font-family="sans" font-size="10.00" fill="#000000">library: lib2</text>
<text text-anchor="middle" x="841.5" y="-306" font-family="sans" font-size="10.00" fill="#000000">read_type_raw: R1</text>
<text text-anchor="middle" x="841.5" y="-295" font-family="sans" font-size="10.00" fill="#000000">sample: HD827sonic</text>
</g>
<!-- 5&#45;&gt;4 -->
<g id="edge27" class="edge">
<title>5&#45;&gt;4</title>
<path fill="none" stroke="#c0c0c0" stroke-width="2" d="M787.2581,-293.1495C761.4892,-280.6311 731.1682,-265.9013 707.2305,-254.2725"/>
<polygon fill="#c0c0c0" stroke="#c0c0c0" stroke-width="2" points="708.585,-251.0394 698.0608,-249.8179 705.5263,-257.3358 708.585,-251.0394"/>
</g>
<!-- 15 -->
<g id="node16" class="node">
<title>15</title>
<path fill="none" stroke="#569ad8" stroke-width="2" d="M972,-252C972,-252 915,-252 915,-252 909,-252 903,-246 903,-240 903,-240 903,-228 903,-228 903,-222 909,-216 915,-216 915,-216 972,-216 972,-216 978,-216 984,-222 984,-228 984,-228 984,-240 984,-240 984,-246 978,-252 972,-252"/>
<text text-anchor="middle" x="943.5" y="-231.5" font-family="sans" font-size="10.00" fill="#000000">fastp_fastq_pe</text>
</g>
<!-- 5&#45;&gt;15 -->
<g id="edge34" class="edge">
<title>5&#45;&gt;15</title>
<path fill="none" stroke="#c0c0c0" stroke-width="2" d="M879.1912,-287.9059C890.6778,-278.2774 903.1328,-267.8372 913.9954,-258.7318"/>
<polygon fill="#c0c0c0" stroke="#c0c0c0" stroke-width="2" points="916.5339,-261.1709 921.9493,-252.0646 912.0371,-255.8063 916.5339,-261.1709"/>
</g>
<!-- 6 -->
<g id="node7" class="node">
<title>6</title>
<path fill="none" stroke="#56d89a" stroke-width="2" d="M1352,-252C1352,-252 1311,-252 1311,-252 1305,-252 1299,-246 1299,-240 1299,-240 1299,-228 1299,-228 1299,-222 1305,-216 1311,-216 1311,-216 1352,-216 1352,-216 1358,-216 1364,-222 1364,-228 1364,-228 1364,-240 1364,-240 1364,-246 1358,-252 1352,-252"/>
<text text-anchor="middle" x="1331.5" y="-231.5" font-family="sans" font-size="10.00" fill="#000000">fastqc_raw</text>
</g>
<!-- 6&#45;&gt;1 -->
<g id="edge7" class="edge">
<title>6&#45;&gt;1</title>
<path fill="none" stroke="#c0c0c0" stroke-width="2" d="M1324.262,-215.8406C1314.9145,-194.9121 1296.5632,-161.1984 1269.5,-144 1222.2234,-113.9562 1057.0391,-98.2748 982.0461,-92.5656"/>
<polygon fill="#c0c0c0" stroke="#c0c0c0" stroke-width="2" points="981.8923,-89.0447 971.6607,-91.7951 981.3743,-96.0255 981.8923,-89.0447"/>
</g>
<!-- 7 -->
<g id="node8" class="node">
<title>7</title>
<path fill="none" stroke="#d6d856" stroke-width="2" d="M1522.5,-351C1522.5,-351 1438.5,-351 1438.5,-351 1432.5,-351 1426.5,-345 1426.5,-339 1426.5,-339 1426.5,-300 1426.5,-300 1426.5,-294 1432.5,-288 1438.5,-288 1438.5,-288 1522.5,-288 1522.5,-288 1528.5,-288 1534.5,-294 1534.5,-300 1534.5,-300 1534.5,-339 1534.5,-339 1534.5,-345 1528.5,-351 1522.5,-351"/>
<text text-anchor="middle" x="1480.5" y="-339" font-family="sans" font-size="10.00" fill="#000000">get_fastq_raw</text>
<text text-anchor="middle" x="1480.5" y="-328" font-family="sans" font-size="10.00" fill="#000000">lane: L001</text>
<text text-anchor="middle" x="1480.5" y="-317" font-family="sans" font-size="10.00" fill="#000000">library: lib1</text>
<text text-anchor="middle" x="1480.5" y="-306" font-family="sans" font-size="10.00" fill="#000000">read_type_raw: R2</text>
<text text-anchor="middle" x="1480.5" y="-295" font-family="sans" font-size="10.00" fill="#000000">sample: HD827sonic</text>
</g>
<!-- 7&#45;&gt;6 -->
<g id="edge28" class="edge">
<title>7&#45;&gt;6</title>
<path fill="none" stroke="#c0c0c0" stroke-width="2" d="M1426.2861,-288.3907C1408.313,-278.0773 1388.6349,-266.7854 1371.8891,-257.1763"/>
<polygon fill="#c0c0c0" stroke="#c0c0c0" stroke-width="2" points="1373.3325,-253.9693 1362.917,-252.0279 1369.8485,-260.0407 1373.3325,-253.9693"/>
</g>
<!-- 14 -->
<g id="node15" class="node">
<title>14</title>
<path fill="none" stroke="#569ad8" stroke-width="2" d="M1678,-252C1678,-252 1621,-252 1621,-252 1615,-252 1609,-246 1609,-240 1609,-240 1609,-228 1609,-228 1609,-222 1615,-216 1621,-216 1621,-216 1678,-216 1678,-216 1684,-216 1690,-222 1690,-228 1690,-228 1690,-240 1690,-240 1690,-246 1684,-252 1678,-252"/>
<text text-anchor="middle" x="1649.5" y="-231.5" font-family="sans" font-size="10.00" fill="#000000">fastp_fastq_pe</text>
</g>
<!-- 7&#45;&gt;14 -->
<g id="edge33" class="edge">
<title>7&#45;&gt;14</title>
<path fill="none" stroke="#c0c0c0" stroke-width="2" d="M1534.9029,-291.9766C1557.4294,-280.5801 1583.2383,-267.5229 1604.6531,-256.6888"/>
<polygon fill="#c0c0c0" stroke="#c0c0c0" stroke-width="2" points="1606.5036,-259.6751 1613.8466,-252.0377 1603.3435,-253.429 1606.5036,-259.6751"/>
</g>
<!-- 8 -->
<g id="node9" class="node">
<title>8</title>
<path fill="none" stroke="#56d89a" stroke-width="2" d="M1898,-252C1898,-252 1857,-252 1857,-252 1851,-252 1845,-246 1845,-240 1845,-240 1845,-228 1845,-228 1845,-222 1851,-216 1857,-216 1857,-216 1898,-216 1898,-216 1904,-216 1910,-222 1910,-228 1910,-228 1910,-240 1910,-240 1910,-246 1904,-252 1898,-252"/>
<text text-anchor="middle" x="1877.5" y="-231.5" font-family="sans" font-size="10.00" fill="#000000">fastqc_raw</text>
</g>
<!-- 8&#45;&gt;1 -->
<g id="edge8" class="edge">
<title>8&#45;&gt;1</title>
<path fill="none" stroke="#c0c0c0" stroke-width="2" d="M1888.2652,-215.9027C1898.7477,-195.6707 1910.6659,-163.2301 1892.5,-144 1860.6907,-110.3272 1153.7813,-94.1534 981.9086,-90.7105"/>
<polygon fill="#c0c0c0" stroke="#c0c0c0" stroke-width="2" points="981.8951,-87.2097 971.8278,-90.511 981.7565,-94.2083 981.8951,-87.2097"/>
</g>
<!-- 9 -->
<g id="node10" class="node">
<title>9</title>
<path fill="none" stroke="#d6d856" stroke-width="2" d="M1754.5,-351C1754.5,-351 1670.5,-351 1670.5,-351 1664.5,-351 1658.5,-345 1658.5,-339 1658.5,-339 1658.5,-300 1658.5,-300 1658.5,-294 1664.5,-288 1670.5,-288 1670.5,-288 1754.5,-288 1754.5,-288 1760.5,-288 1766.5,-294 1766.5,-300 1766.5,-300 1766.5,-339 1766.5,-339 1766.5,-345 1760.5,-351 1754.5,-351"/>
<text text-anchor="middle" x="1712.5" y="-339" font-family="sans" font-size="10.00" fill="#000000">get_fastq_raw</text>
<text text-anchor="middle" x="1712.5" y="-328" font-family="sans" font-size="10.00" fill="#000000">lane: L001</text>
<text text-anchor="middle" x="1712.5" y="-317" font-family="sans" font-size="10.00" fill="#000000">library: lib1</text>
<text text-anchor="middle" x="1712.5" y="-306" font-family="sans" font-size="10.00" fill="#000000">read_type_raw: R1</text>
<text text-anchor="middle" x="1712.5" y="-295" font-family="sans" font-size="10.00" fill="#000000">sample: HD827sonic</text>
</g>
<!-- 9&#45;&gt;8 -->
<g id="edge29" class="edge">
<title>9&#45;&gt;8</title>
<path fill="none" stroke="#c0c0c0" stroke-width="2" d="M1766.5272,-291.5041C1788.9598,-279.8799 1814.5936,-266.5969 1835.5691,-255.7278"/>
<polygon fill="#c0c0c0" stroke="#c0c0c0" stroke-width="2" points="1837.2812,-258.7827 1844.5496,-251.0743 1834.0605,-252.5676 1837.2812,-258.7827"/>
</g>
<!-- 9&#45;&gt;14 -->
<g id="edge32" class="edge">
<title>9&#45;&gt;14</title>
<path fill="none" stroke="#c0c0c0" stroke-width="2" d="M1689.0411,-287.663C1682.4292,-278.6896 1675.3106,-269.0287 1668.9605,-260.4106"/>
<polygon fill="#c0c0c0" stroke="#c0c0c0" stroke-width="2" points="1671.6634,-258.1787 1662.9137,-252.2043 1666.028,-262.3311 1671.6634,-258.1787"/>
</g>
<!-- 10 -->
<g id="node11" class="node">
<title>10</title>
<path fill="none" stroke="#56d89a" stroke-width="2" d="M1184,-252C1184,-252 1143,-252 1143,-252 1137,-252 1131,-246 1131,-240 1131,-240 1131,-228 1131,-228 1131,-222 1137,-216 1143,-216 1143,-216 1184,-216 1184,-216 1190,-216 1196,-222 1196,-228 1196,-228 1196,-240 1196,-240 1196,-246 1190,-252 1184,-252"/>
<text text-anchor="middle" x="1163.5" y="-231.5" font-family="sans" font-size="10.00" fill="#000000">fastqc_raw</text>
</g>
<!-- 10&#45;&gt;1 -->
<g id="edge9" class="edge">
<title>10&#45;&gt;1</title>
<path fill="none" stroke="#c0c0c0" stroke-width="2" d="M1196.3317,-223.4622C1216.4357,-215.1156 1240.5313,-201.2613 1252.5,-180 1260.3488,-166.0574 1262.7906,-156.2517 1252.5,-144 1218.3057,-103.2891 1056.1366,-93.2636 981.8382,-90.8"/>
<polygon fill="#c0c0c0" stroke="#c0c0c0" stroke-width="2" points="981.6407,-87.2925 971.5395,-90.4886 981.4291,-94.2893 981.6407,-87.2925"/>
</g>
<!-- 11 -->
<g id="node12" class="node">
<title>11</title>
<path fill="none" stroke="#d6d856" stroke-width="2" d="M1094.5,-351C1094.5,-351 1010.5,-351 1010.5,-351 1004.5,-351 998.5,-345 998.5,-339 998.5,-339 998.5,-300 998.5,-300 998.5,-294 1004.5,-288 1010.5,-288 1010.5,-288 1094.5,-288 1094.5,-288 1100.5,-288 1106.5,-294 1106.5,-300 1106.5,-300 1106.5,-339 1106.5,-339 1106.5,-345 1100.5,-351 1094.5,-351"/>
<text text-anchor="middle" x="1052.5" y="-339" font-family="sans" font-size="10.00" fill="#000000">get_fastq_raw</text>
<text text-anchor="middle" x="1052.5" y="-328" font-family="sans" font-size="10.00" fill="#000000">lane: L002</text>
<text text-anchor="middle" x="1052.5" y="-317" font-family="sans" font-size="10.00" fill="#000000">library: lib2</text>
<text text-anchor="middle" x="1052.5" y="-306" font-family="sans" font-size="10.00" fill="#000000">read_type_raw: R2</text>
<text text-anchor="middle" x="1052.5" y="-295" font-family="sans" font-size="10.00" fill="#000000">sample: HD827sonic</text>
</g>
<!-- 11&#45;&gt;10 -->
<g id="edge30" class="edge">
<title>11&#45;&gt;10</title>
<path fill="none" stroke="#c0c0c0" stroke-width="2" d="M1093.5169,-287.9059C1106.2621,-278.0886 1120.1029,-267.4275 1132.0854,-258.1978"/>
<polygon fill="#c0c0c0" stroke="#c0c0c0" stroke-width="2" points="1134.2613,-260.9397 1140.0477,-252.0646 1129.9896,-255.3941 1134.2613,-260.9397"/>
</g>
<!-- 11&#45;&gt;15 -->
<g id="edge35" class="edge">
<title>11&#45;&gt;15</title>
<path fill="none" stroke="#c0c0c0" stroke-width="2" d="M1012.2221,-287.9059C999.8269,-278.183 986.3764,-267.6324 974.6885,-258.4644"/>
<polygon fill="#c0c0c0" stroke="#c0c0c0" stroke-width="2" points="976.5581,-255.4826 966.5297,-252.0646 972.2378,-260.9903 976.5581,-255.4826"/>
</g>
<!-- 12 -->
<g id="node13" class="node">
<title>12</title>
<path fill="none" stroke="#56d89a" stroke-width="2" d="M53,-252C53,-252 12,-252 12,-252 6,-252 0,-246 0,-240 0,-240 0,-228 0,-228 0,-222 6,-216 12,-216 12,-216 53,-216 53,-216 59,-216 65,-222 65,-228 65,-228 65,-240 65,-240 65,-246 59,-252 53,-252"/>
<text text-anchor="middle" x="32.5" y="-231.5" font-family="sans" font-size="10.00" fill="#000000">fastqc_raw</text>
</g>
<!-- 12&#45;&gt;1 -->
<g id="edge10" class="edge">
<title>12&#45;&gt;1</title>
<path fill="none" stroke="#c0c0c0" stroke-width="2" d="M19.4589,-215.6503C6.8638,-195.4956 -7.8276,-163.4178 10.5,-144 41.7772,-110.8622 736.097,-94.3235 906.8329,-90.749"/>
<polygon fill="#c0c0c0" stroke="#c0c0c0" stroke-width="2" points="907.1583,-94.2431 917.0837,-90.5369 907.0134,-87.2446 907.1583,-94.2431"/>
</g>
<!-- 13 -->
<g id="node14" class="node">
<title>13</title>
<path fill="none" stroke="#d6d856" stroke-width="2" d="M191.5,-351C191.5,-351 107.5,-351 107.5,-351 101.5,-351 95.5,-345 95.5,-339 95.5,-339 95.5,-300 95.5,-300 95.5,-294 101.5,-288 107.5,-288 107.5,-288 191.5,-288 191.5,-288 197.5,-288 203.5,-294 203.5,-300 203.5,-300 203.5,-339 203.5,-339 203.5,-345 197.5,-351 191.5,-351"/>
<text text-anchor="middle" x="149.5" y="-339" font-family="sans" font-size="10.00" fill="#000000">get_fastq_raw</text>
<text text-anchor="middle" x="149.5" y="-328" font-family="sans" font-size="10.00" fill="#000000">lane: L002</text>
<text text-anchor="middle" x="149.5" y="-317" font-family="sans" font-size="10.00" fill="#000000">library: lib1</text>
<text text-anchor="middle" x="149.5" y="-306" font-family="sans" font-size="10.00" fill="#000000">read_type_raw: R1</text>
<text text-anchor="middle" x="149.5" y="-295" font-family="sans" font-size="10.00" fill="#000000">sample: HD827sonic</text>
</g>
<!-- 13&#45;&gt;12 -->
<g id="edge31" class="edge">
<title>13&#45;&gt;12</title>
<path fill="none" stroke="#c0c0c0" stroke-width="2" d="M106.2659,-287.9059C92.8318,-278.0886 78.2429,-267.4275 65.6127,-258.1978"/>
<polygon fill="#c0c0c0" stroke="#c0c0c0" stroke-width="2" points="67.359,-255.1389 57.22,-252.0646 63.2288,-260.7907 67.359,-255.1389"/>
</g>
<!-- 13&#45;&gt;16 -->
<g id="edge36" class="edge">
<title>13&#45;&gt;16</title>
<path fill="none" stroke="#c0c0c0" stroke-width="2" d="M192.7341,-287.9059C206.1682,-278.0886 220.7571,-267.4275 233.3873,-258.1978"/>
<polygon fill="#c0c0c0" stroke="#c0c0c0" stroke-width="2" points="235.7712,-260.7907 241.78,-252.0646 231.641,-255.1389 235.7712,-260.7907"/>
</g>
<!-- 14&#45;&gt;0 -->
<g id="edge3" class="edge">
<title>14&#45;&gt;0</title>
<path fill="none" stroke="#c0c0c0" stroke-width="2" d="M1690.057,-232.5104C1773.4786,-228.071 1951.7011,-210.7074 1892.5,-144 1823.4854,-66.2349 1056.4304,-27.6046 876.9208,-19.5922"/>
<polygon fill="#c0c0c0" stroke="#c0c0c0" stroke-width="2" points="876.8107,-16.084 866.666,-19.1394 876.5019,-23.0772 876.8107,-16.084"/>
</g>
<!-- 14&#45;&gt;1 -->
<g id="edge11" class="edge">
<title>14&#45;&gt;1</title>
<path fill="none" stroke="#c0c0c0" stroke-width="2" d="M1608.6198,-230.2241C1552.6431,-224.1582 1449.6119,-209.7693 1366.5,-180 1335.0437,-168.7329 1332.1647,-154.6673 1300.5,-144 1188.5463,-106.2846 1047.8823,-94.8255 981.9041,-91.4105"/>
<polygon fill="#c0c0c0" stroke="#c0c0c0" stroke-width="2" points="981.7548,-87.8993 971.5973,-90.9118 981.4165,-94.8911 981.7548,-87.8993"/>
</g>
<!-- 18 -->
<g id="node19" class="node">
<title>18</title>
<path fill="none" stroke="#d89556" stroke-width="2" d="M1491.5,-180C1491.5,-180 1387.5,-180 1387.5,-180 1381.5,-180 1375.5,-174 1375.5,-168 1375.5,-168 1375.5,-156 1375.5,-156 1375.5,-150 1381.5,-144 1387.5,-144 1387.5,-144 1491.5,-144 1491.5,-144 1497.5,-144 1503.5,-150 1503.5,-156 1503.5,-156 1503.5,-168 1503.5,-168 1503.5,-174 1497.5,-180 1491.5,-180"/>
<text text-anchor="middle" x="1439.5" y="-165" font-family="sans" font-size="10.00" fill="#000000">fastqc_trim</text>
<text text-anchor="middle" x="1439.5" y="-154" font-family="sans" font-size="10.00" fill="#000000">read_type_trim: collapsed</text>
</g>
<!-- 14&#45;&gt;18 -->
<g id="edge39" class="edge">
<title>14&#45;&gt;18</title>
<path fill="none" stroke="#c0c0c0" stroke-width="2" d="M1608.7609,-220.0323C1578.3428,-209.6032 1536.2338,-195.1659 1501.6267,-183.3006"/>
<polygon fill="#c0c0c0" stroke="#c0c0c0" stroke-width="2" points="1502.6753,-179.9602 1492.0807,-180.0277 1500.405,-186.5818 1502.6753,-179.9602"/>
</g>
<!-- 19 -->
<g id="node20" class="node">
<title>19</title>
<path fill="none" stroke="#d89556" stroke-width="2" d="M1635.5,-180C1635.5,-180 1533.5,-180 1533.5,-180 1527.5,-180 1521.5,-174 1521.5,-168 1521.5,-168 1521.5,-156 1521.5,-156 1521.5,-150 1527.5,-144 1533.5,-144 1533.5,-144 1635.5,-144 1635.5,-144 1641.5,-144 1647.5,-150 1647.5,-156 1647.5,-156 1647.5,-168 1647.5,-168 1647.5,-174 1641.5,-180 1635.5,-180"/>
<text text-anchor="middle" x="1584.5" y="-165" font-family="sans" font-size="10.00" fill="#000000">fastqc_trim</text>
<text text-anchor="middle" x="1584.5" y="-154" font-family="sans" font-size="10.00" fill="#000000">read_type_trim: singleton</text>
</g>
<!-- 14&#45;&gt;19 -->
<g id="edge40" class="edge">
<title>14&#45;&gt;19</title>
<path fill="none" stroke="#c0c0c0" stroke-width="2" d="M1633.0978,-215.8314C1625.4585,-207.3694 1616.2317,-197.1489 1607.8793,-187.8971"/>
<polygon fill="#c0c0c0" stroke="#c0c0c0" stroke-width="2" points="1610.4221,-185.4906 1601.1231,-180.4133 1605.2262,-190.1813 1610.4221,-185.4906"/>
</g>
<!-- 20 -->
<g id="node21" class="node">
<title>20</title>
<path fill="none" stroke="#d89556" stroke-width="2" d="M1753.5,-180C1753.5,-180 1677.5,-180 1677.5,-180 1671.5,-180 1665.5,-174 1665.5,-168 1665.5,-168 1665.5,-156 1665.5,-156 1665.5,-150 1671.5,-144 1677.5,-144 1677.5,-144 1753.5,-144 1753.5,-144 1759.5,-144 1765.5,-150 1765.5,-156 1765.5,-156 1765.5,-168 1765.5,-168 1765.5,-174 1759.5,-180 1753.5,-180"/>
<text text-anchor="middle" x="1715.5" y="-165" font-family="sans" font-size="10.00" fill="#000000">fastqc_trim</text>
<text text-anchor="middle" x="1715.5" y="-154" font-family="sans" font-size="10.00" fill="#000000">read_type_trim: R2</text>
</g>
<!-- 14&#45;&gt;20 -->
<g id="edge41" class="edge">
<title>14&#45;&gt;20</title>
<path fill="none" stroke="#c0c0c0" stroke-width="2" d="M1666.1546,-215.8314C1673.9114,-207.3694 1683.2802,-197.1489 1691.761,-187.8971"/>
<polygon fill="#c0c0c0" stroke="#c0c0c0" stroke-width="2" points="1694.4439,-190.1499 1698.6212,-180.4133 1689.2838,-185.4198 1694.4439,-190.1499"/>
</g>
<!-- 21 -->
<g id="node22" class="node">
<title>21</title>
<path fill="none" stroke="#d89556" stroke-width="2" d="M1871.5,-180C1871.5,-180 1795.5,-180 1795.5,-180 1789.5,-180 1783.5,-174 1783.5,-168 1783.5,-168 1783.5,-156 1783.5,-156 1783.5,-150 1789.5,-144 1795.5,-144 1795.5,-144 1871.5,-144 1871.5,-144 1877.5,-144 1883.5,-150 1883.5,-156 1883.5,-156 1883.5,-168 1883.5,-168 1883.5,-174 1877.5,-180 1871.5,-180"/>
<text text-anchor="middle" x="1833.5" y="-165" font-family="sans" font-size="10.00" fill="#000000">fastqc_trim</text>
<text text-anchor="middle" x="1833.5" y="-154" font-family="sans" font-size="10.00" fill="#000000">read_type_trim: R1</text>
</g>
<!-- 14&#45;&gt;21 -->
<g id="edge42" class="edge">
<title>14&#45;&gt;21</title>
<path fill="none" stroke="#c0c0c0" stroke-width="2" d="M1690.3356,-218.0209C1716.1136,-207.9338 1749.7496,-194.7719 1777.9407,-183.7406"/>
<polygon fill="#c0c0c0" stroke="#c0c0c0" stroke-width="2" points="1779.2361,-186.9922 1787.2732,-180.0888 1776.6853,-180.4735 1779.2361,-186.9922"/>
</g>
<!-- 15&#45;&gt;0 -->
<g id="edge2" class="edge">
<title>15&#45;&gt;0</title>
<path fill="none" stroke="#c0c0c0" stroke-width="2" d="M902.9346,-231.4497C837.9332,-226.4237 715.0329,-212.74 688.5,-180 643.0968,-123.9751 745.2763,-63.0857 803.1568,-34.5326"/>
<polygon fill="#c0c0c0" stroke="#c0c0c0" stroke-width="2" points="804.901,-37.5769 812.3784,-30.071 801.8523,-31.2757 804.901,-37.5769"/>
</g>
<!-- 15&#45;&gt;1 -->
<g id="edge12" class="edge">
<title>15&#45;&gt;1</title>
<path fill="none" stroke="#c0c0c0" stroke-width="2" d="M984.2103,-228.2362C1013.1041,-221.7877 1049.9315,-208.2486 1068.5,-180 1077.2885,-166.6298 1077.2689,-157.3831 1068.5,-144 1049.3335,-114.7482 1010.4968,-101.2553 981.3655,-95.0857"/>
<polygon fill="#c0c0c0" stroke="#c0c0c0" stroke-width="2" points="981.9948,-91.6426 971.5143,-93.195 980.6753,-98.5172 981.9948,-91.6426"/>
</g>
<!-- 22 -->
<g id="node23" class="node">
<title>22</title>
<path fill="none" stroke="#d89556" stroke-width="2" d="M1231.5,-180C1231.5,-180 1127.5,-180 1127.5,-180 1121.5,-180 1115.5,-174 1115.5,-168 1115.5,-168 1115.5,-156 1115.5,-156 1115.5,-150 1121.5,-144 1127.5,-144 1127.5,-144 1231.5,-144 1231.5,-144 1237.5,-144 1243.5,-150 1243.5,-156 1243.5,-156 1243.5,-168 1243.5,-168 1243.5,-174 1237.5,-180 1231.5,-180"/>
<text text-anchor="middle" x="1179.5" y="-165" font-family="sans" font-size="10.00" fill="#000000">fastqc_trim</text>
<text text-anchor="middle" x="1179.5" y="-154" font-family="sans" font-size="10.00" fill="#000000">read_type_trim: collapsed</text>
</g>
<!-- 15&#45;&gt;22 -->
<g id="edge43" class="edge">
<title>15&#45;&gt;22</title>
<path fill="none" stroke="#c0c0c0" stroke-width="2" d="M984.0698,-221.6228C1018.842,-211.0143 1069.675,-195.5059 1110.7814,-182.965"/>
<polygon fill="#c0c0c0" stroke="#c0c0c0" stroke-width="2" points="1111.9235,-186.2759 1120.467,-180.0101 1109.8808,-179.5805 1111.9235,-186.2759"/>
</g>
<!-- 25 -->
<g id="node26" class="node">
<title>25</title>
<path fill="none" stroke="#d89556" stroke-width="2" d="M785.5,-180C785.5,-180 709.5,-180 709.5,-180 703.5,-180 697.5,-174 697.5,-168 697.5,-168 697.5,-156 697.5,-156 697.5,-150 703.5,-144 709.5,-144 709.5,-144 785.5,-144 785.5,-144 791.5,-144 797.5,-150 797.5,-156 797.5,-156 797.5,-168 797.5,-168 797.5,-174 791.5,-180 785.5,-180"/>
<text text-anchor="middle" x="747.5" y="-165" font-family="sans" font-size="10.00" fill="#000000">fastqc_trim</text>
<text text-anchor="middle" x="747.5" y="-154" font-family="sans" font-size="10.00" fill="#000000">read_type_trim: R1</text>
</g>
<!-- 15&#45;&gt;25 -->
<g id="edge46" class="edge">
<title>15&#45;&gt;25</title>
<path fill="none" stroke="#c0c0c0" stroke-width="2" d="M902.8887,-219.0816C874.9442,-208.8163 837.3876,-195.02 806.1973,-183.5623"/>
<polygon fill="#c0c0c0" stroke="#c0c0c0" stroke-width="2" points="807.3333,-180.2509 796.7397,-180.088 804.9195,-186.8216 807.3333,-180.2509"/>
</g>
<!-- 27 -->
<g id="node28" class="node">
<title>27</title>
<path fill="none" stroke="#d89556" stroke-width="2" d="M929.5,-180C929.5,-180 827.5,-180 827.5,-180 821.5,-180 815.5,-174 815.5,-168 815.5,-168 815.5,-156 815.5,-156 815.5,-150 821.5,-144 827.5,-144 827.5,-144 929.5,-144 929.5,-144 935.5,-144 941.5,-150 941.5,-156 941.5,-156 941.5,-168 941.5,-168 941.5,-174 935.5,-180 929.5,-180"/>
<text text-anchor="middle" x="878.5" y="-165" font-family="sans" font-size="10.00" fill="#000000">fastqc_trim</text>
<text text-anchor="middle" x="878.5" y="-154" font-family="sans" font-size="10.00" fill="#000000">read_type_trim: singleton</text>
</g>
<!-- 15&#45;&gt;27 -->
<g id="edge48" class="edge">
<title>15&#45;&gt;27</title>
<path fill="none" stroke="#c0c0c0" stroke-width="2" d="M927.0978,-215.8314C919.4585,-207.3694 910.2317,-197.1489 901.8793,-187.8971"/>
<polygon fill="#c0c0c0" stroke="#c0c0c0" stroke-width="2" points="904.4221,-185.4906 895.1231,-180.4133 899.2262,-190.1813 904.4221,-185.4906"/>
</g>
<!-- 28 -->
<g id="node29" class="node">
<title>28</title>
<path fill="none" stroke="#d89556" stroke-width="2" d="M1047.5,-180C1047.5,-180 971.5,-180 971.5,-180 965.5,-180 959.5,-174 959.5,-168 959.5,-168 959.5,-156 959.5,-156 959.5,-150 965.5,-144 971.5,-144 971.5,-144 1047.5,-144 1047.5,-144 1053.5,-144 1059.5,-150 1059.5,-156 1059.5,-156 1059.5,-168 1059.5,-168 1059.5,-174 1053.5,-180 1047.5,-180"/>
<text text-anchor="middle" x="1009.5" y="-165" font-family="sans" font-size="10.00" fill="#000000">fastqc_trim</text>
<text text-anchor="middle" x="1009.5" y="-154" font-family="sans" font-size="10.00" fill="#000000">read_type_trim: R2</text>
</g>
<!-- 15&#45;&gt;28 -->
<g id="edge49" class="edge">
<title>15&#45;&gt;28</title>
<path fill="none" stroke="#c0c0c0" stroke-width="2" d="M960.1546,-215.8314C967.9114,-207.3694 977.2802,-197.1489 985.761,-187.8971"/>
<polygon fill="#c0c0c0" stroke="#c0c0c0" stroke-width="2" points="988.4439,-190.1499 992.6212,-180.4133 983.2838,-185.4198 988.4439,-190.1499"/>
</g>
<!-- 16&#45;&gt;0 -->
<g id="edge4" class="edge">
<title>16&#45;&gt;0</title>
<path fill="none" stroke="#c0c0c0" stroke-width="2" d="M225.7774,-231.4747C160.5239,-226.4849 37.1455,-212.8524 10.5,-180 .4212,-167.5735 .0709,-156.134 10.5,-144 63.1403,-82.7544 647.389,-33.0148 802.0964,-20.851"/>
<polygon fill="#c0c0c0" stroke="#c0c0c0" stroke-width="2" points="802.3714,-24.3403 812.0686,-20.0724 801.8264,-17.3616 802.3714,-24.3403"/>
</g>
<!-- 16&#45;&gt;1 -->
<g id="edge13" class="edge">
<title>16&#45;&gt;1</title>
<path fill="none" stroke="#c0c0c0" stroke-width="2" d="M307.1165,-220.4099C332.2482,-211.0305 364.554,-197.1681 390.5,-180 409.9017,-167.1622 407.3663,-153.7263 428.5,-144 513.9473,-104.675 803.4283,-93.5736 907.1444,-90.8185"/>
<polygon fill="#c0c0c0" stroke="#c0c0c0" stroke-width="2" points="907.5328,-94.3098 917.4405,-90.5565 907.3546,-87.3121 907.5328,-94.3098"/>
</g>
<!-- 17 -->
<g id="node18" class="node">
<title>17</title>
<path fill="none" stroke="#d89556" stroke-width="2" d="M553.5,-180C553.5,-180 449.5,-180 449.5,-180 443.5,-180 437.5,-174 437.5,-168 437.5,-168 437.5,-156 437.5,-156 437.5,-150 443.5,-144 449.5,-144 449.5,-144 553.5,-144 553.5,-144 559.5,-144 565.5,-150 565.5,-156 565.5,-156 565.5,-168 565.5,-168 565.5,-174 559.5,-180 553.5,-180"/>
<text text-anchor="middle" x="501.5" y="-165" font-family="sans" font-size="10.00" fill="#000000">fastqc_trim</text>
<text text-anchor="middle" x="501.5" y="-154" font-family="sans" font-size="10.00" fill="#000000">read_type_trim: collapsed</text>
</g>
<!-- 16&#45;&gt;17 -->
<g id="edge38" class="edge">
<title>16&#45;&gt;17</title>
<path fill="none" stroke="#c0c0c0" stroke-width="2" d="M307.1656,-221.5408C341.7049,-210.9585 392.0174,-195.5436 432.7953,-183.0499"/>
<polygon fill="#c0c0c0" stroke="#c0c0c0" stroke-width="2" points="433.8698,-186.3814 442.4058,-180.1055 431.8192,-179.6885 433.8698,-186.3814"/>
</g>
<!-- 23 -->
<g id="node24" class="node">
<title>23</title>
<path fill="none" stroke="#d89556" stroke-width="2" d="M107.5,-180C107.5,-180 31.5,-180 31.5,-180 25.5,-180 19.5,-174 19.5,-168 19.5,-168 19.5,-156 19.5,-156 19.5,-150 25.5,-144 31.5,-144 31.5,-144 107.5,-144 107.5,-144 113.5,-144 119.5,-150 119.5,-156 119.5,-156 119.5,-168 119.5,-168 119.5,-174 113.5,-180 107.5,-180"/>
<text text-anchor="middle" x="69.5" y="-165" font-family="sans" font-size="10.00" fill="#000000">fastqc_trim</text>
<text text-anchor="middle" x="69.5" y="-154" font-family="sans" font-size="10.00" fill="#000000">read_type_trim: R2</text>
</g>
<!-- 16&#45;&gt;23 -->
<g id="edge44" class="edge">
<title>16&#45;&gt;23</title>
<path fill="none" stroke="#c0c0c0" stroke-width="2" d="M225.6815,-219.0816C197.5945,-208.8163 159.8463,-195.02 128.4968,-183.5623"/>
<polygon fill="#c0c0c0" stroke="#c0c0c0" stroke-width="2" points="129.5847,-180.2335 118.9909,-180.088 127.1818,-186.8082 129.5847,-180.2335"/>
</g>
<!-- 24 -->
<g id="node25" class="node">
<title>24</title>
<path fill="none" stroke="#d89556" stroke-width="2" d="M251.5,-180C251.5,-180 149.5,-180 149.5,-180 143.5,-180 137.5,-174 137.5,-168 137.5,-168 137.5,-156 137.5,-156 137.5,-150 143.5,-144 149.5,-144 149.5,-144 251.5,-144 251.5,-144 257.5,-144 263.5,-150 263.5,-156 263.5,-156 263.5,-168 263.5,-168 263.5,-174 257.5,-180 251.5,-180"/>
<text text-anchor="middle" x="200.5" y="-165" font-family="sans" font-size="10.00" fill="#000000">fastqc_trim</text>
<text text-anchor="middle" x="200.5" y="-154" font-family="sans" font-size="10.00" fill="#000000">read_type_trim: singleton</text>
</g>
<!-- 16&#45;&gt;24 -->
<g id="edge45" class="edge">
<title>16&#45;&gt;24</title>
<path fill="none" stroke="#c0c0c0" stroke-width="2" d="M249.8454,-215.8314C242.0886,-207.3694 232.7198,-197.1489 224.239,-187.8971"/>
<polygon fill="#c0c0c0" stroke="#c0c0c0" stroke-width="2" points="226.7162,-185.4198 217.3788,-180.4133 221.5561,-190.1499 226.7162,-185.4198"/>
</g>
<!-- 26 -->
<g id="node27" class="node">
<title>26</title>
<path fill="none" stroke="#d89556" stroke-width="2" d="M369.5,-180C369.5,-180 293.5,-180 293.5,-180 287.5,-180 281.5,-174 281.5,-168 281.5,-168 281.5,-156 281.5,-156 281.5,-150 287.5,-144 293.5,-144 293.5,-144 369.5,-144 369.5,-144 375.5,-144 381.5,-150 381.5,-156 381.5,-156 381.5,-168 381.5,-168 381.5,-174 375.5,-180 369.5,-180"/>
<text text-anchor="middle" x="331.5" y="-165" font-family="sans" font-size="10.00" fill="#000000">fastqc_trim</text>
<text text-anchor="middle" x="331.5" y="-154" font-family="sans" font-size="10.00" fill="#000000">read_type_trim: R1</text>
</g>
<!-- 16&#45;&gt;26 -->
<g id="edge47" class="edge">
<title>16&#45;&gt;26</title>
<path fill="none" stroke="#c0c0c0" stroke-width="2" d="M282.9022,-215.8314C290.5415,-207.3694 299.7683,-197.1489 308.1207,-187.8971"/>
<polygon fill="#c0c0c0" stroke="#c0c0c0" stroke-width="2" points="310.7738,-190.1813 314.8769,-180.4133 305.5779,-185.4906 310.7738,-190.1813"/>
</g>
<!-- 17&#45;&gt;1 -->
<g id="edge14" class="edge">
<title>17&#45;&gt;1</title>
<path fill="none" stroke="#c0c0c0" stroke-width="2" d="M565.6874,-146.7595C570.3529,-145.7833 574.9936,-144.8519 579.5,-144 698.6945,-121.467 841.2716,-102.7221 907.416,-94.4908"/>
<polygon fill="#c0c0c0" stroke="#c0c0c0" stroke-width="2" points="907.8654,-97.962 917.3602,-93.2611 907.0062,-91.0149 907.8654,-97.962"/>
</g>
<!-- 18&#45;&gt;1 -->
<g id="edge15" class="edge">
<title>18&#45;&gt;1</title>
<path fill="none" stroke="#c0c0c0" stroke-width="2" d="M1375.3297,-146.6666C1370.6602,-145.7122 1366.0139,-144.8111 1361.5,-144 1222.4822,-119.0204 1055.3999,-100.9534 982.0865,-93.6191"/>
<polygon fill="#c0c0c0" stroke="#c0c0c0" stroke-width="2" points="982.2613,-90.1193 971.9647,-92.6153 981.5705,-97.0851 982.2613,-90.1193"/>
</g>
<!-- 19&#45;&gt;1 -->
<g id="edge16" class="edge">
<title>19&#45;&gt;1</title>
<path fill="none" stroke="#c0c0c0" stroke-width="2" d="M1521.3978,-145.6549C1518.398,-145.0573 1515.4208,-144.501 1512.5,-144 1314.112,-109.9694 1072.7942,-95.94 981.6966,-91.6007"/>
<polygon fill="#c0c0c0" stroke="#c0c0c0" stroke-width="2" points="981.7464,-88.0993 971.5944,-91.1302 981.4207,-95.0917 981.7464,-88.0993"/>
</g>
<!-- 20&#45;&gt;1 -->
<g id="edge17" class="edge">
<title>20&#45;&gt;1</title>
<path fill="none" stroke="#c0c0c0" stroke-width="2" d="M1665.4756,-145.9178C1662.455,-145.2026 1659.4469,-144.5542 1656.5,-144 1524.9664,-119.2614 1108.7706,-97.8373 981.7034,-91.7365"/>
<polygon fill="#c0c0c0" stroke="#c0c0c0" stroke-width="2" points="981.8406,-88.2392 971.6851,-91.2586 981.507,-95.2313 981.8406,-88.2392"/>
</g>
<!-- 21&#45;&gt;1 -->
<g id="edge18" class="edge">
<title>21&#45;&gt;1</title>
<path fill="none" stroke="#c0c0c0" stroke-width="2" d="M1783.4826,-145.8802C1780.4602,-145.1744 1777.4498,-144.5384 1774.5,-144 1619.0921,-115.6335 1123.0281,-96.3095 982.1404,-91.2924"/>
<polygon fill="#c0c0c0" stroke="#c0c0c0" stroke-width="2" points="981.9819,-87.7848 971.8646,-90.9295 981.7348,-94.7804 981.9819,-87.7848"/>
</g>
<!-- 22&#45;&gt;1 -->
<g id="edge19" class="edge">
<title>22&#45;&gt;1</title>
<path fill="none" stroke="#c0c0c0" stroke-width="2" d="M1120.5029,-143.9243C1076.882,-130.5596 1018.8189,-112.77 981.542,-101.349"/>
<polygon fill="#c0c0c0" stroke="#c0c0c0" stroke-width="2" points="982.1951,-97.8886 971.6085,-98.3056 980.1445,-104.5815 982.1951,-97.8886"/>
</g>
<!-- 23&#45;&gt;1 -->
<g id="edge20" class="edge">
<title>23&#45;&gt;1</title>
<path fill="none" stroke="#c0c0c0" stroke-width="2" d="M119.5182,-145.8841C122.5403,-145.1773 125.5505,-144.5401 128.5,-144 281.112,-116.0562 767.8961,-96.467 907.0302,-91.3344"/>
<polygon fill="#c0c0c0" stroke="#c0c0c0" stroke-width="2" points="907.3192,-94.8262 917.1845,-90.9627 907.0632,-87.8309 907.3192,-94.8262"/>
</g>
<!-- 24&#45;&gt;1 -->
<g id="edge21" class="edge">
<title>24&#45;&gt;1</title>
<path fill="none" stroke="#c0c0c0" stroke-width="2" d="M263.5933,-145.6019C266.5955,-145.0185 269.5756,-144.4797 272.5,-144 512.3358,-104.6598 805.2308,-93.6113 907.3095,-90.8412"/>
<polygon fill="#c0c0c0" stroke="#c0c0c0" stroke-width="2" points="907.514,-94.3371 917.4192,-90.5773 907.3313,-87.3395 907.514,-94.3371"/>
</g>
<!-- 25&#45;&gt;1 -->
<g id="edge22" class="edge">
<title>25&#45;&gt;1</title>
<path fill="none" stroke="#c0c0c0" stroke-width="2" d="M796.9571,-143.9243C831.4101,-131.3324 876.6104,-114.8124 907.8582,-103.3919"/>
<polygon fill="#c0c0c0" stroke="#c0c0c0" stroke-width="2" points="909.2912,-106.5947 917.482,-99.8746 906.8882,-100.0201 909.2912,-106.5947"/>
</g>
<!-- 26&#45;&gt;1 -->
<g id="edge23" class="edge">
<title>26&#45;&gt;1</title>
<path fill="none" stroke="#c0c0c0" stroke-width="2" d="M381.6106,-147.0056C386.281,-145.881 390.9628,-144.8543 395.5,-144 585.8807,-108.1541 818.1618,-95.2413 907.268,-91.4004"/>
<polygon fill="#c0c0c0" stroke="#c0c0c0" stroke-width="2" points="907.5674,-94.891 917.4124,-90.976 907.2748,-87.8971 907.5674,-94.891"/>
</g>
<!-- 27&#45;&gt;1 -->
<g id="edge24" class="edge">
<title>27&#45;&gt;1</title>
<path fill="none" stroke="#c0c0c0" stroke-width="2" d="M895.1546,-143.8314C902.9114,-135.3694 912.2802,-125.1489 920.761,-115.8971"/>
<polygon fill="#c0c0c0" stroke="#c0c0c0" stroke-width="2" points="923.4439,-118.1499 927.6212,-108.4133 918.2838,-113.4198 923.4439,-118.1499"/>
</g>
<!-- 28&#45;&gt;1 -->
<g id="edge25" class="edge">
<title>28&#45;&gt;1</title>
<path fill="none" stroke="#c0c0c0" stroke-width="2" d="M993.0978,-143.8314C985.4585,-135.3694 976.2317,-125.1489 967.8793,-115.8971"/>
<polygon fill="#c0c0c0" stroke="#c0c0c0" stroke-width="2" points="970.4221,-113.4906 961.1231,-108.4133 965.2262,-118.1813 970.4221,-113.4906"/>
</g>
</g>
</svg>
