<?xml version="1.0" encoding="UTF-8" standalone="no"?>
<!DOCTYPE svg PUBLIC "-//W3C//DTD SVG 1.1//EN"
 "http://www.w3.org/Graphics/SVG/1.1/DTD/svg11.dtd">
<!-- Generated by graphviz version 2.40.1 (0)
 -->
<!-- Title: snakemake_dag Pages: 1 -->
<svg width="867pt" height="359pt"
 viewBox="0.00 0.00 867.00 359.00" xmlns="http://www.w3.org/2000/svg" xmlns:xlink="http://www.w3.org/1999/xlink">
<g id="graph0" class="graph" transform="scale(1 1) rotate(0) translate(4 355)">
<title>snakemake_dag</title>
<polygon fill="#ffffff" stroke="transparent" points="-4,4 -4,-355 863,-355 863,4 -4,4"/>
<!-- 0 -->
<g id="node1" class="node">
<title>0</title>
<path fill="none" stroke="#97d856" stroke-width="2" d="M443,-36C443,-36 413,-36 413,-36 407,-36 401,-30 401,-24 401,-24 401,-12 401,-12 401,-6 407,0 413,0 413,0 443,0 443,0 449,0 455,-6 455,-12 455,-12 455,-24 455,-24 455,-30 449,-36 443,-36"/>
<text text-anchor="middle" x="428" y="-15.5" font-family="sans" font-size="10.00" fill="#000000">all</text>
</g>
<!-- 1 -->
<g id="node2" class="node">
<title>1</title>
<path fill="none" stroke="#569ad8" stroke-width="2" d="M443,-108C443,-108 413,-108 413,-108 407,-108 401,-102 401,-96 401,-96 401,-84 401,-84 401,-78 407,-72 413,-72 413,-72 443,-72 443,-72 449,-72 455,-78 455,-84 455,-84 455,-96 455,-96 455,-102 449,-108 443,-108"/>
<text text-anchor="middle" x="428" y="-87.5" font-family="sans" font-size="10.00" fill="#000000">multiqc</text>
</g>
<!-- 1&#45;&gt;0 -->
<g id="edge1" class="edge">
<title>1&#45;&gt;0</title>
<path fill="none" stroke="#c0c0c0" stroke-width="2" d="M428,-71.8314C428,-64.131 428,-54.9743 428,-46.4166"/>
<polygon fill="#c0c0c0" stroke="#c0c0c0" stroke-width="2" points="431.5001,-46.4132 428,-36.4133 424.5001,-46.4133 431.5001,-46.4132"/>
</g>
<!-- 2 -->
<g id="node3" class="node">
<title>2</title>
<path fill="none" stroke="#59d856" stroke-width="2" d="M490.5,-180C490.5,-180 449.5,-180 449.5,-180 443.5,-180 437.5,-174 437.5,-168 437.5,-168 437.5,-156 437.5,-156 437.5,-150 443.5,-144 449.5,-144 449.5,-144 490.5,-144 490.5,-144 496.5,-144 502.5,-150 502.5,-156 502.5,-156 502.5,-168 502.5,-168 502.5,-174 496.5,-180 490.5,-180"/>
<text text-anchor="middle" x="470" y="-159.5" font-family="sans" font-size="10.00" fill="#000000">fastqc_raw</text>
</g>
<!-- 2&#45;&gt;1 -->
<g id="edge6" class="edge">
<title>2&#45;&gt;1</title>
<path fill="none" stroke="#c0c0c0" stroke-width="2" d="M459.4016,-143.8314C454.7123,-135.7925 449.0972,-126.1666 443.9202,-117.2918"/>
<polygon fill="#c0c0c0" stroke="#c0c0c0" stroke-width="2" points="446.8031,-115.2875 438.7411,-108.4133 440.7566,-118.8146 446.8031,-115.2875"/>
</g>
<!-- 3 -->
<g id="node4" class="node">
<title>3</title>
<path fill="none" stroke="#56d8d8" stroke-width="2" d="M556.5,-351C556.5,-351 461.5,-351 461.5,-351 455.5,-351 449.5,-345 449.5,-339 449.5,-339 449.5,-300 449.5,-300 449.5,-294 455.5,-288 461.5,-288 461.5,-288 556.5,-288 556.5,-288 562.5,-288 568.5,-294 568.5,-300 568.5,-300 568.5,-339 568.5,-339 568.5,-345 562.5,-351 556.5,-351"/>
<text text-anchor="middle" x="509" y="-339" font-family="sans" font-size="10.00" fill="#000000">get_fastq_raw</text>
<text text-anchor="middle" x="509" y="-328" font-family="sans" font-size="10.00" fill="#000000">lane: L001</text>
<text text-anchor="middle" x="509" y="-317" font-family="sans" font-size="10.00" fill="#000000">library: lib1</text>
<text text-anchor="middle" x="509" y="-306" font-family="sans" font-size="10.00" fill="#000000">read_type_raw: R</text>
<text text-anchor="middle" x="509" y="-295" font-family="sans" font-size="10.00" fill="#000000">sample: HD827sonic_1</text>
</g>
<!-- 3&#45;&gt;2 -->
<g id="edge14" class="edge">
<title>3&#45;&gt;2</title>
<path fill="none" stroke="#c0c0c0" stroke-width="2" d="M501.1078,-287.6275C494.0027,-258.934 483.6651,-217.1859 476.8876,-189.8153"/>
<polygon fill="#c0c0c0" stroke="#c0c0c0" stroke-width="2" points="480.2796,-188.952 474.4786,-180.0865 473.4848,-190.6346 480.2796,-188.952"/>
</g>
<!-- 11 -->
<g id="node12" class="node">
<title>11</title>
<path fill="none" stroke="#d89556" stroke-width="2" d="M619,-252C619,-252 517,-252 517,-252 511,-252 505,-246 505,-240 505,-240 505,-228 505,-228 505,-222 511,-216 517,-216 517,-216 619,-216 619,-216 625,-216 631,-222 631,-228 631,-228 631,-240 631,-240 631,-246 625,-252 619,-252"/>
<text text-anchor="middle" x="568" y="-231.5" font-family="sans" font-size="10.00" fill="#000000">adapterremoval_fastq_se</text>
</g>
<!-- 3&#45;&gt;11 -->
<g id="edge19" class="edge">
<title>3&#45;&gt;11</title>
<path fill="none" stroke="#c0c0c0" stroke-width="2" d="M530.9694,-287.663C537.0971,-278.783 543.6893,-269.2299 549.589,-260.6803"/>
<polygon fill="#c0c0c0" stroke="#c0c0c0" stroke-width="2" points="552.6391,-262.4228 555.438,-252.2043 546.8776,-258.447 552.6391,-262.4228"/>
</g>
<!-- 4 -->
<g id="node5" class="node">
<title>4</title>
<path fill="none" stroke="#59d856" stroke-width="2" d="M407.5,-180C407.5,-180 366.5,-180 366.5,-180 360.5,-180 354.5,-174 354.5,-168 354.5,-168 354.5,-156 354.5,-156 354.5,-150 360.5,-144 366.5,-144 366.5,-144 407.5,-144 407.5,-144 413.5,-144 419.5,-150 419.5,-156 419.5,-156 419.5,-168 419.5,-168 419.5,-174 413.5,-180 407.5,-180"/>
<text text-anchor="middle" x="387" y="-159.5" font-family="sans" font-size="10.00" fill="#000000">fastqc_raw</text>
</g>
<!-- 4&#45;&gt;1 -->
<g id="edge7" class="edge">
<title>4&#45;&gt;1</title>
<path fill="none" stroke="#c0c0c0" stroke-width="2" d="M397.346,-143.8314C401.9237,-135.7925 407.4052,-126.1666 412.4588,-117.2918"/>
<polygon fill="#c0c0c0" stroke="#c0c0c0" stroke-width="2" points="415.6077,-118.8351 417.5147,-108.4133 409.5248,-115.3712 415.6077,-118.8351"/>
</g>
<!-- 5 -->
<g id="node6" class="node">
<title>5</title>
<path fill="none" stroke="#56d8d8" stroke-width="2" d="M372.5,-351C372.5,-351 277.5,-351 277.5,-351 271.5,-351 265.5,-345 265.5,-339 265.5,-339 265.5,-300 265.5,-300 265.5,-294 271.5,-288 277.5,-288 277.5,-288 372.5,-288 372.5,-288 378.5,-288 384.5,-294 384.5,-300 384.5,-300 384.5,-339 384.5,-339 384.5,-345 378.5,-351 372.5,-351"/>
<text text-anchor="middle" x="325" y="-339" font-family="sans" font-size="10.00" fill="#000000">get_fastq_raw</text>
<text text-anchor="middle" x="325" y="-328" font-family="sans" font-size="10.00" fill="#000000">lane: L002</text>
<text text-anchor="middle" x="325" y="-317" font-family="sans" font-size="10.00" fill="#000000">library: lib1</text>
<text text-anchor="middle" x="325" y="-306" font-family="sans" font-size="10.00" fill="#000000">read_type_raw: R</text>
<text text-anchor="middle" x="325" y="-295" font-family="sans" font-size="10.00" fill="#000000">sample: HD827sonic_1</text>
</g>
<!-- 5&#45;&gt;4 -->
<g id="edge15" class="edge">
<title>5&#45;&gt;4</title>
<path fill="none" stroke="#c0c0c0" stroke-width="2" d="M345.0745,-287.7107C351.4337,-276.6986 358.0807,-264.0816 363,-252 371.2073,-231.8429 377.4184,-208.0051 381.4637,-189.9279"/>
<polygon fill="#c0c0c0" stroke="#c0c0c0" stroke-width="2" points="384.9134,-190.5337 383.594,-180.0213 378.0698,-189.062 384.9134,-190.5337"/>
</g>
<!-- 15 -->
<g id="node16" class="node">
<title>15</title>
<path fill="none" stroke="#d89556" stroke-width="2" d="M342,-252C342,-252 240,-252 240,-252 234,-252 228,-246 228,-240 228,-240 228,-228 228,-228 228,-222 234,-216 240,-216 240,-216 342,-216 342,-216 348,-216 354,-222 354,-228 354,-228 354,-240 354,-240 354,-246 348,-252 342,-252"/>
<text text-anchor="middle" x="291" y="-231.5" font-family="sans" font-size="10.00" fill="#000000">adapterremoval_fastq_se</text>
</g>
<!-- 5&#45;&gt;15 -->
<g id="edge23" class="edge">
<title>5&#45;&gt;15</title>
<path fill="none" stroke="#c0c0c0" stroke-width="2" d="M312.3397,-287.663C308.9571,-279.1569 305.329,-270.0332 302.0412,-261.7655"/>
<polygon fill="#c0c0c0" stroke="#c0c0c0" stroke-width="2" points="305.1866,-260.2032 298.2391,-252.2043 298.6821,-262.7899 305.1866,-260.2032"/>
</g>
<!-- 6 -->
<g id="node7" class="node">
<title>6</title>
<path fill="none" stroke="#59d856" stroke-width="2" d="M197.5,-252C197.5,-252 156.5,-252 156.5,-252 150.5,-252 144.5,-246 144.5,-240 144.5,-240 144.5,-228 144.5,-228 144.5,-222 150.5,-216 156.5,-216 156.5,-216 197.5,-216 197.5,-216 203.5,-216 209.5,-222 209.5,-228 209.5,-228 209.5,-240 209.5,-240 209.5,-246 203.5,-252 197.5,-252"/>
<text text-anchor="middle" x="177" y="-231.5" font-family="sans" font-size="10.00" fill="#000000">fastqc_raw</text>
</g>
<!-- 6&#45;&gt;1 -->
<g id="edge8" class="edge">
<title>6&#45;&gt;1</title>
<path fill="none" stroke="#c0c0c0" stroke-width="2" d="M183.318,-215.9682C191.4195,-195.4843 207.4269,-162.5084 232,-144 257.0049,-125.1664 341.46,-106.5064 390.9739,-96.8216"/>
<polygon fill="#c0c0c0" stroke="#c0c0c0" stroke-width="2" points="391.8182,-100.2234 400.9753,-94.8944 390.4936,-93.3499 391.8182,-100.2234"/>
</g>
<!-- 7 -->
<g id="node8" class="node">
<title>7</title>
<path fill="none" stroke="#56d8d8" stroke-width="2" d="M190.5,-351C190.5,-351 95.5,-351 95.5,-351 89.5,-351 83.5,-345 83.5,-339 83.5,-339 83.5,-300 83.5,-300 83.5,-294 89.5,-288 95.5,-288 95.5,-288 190.5,-288 190.5,-288 196.5,-288 202.5,-294 202.5,-300 202.5,-300 202.5,-339 202.5,-339 202.5,-345 196.5,-351 190.5,-351"/>
<text text-anchor="middle" x="143" y="-339" font-family="sans" font-size="10.00" fill="#000000">get_fastq_raw</text>
<text text-anchor="middle" x="143" y="-328" font-family="sans" font-size="10.00" fill="#000000">lane: L001</text>
<text text-anchor="middle" x="143" y="-317" font-family="sans" font-size="10.00" fill="#000000">library: lib1</text>
<text text-anchor="middle" x="143" y="-306" font-family="sans" font-size="10.00" fill="#000000">read_type_raw: R</text>
<text text-anchor="middle" x="143" y="-295" font-family="sans" font-size="10.00" fill="#000000">sample: HD827sonic_2</text>
</g>
<!-- 7&#45;&gt;6 -->
<g id="edge16" class="edge">
<title>7&#45;&gt;6</title>
<path fill="none" stroke="#c0c0c0" stroke-width="2" d="M155.6603,-287.663C159.0429,-279.1569 162.671,-270.0332 165.9588,-261.7655"/>
<polygon fill="#c0c0c0" stroke="#c0c0c0" stroke-width="2" points="169.3179,-262.7899 169.7609,-252.2043 162.8134,-260.2032 169.3179,-262.7899"/>
</g>
<!-- 17 -->
<g id="node18" class="node">
<title>17</title>
<path fill="none" stroke="#d89556" stroke-width="2" d="M114,-252C114,-252 12,-252 12,-252 6,-252 0,-246 0,-240 0,-240 0,-228 0,-228 0,-222 6,-216 12,-216 12,-216 114,-216 114,-216 120,-216 126,-222 126,-228 126,-228 126,-240 126,-240 126,-246 120,-252 114,-252"/>
<text text-anchor="middle" x="63" y="-231.5" font-family="sans" font-size="10.00" fill="#000000">adapterremoval_fastq_se</text>
</g>
<!-- 7&#45;&gt;17 -->
<g id="edge25" class="edge">
<title>7&#45;&gt;17</title>
<path fill="none" stroke="#c0c0c0" stroke-width="2" d="M113.211,-287.663C104.5524,-278.4091 95.2098,-268.4242 86.9587,-259.6058"/>
<polygon fill="#c0c0c0" stroke="#c0c0c0" stroke-width="2" points="89.4213,-257.115 80.0333,-252.2043 84.3099,-261.8977 89.4213,-257.115"/>
</g>
<!-- 8 -->
<g id="node9" class="node">
<title>8</title>
<path fill="none" stroke="#59d856" stroke-width="2" d="M702.5,-252C702.5,-252 661.5,-252 661.5,-252 655.5,-252 649.5,-246 649.5,-240 649.5,-240 649.5,-228 649.5,-228 649.5,-222 655.5,-216 661.5,-216 661.5,-216 702.5,-216 702.5,-216 708.5,-216 714.5,-222 714.5,-228 714.5,-228 714.5,-240 714.5,-240 714.5,-246 708.5,-252 702.5,-252"/>
<text text-anchor="middle" x="682" y="-231.5" font-family="sans" font-size="10.00" fill="#000000">fastqc_raw</text>
</g>
<!-- 8&#45;&gt;1 -->
<g id="edge9" class="edge">
<title>8&#45;&gt;1</title>
<path fill="none" stroke="#c0c0c0" stroke-width="2" d="M675.2798,-215.9575C666.7218,-195.4635 649.9802,-162.4781 625,-144 577.296,-108.7128 507.7945,-96.4846 465.3674,-92.2471"/>
<polygon fill="#c0c0c0" stroke="#c0c0c0" stroke-width="2" points="465.4671,-88.7421 455.194,-91.3328 464.8405,-95.714 465.4671,-88.7421"/>
</g>
<!-- 9 -->
<g id="node10" class="node">
<title>9</title>
<path fill="none" stroke="#56d8d8" stroke-width="2" d="M786.5,-351C786.5,-351 691.5,-351 691.5,-351 685.5,-351 679.5,-345 679.5,-339 679.5,-339 679.5,-300 679.5,-300 679.5,-294 685.5,-288 691.5,-288 691.5,-288 786.5,-288 786.5,-288 792.5,-288 798.5,-294 798.5,-300 798.5,-300 798.5,-339 798.5,-339 798.5,-345 792.5,-351 786.5,-351"/>
<text text-anchor="middle" x="739" y="-339" font-family="sans" font-size="10.00" fill="#000000">get_fastq_raw</text>
<text text-anchor="middle" x="739" y="-328" font-family="sans" font-size="10.00" fill="#000000">lane: L001</text>
<text text-anchor="middle" x="739" y="-317" font-family="sans" font-size="10.00" fill="#000000">library: lib2</text>
<text text-anchor="middle" x="739" y="-306" font-family="sans" font-size="10.00" fill="#000000">read_type_raw: R</text>
<text text-anchor="middle" x="739" y="-295" font-family="sans" font-size="10.00" fill="#000000">sample: HD827sonic_2</text>
</g>
<!-- 9&#45;&gt;8 -->
<g id="edge17" class="edge">
<title>9&#45;&gt;8</title>
<path fill="none" stroke="#c0c0c0" stroke-width="2" d="M717.7753,-287.663C711.8554,-278.783 705.4866,-269.2299 699.7869,-260.6803"/>
<polygon fill="#c0c0c0" stroke="#c0c0c0" stroke-width="2" points="702.5954,-258.5833 694.1362,-252.2043 696.7711,-262.4663 702.5954,-258.5833"/>
</g>
<!-- 13 -->
<g id="node14" class="node">
<title>13</title>
<path fill="none" stroke="#d89556" stroke-width="2" d="M847,-252C847,-252 745,-252 745,-252 739,-252 733,-246 733,-240 733,-240 733,-228 733,-228 733,-222 739,-216 745,-216 745,-216 847,-216 847,-216 853,-216 859,-222 859,-228 859,-228 859,-240 859,-240 859,-246 853,-252 847,-252"/>
<text text-anchor="middle" x="796" y="-231.5" font-family="sans" font-size="10.00" fill="#000000">adapterremoval_fastq_se</text>
</g>
<!-- 9&#45;&gt;13 -->
<g id="edge21" class="edge">
<title>9&#45;&gt;13</title>
<path fill="none" stroke="#c0c0c0" stroke-width="2" d="M760.2247,-287.663C766.1446,-278.783 772.5134,-269.2299 778.2131,-260.6803"/>
<polygon fill="#c0c0c0" stroke="#c0c0c0" stroke-width="2" points="781.2289,-262.4663 783.8638,-252.2043 775.4046,-258.5833 781.2289,-262.4663"/>
</g>
<!-- 10 -->
<g id="node11" class="node">
<title>10</title>
<path fill="none" stroke="#56d89a" stroke-width="2" d="M603.5,-180C603.5,-180 532.5,-180 532.5,-180 526.5,-180 520.5,-174 520.5,-168 520.5,-168 520.5,-156 520.5,-156 520.5,-150 526.5,-144 532.5,-144 532.5,-144 603.5,-144 603.5,-144 609.5,-144 615.5,-150 615.5,-156 615.5,-156 615.5,-168 615.5,-168 615.5,-174 609.5,-180 603.5,-180"/>
<text text-anchor="middle" x="568" y="-165" font-family="sans" font-size="10.00" fill="#000000">fastqc_trim</text>
<text text-anchor="middle" x="568" y="-154" font-family="sans" font-size="10.00" fill="#000000">read_type_trim: R</text>
</g>
<!-- 10&#45;&gt;1 -->
<g id="edge10" class="edge">
<title>10&#45;&gt;1</title>
<path fill="none" stroke="#c0c0c0" stroke-width="2" d="M532.6721,-143.8314C511.7858,-133.0898 485.3899,-119.5148 464.3308,-108.6844"/>
<polygon fill="#c0c0c0" stroke="#c0c0c0" stroke-width="2" points="465.861,-105.5357 455.3674,-104.0747 462.6596,-111.7607 465.861,-105.5357"/>
</g>
<!-- 11&#45;&gt;0 -->
<g id="edge3" class="edge">
<title>11&#45;&gt;0</title>
<path fill="none" stroke="#c0c0c0" stroke-width="2" d="M595.4894,-215.7646C606.8848,-206.5451 618.8597,-194.2754 625,-180 631.3221,-165.302 632.6832,-158.0345 625,-144 590.9642,-81.8289 511.7316,-45.8554 464.7762,-29.262"/>
<polygon fill="#c0c0c0" stroke="#c0c0c0" stroke-width="2" points="465.8688,-25.9367 455.2742,-26.0128 463.6039,-32.5602 465.8688,-25.9367"/>
</g>
<!-- 11&#45;&gt;10 -->
<g id="edge18" class="edge">
<title>11&#45;&gt;10</title>
<path fill="none" stroke="#c0c0c0" stroke-width="2" d="M568,-215.8314C568,-208.131 568,-198.9743 568,-190.4166"/>
<polygon fill="#c0c0c0" stroke="#c0c0c0" stroke-width="2" points="571.5001,-190.4132 568,-180.4133 564.5001,-190.4133 571.5001,-190.4132"/>
</g>
<!-- 12 -->
<g id="node13" class="node">
<title>12</title>
<path fill="none" stroke="#56d89a" stroke-width="2" d="M793.5,-180C793.5,-180 722.5,-180 722.5,-180 716.5,-180 710.5,-174 710.5,-168 710.5,-168 710.5,-156 710.5,-156 710.5,-150 716.5,-144 722.5,-144 722.5,-144 793.5,-144 793.5,-144 799.5,-144 805.5,-150 805.5,-156 805.5,-156 805.5,-168 805.5,-168 805.5,-174 799.5,-180 793.5,-180"/>
<text text-anchor="middle" x="758" y="-165" font-family="sans" font-size="10.00" fill="#000000">fastqc_trim</text>
<text text-anchor="middle" x="758" y="-154" font-family="sans" font-size="10.00" fill="#000000">read_type_trim: R</text>
</g>
<!-- 12&#45;&gt;1 -->
<g id="edge11" class="edge">
<title>12&#45;&gt;1</title>
<path fill="none" stroke="#c0c0c0" stroke-width="2" d="M710.381,-147.7389C705.5381,-146.4196 700.6807,-145.1489 696,-144 614.2805,-123.9419 517.2165,-105.7674 465.2526,-96.4873"/>
<polygon fill="#c0c0c0" stroke="#c0c0c0" stroke-width="2" points="465.6325,-93.0001 455.1746,-94.6982 464.4089,-99.8923 465.6325,-93.0001"/>
</g>
<!-- 13&#45;&gt;0 -->
<g id="edge4" class="edge">
<title>13&#45;&gt;0</title>
<path fill="none" stroke="#c0c0c0" stroke-width="2" d="M807.5598,-215.6949C818.2623,-196.1682 830.3876,-165.1926 815,-144 772.7698,-85.8385 553.2478,-40.5433 464.8947,-24.3969"/>
<polygon fill="#c0c0c0" stroke="#c0c0c0" stroke-width="2" points="465.4987,-20.9495 455.036,-22.6171 464.2551,-27.8381 465.4987,-20.9495"/>
</g>
<!-- 13&#45;&gt;12 -->
<g id="edge20" class="edge">
<title>13&#45;&gt;12</title>
<path fill="none" stroke="#c0c0c0" stroke-width="2" d="M786.411,-215.8314C782.1683,-207.7925 777.0879,-198.1666 772.404,-189.2918"/>
<polygon fill="#c0c0c0" stroke="#c0c0c0" stroke-width="2" points="775.4811,-187.6235 767.7181,-180.4133 769.2904,-190.8908 775.4811,-187.6235"/>
</g>
<!-- 14 -->
<g id="node15" class="node">
<title>14</title>
<path fill="none" stroke="#56d89a" stroke-width="2" d="M324.5,-180C324.5,-180 253.5,-180 253.5,-180 247.5,-180 241.5,-174 241.5,-168 241.5,-168 241.5,-156 241.5,-156 241.5,-150 247.5,-144 253.5,-144 253.5,-144 324.5,-144 324.5,-144 330.5,-144 336.5,-150 336.5,-156 336.5,-156 336.5,-168 336.5,-168 336.5,-174 330.5,-180 324.5,-180"/>
<text text-anchor="middle" x="289" y="-165" font-family="sans" font-size="10.00" fill="#000000">fastqc_trim</text>
<text text-anchor="middle" x="289" y="-154" font-family="sans" font-size="10.00" fill="#000000">read_type_trim: R</text>
</g>
<!-- 14&#45;&gt;1 -->
<g id="edge12" class="edge">
<title>14&#45;&gt;1</title>
<path fill="none" stroke="#c0c0c0" stroke-width="2" d="M324.0756,-143.8314C344.8127,-133.0898 371.02,-119.5148 391.9287,-108.6844"/>
<polygon fill="#c0c0c0" stroke="#c0c0c0" stroke-width="2" points="393.5584,-111.782 400.8281,-104.0747 390.3388,-105.5663 393.5584,-111.782"/>
</g>
<!-- 15&#45;&gt;0 -->
<g id="edge2" class="edge">
<title>15&#45;&gt;0</title>
<path fill="none" stroke="#c0c0c0" stroke-width="2" d="M262.568,-215.9601C250.7772,-206.7801 238.3796,-194.4872 232,-180 225.5518,-165.3569 224.333,-158.0434 232,-144 265.8416,-82.0135 344.6798,-45.9728 391.404,-29.318"/>
<polygon fill="#c0c0c0" stroke="#c0c0c0" stroke-width="2" points="392.5475,-32.626 400.8592,-26.0559 390.2645,-26.0087 392.5475,-32.626"/>
</g>
<!-- 15&#45;&gt;14 -->
<g id="edge22" class="edge">
<title>15&#45;&gt;14</title>
<path fill="none" stroke="#c0c0c0" stroke-width="2" d="M290.4953,-215.8314C290.2814,-208.131 290.0271,-198.9743 289.7894,-190.4166"/>
<polygon fill="#c0c0c0" stroke="#c0c0c0" stroke-width="2" points="293.2879,-190.3122 289.5115,-180.4133 286.2906,-190.5066 293.2879,-190.3122"/>
</g>
<!-- 16 -->
<g id="node17" class="node">
<title>16</title>
<path fill="none" stroke="#56d89a" stroke-width="2" d="M134.5,-180C134.5,-180 63.5,-180 63.5,-180 57.5,-180 51.5,-174 51.5,-168 51.5,-168 51.5,-156 51.5,-156 51.5,-150 57.5,-144 63.5,-144 63.5,-144 134.5,-144 134.5,-144 140.5,-144 146.5,-150 146.5,-156 146.5,-156 146.5,-168 146.5,-168 146.5,-174 140.5,-180 134.5,-180"/>
<text text-anchor="middle" x="99" y="-165" font-family="sans" font-size="10.00" fill="#000000">fastqc_trim</text>
<text text-anchor="middle" x="99" y="-154" font-family="sans" font-size="10.00" fill="#000000">read_type_trim: R</text>
</g>
<!-- 16&#45;&gt;1 -->
<g id="edge13" class="edge">
<title>16&#45;&gt;1</title>
<path fill="none" stroke="#c0c0c0" stroke-width="2" d="M146.8394,-151.5306C213.0486,-137.041 331.2051,-111.1831 391.0639,-98.0833"/>
<polygon fill="#c0c0c0" stroke="#c0c0c0" stroke-width="2" points="391.8254,-101.4995 400.8459,-95.9425 390.3288,-94.6614 391.8254,-101.4995"/>
</g>
<!-- 17&#45;&gt;0 -->
<g id="edge5" class="edge">
<title>17&#45;&gt;0</title>
<path fill="none" stroke="#c0c0c0" stroke-width="2" d="M50.8517,-215.7545C39.56,-196.2788 26.6143,-165.3465 42,-144 83.8788,-85.8962 302.4791,-40.6458 390.8631,-24.4529"/>
<polygon fill="#c0c0c0" stroke="#c0c0c0" stroke-width="2" points="391.5132,-27.8922 400.73,-22.6671 390.2665,-21.0041 391.5132,-27.8922"/>
</g>
<!-- 17&#45;&gt;16 -->
<g id="edge24" class="edge">
<title>17&#45;&gt;16</title>
<path fill="none" stroke="#c0c0c0" stroke-width="2" d="M72.0843,-215.8314C76.0615,-207.8771 80.8155,-198.369 85.2139,-189.5723"/>
<polygon fill="#c0c0c0" stroke="#c0c0c0" stroke-width="2" points="88.4517,-190.9228 89.7934,-180.4133 82.1907,-187.7923 88.4517,-190.9228"/>
</g>
</g>
</svg>
