<?xml version="1.0" encoding="UTF-8" standalone="no"?>
<!DOCTYPE svg PUBLIC "-//W3C//DTD SVG 1.1//EN"
 "http://www.w3.org/Graphics/SVG/1.1/DTD/svg11.dtd">
<!-- Generated by graphviz version 2.40.1 (0)
 -->
<!-- Title: snakemake_dag Pages: 1 -->
<svg width="1939pt" height="359pt"
 viewBox="0.00 0.00 1939.00 359.00" xmlns="http://www.w3.org/2000/svg" xmlns:xlink="http://www.w3.org/1999/xlink">
<g id="graph0" class="graph" transform="scale(1 1) rotate(0) translate(4 355)">
<title>snakemake_dag</title>
<polygon fill="#ffffff" stroke="transparent" points="-4,4 -4,-355 1935,-355 1935,4 -4,4"/>
<!-- 0 -->
<g id="node1" class="node">
<title>0</title>
<path fill="none" stroke="#d6d856" stroke-width="2" d="M876.5,-36C876.5,-36 846.5,-36 846.5,-36 840.5,-36 834.5,-30 834.5,-24 834.5,-24 834.5,-12 834.5,-12 834.5,-6 840.5,0 846.5,0 846.5,0 876.5,0 876.5,0 882.5,0 888.5,-6 888.5,-12 888.5,-12 888.5,-24 888.5,-24 888.5,-30 882.5,-36 876.5,-36"/>
<text text-anchor="middle" x="861.5" y="-15.5" font-family="sans" font-size="10.00" fill="#000000">all</text>
</g>
<!-- 1 -->
<g id="node2" class="node">
<title>1</title>
<path fill="none" stroke="#56d89a" stroke-width="2" d="M988.5,-108C988.5,-108 958.5,-108 958.5,-108 952.5,-108 946.5,-102 946.5,-96 946.5,-96 946.5,-84 946.5,-84 946.5,-78 952.5,-72 958.5,-72 958.5,-72 988.5,-72 988.5,-72 994.5,-72 1000.5,-78 1000.5,-84 1000.5,-84 1000.5,-96 1000.5,-96 1000.5,-102 994.5,-108 988.5,-108"/>
<text text-anchor="middle" x="973.5" y="-87.5" font-family="sans" font-size="10.00" fill="#000000">multiqc</text>
</g>
<!-- 1&#45;&gt;0 -->
<g id="edge1" class="edge">
<title>1&#45;&gt;0</title>
<path fill="none" stroke="#c0c0c0" stroke-width="2" d="M946.3879,-72.5708C931.6394,-63.0896 913.2096,-51.2419 897.2944,-41.0107"/>
<polygon fill="#c0c0c0" stroke="#c0c0c0" stroke-width="2" points="899.0551,-37.9817 888.7506,-35.5182 895.2697,-43.87 899.0551,-37.9817"/>
</g>
<!-- 2 -->
<g id="node3" class="node">
<title>2</title>
<path fill="none" stroke="#d89556" stroke-width="2" d="M519,-252C519,-252 478,-252 478,-252 472,-252 466,-246 466,-240 466,-240 466,-228 466,-228 466,-222 472,-216 478,-216 478,-216 519,-216 519,-216 525,-216 531,-222 531,-228 531,-228 531,-240 531,-240 531,-246 525,-252 519,-252"/>
<text text-anchor="middle" x="498.5" y="-231.5" font-family="sans" font-size="10.00" fill="#000000">fastqc_raw</text>
</g>
<!-- 2&#45;&gt;1 -->
<g id="edge5" class="edge">
<title>2&#45;&gt;1</title>
<path fill="none" stroke="#c0c0c0" stroke-width="2" d="M528.9887,-215.8704C564.6256,-195.4529 625.944,-162.6917 682.5,-144 770.9594,-114.7643 880.0892,-99.8534 936.2353,-93.6415"/>
<polygon fill="#c0c0c0" stroke="#c0c0c0" stroke-width="2" points="936.8426,-97.0965 946.411,-92.5474 936.0941,-90.1366 936.8426,-97.0965"/>
</g>
<!-- 3 -->
<g id="node4" class="node">
<title>3</title>
<path fill="none" stroke="#97d856" stroke-width="2" d="M434,-351C434,-351 339,-351 339,-351 333,-351 327,-345 327,-339 327,-339 327,-300 327,-300 327,-294 333,-288 339,-288 339,-288 434,-288 434,-288 440,-288 446,-294 446,-300 446,-300 446,-339 446,-339 446,-345 440,-351 434,-351"/>
<text text-anchor="middle" x="386.5" y="-339" font-family="sans" font-size="10.00" fill="#000000">get_fastq_raw</text>
<text text-anchor="middle" x="386.5" y="-328" font-family="sans" font-size="10.00" fill="#000000">lane: L002</text>
<text text-anchor="middle" x="386.5" y="-317" font-family="sans" font-size="10.00" fill="#000000">library: lib1</text>
<text text-anchor="middle" x="386.5" y="-306" font-family="sans" font-size="10.00" fill="#000000">read_type_raw: R2</text>
<text text-anchor="middle" x="386.5" y="-295" font-family="sans" font-size="10.00" fill="#000000">sample: HD827sonic_1</text>
</g>
<!-- 3&#45;&gt;2 -->
<g id="edge26" class="edge">
<title>3&#45;&gt;2</title>
<path fill="none" stroke="#c0c0c0" stroke-width="2" d="M427.8865,-287.9059C440.7464,-278.0886 454.7119,-267.4275 466.8024,-258.1978"/>
<polygon fill="#c0c0c0" stroke="#c0c0c0" stroke-width="2" points="469.0116,-260.9146 474.8365,-252.0646 464.764,-255.3505 469.0116,-260.9146"/>
</g>
<!-- 16 -->
<g id="node17" class="node">
<title>16</title>
<path fill="none" stroke="#59d856" stroke-width="2" d="M302,-252C302,-252 245,-252 245,-252 239,-252 233,-246 233,-240 233,-240 233,-228 233,-228 233,-222 239,-216 245,-216 245,-216 302,-216 302,-216 308,-216 314,-222 314,-228 314,-228 314,-240 314,-240 314,-246 308,-252 302,-252"/>
<text text-anchor="middle" x="273.5" y="-231.5" font-family="sans" font-size="10.00" fill="#000000">fastp_fastq_pe</text>
</g>
<!-- 3&#45;&gt;16 -->
<g id="edge37" class="edge">
<title>3&#45;&gt;16</title>
<path fill="none" stroke="#c0c0c0" stroke-width="2" d="M344.744,-287.9059C331.7692,-278.0886 317.679,-267.4275 305.4807,-258.1978"/>
<polygon fill="#c0c0c0" stroke="#c0c0c0" stroke-width="2" points="307.4612,-255.3074 297.3748,-252.0646 303.2375,-260.8895 307.4612,-255.3074"/>
</g>
<!-- 4 -->
<g id="node5" class="node">
<title>4</title>
<path fill="none" stroke="#d89556" stroke-width="2" d="M695,-252C695,-252 654,-252 654,-252 648,-252 642,-246 642,-240 642,-240 642,-228 642,-228 642,-222 648,-216 654,-216 654,-216 695,-216 695,-216 701,-216 707,-222 707,-228 707,-228 707,-240 707,-240 707,-246 701,-252 695,-252"/>
<text text-anchor="middle" x="674.5" y="-231.5" font-family="sans" font-size="10.00" fill="#000000">fastqc_raw</text>
</g>
<!-- 4&#45;&gt;1 -->
<g id="edge6" class="edge">
<title>4&#45;&gt;1</title>
<path fill="none" stroke="#c0c0c0" stroke-width="2" d="M676.4329,-215.8455C679.6271,-195.2464 687.9733,-162.1624 709.5,-144 743.3704,-115.4231 871.6956,-99.5684 936.1228,-93.2567"/>
<polygon fill="#c0c0c0" stroke="#c0c0c0" stroke-width="2" points="936.6384,-96.7235 946.2614,-92.2907 935.9744,-89.755 936.6384,-96.7235"/>
</g>
<!-- 5 -->
<g id="node6" class="node">
<title>5</title>
<path fill="none" stroke="#97d856" stroke-width="2" d="M908,-351C908,-351 813,-351 813,-351 807,-351 801,-345 801,-339 801,-339 801,-300 801,-300 801,-294 807,-288 813,-288 813,-288 908,-288 908,-288 914,-288 920,-294 920,-300 920,-300 920,-339 920,-339 920,-345 914,-351 908,-351"/>
<text text-anchor="middle" x="860.5" y="-339" font-family="sans" font-size="10.00" fill="#000000">get_fastq_raw</text>
<text text-anchor="middle" x="860.5" y="-328" font-family="sans" font-size="10.00" fill="#000000">lane: L002</text>
<text text-anchor="middle" x="860.5" y="-317" font-family="sans" font-size="10.00" fill="#000000">library: lib1</text>
<text text-anchor="middle" x="860.5" y="-306" font-family="sans" font-size="10.00" fill="#000000">read_type_raw: R2</text>
<text text-anchor="middle" x="860.5" y="-295" font-family="sans" font-size="10.00" fill="#000000">sample: HD827sonic_2</text>
</g>
<!-- 5&#45;&gt;4 -->
<g id="edge27" class="edge">
<title>5&#45;&gt;4</title>
<path fill="none" stroke="#c0c0c0" stroke-width="2" d="M800.881,-292.0945C773.3684,-279.4475 741.3618,-264.7349 716.4426,-253.2801"/>
<polygon fill="#c0c0c0" stroke="#c0c0c0" stroke-width="2" points="717.8111,-250.0571 707.2632,-249.0605 714.8874,-256.4173 717.8111,-250.0571"/>
</g>
<!-- 15 -->
<g id="node16" class="node">
<title>15</title>
<path fill="none" stroke="#59d856" stroke-width="2" d="M993,-252C993,-252 936,-252 936,-252 930,-252 924,-246 924,-240 924,-240 924,-228 924,-228 924,-222 930,-216 936,-216 936,-216 993,-216 993,-216 999,-216 1005,-222 1005,-228 1005,-228 1005,-240 1005,-240 1005,-246 999,-252 993,-252"/>
<text text-anchor="middle" x="964.5" y="-231.5" font-family="sans" font-size="10.00" fill="#000000">fastp_fastq_pe</text>
</g>
<!-- 5&#45;&gt;15 -->
<g id="edge35" class="edge">
<title>5&#45;&gt;15</title>
<path fill="none" stroke="#c0c0c0" stroke-width="2" d="M898.9303,-287.9059C910.7569,-278.183 923.5904,-267.6324 934.7421,-258.4644"/>
<polygon fill="#c0c0c0" stroke="#c0c0c0" stroke-width="2" points="937.0247,-261.1188 942.5267,-252.0646 932.5793,-255.7115 937.0247,-261.1188"/>
</g>
<!-- 6 -->
<g id="node7" class="node">
<title>6</title>
<path fill="none" stroke="#d89556" stroke-width="2" d="M1201,-252C1201,-252 1160,-252 1160,-252 1154,-252 1148,-246 1148,-240 1148,-240 1148,-228 1148,-228 1148,-222 1154,-216 1160,-216 1160,-216 1201,-216 1201,-216 1207,-216 1213,-222 1213,-228 1213,-228 1213,-240 1213,-240 1213,-246 1207,-252 1201,-252"/>
<text text-anchor="middle" x="1180.5" y="-231.5" font-family="sans" font-size="10.00" fill="#000000">fastqc_raw</text>
</g>
<!-- 6&#45;&gt;1 -->
<g id="edge7" class="edge">
<title>6&#45;&gt;1</title>
<path fill="none" stroke="#c0c0c0" stroke-width="2" d="M1213.3683,-224.3899C1234.6246,-216.2763 1260.6451,-202.329 1273.5,-180 1281.4829,-166.1337 1283.7628,-156.275 1273.5,-144 1240.4189,-104.4326 1083.8013,-93.8131 1010.9417,-90.998"/>
<polygon fill="#c0c0c0" stroke="#c0c0c0" stroke-width="2" points="1010.9429,-87.4959 1000.8243,-90.6367 1010.693,-94.4914 1010.9429,-87.4959"/>
</g>
<!-- 7 -->
<g id="node8" class="node">
<title>7</title>
<path fill="none" stroke="#97d856" stroke-width="2" d="M1130,-351C1130,-351 1035,-351 1035,-351 1029,-351 1023,-345 1023,-339 1023,-339 1023,-300 1023,-300 1023,-294 1029,-288 1035,-288 1035,-288 1130,-288 1130,-288 1136,-288 1142,-294 1142,-300 1142,-300 1142,-339 1142,-339 1142,-345 1136,-351 1130,-351"/>
<text text-anchor="middle" x="1082.5" y="-339" font-family="sans" font-size="10.00" fill="#000000">get_fastq_raw</text>
<text text-anchor="middle" x="1082.5" y="-328" font-family="sans" font-size="10.00" fill="#000000">lane: L002</text>
<text text-anchor="middle" x="1082.5" y="-317" font-family="sans" font-size="10.00" fill="#000000">library: lib1</text>
<text text-anchor="middle" x="1082.5" y="-306" font-family="sans" font-size="10.00" fill="#000000">read_type_raw: R1</text>
<text text-anchor="middle" x="1082.5" y="-295" font-family="sans" font-size="10.00" fill="#000000">sample: HD827sonic_2</text>
</g>
<!-- 7&#45;&gt;6 -->
<g id="edge28" class="edge">
<title>7&#45;&gt;6</title>
<path fill="none" stroke="#c0c0c0" stroke-width="2" d="M1118.7131,-287.9059C1129.7492,-278.2774 1141.7158,-267.8372 1152.1524,-258.7318"/>
<polygon fill="#c0c0c0" stroke="#c0c0c0" stroke-width="2" points="1154.5601,-261.2761 1159.7944,-252.0646 1149.9581,-256.0014 1154.5601,-261.2761"/>
</g>
<!-- 7&#45;&gt;15 -->
<g id="edge34" class="edge">
<title>7&#45;&gt;15</title>
<path fill="none" stroke="#c0c0c0" stroke-width="2" d="M1038.8964,-287.9059C1025.3475,-278.0886 1010.6339,-267.4275 997.8957,-258.1978"/>
<polygon fill="#c0c0c0" stroke="#c0c0c0" stroke-width="2" points="999.5826,-255.0978 989.4312,-252.0646 995.4754,-260.7663 999.5826,-255.0978"/>
</g>
<!-- 8 -->
<g id="node9" class="node">
<title>8</title>
<path fill="none" stroke="#d89556" stroke-width="2" d="M1385,-252C1385,-252 1344,-252 1344,-252 1338,-252 1332,-246 1332,-240 1332,-240 1332,-228 1332,-228 1332,-222 1338,-216 1344,-216 1344,-216 1385,-216 1385,-216 1391,-216 1397,-222 1397,-228 1397,-228 1397,-240 1397,-240 1397,-246 1391,-252 1385,-252"/>
<text text-anchor="middle" x="1364.5" y="-231.5" font-family="sans" font-size="10.00" fill="#000000">fastqc_raw</text>
</g>
<!-- 8&#45;&gt;1 -->
<g id="edge8" class="edge">
<title>8&#45;&gt;1</title>
<path fill="none" stroke="#c0c0c0" stroke-width="2" d="M1354.9149,-215.8255C1342.8482,-194.8826 1320.0703,-161.1549 1290.5,-144 1243.4384,-116.6976 1084.2744,-99.6664 1010.9955,-93.093"/>
<polygon fill="#c0c0c0" stroke="#c0c0c0" stroke-width="2" points="1011.0988,-89.5887 1000.8306,-92.1991 1010.4855,-96.5618 1011.0988,-89.5887"/>
</g>
<!-- 9 -->
<g id="node10" class="node">
<title>9</title>
<path fill="none" stroke="#97d856" stroke-width="2" d="M1615,-351C1615,-351 1520,-351 1520,-351 1514,-351 1508,-345 1508,-339 1508,-339 1508,-300 1508,-300 1508,-294 1514,-288 1520,-288 1520,-288 1615,-288 1615,-288 1621,-288 1627,-294 1627,-300 1627,-300 1627,-339 1627,-339 1627,-345 1621,-351 1615,-351"/>
<text text-anchor="middle" x="1567.5" y="-339" font-family="sans" font-size="10.00" fill="#000000">get_fastq_raw</text>
<text text-anchor="middle" x="1567.5" y="-328" font-family="sans" font-size="10.00" fill="#000000">lane: L001</text>
<text text-anchor="middle" x="1567.5" y="-317" font-family="sans" font-size="10.00" fill="#000000">library: lib1</text>
<text text-anchor="middle" x="1567.5" y="-306" font-family="sans" font-size="10.00" fill="#000000">read_type_raw: R2</text>
<text text-anchor="middle" x="1567.5" y="-295" font-family="sans" font-size="10.00" fill="#000000">sample: HD827sonic_1</text>
</g>
<!-- 9&#45;&gt;8 -->
<g id="edge29" class="edge">
<title>9&#45;&gt;8</title>
<path fill="none" stroke="#c0c0c0" stroke-width="2" d="M1507.9649,-294.4249C1475.4862,-280.7454 1436.0495,-264.1354 1406.7493,-251.7947"/>
<polygon fill="#c0c0c0" stroke="#c0c0c0" stroke-width="2" points="1407.8005,-248.4397 1397.226,-247.7836 1405.0834,-254.8908 1407.8005,-248.4397"/>
</g>
<!-- 14 -->
<g id="node15" class="node">
<title>14</title>
<path fill="none" stroke="#59d856" stroke-width="2" d="M1699,-252C1699,-252 1642,-252 1642,-252 1636,-252 1630,-246 1630,-240 1630,-240 1630,-228 1630,-228 1630,-222 1636,-216 1642,-216 1642,-216 1699,-216 1699,-216 1705,-216 1711,-222 1711,-228 1711,-228 1711,-240 1711,-240 1711,-246 1705,-252 1699,-252"/>
<text text-anchor="middle" x="1670.5" y="-231.5" font-family="sans" font-size="10.00" fill="#000000">fastp_fastq_pe</text>
</g>
<!-- 9&#45;&gt;14 -->
<g id="edge33" class="edge">
<title>9&#45;&gt;14</title>
<path fill="none" stroke="#c0c0c0" stroke-width="2" d="M1605.5608,-287.9059C1617.2736,-278.183 1629.9837,-267.6324 1641.0283,-258.4644"/>
<polygon fill="#c0c0c0" stroke="#c0c0c0" stroke-width="2" points="1643.279,-261.1448 1648.738,-252.0646 1638.808,-255.7587 1643.279,-261.1448"/>
</g>
<!-- 10 -->
<g id="node11" class="node">
<title>10</title>
<path fill="none" stroke="#d89556" stroke-width="2" d="M1919,-252C1919,-252 1878,-252 1878,-252 1872,-252 1866,-246 1866,-240 1866,-240 1866,-228 1866,-228 1866,-222 1872,-216 1878,-216 1878,-216 1919,-216 1919,-216 1925,-216 1931,-222 1931,-228 1931,-228 1931,-240 1931,-240 1931,-246 1925,-252 1919,-252"/>
<text text-anchor="middle" x="1898.5" y="-231.5" font-family="sans" font-size="10.00" fill="#000000">fastqc_raw</text>
</g>
<!-- 10&#45;&gt;1 -->
<g id="edge9" class="edge">
<title>10&#45;&gt;1</title>
<path fill="none" stroke="#c0c0c0" stroke-width="2" d="M1909.2635,-215.9043C1919.7445,-195.6737 1931.6613,-163.2345 1913.5,-144 1881.9821,-110.6195 1181.7156,-94.2369 1010.8486,-90.7281"/>
<polygon fill="#c0c0c0" stroke="#c0c0c0" stroke-width="2" points="1010.6664,-87.2237 1000.5974,-90.52 1010.5243,-94.2223 1010.6664,-87.2237"/>
</g>
<!-- 11 -->
<g id="node12" class="node">
<title>11</title>
<path fill="none" stroke="#97d856" stroke-width="2" d="M1820,-351C1820,-351 1725,-351 1725,-351 1719,-351 1713,-345 1713,-339 1713,-339 1713,-300 1713,-300 1713,-294 1719,-288 1725,-288 1725,-288 1820,-288 1820,-288 1826,-288 1832,-294 1832,-300 1832,-300 1832,-339 1832,-339 1832,-345 1826,-351 1820,-351"/>
<text text-anchor="middle" x="1772.5" y="-339" font-family="sans" font-size="10.00" fill="#000000">get_fastq_raw</text>
<text text-anchor="middle" x="1772.5" y="-328" font-family="sans" font-size="10.00" fill="#000000">lane: L001</text>
<text text-anchor="middle" x="1772.5" y="-317" font-family="sans" font-size="10.00" fill="#000000">library: lib1</text>
<text text-anchor="middle" x="1772.5" y="-306" font-family="sans" font-size="10.00" fill="#000000">read_type_raw: R1</text>
<text text-anchor="middle" x="1772.5" y="-295" font-family="sans" font-size="10.00" fill="#000000">sample: HD827sonic_1</text>
</g>
<!-- 11&#45;&gt;10 -->
<g id="edge30" class="edge">
<title>11&#45;&gt;10</title>
<path fill="none" stroke="#c0c0c0" stroke-width="2" d="M1819.0598,-287.9059C1833.6664,-277.9943 1849.5407,-267.2224 1863.2319,-257.9319"/>
<polygon fill="#c0c0c0" stroke="#c0c0c0" stroke-width="2" points="1865.569,-260.5758 1871.8785,-252.0646 1861.6385,-254.7835 1865.569,-260.5758"/>
</g>
<!-- 11&#45;&gt;14 -->
<g id="edge32" class="edge">
<title>11&#45;&gt;14</title>
<path fill="none" stroke="#c0c0c0" stroke-width="2" d="M1734.8088,-287.9059C1723.3222,-278.2774 1710.8672,-267.8372 1700.0046,-258.7318"/>
<polygon fill="#c0c0c0" stroke="#c0c0c0" stroke-width="2" points="1701.9629,-255.8063 1692.0507,-252.0646 1697.4661,-261.1709 1701.9629,-255.8063"/>
</g>
<!-- 12 -->
<g id="node13" class="node">
<title>12</title>
<path fill="none" stroke="#d89556" stroke-width="2" d="M53,-252C53,-252 12,-252 12,-252 6,-252 0,-246 0,-240 0,-240 0,-228 0,-228 0,-222 6,-216 12,-216 12,-216 53,-216 53,-216 59,-216 65,-222 65,-228 65,-228 65,-240 65,-240 65,-246 59,-252 53,-252"/>
<text text-anchor="middle" x="32.5" y="-231.5" font-family="sans" font-size="10.00" fill="#000000">fastqc_raw</text>
</g>
<!-- 12&#45;&gt;1 -->
<g id="edge10" class="edge">
<title>12&#45;&gt;1</title>
<path fill="none" stroke="#c0c0c0" stroke-width="2" d="M25.7251,-215.8094C19.468,-195.4918 13.5836,-162.9729 31.5,-144 63.1026,-110.534 765.542,-94.2038 936.3279,-90.7198"/>
<polygon fill="#c0c0c0" stroke="#c0c0c0" stroke-width="2" points="936.4176,-94.2188 946.345,-90.5178 936.2764,-87.2202 936.4176,-94.2188"/>
</g>
<!-- 13 -->
<g id="node14" class="node">
<title>13</title>
<path fill="none" stroke="#97d856" stroke-width="2" d="M204,-351C204,-351 109,-351 109,-351 103,-351 97,-345 97,-339 97,-339 97,-300 97,-300 97,-294 103,-288 109,-288 109,-288 204,-288 204,-288 210,-288 216,-294 216,-300 216,-300 216,-339 216,-339 216,-345 210,-351 204,-351"/>
<text text-anchor="middle" x="156.5" y="-339" font-family="sans" font-size="10.00" fill="#000000">get_fastq_raw</text>
<text text-anchor="middle" x="156.5" y="-328" font-family="sans" font-size="10.00" fill="#000000">lane: L002</text>
<text text-anchor="middle" x="156.5" y="-317" font-family="sans" font-size="10.00" fill="#000000">library: lib1</text>
<text text-anchor="middle" x="156.5" y="-306" font-family="sans" font-size="10.00" fill="#000000">read_type_raw: R1</text>
<text text-anchor="middle" x="156.5" y="-295" font-family="sans" font-size="10.00" fill="#000000">sample: HD827sonic_1</text>
</g>
<!-- 13&#45;&gt;12 -->
<g id="edge31" class="edge">
<title>13&#45;&gt;12</title>
<path fill="none" stroke="#c0c0c0" stroke-width="2" d="M110.6793,-287.9059C96.3045,-277.9943 80.6822,-267.2224 67.2083,-257.9319"/>
<polygon fill="#c0c0c0" stroke="#c0c0c0" stroke-width="2" points="68.9184,-254.8597 58.6989,-252.0646 64.9448,-260.6226 68.9184,-254.8597"/>
</g>
<!-- 13&#45;&gt;16 -->
<g id="edge36" class="edge">
<title>13&#45;&gt;16</title>
<path fill="none" stroke="#c0c0c0" stroke-width="2" d="M199.7341,-287.9059C213.1682,-278.0886 227.7571,-267.4275 240.3873,-258.1978"/>
<polygon fill="#c0c0c0" stroke="#c0c0c0" stroke-width="2" points="242.7712,-260.7907 248.78,-252.0646 238.641,-255.1389 242.7712,-260.7907"/>
</g>
<!-- 14&#45;&gt;0 -->
<g id="edge3" class="edge">
<title>14&#45;&gt;0</title>
<path fill="none" stroke="#c0c0c0" stroke-width="2" d="M1711.0564,-232.5109C1794.4769,-228.0725 1972.6974,-210.7107 1913.5,-144 1844.5544,-66.3039 1078.2252,-27.6208 898.8854,-19.5951"/>
<polygon fill="#c0c0c0" stroke="#c0c0c0" stroke-width="2" points="898.7854,-16.0873 888.6403,-19.1415 898.4757,-23.0805 898.7854,-16.0873"/>
</g>
<!-- 14&#45;&gt;1 -->
<g id="edge11" class="edge">
<title>14&#45;&gt;1</title>
<path fill="none" stroke="#c0c0c0" stroke-width="2" d="M1629.5632,-230.3807C1573.5214,-224.4944 1470.4159,-210.3107 1387.5,-180 1356.8482,-168.795 1354.3457,-154.6597 1323.5,-144 1213.9579,-106.1442 1075.9642,-94.7592 1010.8147,-91.3873"/>
<polygon fill="#c0c0c0" stroke="#c0c0c0" stroke-width="2" points="1010.7861,-87.882 1000.6289,-90.8955 1010.4484,-94.8738 1010.7861,-87.882"/>
</g>
<!-- 17 -->
<g id="node18" class="node">
<title>17</title>
<path fill="none" stroke="#d85656" stroke-width="2" d="M1510.5,-180C1510.5,-180 1408.5,-180 1408.5,-180 1402.5,-180 1396.5,-174 1396.5,-168 1396.5,-168 1396.5,-156 1396.5,-156 1396.5,-150 1402.5,-144 1408.5,-144 1408.5,-144 1510.5,-144 1510.5,-144 1516.5,-144 1522.5,-150 1522.5,-156 1522.5,-156 1522.5,-168 1522.5,-168 1522.5,-174 1516.5,-180 1510.5,-180"/>
<text text-anchor="middle" x="1459.5" y="-165" font-family="sans" font-size="10.00" fill="#000000">fastqc_trim</text>
<text text-anchor="middle" x="1459.5" y="-154" font-family="sans" font-size="10.00" fill="#000000">read_type_trim: singleton</text>
</g>
<!-- 14&#45;&gt;17 -->
<g id="edge38" class="edge">
<title>14&#45;&gt;17</title>
<path fill="none" stroke="#c0c0c0" stroke-width="2" d="M1629.8171,-220.1177C1599.277,-209.6964 1556.9054,-195.2379 1522.0656,-183.3494"/>
<polygon fill="#c0c0c0" stroke="#c0c0c0" stroke-width="2" points="1523.0494,-179.987 1512.4548,-180.0699 1520.7887,-186.6119 1523.0494,-179.987"/>
</g>
<!-- 18 -->
<g id="node19" class="node">
<title>18</title>
<path fill="none" stroke="#d85656" stroke-width="2" d="M1656.5,-180C1656.5,-180 1552.5,-180 1552.5,-180 1546.5,-180 1540.5,-174 1540.5,-168 1540.5,-168 1540.5,-156 1540.5,-156 1540.5,-150 1546.5,-144 1552.5,-144 1552.5,-144 1656.5,-144 1656.5,-144 1662.5,-144 1668.5,-150 1668.5,-156 1668.5,-156 1668.5,-168 1668.5,-168 1668.5,-174 1662.5,-180 1656.5,-180"/>
<text text-anchor="middle" x="1604.5" y="-165" font-family="sans" font-size="10.00" fill="#000000">fastqc_trim</text>
<text text-anchor="middle" x="1604.5" y="-154" font-family="sans" font-size="10.00" fill="#000000">read_type_trim: collapsed</text>
</g>
<!-- 14&#45;&gt;18 -->
<g id="edge39" class="edge">
<title>14&#45;&gt;18</title>
<path fill="none" stroke="#c0c0c0" stroke-width="2" d="M1653.8454,-215.8314C1646.0886,-207.3694 1636.7198,-197.1489 1628.239,-187.8971"/>
<polygon fill="#c0c0c0" stroke="#c0c0c0" stroke-width="2" points="1630.7162,-185.4198 1621.3788,-180.4133 1625.5561,-190.1499 1630.7162,-185.4198"/>
</g>
<!-- 20 -->
<g id="node21" class="node">
<title>20</title>
<path fill="none" stroke="#d85656" stroke-width="2" d="M1774.5,-180C1774.5,-180 1698.5,-180 1698.5,-180 1692.5,-180 1686.5,-174 1686.5,-168 1686.5,-168 1686.5,-156 1686.5,-156 1686.5,-150 1692.5,-144 1698.5,-144 1698.5,-144 1774.5,-144 1774.5,-144 1780.5,-144 1786.5,-150 1786.5,-156 1786.5,-156 1786.5,-168 1786.5,-168 1786.5,-174 1780.5,-180 1774.5,-180"/>
<text text-anchor="middle" x="1736.5" y="-165" font-family="sans" font-size="10.00" fill="#000000">fastqc_trim</text>
<text text-anchor="middle" x="1736.5" y="-154" font-family="sans" font-size="10.00" fill="#000000">read_type_trim: R1</text>
</g>
<!-- 14&#45;&gt;20 -->
<g id="edge41" class="edge">
<title>14&#45;&gt;20</title>
<path fill="none" stroke="#c0c0c0" stroke-width="2" d="M1687.1546,-215.8314C1694.9114,-207.3694 1704.2802,-197.1489 1712.761,-187.8971"/>
<polygon fill="#c0c0c0" stroke="#c0c0c0" stroke-width="2" points="1715.4439,-190.1499 1719.6212,-180.4133 1710.2838,-185.4198 1715.4439,-190.1499"/>
</g>
<!-- 27 -->
<g id="node28" class="node">
<title>27</title>
<path fill="none" stroke="#d85656" stroke-width="2" d="M1892.5,-180C1892.5,-180 1816.5,-180 1816.5,-180 1810.5,-180 1804.5,-174 1804.5,-168 1804.5,-168 1804.5,-156 1804.5,-156 1804.5,-150 1810.5,-144 1816.5,-144 1816.5,-144 1892.5,-144 1892.5,-144 1898.5,-144 1904.5,-150 1904.5,-156 1904.5,-156 1904.5,-168 1904.5,-168 1904.5,-174 1898.5,-180 1892.5,-180"/>
<text text-anchor="middle" x="1854.5" y="-165" font-family="sans" font-size="10.00" fill="#000000">fastqc_trim</text>
<text text-anchor="middle" x="1854.5" y="-154" font-family="sans" font-size="10.00" fill="#000000">read_type_trim: R2</text>
</g>
<!-- 14&#45;&gt;27 -->
<g id="edge48" class="edge">
<title>14&#45;&gt;27</title>
<path fill="none" stroke="#c0c0c0" stroke-width="2" d="M1711.3356,-218.0209C1737.1136,-207.9338 1770.7496,-194.7719 1798.9407,-183.7406"/>
<polygon fill="#c0c0c0" stroke="#c0c0c0" stroke-width="2" points="1800.2361,-186.9922 1808.2732,-180.0888 1797.6853,-180.4735 1800.2361,-186.9922"/>
</g>
<!-- 15&#45;&gt;0 -->
<g id="edge2" class="edge">
<title>15&#45;&gt;0</title>
<path fill="none" stroke="#c0c0c0" stroke-width="2" d="M923.9346,-231.4497C858.9332,-226.4237 736.0329,-212.74 709.5,-180 663.9567,-123.8023 766.7382,-62.9933 824.9505,-34.4956"/>
<polygon fill="#c0c0c0" stroke="#c0c0c0" stroke-width="2" points="826.7249,-37.5262 834.2249,-30.0429 823.6952,-31.2158 826.7249,-37.5262"/>
</g>
<!-- 15&#45;&gt;1 -->
<g id="edge12" class="edge">
<title>15&#45;&gt;1</title>
<path fill="none" stroke="#c0c0c0" stroke-width="2" d="M1005.2264,-228.5596C1034.6621,-222.2646 1072.4665,-208.7756 1091.5,-180 1100.3269,-166.6551 1100.145,-157.4634 1091.5,-144 1073.7979,-116.4314 1038.1304,-102.7587 1010.6204,-96.0907"/>
<polygon fill="#c0c0c0" stroke="#c0c0c0" stroke-width="2" points="1011.0501,-92.6013 1000.5308,-93.8637 1009.5413,-99.4368 1011.0501,-92.6013"/>
</g>
<!-- 19 -->
<g id="node20" class="node">
<title>19</title>
<path fill="none" stroke="#d85656" stroke-width="2" d="M1252.5,-180C1252.5,-180 1150.5,-180 1150.5,-180 1144.5,-180 1138.5,-174 1138.5,-168 1138.5,-168 1138.5,-156 1138.5,-156 1138.5,-150 1144.5,-144 1150.5,-144 1150.5,-144 1252.5,-144 1252.5,-144 1258.5,-144 1264.5,-150 1264.5,-156 1264.5,-156 1264.5,-168 1264.5,-168 1264.5,-174 1258.5,-180 1252.5,-180"/>
<text text-anchor="middle" x="1201.5" y="-165" font-family="sans" font-size="10.00" fill="#000000">fastqc_trim</text>
<text text-anchor="middle" x="1201.5" y="-154" font-family="sans" font-size="10.00" fill="#000000">read_type_trim: singleton</text>
</g>
<!-- 15&#45;&gt;19 -->
<g id="edge40" class="edge">
<title>15&#45;&gt;19</title>
<path fill="none" stroke="#c0c0c0" stroke-width="2" d="M1005.2418,-221.6228C1040.1613,-211.0143 1091.2096,-195.5059 1132.4902,-182.965"/>
<polygon fill="#c0c0c0" stroke="#c0c0c0" stroke-width="2" points="1133.666,-186.2658 1142.2168,-180.0101 1131.6312,-179.5681 1133.666,-186.2658"/>
</g>
<!-- 21 -->
<g id="node22" class="node">
<title>21</title>
<path fill="none" stroke="#d85656" stroke-width="2" d="M834.5,-180C834.5,-180 730.5,-180 730.5,-180 724.5,-180 718.5,-174 718.5,-168 718.5,-168 718.5,-156 718.5,-156 718.5,-150 724.5,-144 730.5,-144 730.5,-144 834.5,-144 834.5,-144 840.5,-144 846.5,-150 846.5,-156 846.5,-156 846.5,-168 846.5,-168 846.5,-174 840.5,-180 834.5,-180"/>
<text text-anchor="middle" x="782.5" y="-165" font-family="sans" font-size="10.00" fill="#000000">fastqc_trim</text>
<text text-anchor="middle" x="782.5" y="-154" font-family="sans" font-size="10.00" fill="#000000">read_type_trim: collapsed</text>
</g>
<!-- 15&#45;&gt;21 -->
<g id="edge42" class="edge">
<title>15&#45;&gt;21</title>
<path fill="none" stroke="#c0c0c0" stroke-width="2" d="M923.6556,-217.8418C898.2493,-207.7909 865.2576,-194.7393 837.559,-183.7816"/>
<polygon fill="#c0c0c0" stroke="#c0c0c0" stroke-width="2" points="838.5899,-180.4255 828.0035,-180.0014 836.0148,-186.9347 838.5899,-180.4255"/>
</g>
<!-- 25 -->
<g id="node26" class="node">
<title>25</title>
<path fill="none" stroke="#d85656" stroke-width="2" d="M952.5,-180C952.5,-180 876.5,-180 876.5,-180 870.5,-180 864.5,-174 864.5,-168 864.5,-168 864.5,-156 864.5,-156 864.5,-150 870.5,-144 876.5,-144 876.5,-144 952.5,-144 952.5,-144 958.5,-144 964.5,-150 964.5,-156 964.5,-156 964.5,-168 964.5,-168 964.5,-174 958.5,-180 952.5,-180"/>
<text text-anchor="middle" x="914.5" y="-165" font-family="sans" font-size="10.00" fill="#000000">fastqc_trim</text>
<text text-anchor="middle" x="914.5" y="-154" font-family="sans" font-size="10.00" fill="#000000">read_type_trim: R1</text>
</g>
<!-- 15&#45;&gt;25 -->
<g id="edge46" class="edge">
<title>15&#45;&gt;25</title>
<path fill="none" stroke="#c0c0c0" stroke-width="2" d="M951.8829,-215.8314C946.1828,-207.6232 939.3337,-197.7606 933.0641,-188.7323"/>
<polygon fill="#c0c0c0" stroke="#c0c0c0" stroke-width="2" points="935.8658,-186.6306 927.287,-180.4133 930.1162,-190.6234 935.8658,-186.6306"/>
</g>
<!-- 26 -->
<g id="node27" class="node">
<title>26</title>
<path fill="none" stroke="#d85656" stroke-width="2" d="M1070.5,-180C1070.5,-180 994.5,-180 994.5,-180 988.5,-180 982.5,-174 982.5,-168 982.5,-168 982.5,-156 982.5,-156 982.5,-150 988.5,-144 994.5,-144 994.5,-144 1070.5,-144 1070.5,-144 1076.5,-144 1082.5,-150 1082.5,-156 1082.5,-156 1082.5,-168 1082.5,-168 1082.5,-174 1076.5,-180 1070.5,-180"/>
<text text-anchor="middle" x="1032.5" y="-165" font-family="sans" font-size="10.00" fill="#000000">fastqc_trim</text>
<text text-anchor="middle" x="1032.5" y="-154" font-family="sans" font-size="10.00" fill="#000000">read_type_trim: R2</text>
</g>
<!-- 15&#45;&gt;26 -->
<g id="edge47" class="edge">
<title>15&#45;&gt;26</title>
<path fill="none" stroke="#c0c0c0" stroke-width="2" d="M981.6593,-215.8314C989.6511,-207.3694 999.3038,-197.1489 1008.0416,-187.8971"/>
<polygon fill="#c0c0c0" stroke="#c0c0c0" stroke-width="2" points="1010.788,-190.0866 1015.1097,-180.4133 1005.6989,-185.2802 1010.788,-190.0866"/>
</g>
<!-- 16&#45;&gt;0 -->
<g id="edge4" class="edge">
<title>16&#45;&gt;0</title>
<path fill="none" stroke="#c0c0c0" stroke-width="2" d="M232.9531,-232.5983C150.049,-228.3355 -26.3576,-211.3037 31.5,-144 84.2132,-82.6807 669.2768,-32.9868 824.0985,-20.8438"/>
<polygon fill="#c0c0c0" stroke="#c0c0c0" stroke-width="2" points="824.7908,-24.3005 834.4889,-20.0347 824.2474,-17.3217 824.7908,-24.3005"/>
</g>
<!-- 16&#45;&gt;1 -->
<g id="edge13" class="edge">
<title>16&#45;&gt;1</title>
<path fill="none" stroke="#c0c0c0" stroke-width="2" d="M314.0954,-222.6773C342.6714,-213.6455 381.0926,-199.3055 411.5,-180 431.1404,-167.5304 428.3586,-153.7096 449.5,-144 536.4775,-104.054 831.5233,-93.3301 936.2494,-90.7472"/>
<polygon fill="#c0c0c0" stroke="#c0c0c0" stroke-width="2" points="936.4351,-94.2439 946.3498,-90.5091 936.2701,-87.2459 936.4351,-94.2439"/>
</g>
<!-- 22 -->
<g id="node23" class="node">
<title>22</title>
<path fill="none" stroke="#d85656" stroke-width="2" d="M574.5,-180C574.5,-180 470.5,-180 470.5,-180 464.5,-180 458.5,-174 458.5,-168 458.5,-168 458.5,-156 458.5,-156 458.5,-150 464.5,-144 470.5,-144 470.5,-144 574.5,-144 574.5,-144 580.5,-144 586.5,-150 586.5,-156 586.5,-156 586.5,-168 586.5,-168 586.5,-174 580.5,-180 574.5,-180"/>
<text text-anchor="middle" x="522.5" y="-165" font-family="sans" font-size="10.00" fill="#000000">fastqc_trim</text>
<text text-anchor="middle" x="522.5" y="-154" font-family="sans" font-size="10.00" fill="#000000">read_type_trim: collapsed</text>
</g>
<!-- 16&#45;&gt;22 -->
<g id="edge43" class="edge">
<title>16&#45;&gt;22</title>
<path fill="none" stroke="#c0c0c0" stroke-width="2" d="M314.0603,-222.2717C350.83,-211.6395 405.8839,-195.7203 450.1791,-182.9121"/>
<polygon fill="#c0c0c0" stroke="#c0c0c0" stroke-width="2" points="451.3979,-186.2031 460.0321,-180.063 449.4534,-179.4786 451.3979,-186.2031"/>
</g>
<!-- 23 -->
<g id="node24" class="node">
<title>23</title>
<path fill="none" stroke="#d85656" stroke-width="2" d="M128.5,-180C128.5,-180 52.5,-180 52.5,-180 46.5,-180 40.5,-174 40.5,-168 40.5,-168 40.5,-156 40.5,-156 40.5,-150 46.5,-144 52.5,-144 52.5,-144 128.5,-144 128.5,-144 134.5,-144 140.5,-150 140.5,-156 140.5,-156 140.5,-168 140.5,-168 140.5,-174 134.5,-180 128.5,-180"/>
<text text-anchor="middle" x="90.5" y="-165" font-family="sans" font-size="10.00" fill="#000000">fastqc_trim</text>
<text text-anchor="middle" x="90.5" y="-154" font-family="sans" font-size="10.00" fill="#000000">read_type_trim: R1</text>
</g>
<!-- 16&#45;&gt;23 -->
<g id="edge44" class="edge">
<title>16&#45;&gt;23</title>
<path fill="none" stroke="#c0c0c0" stroke-width="2" d="M232.8864,-218.0209C207.3599,-207.9777 174.086,-194.8863 146.1234,-183.8846"/>
<polygon fill="#c0c0c0" stroke="#c0c0c0" stroke-width="2" points="147.0627,-180.4931 136.4756,-180.0888 144.4998,-187.0071 147.0627,-180.4931"/>
</g>
<!-- 24 -->
<g id="node25" class="node">
<title>24</title>
<path fill="none" stroke="#d85656" stroke-width="2" d="M246.5,-180C246.5,-180 170.5,-180 170.5,-180 164.5,-180 158.5,-174 158.5,-168 158.5,-168 158.5,-156 158.5,-156 158.5,-150 164.5,-144 170.5,-144 170.5,-144 246.5,-144 246.5,-144 252.5,-144 258.5,-150 258.5,-156 258.5,-156 258.5,-168 258.5,-168 258.5,-174 252.5,-180 246.5,-180"/>
<text text-anchor="middle" x="208.5" y="-165" font-family="sans" font-size="10.00" fill="#000000">fastqc_trim</text>
<text text-anchor="middle" x="208.5" y="-154" font-family="sans" font-size="10.00" fill="#000000">read_type_trim: R2</text>
</g>
<!-- 16&#45;&gt;24 -->
<g id="edge45" class="edge">
<title>16&#45;&gt;24</title>
<path fill="none" stroke="#c0c0c0" stroke-width="2" d="M257.0978,-215.8314C249.4585,-207.3694 240.2317,-197.1489 231.8793,-187.8971"/>
<polygon fill="#c0c0c0" stroke="#c0c0c0" stroke-width="2" points="234.4221,-185.4906 225.1231,-180.4133 229.2262,-190.1813 234.4221,-185.4906"/>
</g>
<!-- 28 -->
<g id="node29" class="node">
<title>28</title>
<path fill="none" stroke="#d85656" stroke-width="2" d="M390.5,-180C390.5,-180 288.5,-180 288.5,-180 282.5,-180 276.5,-174 276.5,-168 276.5,-168 276.5,-156 276.5,-156 276.5,-150 282.5,-144 288.5,-144 288.5,-144 390.5,-144 390.5,-144 396.5,-144 402.5,-150 402.5,-156 402.5,-156 402.5,-168 402.5,-168 402.5,-174 396.5,-180 390.5,-180"/>
<text text-anchor="middle" x="339.5" y="-165" font-family="sans" font-size="10.00" fill="#000000">fastqc_trim</text>
<text text-anchor="middle" x="339.5" y="-154" font-family="sans" font-size="10.00" fill="#000000">read_type_trim: singleton</text>
</g>
<!-- 16&#45;&gt;28 -->
<g id="edge49" class="edge">
<title>16&#45;&gt;28</title>
<path fill="none" stroke="#c0c0c0" stroke-width="2" d="M290.1546,-215.8314C297.9114,-207.3694 307.2802,-197.1489 315.761,-187.8971"/>
<polygon fill="#c0c0c0" stroke="#c0c0c0" stroke-width="2" points="318.4439,-190.1499 322.6212,-180.4133 313.2838,-185.4198 318.4439,-190.1499"/>
</g>
<!-- 17&#45;&gt;1 -->
<g id="edge14" class="edge">
<title>17&#45;&gt;1</title>
<path fill="none" stroke="#c0c0c0" stroke-width="2" d="M1396.1542,-146.6712C1391.5441,-145.7157 1386.9568,-144.8131 1382.5,-144 1246.5064,-119.1892 1083.0899,-101.0952 1010.9023,-93.6929"/>
<polygon fill="#c0c0c0" stroke="#c0c0c0" stroke-width="2" points="1011.2306,-90.2084 1000.9278,-92.6788 1010.5225,-97.1725 1011.2306,-90.2084"/>
</g>
<!-- 18&#45;&gt;1 -->
<g id="edge15" class="edge">
<title>18&#45;&gt;1</title>
<path fill="none" stroke="#c0c0c0" stroke-width="2" d="M1540.12,-145.5874C1537.2141,-145.0165 1534.3307,-144.4833 1531.5,-144 1337.2064,-110.8255 1101.1136,-96.3447 1010.9467,-91.7421"/>
<polygon fill="#c0c0c0" stroke="#c0c0c0" stroke-width="2" points="1010.8491,-88.2329 1000.6868,-91.2291 1010.4995,-95.2242 1010.8491,-88.2329"/>
</g>
<!-- 19&#45;&gt;1 -->
<g id="edge16" class="edge">
<title>19&#45;&gt;1</title>
<path fill="none" stroke="#c0c0c0" stroke-width="2" d="M1144.2603,-143.9243C1102.3005,-130.6738 1046.5671,-113.0738 1010.3704,-101.6433"/>
<polygon fill="#c0c0c0" stroke="#c0c0c0" stroke-width="2" points="1011.2966,-98.2655 1000.7068,-98.5916 1009.1887,-104.9405 1011.2966,-98.2655"/>
</g>
<!-- 20&#45;&gt;1 -->
<g id="edge17" class="edge">
<title>20&#45;&gt;1</title>
<path fill="none" stroke="#c0c0c0" stroke-width="2" d="M1686.475,-145.9208C1683.4545,-145.2048 1680.4467,-144.5555 1677.5,-144 1547.7231,-119.5342 1137.6765,-97.9982 1011.0919,-91.7923"/>
<polygon fill="#c0c0c0" stroke="#c0c0c0" stroke-width="2" points="1010.9185,-88.2798 1000.76,-91.289 1010.5779,-95.2715 1010.9185,-88.2798"/>
</g>
<!-- 21&#45;&gt;1 -->
<g id="edge18" class="edge">
<title>21&#45;&gt;1</title>
<path fill="none" stroke="#c0c0c0" stroke-width="2" d="M830.6974,-143.8314C863.5618,-131.4427 906.4249,-115.2849 936.5846,-103.9158"/>
<polygon fill="#c0c0c0" stroke="#c0c0c0" stroke-width="2" points="938.1702,-107.0585 946.2929,-100.2561 935.701,-100.5085 938.1702,-107.0585"/>
</g>
<!-- 22&#45;&gt;1 -->
<g id="edge19" class="edge">
<title>22&#45;&gt;1</title>
<path fill="none" stroke="#c0c0c0" stroke-width="2" d="M586.6844,-146.7435C591.3506,-145.7711 595.9923,-144.8449 600.5,-144 722.5925,-121.1155 868.7293,-102.4757 936.1059,-94.37"/>
<polygon fill="#c0c0c0" stroke="#c0c0c0" stroke-width="2" points="936.7134,-97.8224 946.2275,-93.1605 935.8828,-90.8719 936.7134,-97.8224"/>
</g>
<!-- 23&#45;&gt;1 -->
<g id="edge20" class="edge">
<title>23&#45;&gt;1</title>
<path fill="none" stroke="#c0c0c0" stroke-width="2" d="M140.5178,-145.8818C143.54,-145.1756 146.5503,-144.5391 149.5,-144 303.7825,-115.8013 796.2619,-96.3583 936.1316,-91.3031"/>
<polygon fill="#c0c0c0" stroke="#c0c0c0" stroke-width="2" points="936.465,-94.7935 946.3331,-90.9374 936.2141,-87.798 936.465,-94.7935"/>
</g>
<!-- 24&#45;&gt;1 -->
<g id="edge21" class="edge">
<title>24&#45;&gt;1</title>
<path fill="none" stroke="#c0c0c0" stroke-width="2" d="M258.5248,-145.92C261.5454,-145.2043 264.5533,-144.5552 267.5,-144 397.646,-119.4792 808.8573,-97.9808 935.8014,-91.7881"/>
<polygon fill="#c0c0c0" stroke="#c0c0c0" stroke-width="2" points="936.3438,-95.2661 946.1626,-91.286 936.0048,-88.2743 936.3438,-95.2661"/>
</g>
<!-- 25&#45;&gt;1 -->
<g id="edge22" class="edge">
<title>25&#45;&gt;1</title>
<path fill="none" stroke="#c0c0c0" stroke-width="2" d="M929.3882,-143.8314C936.253,-135.454 944.5301,-125.3531 952.0511,-116.1749"/>
<polygon fill="#c0c0c0" stroke="#c0c0c0" stroke-width="2" points="954.7803,-118.3665 958.4114,-108.4133 949.3659,-113.9297 954.7803,-118.3665"/>
</g>
<!-- 26&#45;&gt;1 -->
<g id="edge23" class="edge">
<title>26&#45;&gt;1</title>
<path fill="none" stroke="#c0c0c0" stroke-width="2" d="M1017.6118,-143.8314C1010.747,-135.454 1002.4699,-125.3531 994.9489,-116.1749"/>
<polygon fill="#c0c0c0" stroke="#c0c0c0" stroke-width="2" points="997.6341,-113.9297 988.5886,-108.4133 992.2197,-118.3665 997.6341,-113.9297"/>
</g>
<!-- 27&#45;&gt;1 -->
<g id="edge24" class="edge">
<title>27&#45;&gt;1</title>
<path fill="none" stroke="#c0c0c0" stroke-width="2" d="M1804.4821,-145.8824C1801.4599,-145.1761 1798.4497,-144.5394 1795.5,-144 1641.5926,-115.8572 1150.3081,-96.3745 1010.7777,-91.3066"/>
<polygon fill="#c0c0c0" stroke="#c0c0c0" stroke-width="2" points="1010.7205,-87.8024 1000.6009,-90.94 1010.4684,-94.7978 1010.7205,-87.8024"/>
</g>
<!-- 28&#45;&gt;1 -->
<g id="edge25" class="edge">
<title>28&#45;&gt;1</title>
<path fill="none" stroke="#c0c0c0" stroke-width="2" d="M402.8153,-146.4953C407.4325,-145.5811 412.0298,-144.7358 416.5,-144 610.6429,-112.0427 846.1976,-96.8533 936.1462,-91.9014"/>
<polygon fill="#c0c0c0" stroke="#c0c0c0" stroke-width="2" points="936.5848,-95.3829 946.3812,-91.3479 936.2067,-88.3931 936.5848,-95.3829"/>
</g>
</g>
</svg>
