<?xml version="1.0" encoding="UTF-8" standalone="no"?>
<!DOCTYPE svg PUBLIC "-//W3C//DTD SVG 1.1//EN"
 "http://www.w3.org/Graphics/SVG/1.1/DTD/svg11.dtd">
<!-- Generated by graphviz version 2.40.1 (0)
 -->
<!-- Title: snakemake_dag Pages: 1 -->
<svg width="3249pt" height="359pt"
 viewBox="0.00 0.00 3249.32 359.00" xmlns="http://www.w3.org/2000/svg" xmlns:xlink="http://www.w3.org/1999/xlink">
<g id="graph0" class="graph" transform="scale(1 1) rotate(0) translate(4 355)">
<title>snakemake_dag</title>
<polygon fill="#ffffff" stroke="transparent" points="-4,4 -4,-355 3245.3241,-355 3245.3241,4 -4,4"/>
<!-- 0 -->
<g id="node1" class="node">
<title>0</title>
<path fill="none" stroke="#d6d856" stroke-width="2" d="M1628.5,-36C1628.5,-36 1598.5,-36 1598.5,-36 1592.5,-36 1586.5,-30 1586.5,-24 1586.5,-24 1586.5,-12 1586.5,-12 1586.5,-6 1592.5,0 1598.5,0 1598.5,0 1628.5,0 1628.5,0 1634.5,0 1640.5,-6 1640.5,-12 1640.5,-12 1640.5,-24 1640.5,-24 1640.5,-30 1634.5,-36 1628.5,-36"/>
<text text-anchor="middle" x="1613.5" y="-15.5" font-family="sans" font-size="10.00" fill="#000000">all</text>
</g>
<!-- 1 -->
<g id="node2" class="node">
<title>1</title>
<path fill="none" stroke="#d85656" stroke-width="2" d="M1628.5,-108C1628.5,-108 1598.5,-108 1598.5,-108 1592.5,-108 1586.5,-102 1586.5,-96 1586.5,-96 1586.5,-84 1586.5,-84 1586.5,-78 1592.5,-72 1598.5,-72 1598.5,-72 1628.5,-72 1628.5,-72 1634.5,-72 1640.5,-78 1640.5,-84 1640.5,-84 1640.5,-96 1640.5,-96 1640.5,-102 1634.5,-108 1628.5,-108"/>
<text text-anchor="middle" x="1613.5" y="-87.5" font-family="sans" font-size="10.00" fill="#000000">multiqc</text>
</g>
<!-- 1&#45;&gt;0 -->
<g id="edge1" class="edge">
<title>1&#45;&gt;0</title>
<path fill="none" stroke="#c0c0c0" stroke-width="2" d="M1613.5,-71.8314C1613.5,-64.131 1613.5,-54.9743 1613.5,-46.4166"/>
<polygon fill="#c0c0c0" stroke="#c0c0c0" stroke-width="2" points="1617.0001,-46.4132 1613.5,-36.4133 1610.0001,-46.4133 1617.0001,-46.4132"/>
</g>
<!-- 2 -->
<g id="node3" class="node">
<title>2</title>
<path fill="none" stroke="#56d89a" stroke-width="2" d="M53,-252C53,-252 12,-252 12,-252 6,-252 0,-246 0,-240 0,-240 0,-228 0,-228 0,-222 6,-216 12,-216 12,-216 53,-216 53,-216 59,-216 65,-222 65,-228 65,-228 65,-240 65,-240 65,-246 59,-252 53,-252"/>
<text text-anchor="middle" x="32.5" y="-231.5" font-family="sans" font-size="10.00" fill="#000000">fastqc_raw</text>
</g>
<!-- 2&#45;&gt;1 -->
<g id="edge6" class="edge">
<title>2&#45;&gt;1</title>
<path fill="none" stroke="#c0c0c0" stroke-width="2" d="M22.5232,-215.7928C12.885,-195.4599 2.2037,-162.927 20.5,-144 48.439,-115.0978 1338.7874,-94.1641 1576.1789,-90.5541"/>
<polygon fill="#c0c0c0" stroke="#c0c0c0" stroke-width="2" points="1576.4241,-94.0509 1586.3699,-90.3999 1576.3181,-87.0517 1576.4241,-94.0509"/>
</g>
<!-- 3 -->
<g id="node4" class="node">
<title>3</title>
<path fill="none" stroke="#56d8d8" stroke-width="2" d="M217,-351C217,-351 122,-351 122,-351 116,-351 110,-345 110,-339 110,-339 110,-300 110,-300 110,-294 116,-288 122,-288 122,-288 217,-288 217,-288 223,-288 229,-294 229,-300 229,-300 229,-339 229,-339 229,-345 223,-351 217,-351"/>
<text text-anchor="middle" x="169.5" y="-339" font-family="sans" font-size="10.00" fill="#000000">get_fastq_raw</text>
<text text-anchor="middle" x="169.5" y="-328" font-family="sans" font-size="10.00" fill="#000000">lane: L001</text>
<text text-anchor="middle" x="169.5" y="-317" font-family="sans" font-size="10.00" fill="#000000">library: lib2</text>
<text text-anchor="middle" x="169.5" y="-306" font-family="sans" font-size="10.00" fill="#000000">read_type_raw: R2</text>
<text text-anchor="middle" x="169.5" y="-295" font-family="sans" font-size="10.00" fill="#000000">sample: HD827sonic_2</text>
</g>
<!-- 3&#45;&gt;2 -->
<g id="edge38" class="edge">
<title>3&#45;&gt;2</title>
<path fill="none" stroke="#c0c0c0" stroke-width="2" d="M118.8755,-287.9059C102.6912,-277.8055 85.0755,-266.8117 69.999,-257.4027"/>
<polygon fill="#c0c0c0" stroke="#c0c0c0" stroke-width="2" points="71.7821,-254.3898 61.4456,-252.0646 68.076,-260.3283 71.7821,-254.3898"/>
</g>
<!-- 18 -->
<g id="node19" class="node">
<title>18</title>
<path fill="none" stroke="#97d856" stroke-width="2" d="M288.5,-252C288.5,-252 186.5,-252 186.5,-252 180.5,-252 174.5,-246 174.5,-240 174.5,-240 174.5,-228 174.5,-228 174.5,-222 180.5,-216 186.5,-216 186.5,-216 288.5,-216 288.5,-216 294.5,-216 300.5,-222 300.5,-228 300.5,-228 300.5,-240 300.5,-240 300.5,-246 294.5,-252 288.5,-252"/>
<text text-anchor="middle" x="237.5" y="-231.5" font-family="sans" font-size="10.00" fill="#000000">adapterremoval_fastq_pe</text>
</g>
<!-- 3&#45;&gt;18 -->
<g id="edge47" class="edge">
<title>3&#45;&gt;18</title>
<path fill="none" stroke="#c0c0c0" stroke-width="2" d="M194.8207,-287.663C202.0318,-278.5961 209.8011,-268.8273 216.709,-260.1417"/>
<polygon fill="#c0c0c0" stroke="#c0c0c0" stroke-width="2" points="219.5364,-262.2095 223.0217,-252.2043 214.0578,-257.8522 219.5364,-262.2095"/>
</g>
<!-- 4 -->
<g id="node5" class="node">
<title>4</title>
<path fill="none" stroke="#56d89a" stroke-width="2" d="M940,-252C940,-252 899,-252 899,-252 893,-252 887,-246 887,-240 887,-240 887,-228 887,-228 887,-222 893,-216 899,-216 899,-216 940,-216 940,-216 946,-216 952,-222 952,-228 952,-228 952,-240 952,-240 952,-246 946,-252 940,-252"/>
<text text-anchor="middle" x="919.5" y="-231.5" font-family="sans" font-size="10.00" fill="#000000">fastqc_raw</text>
</g>
<!-- 4&#45;&gt;1 -->
<g id="edge7" class="edge">
<title>4&#45;&gt;1</title>
<path fill="none" stroke="#c0c0c0" stroke-width="2" d="M897.365,-215.762C876.3286,-196.2927 850.6307,-165.3657 870.5,-144 894.7739,-117.8979 1428.3691,-96.7017 1575.9644,-91.3226"/>
<polygon fill="#c0c0c0" stroke="#c0c0c0" stroke-width="2" points="1576.4389,-94.8078 1586.3059,-90.9486 1576.1859,-87.8124 1576.4389,-94.8078"/>
</g>
<!-- 5 -->
<g id="node6" class="node">
<title>5</title>
<path fill="none" stroke="#56d8d8" stroke-width="2" d="M1024,-351C1024,-351 929,-351 929,-351 923,-351 917,-345 917,-339 917,-339 917,-300 917,-300 917,-294 923,-288 929,-288 929,-288 1024,-288 1024,-288 1030,-288 1036,-294 1036,-300 1036,-300 1036,-339 1036,-339 1036,-345 1030,-351 1024,-351"/>
<text text-anchor="middle" x="976.5" y="-339" font-family="sans" font-size="10.00" fill="#000000">get_fastq_raw</text>
<text text-anchor="middle" x="976.5" y="-328" font-family="sans" font-size="10.00" fill="#000000">lane: L002</text>
<text text-anchor="middle" x="976.5" y="-317" font-family="sans" font-size="10.00" fill="#000000">library: lib1</text>
<text text-anchor="middle" x="976.5" y="-306" font-family="sans" font-size="10.00" fill="#000000">read_type_raw: R2</text>
<text text-anchor="middle" x="976.5" y="-295" font-family="sans" font-size="10.00" fill="#000000">sample: HD827sonic_1</text>
</g>
<!-- 5&#45;&gt;4 -->
<g id="edge39" class="edge">
<title>5&#45;&gt;4</title>
<path fill="none" stroke="#c0c0c0" stroke-width="2" d="M955.2753,-287.663C949.3554,-278.783 942.9866,-269.2299 937.2869,-260.6803"/>
<polygon fill="#c0c0c0" stroke="#c0c0c0" stroke-width="2" points="940.0954,-258.5833 931.6362,-252.2043 934.2711,-262.4663 940.0954,-258.5833"/>
</g>
<!-- 20 -->
<g id="node21" class="node">
<title>20</title>
<path fill="none" stroke="#97d856" stroke-width="2" d="M1159.5,-252C1159.5,-252 1057.5,-252 1057.5,-252 1051.5,-252 1045.5,-246 1045.5,-240 1045.5,-240 1045.5,-228 1045.5,-228 1045.5,-222 1051.5,-216 1057.5,-216 1057.5,-216 1159.5,-216 1159.5,-216 1165.5,-216 1171.5,-222 1171.5,-228 1171.5,-228 1171.5,-240 1171.5,-240 1171.5,-246 1165.5,-252 1159.5,-252"/>
<text text-anchor="middle" x="1108.5" y="-231.5" font-family="sans" font-size="10.00" fill="#000000">adapterremoval_fastq_pe</text>
</g>
<!-- 5&#45;&gt;20 -->
<g id="edge51" class="edge">
<title>5&#45;&gt;20</title>
<path fill="none" stroke="#c0c0c0" stroke-width="2" d="M1025.2769,-287.9059C1040.7248,-277.8999 1057.5262,-267.0171 1071.9617,-257.6669"/>
<polygon fill="#c0c0c0" stroke="#c0c0c0" stroke-width="2" points="1074.1204,-260.4387 1080.6108,-252.0646 1070.3149,-254.5635 1074.1204,-260.4387"/>
</g>
<!-- 6 -->
<g id="node7" class="node">
<title>6</title>
<path fill="none" stroke="#56d89a" stroke-width="2" d="M659,-252C659,-252 618,-252 618,-252 612,-252 606,-246 606,-240 606,-240 606,-228 606,-228 606,-222 612,-216 618,-216 618,-216 659,-216 659,-216 665,-216 671,-222 671,-228 671,-228 671,-240 671,-240 671,-246 665,-252 659,-252"/>
<text text-anchor="middle" x="638.5" y="-231.5" font-family="sans" font-size="10.00" fill="#000000">fastqc_raw</text>
</g>
<!-- 6&#45;&gt;1 -->
<g id="edge8" class="edge">
<title>6&#45;&gt;1</title>
<path fill="none" stroke="#c0c0c0" stroke-width="2" d="M671.1185,-216.8859C713.3147,-195.656 789.7031,-160.2773 859.5,-144 998.249,-111.6425 1444.0098,-95.3283 1576.2088,-91.1193"/>
<polygon fill="#c0c0c0" stroke="#c0c0c0" stroke-width="2" points="1576.3618,-94.6163 1586.2469,-90.8039 1576.1419,-87.6197 1576.3618,-94.6163"/>
</g>
<!-- 7 -->
<g id="node8" class="node">
<title>7</title>
<path fill="none" stroke="#56d8d8" stroke-width="2" d="M575,-351C575,-351 480,-351 480,-351 474,-351 468,-345 468,-339 468,-339 468,-300 468,-300 468,-294 474,-288 480,-288 480,-288 575,-288 575,-288 581,-288 587,-294 587,-300 587,-300 587,-339 587,-339 587,-345 581,-351 575,-351"/>
<text text-anchor="middle" x="527.5" y="-339" font-family="sans" font-size="10.00" fill="#000000">get_fastq_raw</text>
<text text-anchor="middle" x="527.5" y="-328" font-family="sans" font-size="10.00" fill="#000000">lane: L001</text>
<text text-anchor="middle" x="527.5" y="-317" font-family="sans" font-size="10.00" fill="#000000">library: lib2</text>
<text text-anchor="middle" x="527.5" y="-306" font-family="sans" font-size="10.00" fill="#000000">read_type_raw: R1</text>
<text text-anchor="middle" x="527.5" y="-295" font-family="sans" font-size="10.00" fill="#000000">sample: HD827sonic_2</text>
</g>
<!-- 7&#45;&gt;6 -->
<g id="edge40" class="edge">
<title>7&#45;&gt;6</title>
<path fill="none" stroke="#c0c0c0" stroke-width="2" d="M568.5169,-287.9059C581.2621,-278.0886 595.1029,-267.4275 607.0854,-258.1978"/>
<polygon fill="#c0c0c0" stroke="#c0c0c0" stroke-width="2" points="609.2613,-260.9397 615.0477,-252.0646 604.9896,-255.3941 609.2613,-260.9397"/>
</g>
<!-- 7&#45;&gt;18 -->
<g id="edge46" class="edge">
<title>7&#45;&gt;18</title>
<path fill="none" stroke="#c0c0c0" stroke-width="2" d="M467.7634,-301.888C421.5373,-288.2593 357.3801,-269.344 308.5254,-254.9403"/>
<polygon fill="#c0c0c0" stroke="#c0c0c0" stroke-width="2" points="309.2385,-251.5016 298.6569,-252.0307 307.2589,-258.2159 309.2385,-251.5016"/>
</g>
<!-- 8 -->
<g id="node9" class="node">
<title>8</title>
<path fill="none" stroke="#56d89a" stroke-width="2" d="M1850,-252C1850,-252 1809,-252 1809,-252 1803,-252 1797,-246 1797,-240 1797,-240 1797,-228 1797,-228 1797,-222 1803,-216 1809,-216 1809,-216 1850,-216 1850,-216 1856,-216 1862,-222 1862,-228 1862,-228 1862,-240 1862,-240 1862,-246 1856,-252 1850,-252"/>
<text text-anchor="middle" x="1829.5" y="-231.5" font-family="sans" font-size="10.00" fill="#000000">fastqc_raw</text>
</g>
<!-- 8&#45;&gt;1 -->
<g id="edge9" class="edge">
<title>8&#45;&gt;1</title>
<path fill="none" stroke="#c0c0c0" stroke-width="2" d="M1796.7069,-227.531C1751.4478,-218.0334 1672.9813,-199.337 1651.5,-180 1633.5734,-163.8629 1623.8371,-137.8811 1618.7236,-117.9721"/>
<polygon fill="#c0c0c0" stroke="#c0c0c0" stroke-width="2" points="1622.1251,-117.1468 1616.452,-108.1988 1615.3069,-118.7316 1622.1251,-117.1468"/>
</g>
<!-- 9 -->
<g id="node10" class="node">
<title>9</title>
<path fill="none" stroke="#56d8d8" stroke-width="2" d="M1984,-351C1984,-351 1889,-351 1889,-351 1883,-351 1877,-345 1877,-339 1877,-339 1877,-300 1877,-300 1877,-294 1883,-288 1889,-288 1889,-288 1984,-288 1984,-288 1990,-288 1996,-294 1996,-300 1996,-300 1996,-339 1996,-339 1996,-345 1990,-351 1984,-351"/>
<text text-anchor="middle" x="1936.5" y="-339" font-family="sans" font-size="10.00" fill="#000000">get_fastq_raw</text>
<text text-anchor="middle" x="1936.5" y="-328" font-family="sans" font-size="10.00" fill="#000000">lane: L001</text>
<text text-anchor="middle" x="1936.5" y="-317" font-family="sans" font-size="10.00" fill="#000000">library: lib1</text>
<text text-anchor="middle" x="1936.5" y="-306" font-family="sans" font-size="10.00" fill="#000000">read_type_raw: R2</text>
<text text-anchor="middle" x="1936.5" y="-295" font-family="sans" font-size="10.00" fill="#000000">sample: HD827sonic_1</text>
</g>
<!-- 9&#45;&gt;8 -->
<g id="edge41" class="edge">
<title>9&#45;&gt;8</title>
<path fill="none" stroke="#c0c0c0" stroke-width="2" d="M1896.9612,-287.9059C1884.7934,-278.183 1871.5897,-267.6324 1860.1163,-258.4644"/>
<polygon fill="#c0c0c0" stroke="#c0c0c0" stroke-width="2" points="1862.1043,-255.5728 1852.1071,-252.0646 1857.7345,-261.0414 1862.1043,-255.5728"/>
</g>
<!-- 21 -->
<g id="node22" class="node">
<title>21</title>
<path fill="none" stroke="#97d856" stroke-width="2" d="M2205.5,-252C2205.5,-252 2103.5,-252 2103.5,-252 2097.5,-252 2091.5,-246 2091.5,-240 2091.5,-240 2091.5,-228 2091.5,-228 2091.5,-222 2097.5,-216 2103.5,-216 2103.5,-216 2205.5,-216 2205.5,-216 2211.5,-216 2217.5,-222 2217.5,-228 2217.5,-228 2217.5,-240 2217.5,-240 2217.5,-246 2211.5,-252 2205.5,-252"/>
<text text-anchor="middle" x="2154.5" y="-231.5" font-family="sans" font-size="10.00" fill="#000000">adapterremoval_fastq_pe</text>
</g>
<!-- 9&#45;&gt;21 -->
<g id="edge53" class="edge">
<title>9&#45;&gt;21</title>
<path fill="none" stroke="#c0c0c0" stroke-width="2" d="M1996.0695,-296.1367C2028.1729,-283.5457 2067.5344,-268.1081 2098.9921,-255.7703"/>
<polygon fill="#c0c0c0" stroke="#c0c0c0" stroke-width="2" points="2100.4526,-258.9571 2108.4843,-252.0475 2097.8967,-252.4404 2100.4526,-258.9571"/>
</g>
<!-- 10 -->
<g id="node11" class="node">
<title>10</title>
<path fill="none" stroke="#56d89a" stroke-width="2" d="M1429,-252C1429,-252 1388,-252 1388,-252 1382,-252 1376,-246 1376,-240 1376,-240 1376,-228 1376,-228 1376,-222 1382,-216 1388,-216 1388,-216 1429,-216 1429,-216 1435,-216 1441,-222 1441,-228 1441,-228 1441,-240 1441,-240 1441,-246 1435,-252 1429,-252"/>
<text text-anchor="middle" x="1408.5" y="-231.5" font-family="sans" font-size="10.00" fill="#000000">fastqc_raw</text>
</g>
<!-- 10&#45;&gt;1 -->
<g id="edge10" class="edge">
<title>10&#45;&gt;1</title>
<path fill="none" stroke="#c0c0c0" stroke-width="2" d="M1441.0871,-231.4674C1477.9948,-226.9648 1537.8785,-214.4908 1575.5,-180 1593.279,-163.7004 1603.0317,-137.7367 1608.189,-117.8758"/>
<polygon fill="#c0c0c0" stroke="#c0c0c0" stroke-width="2" points="1611.5986,-118.6658 1610.4852,-108.1297 1604.7852,-117.0605 1611.5986,-118.6658"/>
</g>
<!-- 11 -->
<g id="node12" class="node">
<title>11</title>
<path fill="none" stroke="#56d8d8" stroke-width="2" d="M1231,-351C1231,-351 1136,-351 1136,-351 1130,-351 1124,-345 1124,-339 1124,-339 1124,-300 1124,-300 1124,-294 1130,-288 1136,-288 1136,-288 1231,-288 1231,-288 1237,-288 1243,-294 1243,-300 1243,-300 1243,-339 1243,-339 1243,-345 1237,-351 1231,-351"/>
<text text-anchor="middle" x="1183.5" y="-339" font-family="sans" font-size="10.00" fill="#000000">get_fastq_raw</text>
<text text-anchor="middle" x="1183.5" y="-328" font-family="sans" font-size="10.00" fill="#000000">lane: L002</text>
<text text-anchor="middle" x="1183.5" y="-317" font-family="sans" font-size="10.00" fill="#000000">library: lib1</text>
<text text-anchor="middle" x="1183.5" y="-306" font-family="sans" font-size="10.00" fill="#000000">read_type_raw: R1</text>
<text text-anchor="middle" x="1183.5" y="-295" font-family="sans" font-size="10.00" fill="#000000">sample: HD827sonic_1</text>
</g>
<!-- 11&#45;&gt;10 -->
<g id="edge42" class="edge">
<title>11&#45;&gt;10</title>
<path fill="none" stroke="#c0c0c0" stroke-width="2" d="M1243.2052,-296.812C1281.9998,-282.0701 1331.6269,-263.2118 1366.3367,-250.022"/>
<polygon fill="#c0c0c0" stroke="#c0c0c0" stroke-width="2" points="1367.6052,-253.2843 1375.7097,-246.4603 1365.1186,-246.7408 1367.6052,-253.2843"/>
</g>
<!-- 11&#45;&gt;20 -->
<g id="edge50" class="edge">
<title>11&#45;&gt;20</title>
<path fill="none" stroke="#c0c0c0" stroke-width="2" d="M1155.5728,-287.663C1147.5374,-278.5026 1138.8736,-268.6259 1131.196,-259.8734"/>
<polygon fill="#c0c0c0" stroke="#c0c0c0" stroke-width="2" points="1133.6943,-257.4139 1124.4687,-252.2043 1128.4319,-262.03 1133.6943,-257.4139"/>
</g>
<!-- 12 -->
<g id="node13" class="node">
<title>12</title>
<path fill="none" stroke="#56d89a" stroke-width="2" d="M2553,-252C2553,-252 2512,-252 2512,-252 2506,-252 2500,-246 2500,-240 2500,-240 2500,-228 2500,-228 2500,-222 2506,-216 2512,-216 2512,-216 2553,-216 2553,-216 2559,-216 2565,-222 2565,-228 2565,-228 2565,-240 2565,-240 2565,-246 2559,-252 2553,-252"/>
<text text-anchor="middle" x="2532.5" y="-231.5" font-family="sans" font-size="10.00" fill="#000000">fastqc_raw</text>
</g>
<!-- 12&#45;&gt;1 -->
<g id="edge11" class="edge">
<title>12&#45;&gt;1</title>
<path fill="none" stroke="#c0c0c0" stroke-width="2" d="M2514.0184,-215.9535C2490.6881,-194.458 2448.2863,-159.513 2404.5,-144 2332.9844,-118.6628 1797.9174,-96.9139 1650.823,-91.3668"/>
<polygon fill="#c0c0c0" stroke="#c0c0c0" stroke-width="2" points="1650.6462,-87.8578 1640.5222,-90.9809 1650.3841,-94.8529 1650.6462,-87.8578"/>
</g>
<!-- 13 -->
<g id="node14" class="node">
<title>13</title>
<path fill="none" stroke="#56d8d8" stroke-width="2" d="M2746,-351C2746,-351 2651,-351 2651,-351 2645,-351 2639,-345 2639,-339 2639,-339 2639,-300 2639,-300 2639,-294 2645,-288 2651,-288 2651,-288 2746,-288 2746,-288 2752,-288 2758,-294 2758,-300 2758,-300 2758,-339 2758,-339 2758,-345 2752,-351 2746,-351"/>
<text text-anchor="middle" x="2698.5" y="-339" font-family="sans" font-size="10.00" fill="#000000">get_fastq_raw</text>
<text text-anchor="middle" x="2698.5" y="-328" font-family="sans" font-size="10.00" fill="#000000">lane: L001</text>
<text text-anchor="middle" x="2698.5" y="-317" font-family="sans" font-size="10.00" fill="#000000">library: lib1</text>
<text text-anchor="middle" x="2698.5" y="-306" font-family="sans" font-size="10.00" fill="#000000">read_type_raw: R2</text>
<text text-anchor="middle" x="2698.5" y="-295" font-family="sans" font-size="10.00" fill="#000000">sample: HD827sonic_2</text>
</g>
<!-- 13&#45;&gt;12 -->
<g id="edge43" class="edge">
<title>13&#45;&gt;12</title>
<path fill="none" stroke="#c0c0c0" stroke-width="2" d="M2638.5702,-288.6325C2617.2445,-277.6485 2593.7116,-265.5277 2574.2412,-255.4992"/>
<polygon fill="#c0c0c0" stroke="#c0c0c0" stroke-width="2" points="2575.8138,-252.3723 2565.321,-250.9048 2572.6085,-258.5953 2575.8138,-252.3723"/>
</g>
<!-- 19 -->
<g id="node20" class="node">
<title>19</title>
<path fill="none" stroke="#97d856" stroke-width="2" d="M3052.5,-252C3052.5,-252 2950.5,-252 2950.5,-252 2944.5,-252 2938.5,-246 2938.5,-240 2938.5,-240 2938.5,-228 2938.5,-228 2938.5,-222 2944.5,-216 2950.5,-216 2950.5,-216 3052.5,-216 3052.5,-216 3058.5,-216 3064.5,-222 3064.5,-228 3064.5,-228 3064.5,-240 3064.5,-240 3064.5,-246 3058.5,-252 3052.5,-252"/>
<text text-anchor="middle" x="3001.5" y="-231.5" font-family="sans" font-size="10.00" fill="#000000">adapterremoval_fastq_pe</text>
</g>
<!-- 13&#45;&gt;19 -->
<g id="edge49" class="edge">
<title>13&#45;&gt;19</title>
<path fill="none" stroke="#c0c0c0" stroke-width="2" d="M2758.0015,-302.71C2806.8989,-288.9122 2876.374,-269.3078 2928.6069,-254.5688"/>
<polygon fill="#c0c0c0" stroke="#c0c0c0" stroke-width="2" points="2929.8074,-257.8668 2938.481,-251.7826 2927.9063,-251.1299 2929.8074,-257.8668"/>
</g>
<!-- 14 -->
<g id="node15" class="node">
<title>14</title>
<path fill="none" stroke="#56d89a" stroke-width="2" d="M2407,-252C2407,-252 2366,-252 2366,-252 2360,-252 2354,-246 2354,-240 2354,-240 2354,-228 2354,-228 2354,-222 2360,-216 2366,-216 2366,-216 2407,-216 2407,-216 2413,-216 2419,-222 2419,-228 2419,-228 2419,-240 2419,-240 2419,-246 2413,-252 2407,-252"/>
<text text-anchor="middle" x="2386.5" y="-231.5" font-family="sans" font-size="10.00" fill="#000000">fastqc_raw</text>
</g>
<!-- 14&#45;&gt;1 -->
<g id="edge12" class="edge">
<title>14&#45;&gt;1</title>
<path fill="none" stroke="#c0c0c0" stroke-width="2" d="M2392.2344,-215.7456C2397.3754,-195.3694 2401.6195,-162.7969 2383.5,-144 2357.7853,-117.324 1801.6667,-96.4322 1650.91,-91.244"/>
<polygon fill="#c0c0c0" stroke="#c0c0c0" stroke-width="2" points="1650.8826,-87.7411 1640.7689,-90.8977 1650.6436,-94.7371 1650.8826,-87.7411"/>
</g>
<!-- 15 -->
<g id="node16" class="node">
<title>15</title>
<path fill="none" stroke="#56d8d8" stroke-width="2" d="M2291,-351C2291,-351 2196,-351 2196,-351 2190,-351 2184,-345 2184,-339 2184,-339 2184,-300 2184,-300 2184,-294 2190,-288 2196,-288 2196,-288 2291,-288 2291,-288 2297,-288 2303,-294 2303,-300 2303,-300 2303,-339 2303,-339 2303,-345 2297,-351 2291,-351"/>
<text text-anchor="middle" x="2243.5" y="-339" font-family="sans" font-size="10.00" fill="#000000">get_fastq_raw</text>
<text text-anchor="middle" x="2243.5" y="-328" font-family="sans" font-size="10.00" fill="#000000">lane: L001</text>
<text text-anchor="middle" x="2243.5" y="-317" font-family="sans" font-size="10.00" fill="#000000">library: lib1</text>
<text text-anchor="middle" x="2243.5" y="-306" font-family="sans" font-size="10.00" fill="#000000">read_type_raw: R1</text>
<text text-anchor="middle" x="2243.5" y="-295" font-family="sans" font-size="10.00" fill="#000000">sample: HD827sonic_1</text>
</g>
<!-- 15&#45;&gt;14 -->
<g id="edge44" class="edge">
<title>15&#45;&gt;14</title>
<path fill="none" stroke="#c0c0c0" stroke-width="2" d="M2296.3416,-287.9059C2313.2347,-277.8055 2331.6219,-266.8117 2347.3587,-257.4027"/>
<polygon fill="#c0c0c0" stroke="#c0c0c0" stroke-width="2" points="2349.5,-260.2003 2356.2867,-252.0646 2345.9077,-254.1923 2349.5,-260.2003"/>
</g>
<!-- 15&#45;&gt;21 -->
<g id="edge52" class="edge">
<title>15&#45;&gt;21</title>
<path fill="none" stroke="#c0c0c0" stroke-width="2" d="M2210.6125,-287.9059C2200.6882,-278.3718 2189.9354,-268.0419 2180.5234,-259"/>
<polygon fill="#c0c0c0" stroke="#c0c0c0" stroke-width="2" points="2182.9403,-256.4684 2173.3041,-252.0646 2178.0908,-261.5165 2182.9403,-256.4684"/>
</g>
<!-- 16 -->
<g id="node17" class="node">
<title>16</title>
<path fill="none" stroke="#56d89a" stroke-width="2" d="M3221,-252C3221,-252 3180,-252 3180,-252 3174,-252 3168,-246 3168,-240 3168,-240 3168,-228 3168,-228 3168,-222 3174,-216 3180,-216 3180,-216 3221,-216 3221,-216 3227,-216 3233,-222 3233,-228 3233,-228 3233,-240 3233,-240 3233,-246 3227,-252 3221,-252"/>
<text text-anchor="middle" x="3200.5" y="-231.5" font-family="sans" font-size="10.00" fill="#000000">fastqc_raw</text>
</g>
<!-- 16&#45;&gt;1 -->
<g id="edge13" class="edge">
<title>16&#45;&gt;1</title>
<path fill="none" stroke="#c0c0c0" stroke-width="2" d="M3215.7571,-215.7135C3230.6268,-195.6154 3248.4447,-163.5883 3229.5,-144 3201.136,-114.6723 1890.7908,-94.0668 1650.9781,-90.538"/>
<polygon fill="#c0c0c0" stroke="#c0c0c0" stroke-width="2" points="1650.7381,-87.0342 1640.6879,-90.3874 1650.6356,-94.0335 1650.7381,-87.0342"/>
</g>
<!-- 17 -->
<g id="node18" class="node">
<title>17</title>
<path fill="none" stroke="#56d8d8" stroke-width="2" d="M3148,-351C3148,-351 3053,-351 3053,-351 3047,-351 3041,-345 3041,-339 3041,-339 3041,-300 3041,-300 3041,-294 3047,-288 3053,-288 3053,-288 3148,-288 3148,-288 3154,-288 3160,-294 3160,-300 3160,-300 3160,-339 3160,-339 3160,-345 3154,-351 3148,-351"/>
<text text-anchor="middle" x="3100.5" y="-339" font-family="sans" font-size="10.00" fill="#000000">get_fastq_raw</text>
<text text-anchor="middle" x="3100.5" y="-328" font-family="sans" font-size="10.00" fill="#000000">lane: L001</text>
<text text-anchor="middle" x="3100.5" y="-317" font-family="sans" font-size="10.00" fill="#000000">library: lib1</text>
<text text-anchor="middle" x="3100.5" y="-306" font-family="sans" font-size="10.00" fill="#000000">read_type_raw: R1</text>
<text text-anchor="middle" x="3100.5" y="-295" font-family="sans" font-size="10.00" fill="#000000">sample: HD827sonic_2</text>
</g>
<!-- 17&#45;&gt;16 -->
<g id="edge45" class="edge">
<title>17&#45;&gt;16</title>
<path fill="none" stroke="#c0c0c0" stroke-width="2" d="M3137.4522,-287.9059C3148.7135,-278.2774 3160.9243,-267.8372 3171.5739,-258.7318"/>
<polygon fill="#c0c0c0" stroke="#c0c0c0" stroke-width="2" points="3174.0457,-261.2234 3179.3718,-252.0646 3169.4967,-255.9029 3174.0457,-261.2234"/>
</g>
<!-- 17&#45;&gt;19 -->
<g id="edge48" class="edge">
<title>17&#45;&gt;19</title>
<path fill="none" stroke="#c0c0c0" stroke-width="2" d="M3063.9173,-287.9059C3052.7686,-278.2774 3040.6799,-267.8372 3030.1368,-258.7318"/>
<polygon fill="#c0c0c0" stroke="#c0c0c0" stroke-width="2" points="3032.2728,-255.9519 3022.4169,-252.0646 3027.6975,-261.2497 3032.2728,-255.9519"/>
</g>
<!-- 18&#45;&gt;0 -->
<g id="edge3" class="edge">
<title>18&#45;&gt;0</title>
<path fill="none" stroke="#c0c0c0" stroke-width="2" d="M174.2627,-228.725C93.9978,-219.7473 -28.4922,-197.0203 20.5,-144 75.1431,-84.8642 1341.0296,-29.3515 1576.1152,-19.5335"/>
<polygon fill="#c0c0c0" stroke="#c0c0c0" stroke-width="2" points="1576.37,-23.026 1586.2159,-19.1133 1576.079,-16.0321 1576.37,-23.026"/>
</g>
<!-- 18&#45;&gt;1 -->
<g id="edge14" class="edge">
<title>18&#45;&gt;1</title>
<path fill="none" stroke="#c0c0c0" stroke-width="2" d="M174.3126,-226.9997C99.0796,-216.3522 -10.9224,-192.0382 35.5,-144 63.157,-115.3804 1340.0196,-94.2358 1576.1556,-90.5667"/>
<polygon fill="#c0c0c0" stroke="#c0c0c0" stroke-width="2" points="1576.3529,-94.0642 1586.2976,-90.4099 1576.2447,-87.065 1576.3529,-94.0642"/>
</g>
<!-- 25 -->
<g id="node26" class="node">
<title>25</title>
<path fill="none" stroke="#569ad8" stroke-width="2" d="M132.5,-180C132.5,-180 56.5,-180 56.5,-180 50.5,-180 44.5,-174 44.5,-168 44.5,-168 44.5,-156 44.5,-156 44.5,-150 50.5,-144 56.5,-144 56.5,-144 132.5,-144 132.5,-144 138.5,-144 144.5,-150 144.5,-156 144.5,-156 144.5,-168 144.5,-168 144.5,-174 138.5,-180 132.5,-180"/>
<text text-anchor="middle" x="94.5" y="-165" font-family="sans" font-size="10.00" fill="#000000">fastqc_trim</text>
<text text-anchor="middle" x="94.5" y="-154" font-family="sans" font-size="10.00" fill="#000000">read_type_trim: R2</text>
</g>
<!-- 18&#45;&gt;25 -->
<g id="edge57" class="edge">
<title>18&#45;&gt;25</title>
<path fill="none" stroke="#c0c0c0" stroke-width="2" d="M201.4151,-215.8314C182.7011,-206.4089 159.6568,-194.8062 139.76,-184.7883"/>
<polygon fill="#c0c0c0" stroke="#c0c0c0" stroke-width="2" points="141.0792,-181.5339 130.5734,-180.1628 137.9311,-187.7861 141.0792,-181.5339"/>
</g>
<!-- 30 -->
<g id="node31" class="node">
<title>30</title>
<path fill="none" stroke="#569ad8" stroke-width="2" d="M300.5,-180C300.5,-180 174.5,-180 174.5,-180 168.5,-180 162.5,-174 162.5,-168 162.5,-168 162.5,-156 162.5,-156 162.5,-150 168.5,-144 174.5,-144 174.5,-144 300.5,-144 300.5,-144 306.5,-144 312.5,-150 312.5,-156 312.5,-156 312.5,-168 312.5,-168 312.5,-174 306.5,-180 300.5,-180"/>
<text text-anchor="middle" x="237.5" y="-165" font-family="sans" font-size="10.00" fill="#000000">fastqc_trim</text>
<text text-anchor="middle" x="237.5" y="-154" font-family="sans" font-size="10.00" fill="#000000">read_type_trim: collapsedtrunc</text>
</g>
<!-- 18&#45;&gt;30 -->
<g id="edge62" class="edge">
<title>18&#45;&gt;30</title>
<path fill="none" stroke="#c0c0c0" stroke-width="2" d="M237.5,-215.8314C237.5,-208.131 237.5,-198.9743 237.5,-190.4166"/>
<polygon fill="#c0c0c0" stroke="#c0c0c0" stroke-width="2" points="241.0001,-190.4132 237.5,-180.4133 234.0001,-190.4133 241.0001,-190.4132"/>
</g>
<!-- 32 -->
<g id="node33" class="node">
<title>32</title>
<path fill="none" stroke="#569ad8" stroke-width="2" d="M446.5,-180C446.5,-180 342.5,-180 342.5,-180 336.5,-180 330.5,-174 330.5,-168 330.5,-168 330.5,-156 330.5,-156 330.5,-150 336.5,-144 342.5,-144 342.5,-144 446.5,-144 446.5,-144 452.5,-144 458.5,-150 458.5,-156 458.5,-156 458.5,-168 458.5,-168 458.5,-174 452.5,-180 446.5,-180"/>
<text text-anchor="middle" x="394.5" y="-165" font-family="sans" font-size="10.00" fill="#000000">fastqc_trim</text>
<text text-anchor="middle" x="394.5" y="-154" font-family="sans" font-size="10.00" fill="#000000">read_type_trim: collapsed</text>
</g>
<!-- 18&#45;&gt;32 -->
<g id="edge64" class="edge">
<title>18&#45;&gt;32</title>
<path fill="none" stroke="#c0c0c0" stroke-width="2" d="M277.1177,-215.8314C298.0222,-206.2446 323.8483,-194.4008 345.9488,-184.2655"/>
<polygon fill="#c0c0c0" stroke="#c0c0c0" stroke-width="2" points="347.5364,-187.388 355.1672,-180.038 344.6184,-181.0252 347.5364,-187.388"/>
</g>
<!-- 36 -->
<g id="node37" class="node">
<title>36</title>
<path fill="none" stroke="#569ad8" stroke-width="2" d="M564.5,-180C564.5,-180 488.5,-180 488.5,-180 482.5,-180 476.5,-174 476.5,-168 476.5,-168 476.5,-156 476.5,-156 476.5,-150 482.5,-144 488.5,-144 488.5,-144 564.5,-144 564.5,-144 570.5,-144 576.5,-150 576.5,-156 576.5,-156 576.5,-168 576.5,-168 576.5,-174 570.5,-180 564.5,-180"/>
<text text-anchor="middle" x="526.5" y="-165" font-family="sans" font-size="10.00" fill="#000000">fastqc_trim</text>
<text text-anchor="middle" x="526.5" y="-154" font-family="sans" font-size="10.00" fill="#000000">read_type_trim: R1</text>
</g>
<!-- 18&#45;&gt;36 -->
<g id="edge68" class="edge">
<title>18&#45;&gt;36</title>
<path fill="none" stroke="#c0c0c0" stroke-width="2" d="M300.7441,-220.3231C344.7504,-210.5367 404.973,-196.6107 466.4734,-180.1987"/>
<polygon fill="#c0c0c0" stroke="#c0c0c0" stroke-width="2" points="467.6037,-183.5192 476.3525,-177.5435 465.7867,-176.7591 467.6037,-183.5192"/>
</g>
<!-- 40 -->
<g id="node41" class="node">
<title>40</title>
<path fill="none" stroke="#569ad8" stroke-width="2" d="M708.5,-180C708.5,-180 606.5,-180 606.5,-180 600.5,-180 594.5,-174 594.5,-168 594.5,-168 594.5,-156 594.5,-156 594.5,-150 600.5,-144 606.5,-144 606.5,-144 708.5,-144 708.5,-144 714.5,-144 720.5,-150 720.5,-156 720.5,-156 720.5,-168 720.5,-168 720.5,-174 714.5,-180 708.5,-180"/>
<text text-anchor="middle" x="657.5" y="-165" font-family="sans" font-size="10.00" fill="#000000">fastqc_trim</text>
<text text-anchor="middle" x="657.5" y="-154" font-family="sans" font-size="10.00" fill="#000000">read_type_trim: singleton</text>
</g>
<!-- 18&#45;&gt;40 -->
<g id="edge72" class="edge">
<title>18&#45;&gt;40</title>
<path fill="none" stroke="#c0c0c0" stroke-width="2" d="M300.673,-225.9581C368.5179,-216.9254 479.6393,-200.9903 584.5518,-180.1017"/>
<polygon fill="#c0c0c0" stroke="#c0c0c0" stroke-width="2" points="585.2435,-183.5328 594.3578,-178.131 583.8642,-176.67 585.2435,-183.5328"/>
</g>
<!-- 19&#45;&gt;0 -->
<g id="edge4" class="edge">
<title>19&#45;&gt;0</title>
<path fill="none" stroke="#c0c0c0" stroke-width="2" d="M3064.6597,-229.6814C3148.7774,-221.7003 3281.2999,-199.996 3229.5,-144 3173.9804,-83.9831 1887.1741,-29.083 1650.6687,-19.4816"/>
<polygon fill="#c0c0c0" stroke="#c0c0c0" stroke-width="2" points="1650.6497,-15.9781 1640.5165,-19.0711 1650.3669,-22.9723 1650.6497,-15.9781"/>
</g>
<!-- 19&#45;&gt;1 -->
<g id="edge15" class="edge">
<title>19&#45;&gt;1</title>
<path fill="none" stroke="#c0c0c0" stroke-width="2" d="M3038.3018,-215.8574C3051.9596,-207.0627 3065.9533,-195.0935 3073.5,-180 3080.6554,-165.6892 3084.6027,-155.5209 3073.5,-144 3048.0517,-117.5931 1876.3646,-94.8155 1650.8347,-90.6718"/>
<polygon fill="#c0c0c0" stroke="#c0c0c0" stroke-width="2" points="1650.5869,-87.1667 1640.5246,-90.4832 1650.4589,-94.1656 1650.5869,-87.1667"/>
</g>
<!-- 24 -->
<g id="node25" class="node">
<title>24</title>
<path fill="none" stroke="#569ad8" stroke-width="2" d="M3208.5,-180C3208.5,-180 3132.5,-180 3132.5,-180 3126.5,-180 3120.5,-174 3120.5,-168 3120.5,-168 3120.5,-156 3120.5,-156 3120.5,-150 3126.5,-144 3132.5,-144 3132.5,-144 3208.5,-144 3208.5,-144 3214.5,-144 3220.5,-150 3220.5,-156 3220.5,-156 3220.5,-168 3220.5,-168 3220.5,-174 3214.5,-180 3208.5,-180"/>
<text text-anchor="middle" x="3170.5" y="-165" font-family="sans" font-size="10.00" fill="#000000">fastqc_trim</text>
<text text-anchor="middle" x="3170.5" y="-154" font-family="sans" font-size="10.00" fill="#000000">read_type_trim: R2</text>
</g>
<!-- 19&#45;&gt;24 -->
<g id="edge56" class="edge">
<title>19&#45;&gt;24</title>
<path fill="none" stroke="#c0c0c0" stroke-width="2" d="M3044.1458,-215.8314C3066.849,-206.159 3094.9451,-194.1891 3118.8742,-183.9944"/>
<polygon fill="#c0c0c0" stroke="#c0c0c0" stroke-width="2" points="3120.3328,-187.1775 3128.1608,-180.038 3117.5891,-180.7376 3120.3328,-187.1775"/>
</g>
<!-- 27 -->
<g id="node28" class="node">
<title>27</title>
<path fill="none" stroke="#569ad8" stroke-width="2" d="M2622.5,-180C2622.5,-180 2518.5,-180 2518.5,-180 2512.5,-180 2506.5,-174 2506.5,-168 2506.5,-168 2506.5,-156 2506.5,-156 2506.5,-150 2512.5,-144 2518.5,-144 2518.5,-144 2622.5,-144 2622.5,-144 2628.5,-144 2634.5,-150 2634.5,-156 2634.5,-156 2634.5,-168 2634.5,-168 2634.5,-174 2628.5,-180 2622.5,-180"/>
<text text-anchor="middle" x="2570.5" y="-165" font-family="sans" font-size="10.00" fill="#000000">fastqc_trim</text>
<text text-anchor="middle" x="2570.5" y="-154" font-family="sans" font-size="10.00" fill="#000000">read_type_trim: collapsed</text>
</g>
<!-- 19&#45;&gt;27 -->
<g id="edge59" class="edge">
<title>19&#45;&gt;27</title>
<path fill="none" stroke="#c0c0c0" stroke-width="2" d="M2938.4665,-226.2776C2868.8184,-217.3437 2753.1788,-201.327 2644.353,-180.0774"/>
<polygon fill="#c0c0c0" stroke="#c0c0c0" stroke-width="2" points="2645.0077,-176.6392 2634.5196,-178.1392 2643.6539,-183.5071 2645.0077,-176.6392"/>
</g>
<!-- 28 -->
<g id="node29" class="node">
<title>28</title>
<path fill="none" stroke="#569ad8" stroke-width="2" d="M2790.5,-180C2790.5,-180 2664.5,-180 2664.5,-180 2658.5,-180 2652.5,-174 2652.5,-168 2652.5,-168 2652.5,-156 2652.5,-156 2652.5,-150 2658.5,-144 2664.5,-144 2664.5,-144 2790.5,-144 2790.5,-144 2796.5,-144 2802.5,-150 2802.5,-156 2802.5,-156 2802.5,-168 2802.5,-168 2802.5,-174 2796.5,-180 2790.5,-180"/>
<text text-anchor="middle" x="2727.5" y="-165" font-family="sans" font-size="10.00" fill="#000000">fastqc_trim</text>
<text text-anchor="middle" x="2727.5" y="-154" font-family="sans" font-size="10.00" fill="#000000">read_type_trim: collapsedtrunc</text>
</g>
<!-- 19&#45;&gt;28 -->
<g id="edge60" class="edge">
<title>19&#45;&gt;28</title>
<path fill="none" stroke="#c0c0c0" stroke-width="2" d="M2938.2948,-217.3913C2898.9362,-207.0489 2847.9951,-193.663 2806.0505,-182.641"/>
<polygon fill="#c0c0c0" stroke="#c0c0c0" stroke-width="2" points="2806.7078,-179.195 2796.1466,-180.0385 2804.9288,-185.9651 2806.7078,-179.195"/>
</g>
<!-- 29 -->
<g id="node30" class="node">
<title>29</title>
<path fill="none" stroke="#569ad8" stroke-width="2" d="M2908.5,-180C2908.5,-180 2832.5,-180 2832.5,-180 2826.5,-180 2820.5,-174 2820.5,-168 2820.5,-168 2820.5,-156 2820.5,-156 2820.5,-150 2826.5,-144 2832.5,-144 2832.5,-144 2908.5,-144 2908.5,-144 2914.5,-144 2920.5,-150 2920.5,-156 2920.5,-156 2920.5,-168 2920.5,-168 2920.5,-174 2914.5,-180 2908.5,-180"/>
<text text-anchor="middle" x="2870.5" y="-165" font-family="sans" font-size="10.00" fill="#000000">fastqc_trim</text>
<text text-anchor="middle" x="2870.5" y="-154" font-family="sans" font-size="10.00" fill="#000000">read_type_trim: R1</text>
</g>
<!-- 19&#45;&gt;29 -->
<g id="edge61" class="edge">
<title>19&#45;&gt;29</title>
<path fill="none" stroke="#c0c0c0" stroke-width="2" d="M2968.4432,-215.8314C2951.5323,-206.5368 2930.7615,-195.1208 2912.7059,-185.1971"/>
<polygon fill="#c0c0c0" stroke="#c0c0c0" stroke-width="2" points="2913.9957,-181.9122 2903.5463,-180.1628 2910.624,-188.0468 2913.9957,-181.9122"/>
</g>
<!-- 35 -->
<g id="node36" class="node">
<title>35</title>
<path fill="none" stroke="#569ad8" stroke-width="2" d="M3052.5,-180C3052.5,-180 2950.5,-180 2950.5,-180 2944.5,-180 2938.5,-174 2938.5,-168 2938.5,-168 2938.5,-156 2938.5,-156 2938.5,-150 2944.5,-144 2950.5,-144 2950.5,-144 3052.5,-144 3052.5,-144 3058.5,-144 3064.5,-150 3064.5,-156 3064.5,-156 3064.5,-168 3064.5,-168 3064.5,-174 3058.5,-180 3052.5,-180"/>
<text text-anchor="middle" x="3001.5" y="-165" font-family="sans" font-size="10.00" fill="#000000">fastqc_trim</text>
<text text-anchor="middle" x="3001.5" y="-154" font-family="sans" font-size="10.00" fill="#000000">read_type_trim: singleton</text>
</g>
<!-- 19&#45;&gt;35 -->
<g id="edge67" class="edge">
<title>19&#45;&gt;35</title>
<path fill="none" stroke="#c0c0c0" stroke-width="2" d="M3001.5,-215.8314C3001.5,-208.131 3001.5,-198.9743 3001.5,-190.4166"/>
<polygon fill="#c0c0c0" stroke="#c0c0c0" stroke-width="2" points="3005.0001,-190.4132 3001.5,-180.4133 2998.0001,-190.4133 3005.0001,-190.4132"/>
</g>
<!-- 20&#45;&gt;0 -->
<g id="edge5" class="edge">
<title>20&#45;&gt;0</title>
<path fill="none" stroke="#c0c0c0" stroke-width="2" d="M1045.3332,-228.4494C982.3654,-221.453 892.0142,-206.9424 870.5,-180 860.5161,-167.4971 860.1753,-156.223 870.5,-144 916.9335,-89.0292 1432.2589,-35.4875 1576.2973,-21.514"/>
<polygon fill="#c0c0c0" stroke="#c0c0c0" stroke-width="2" points="1576.7824,-24.9836 1586.4003,-20.5399 1576.1105,-18.0159 1576.7824,-24.9836"/>
</g>
<!-- 20&#45;&gt;1 -->
<g id="edge16" class="edge">
<title>20&#45;&gt;1</title>
<path fill="none" stroke="#c0c0c0" stroke-width="2" d="M1045.4318,-227.6771C985.5007,-220.2118 901.6211,-205.4691 881.5,-180 871.5815,-167.4452 870.6104,-155.7225 881.5,-144 905.376,-118.2978 1429.9441,-96.8522 1576.0354,-91.3622"/>
<polygon fill="#c0c0c0" stroke="#c0c0c0" stroke-width="2" points="1576.4158,-94.8506 1586.2784,-90.9802 1576.1549,-87.8554 1576.4158,-94.8506"/>
</g>
<!-- 23 -->
<g id="node24" class="node">
<title>23</title>
<path fill="none" stroke="#569ad8" stroke-width="2" d="M1028.5,-180C1028.5,-180 902.5,-180 902.5,-180 896.5,-180 890.5,-174 890.5,-168 890.5,-168 890.5,-156 890.5,-156 890.5,-150 896.5,-144 902.5,-144 902.5,-144 1028.5,-144 1028.5,-144 1034.5,-144 1040.5,-150 1040.5,-156 1040.5,-156 1040.5,-168 1040.5,-168 1040.5,-174 1034.5,-180 1028.5,-180"/>
<text text-anchor="middle" x="965.5" y="-165" font-family="sans" font-size="10.00" fill="#000000">fastqc_trim</text>
<text text-anchor="middle" x="965.5" y="-154" font-family="sans" font-size="10.00" fill="#000000">read_type_trim: collapsedtrunc</text>
</g>
<!-- 20&#45;&gt;23 -->
<g id="edge55" class="edge">
<title>20&#45;&gt;23</title>
<path fill="none" stroke="#c0c0c0" stroke-width="2" d="M1072.4151,-215.8314C1053.7011,-206.4089 1030.6568,-194.8062 1010.76,-184.7883"/>
<polygon fill="#c0c0c0" stroke="#c0c0c0" stroke-width="2" points="1012.0792,-181.5339 1001.5734,-180.1628 1008.9311,-187.7861 1012.0792,-181.5339"/>
</g>
<!-- 26 -->
<g id="node27" class="node">
<title>26</title>
<path fill="none" stroke="#569ad8" stroke-width="2" d="M1146.5,-180C1146.5,-180 1070.5,-180 1070.5,-180 1064.5,-180 1058.5,-174 1058.5,-168 1058.5,-168 1058.5,-156 1058.5,-156 1058.5,-150 1064.5,-144 1070.5,-144 1070.5,-144 1146.5,-144 1146.5,-144 1152.5,-144 1158.5,-150 1158.5,-156 1158.5,-156 1158.5,-168 1158.5,-168 1158.5,-174 1152.5,-180 1146.5,-180"/>
<text text-anchor="middle" x="1108.5" y="-165" font-family="sans" font-size="10.00" fill="#000000">fastqc_trim</text>
<text text-anchor="middle" x="1108.5" y="-154" font-family="sans" font-size="10.00" fill="#000000">read_type_trim: R2</text>
</g>
<!-- 20&#45;&gt;26 -->
<g id="edge58" class="edge">
<title>20&#45;&gt;26</title>
<path fill="none" stroke="#c0c0c0" stroke-width="2" d="M1108.5,-215.8314C1108.5,-208.131 1108.5,-198.9743 1108.5,-190.4166"/>
<polygon fill="#c0c0c0" stroke="#c0c0c0" stroke-width="2" points="1112.0001,-190.4132 1108.5,-180.4133 1105.0001,-190.4133 1112.0001,-190.4132"/>
</g>
<!-- 34 -->
<g id="node35" class="node">
<title>34</title>
<path fill="none" stroke="#569ad8" stroke-width="2" d="M1290.5,-180C1290.5,-180 1188.5,-180 1188.5,-180 1182.5,-180 1176.5,-174 1176.5,-168 1176.5,-168 1176.5,-156 1176.5,-156 1176.5,-150 1182.5,-144 1188.5,-144 1188.5,-144 1290.5,-144 1290.5,-144 1296.5,-144 1302.5,-150 1302.5,-156 1302.5,-156 1302.5,-168 1302.5,-168 1302.5,-174 1296.5,-180 1290.5,-180"/>
<text text-anchor="middle" x="1239.5" y="-165" font-family="sans" font-size="10.00" fill="#000000">fastqc_trim</text>
<text text-anchor="middle" x="1239.5" y="-154" font-family="sans" font-size="10.00" fill="#000000">read_type_trim: singleton</text>
</g>
<!-- 20&#45;&gt;34 -->
<g id="edge66" class="edge">
<title>20&#45;&gt;34</title>
<path fill="none" stroke="#c0c0c0" stroke-width="2" d="M1141.5568,-215.8314C1158.4677,-206.5368 1179.2385,-195.1208 1197.2941,-185.1971"/>
<polygon fill="#c0c0c0" stroke="#c0c0c0" stroke-width="2" points="1199.376,-188.0468 1206.4537,-180.1628 1196.0043,-181.9122 1199.376,-188.0468"/>
</g>
<!-- 37 -->
<g id="node38" class="node">
<title>37</title>
<path fill="none" stroke="#569ad8" stroke-width="2" d="M1436.5,-180C1436.5,-180 1332.5,-180 1332.5,-180 1326.5,-180 1320.5,-174 1320.5,-168 1320.5,-168 1320.5,-156 1320.5,-156 1320.5,-150 1326.5,-144 1332.5,-144 1332.5,-144 1436.5,-144 1436.5,-144 1442.5,-144 1448.5,-150 1448.5,-156 1448.5,-156 1448.5,-168 1448.5,-168 1448.5,-174 1442.5,-180 1436.5,-180"/>
<text text-anchor="middle" x="1384.5" y="-165" font-family="sans" font-size="10.00" fill="#000000">fastqc_trim</text>
<text text-anchor="middle" x="1384.5" y="-154" font-family="sans" font-size="10.00" fill="#000000">read_type_trim: collapsed</text>
</g>
<!-- 20&#45;&gt;37 -->
<g id="edge69" class="edge">
<title>20&#45;&gt;37</title>
<path fill="none" stroke="#c0c0c0" stroke-width="2" d="M1171.82,-217.4817C1213.0139,-206.7355 1266.9127,-192.675 1310.1425,-181.3976"/>
<polygon fill="#c0c0c0" stroke="#c0c0c0" stroke-width="2" points="1311.2466,-184.7268 1320.0393,-178.8158 1309.4796,-177.9535 1311.2466,-184.7268"/>
</g>
<!-- 38 -->
<g id="node39" class="node">
<title>38</title>
<path fill="none" stroke="#569ad8" stroke-width="2" d="M1554.5,-180C1554.5,-180 1478.5,-180 1478.5,-180 1472.5,-180 1466.5,-174 1466.5,-168 1466.5,-168 1466.5,-156 1466.5,-156 1466.5,-150 1472.5,-144 1478.5,-144 1478.5,-144 1554.5,-144 1554.5,-144 1560.5,-144 1566.5,-150 1566.5,-156 1566.5,-156 1566.5,-168 1566.5,-168 1566.5,-174 1560.5,-180 1554.5,-180"/>
<text text-anchor="middle" x="1516.5" y="-165" font-family="sans" font-size="10.00" fill="#000000">fastqc_trim</text>
<text text-anchor="middle" x="1516.5" y="-154" font-family="sans" font-size="10.00" fill="#000000">read_type_trim: R1</text>
</g>
<!-- 20&#45;&gt;38 -->
<g id="edge70" class="edge">
<title>20&#45;&gt;38</title>
<path fill="none" stroke="#c0c0c0" stroke-width="2" d="M1171.7423,-226.9682C1239.9255,-218.7698 1351.7106,-203.5435 1456.6157,-180.0363"/>
<polygon fill="#c0c0c0" stroke="#c0c0c0" stroke-width="2" points="1457.4421,-183.4378 1466.419,-177.8104 1455.8922,-176.6115 1457.4421,-183.4378"/>
</g>
<!-- 21&#45;&gt;0 -->
<g id="edge2" class="edge">
<title>21&#45;&gt;0</title>
<path fill="none" stroke="#c0c0c0" stroke-width="2" d="M2217.6271,-230.2864C2301.3238,-223.0549 2433.0102,-202.2704 2383.5,-144 2335.1541,-87.0999 1798.9237,-34.7486 1651.0605,-21.3173"/>
<polygon fill="#c0c0c0" stroke="#c0c0c0" stroke-width="2" points="1650.9772,-17.7956 1640.703,-20.3826 1650.348,-24.7673 1650.9772,-17.7956"/>
</g>
<!-- 21&#45;&gt;1 -->
<g id="edge17" class="edge">
<title>21&#45;&gt;1</title>
<path fill="none" stroke="#c0c0c0" stroke-width="2" d="M2191.8002,-215.9669C2205.6458,-207.189 2219.8358,-195.2027 2227.5,-180 2234.7027,-165.7129 2238.3068,-155.7989 2227.5,-144 2188.4397,-101.3537 1777.5313,-92.2257 1650.6227,-90.4177"/>
<polygon fill="#c0c0c0" stroke="#c0c0c0" stroke-width="2" points="1650.654,-86.9179 1640.6075,-90.282 1650.5591,-93.9173 1650.654,-86.9179"/>
</g>
<!-- 22 -->
<g id="node23" class="node">
<title>22</title>
<path fill="none" stroke="#569ad8" stroke-width="2" d="M2362.5,-180C2362.5,-180 2286.5,-180 2286.5,-180 2280.5,-180 2274.5,-174 2274.5,-168 2274.5,-168 2274.5,-156 2274.5,-156 2274.5,-150 2280.5,-144 2286.5,-144 2286.5,-144 2362.5,-144 2362.5,-144 2368.5,-144 2374.5,-150 2374.5,-156 2374.5,-156 2374.5,-168 2374.5,-168 2374.5,-174 2368.5,-180 2362.5,-180"/>
<text text-anchor="middle" x="2324.5" y="-165" font-family="sans" font-size="10.00" fill="#000000">fastqc_trim</text>
<text text-anchor="middle" x="2324.5" y="-154" font-family="sans" font-size="10.00" fill="#000000">read_type_trim: R1</text>
</g>
<!-- 21&#45;&gt;22 -->
<g id="edge54" class="edge">
<title>21&#45;&gt;22</title>
<path fill="none" stroke="#c0c0c0" stroke-width="2" d="M2197.3982,-215.8314C2220.2357,-206.159 2248.498,-194.1891 2272.5687,-183.9944"/>
<polygon fill="#c0c0c0" stroke="#c0c0c0" stroke-width="2" points="2274.0671,-187.1608 2281.9103,-180.038 2271.3371,-180.7151 2274.0671,-187.1608"/>
</g>
<!-- 31 -->
<g id="node32" class="node">
<title>31</title>
<path fill="none" stroke="#569ad8" stroke-width="2" d="M1798.5,-180C1798.5,-180 1672.5,-180 1672.5,-180 1666.5,-180 1660.5,-174 1660.5,-168 1660.5,-168 1660.5,-156 1660.5,-156 1660.5,-150 1666.5,-144 1672.5,-144 1672.5,-144 1798.5,-144 1798.5,-144 1804.5,-144 1810.5,-150 1810.5,-156 1810.5,-156 1810.5,-168 1810.5,-168 1810.5,-174 1804.5,-180 1798.5,-180"/>
<text text-anchor="middle" x="1735.5" y="-165" font-family="sans" font-size="10.00" fill="#000000">fastqc_trim</text>
<text text-anchor="middle" x="1735.5" y="-154" font-family="sans" font-size="10.00" fill="#000000">read_type_trim: collapsedtrunc</text>
</g>
<!-- 21&#45;&gt;31 -->
<g id="edge63" class="edge">
<title>21&#45;&gt;31</title>
<path fill="none" stroke="#c0c0c0" stroke-width="2" d="M2091.3549,-224.8085C2026.0581,-215.0809 1920.9235,-198.7981 1820.5746,-180.1553"/>
<polygon fill="#c0c0c0" stroke="#c0c0c0" stroke-width="2" points="1821.0402,-176.6818 1810.5674,-178.2852 1819.7543,-183.5627 1821.0402,-176.6818"/>
</g>
<!-- 33 -->
<g id="node34" class="node">
<title>33</title>
<path fill="none" stroke="#569ad8" stroke-width="2" d="M1916.5,-180C1916.5,-180 1840.5,-180 1840.5,-180 1834.5,-180 1828.5,-174 1828.5,-168 1828.5,-168 1828.5,-156 1828.5,-156 1828.5,-150 1834.5,-144 1840.5,-144 1840.5,-144 1916.5,-144 1916.5,-144 1922.5,-144 1928.5,-150 1928.5,-156 1928.5,-156 1928.5,-168 1928.5,-168 1928.5,-174 1922.5,-180 1916.5,-180"/>
<text text-anchor="middle" x="1878.5" y="-165" font-family="sans" font-size="10.00" fill="#000000">fastqc_trim</text>
<text text-anchor="middle" x="1878.5" y="-154" font-family="sans" font-size="10.00" fill="#000000">read_type_trim: R2</text>
</g>
<!-- 21&#45;&gt;33 -->
<g id="edge65" class="edge">
<title>21&#45;&gt;33</title>
<path fill="none" stroke="#c0c0c0" stroke-width="2" d="M2091.1272,-219.153C2050.1035,-209.3285 1995.3304,-195.8146 1938.5351,-180.2241"/>
<polygon fill="#c0c0c0" stroke="#c0c0c0" stroke-width="2" points="1939.2308,-176.7853 1928.66,-177.4978 1937.3679,-183.5329 1939.2308,-176.7853"/>
</g>
<!-- 39 -->
<g id="node40" class="node">
<title>39</title>
<path fill="none" stroke="#569ad8" stroke-width="2" d="M2060.5,-180C2060.5,-180 1958.5,-180 1958.5,-180 1952.5,-180 1946.5,-174 1946.5,-168 1946.5,-168 1946.5,-156 1946.5,-156 1946.5,-150 1952.5,-144 1958.5,-144 1958.5,-144 2060.5,-144 2060.5,-144 2066.5,-144 2072.5,-150 2072.5,-156 2072.5,-156 2072.5,-168 2072.5,-168 2072.5,-174 2066.5,-180 2060.5,-180"/>
<text text-anchor="middle" x="2009.5" y="-165" font-family="sans" font-size="10.00" fill="#000000">fastqc_trim</text>
<text text-anchor="middle" x="2009.5" y="-154" font-family="sans" font-size="10.00" fill="#000000">read_type_trim: singleton</text>
</g>
<!-- 21&#45;&gt;39 -->
<g id="edge71" class="edge">
<title>21&#45;&gt;39</title>
<path fill="none" stroke="#c0c0c0" stroke-width="2" d="M2117.9104,-215.8314C2098.7761,-206.3302 2075.1771,-194.6121 2054.8878,-184.5374"/>
<polygon fill="#c0c0c0" stroke="#c0c0c0" stroke-width="2" points="2056.3397,-181.3506 2045.8265,-180.038 2053.2265,-187.6203 2056.3397,-181.3506"/>
</g>
<!-- 41 -->
<g id="node42" class="node">
<title>41</title>
<path fill="none" stroke="#569ad8" stroke-width="2" d="M2206.5,-180C2206.5,-180 2102.5,-180 2102.5,-180 2096.5,-180 2090.5,-174 2090.5,-168 2090.5,-168 2090.5,-156 2090.5,-156 2090.5,-150 2096.5,-144 2102.5,-144 2102.5,-144 2206.5,-144 2206.5,-144 2212.5,-144 2218.5,-150 2218.5,-156 2218.5,-156 2218.5,-168 2218.5,-168 2218.5,-174 2212.5,-180 2206.5,-180"/>
<text text-anchor="middle" x="2154.5" y="-165" font-family="sans" font-size="10.00" fill="#000000">fastqc_trim</text>
<text text-anchor="middle" x="2154.5" y="-154" font-family="sans" font-size="10.00" fill="#000000">read_type_trim: collapsed</text>
</g>
<!-- 21&#45;&gt;41 -->
<g id="edge73" class="edge">
<title>21&#45;&gt;41</title>
<path fill="none" stroke="#c0c0c0" stroke-width="2" d="M2154.5,-215.8314C2154.5,-208.131 2154.5,-198.9743 2154.5,-190.4166"/>
<polygon fill="#c0c0c0" stroke="#c0c0c0" stroke-width="2" points="2158.0001,-190.4132 2154.5,-180.4133 2151.0001,-190.4133 2158.0001,-190.4132"/>
</g>
<!-- 22&#45;&gt;1 -->
<g id="edge18" class="edge">
<title>22&#45;&gt;1</title>
<path fill="none" stroke="#c0c0c0" stroke-width="2" d="M2274.4026,-146.9339C2269.7294,-145.8244 2265.0433,-144.8207 2260.5,-144 2031.2053,-102.5789 1750.3462,-92.8419 1650.7082,-90.628"/>
<polygon fill="#c0c0c0" stroke="#c0c0c0" stroke-width="2" points="1650.6209,-87.1255 1640.5497,-90.4148 1650.474,-94.124 1650.6209,-87.1255"/>
</g>
<!-- 23&#45;&gt;1 -->
<g id="edge19" class="edge">
<title>23&#45;&gt;1</title>
<path fill="none" stroke="#c0c0c0" stroke-width="2" d="M1040.5261,-145.4735C1043.5521,-144.9495 1046.5521,-144.4554 1049.5,-144 1246.8038,-113.5195 1485.7684,-97.4275 1576.3138,-92.0681"/>
<polygon fill="#c0c0c0" stroke="#c0c0c0" stroke-width="2" points="1576.5801,-95.5586 1586.3592,-91.4817 1576.1722,-88.5705 1576.5801,-95.5586"/>
</g>
<!-- 24&#45;&gt;1 -->
<g id="edge20" class="edge">
<title>24&#45;&gt;1</title>
<path fill="none" stroke="#c0c0c0" stroke-width="2" d="M3120.4412,-146.7049C3115.7599,-145.6435 3111.0614,-144.7135 3106.5,-144 2813.368,-98.149 1851.7679,-91.1224 1650.6026,-90.1466"/>
<polygon fill="#c0c0c0" stroke="#c0c0c0" stroke-width="2" points="1650.5591,-86.6464 1640.543,-90.0998 1650.5265,-93.6463 1650.5591,-86.6464"/>
</g>
<!-- 25&#45;&gt;1 -->
<g id="edge21" class="edge">
<title>25&#45;&gt;1</title>
<path fill="none" stroke="#c0c0c0" stroke-width="2" d="M144.5002,-145.7818C147.5269,-145.1008 150.5429,-144.4971 153.5,-144 439.1833,-95.9768 1377.4355,-90.6611 1576.2674,-90.0731"/>
<polygon fill="#c0c0c0" stroke="#c0c0c0" stroke-width="2" points="1576.4922,-93.5726 1586.4826,-90.0452 1576.4731,-86.5726 1576.4922,-93.5726"/>
</g>
<!-- 26&#45;&gt;1 -->
<g id="edge22" class="edge">
<title>26&#45;&gt;1</title>
<path fill="none" stroke="#c0c0c0" stroke-width="2" d="M1158.5557,-146.0745C1161.5685,-145.3199 1164.5663,-144.6201 1167.5,-144 1317.0904,-112.3813 1499.1022,-97.5227 1576.1687,-92.2963"/>
<polygon fill="#c0c0c0" stroke="#c0c0c0" stroke-width="2" points="1576.586,-95.7764 1586.3324,-91.622 1576.1226,-88.7917 1576.586,-95.7764"/>
</g>
<!-- 27&#45;&gt;1 -->
<g id="edge23" class="edge">
<title>27&#45;&gt;1</title>
<path fill="none" stroke="#c0c0c0" stroke-width="2" d="M2506.3861,-146.3192C2501.7033,-145.4463 2497.0387,-144.6585 2492.5,-144 2326.0656,-119.8532 1796.5512,-97.3293 1650.8954,-91.4711"/>
<polygon fill="#c0c0c0" stroke="#c0c0c0" stroke-width="2" points="1650.8251,-87.9656 1640.6931,-91.0629 1650.5452,-94.96 1650.8251,-87.9656"/>
</g>
<!-- 28&#45;&gt;1 -->
<g id="edge24" class="edge">
<title>28&#45;&gt;1</title>
<path fill="none" stroke="#c0c0c0" stroke-width="2" d="M2652.4971,-145.3114C2649.4647,-144.8323 2646.457,-144.3918 2643.5,-144 2445.6799,-117.7881 1811.5925,-96.2865 1650.8283,-91.1615"/>
<polygon fill="#c0c0c0" stroke="#c0c0c0" stroke-width="2" points="1650.6132,-87.6531 1640.5073,-90.8344 1650.3914,-94.6495 1650.6132,-87.6531"/>
</g>
<!-- 29&#45;&gt;1 -->
<g id="edge25" class="edge">
<title>29&#45;&gt;1</title>
<path fill="none" stroke="#c0c0c0" stroke-width="2" d="M2820.495,-145.8102C2817.4695,-145.122 2814.455,-144.509 2811.5,-144 2580.146,-104.1484 1826.7127,-92.6037 1650.5698,-90.4195"/>
<polygon fill="#c0c0c0" stroke="#c0c0c0" stroke-width="2" points="1650.5487,-86.919 1640.5069,-90.2972 1650.4636,-93.9185 1650.5487,-86.919"/>
</g>
<!-- 30&#45;&gt;1 -->
<g id="edge26" class="edge">
<title>30&#45;&gt;1</title>
<path fill="none" stroke="#c0c0c0" stroke-width="2" d="M312.9526,-145.2015C315.8323,-144.7608 318.6889,-144.3573 321.5,-144 573.831,-111.9261 1391.7488,-94.3238 1576.2797,-90.7039"/>
<polygon fill="#c0c0c0" stroke="#c0c0c0" stroke-width="2" points="1576.3715,-94.2029 1586.3015,-90.5089 1576.2353,-87.2042 1576.3715,-94.2029"/>
</g>
<!-- 31&#45;&gt;1 -->
<g id="edge27" class="edge">
<title>31&#45;&gt;1</title>
<path fill="none" stroke="#c0c0c0" stroke-width="2" d="M1704.7142,-143.8314C1687.8832,-133.8983 1666.9465,-121.5422 1649.3783,-111.1741"/>
<polygon fill="#c0c0c0" stroke="#c0c0c0" stroke-width="2" points="1650.9289,-108.0251 1640.5379,-105.9568 1647.3711,-114.0536 1650.9289,-108.0251"/>
</g>
<!-- 32&#45;&gt;1 -->
<g id="edge28" class="edge">
<title>32&#45;&gt;1</title>
<path fill="none" stroke="#c0c0c0" stroke-width="2" d="M458.8522,-145.4119C461.7657,-144.8885 464.6582,-144.4133 467.5,-144 689.0402,-111.781 1405.1449,-94.5078 1576.44,-90.7753"/>
<polygon fill="#c0c0c0" stroke="#c0c0c0" stroke-width="2" points="1576.5513,-94.2739 1586.4733,-90.5587 1576.4001,-87.2755 1576.5513,-94.2739"/>
</g>
<!-- 33&#45;&gt;1 -->
<g id="edge29" class="edge">
<title>33&#45;&gt;1</title>
<path fill="none" stroke="#c0c0c0" stroke-width="2" d="M1828.328,-146.545C1825.3445,-145.6721 1822.3849,-144.8178 1819.5,-144 1760.6391,-127.3136 1691.8011,-109.6366 1650.4776,-99.2217"/>
<polygon fill="#c0c0c0" stroke="#c0c0c0" stroke-width="2" points="1651.1389,-95.7791 1640.5873,-96.7353 1649.4322,-102.5679 1651.1389,-95.7791"/>
</g>
<!-- 34&#45;&gt;1 -->
<g id="edge30" class="edge">
<title>34&#45;&gt;1</title>
<path fill="none" stroke="#c0c0c0" stroke-width="2" d="M1302.6595,-145.9519C1305.644,-145.2749 1308.6022,-144.6205 1311.5,-144 1406.3725,-123.6836 1519.1405,-104.9383 1576.2992,-95.8151"/>
<polygon fill="#c0c0c0" stroke="#c0c0c0" stroke-width="2" points="1576.9808,-99.2508 1586.308,-94.2254 1575.8827,-92.3375 1576.9808,-99.2508"/>
</g>
<!-- 35&#45;&gt;1 -->
<g id="edge31" class="edge">
<title>35&#45;&gt;1</title>
<path fill="none" stroke="#c0c0c0" stroke-width="2" d="M2938.4286,-145.4593C2935.4206,-144.914 2932.4332,-144.4223 2929.5,-144 2672.7886,-107.0394 1837.6997,-93.1806 1650.8265,-90.5034"/>
<polygon fill="#c0c0c0" stroke="#c0c0c0" stroke-width="2" points="1650.7337,-87.0019 1640.6852,-90.3601 1650.6347,-94.0012 1650.7337,-87.0019"/>
</g>
<!-- 36&#45;&gt;1 -->
<g id="edge32" class="edge">
<title>36&#45;&gt;1</title>
<path fill="none" stroke="#c0c0c0" stroke-width="2" d="M576.5096,-145.8363C579.5339,-145.1416 582.5469,-144.52 585.5,-144 781.6451,-109.4618 1415.4581,-94.132 1576.1794,-90.7434"/>
<polygon fill="#c0c0c0" stroke="#c0c0c0" stroke-width="2" points="1576.5728,-94.2361 1586.4977,-90.5287 1576.427,-87.2376 1576.5728,-94.2361"/>
</g>
<!-- 37&#45;&gt;1 -->
<g id="edge33" class="edge">
<title>37&#45;&gt;1</title>
<path fill="none" stroke="#c0c0c0" stroke-width="2" d="M1441.9908,-143.9243C1484.2557,-130.6358 1540.4343,-112.9726 1576.7808,-101.5449"/>
<polygon fill="#c0c0c0" stroke="#c0c0c0" stroke-width="2" points="1577.9887,-104.8341 1586.4785,-98.4958 1575.8891,-98.1564 1577.9887,-104.8341"/>
</g>
<!-- 38&#45;&gt;1 -->
<g id="edge34" class="edge">
<title>38&#45;&gt;1</title>
<path fill="none" stroke="#c0c0c0" stroke-width="2" d="M1540.9772,-143.8314C1553.0395,-134.8779 1567.754,-123.9558 1580.7686,-114.2955"/>
<polygon fill="#c0c0c0" stroke="#c0c0c0" stroke-width="2" points="1583.087,-116.9335 1589.0306,-108.1628 1578.9148,-111.3127 1583.087,-116.9335"/>
</g>
<!-- 39&#45;&gt;1 -->
<g id="edge35" class="edge">
<title>39&#45;&gt;1</title>
<path fill="none" stroke="#c0c0c0" stroke-width="2" d="M1946.3495,-145.9094C1943.3626,-145.2438 1940.4014,-144.6035 1937.5,-144 1834.2692,-122.5293 1711.1398,-103.9039 1650.707,-95.214"/>
<polygon fill="#c0c0c0" stroke="#c0c0c0" stroke-width="2" points="1650.9121,-91.7079 1640.5175,-93.7578 1649.9217,-98.6374 1650.9121,-91.7079"/>
</g>
<!-- 40&#45;&gt;1 -->
<g id="edge36" class="edge">
<title>40&#45;&gt;1</title>
<path fill="none" stroke="#c0c0c0" stroke-width="2" d="M720.7873,-146.3154C725.4111,-145.4435 730.0175,-144.6568 734.5,-144 900.8999,-119.6166 1430.4391,-97.2627 1576.1026,-91.4571"/>
<polygon fill="#c0c0c0" stroke="#c0c0c0" stroke-width="2" points="1576.4519,-94.9461 1586.3054,-91.0526 1576.1745,-87.9516 1576.4519,-94.9461"/>
</g>
<!-- 41&#45;&gt;1 -->
<g id="edge37" class="edge">
<title>41&#45;&gt;1</title>
<path fill="none" stroke="#c0c0c0" stroke-width="2" d="M2090.1086,-145.6527C2087.2057,-145.0641 2084.3262,-144.5094 2081.5,-144 1922.4257,-115.3302 1730.0496,-98.7439 1650.5892,-92.6706"/>
<polygon fill="#c0c0c0" stroke="#c0c0c0" stroke-width="2" points="1650.8174,-89.1779 1640.5825,-91.916 1650.291,-96.1581 1650.8174,-89.1779"/>
</g>
</g>
</svg>
