<?xml version="1.0" encoding="UTF-8" standalone="no"?>
<!DOCTYPE svg PUBLIC "-//W3C//DTD SVG 1.1//EN"
 "http://www.w3.org/Graphics/SVG/1.1/DTD/svg11.dtd">
<!-- Generated by graphviz version 2.40.1 (0)
 -->
<!-- Title: snakemake_dag Pages: 1 -->
<svg width="1372pt" height="1546pt"
 viewBox="0.00 0.00 1371.74 1546.00" xmlns="http://www.w3.org/2000/svg" xmlns:xlink="http://www.w3.org/1999/xlink">
<g id="graph0" class="graph" transform="scale(1 1) rotate(0) translate(4 1542)">
<title>snakemake_dag</title>
<polygon fill="#ffffff" stroke="transparent" points="-4,4 -4,-1542 1367.7385,-1542 1367.7385,4 -4,4"/>
<!-- 0 -->
<g id="node1" class="node">
<title>0</title>
<text text-anchor="start" x="909.5" y="-251.6" font-family="sans" font-weight="bold" font-size="18.00" fill="#000000">all</text>
<text text-anchor="start" x="724.5" y="-227.8" font-family="sans" font-size="10.00" fill="#000000"> </text>
<text text-anchor="start" x="728.5" y="-227.8" font-family="sans" font-weight="bold" font-size="14.00" fill="#000000">↪ input</text>
<text text-anchor="start" x="781.5" y="-227.8" font-family="sans" font-size="10.00" fill="#000000"> </text>
<text text-anchor="start" x="724.5" y="-208" font-family="monospace" font-size="10.00" fill="#000000">reports/multiqc.html</text>
<text text-anchor="start" x="724.5" y="-190" font-family="monospace" font-size="10.00" fill="#000000">results/reads/trim/HD827sonic_1_lib1_L001_R1.fastq.gz</text>
<text text-anchor="start" x="724.5" y="-172" font-family="monospace" font-size="10.00" fill="#000000">results/reads/trim/HD827sonic_1_lib1_L001_R2.fastq.gz</text>
<text text-anchor="start" x="724.5" y="-154" font-family="monospace" font-size="10.00" fill="#000000">results/reads/trim/HD827sonic_1_lib1_L001_collapsed.fastq.gz</text>
<text text-anchor="start" x="724.5" y="-136" font-family="monospace" font-size="10.00" fill="#000000">results/reads/trim/HD827sonic_1_lib1_L001_collapsedtrunc.fastq.gz</text>
<text text-anchor="start" x="724.5" y="-118" font-family="monospace" font-size="10.00" fill="#000000">results/reads/trim/HD827sonic_1_lib1_L001_singleton.fastq.gz</text>
<text text-anchor="start" x="724.5" y="-100" font-family="monospace" font-size="10.00" fill="#000000">results/reads/trim/HD827sonic_1_lib1_L002_R1.fastq.gz</text>
<text text-anchor="start" x="724.5" y="-82" font-family="monospace" font-size="10.00" fill="#000000">results/reads/trim/HD827sonic_1_lib1_L002_R2.fastq.gz</text>
<text text-anchor="start" x="724.5" y="-64" font-family="monospace" font-size="10.00" fill="#000000">results/reads/trim/HD827sonic_1_lib1_L002_collapsed.fastq.gz</text>
<text text-anchor="start" x="724.5" y="-46" font-family="monospace" font-size="10.00" fill="#000000">results/reads/trim/HD827sonic_1_lib1_L002_collapsedtrunc.fastq.gz</text>
<text text-anchor="start" x="724.5" y="-28" font-family="monospace" font-size="10.00" fill="#000000">results/reads/trim/HD827sonic_1_lib1_L002_singleton.fastq.gz</text>
<text text-anchor="start" x="1108.5" y="-10" font-family="sans" font-size="10.00" fill="#000000"> &#160;</text>
<polygon fill="#98d957" stroke="#98d957" points="718.5,-242 718.5,-242 1122.5,-242 1122.5,-242 718.5,-242"/>
<polygon fill="#98d957" stroke="#98d957" points="718.5,-22 718.5,-22 1122.5,-22 1122.5,-22 718.5,-22"/>
<polygon fill="none" stroke="#98d957" stroke-width="2" points="718,-1 718,-271 1121,-271 1121,-1 718,-1"/>
</g>
<!-- 1 -->
<g id="node2" class="node">
<title>1</title>
<text text-anchor="start" x="692.5" y="-941.6" font-family="sans" font-weight="bold" font-size="18.00" fill="#000000">multiqc</text>
<text text-anchor="start" x="508.5" y="-917.8" font-family="sans" font-size="10.00" fill="#000000"> </text>
<text text-anchor="start" x="512.5" y="-917.8" font-family="sans" font-weight="bold" font-size="14.00" fill="#000000">↪ input</text>
<text text-anchor="start" x="565.5" y="-917.8" font-family="sans" font-size="10.00" fill="#000000"> </text>
<text text-anchor="start" x="508.5" y="-898" font-family="monospace" font-size="10.00" fill="#000000">stats/reads/fastqc/raw/HD827sonic_1_lib1_L001_R1.html</text>
<text text-anchor="start" x="508.5" y="-880" font-family="monospace" font-size="10.00" fill="#000000">stats/reads/fastqc/raw/HD827sonic_1_lib1_L001_R1_fastqc.zip</text>
<text text-anchor="start" x="508.5" y="-862" font-family="monospace" font-size="10.00" fill="#000000">stats/reads/fastqc/raw/HD827sonic_1_lib1_L001_R2.html</text>
<text text-anchor="start" x="508.5" y="-844" font-family="monospace" font-size="10.00" fill="#000000">stats/reads/fastqc/raw/HD827sonic_1_lib1_L001_R2_fastqc.zip</text>
<text text-anchor="start" x="508.5" y="-826" font-family="monospace" font-size="10.00" fill="#000000">stats/reads/fastqc/raw/HD827sonic_1_lib1_L002_R1.html</text>
<text text-anchor="start" x="508.5" y="-808" font-family="monospace" font-size="10.00" fill="#000000">stats/reads/fastqc/raw/HD827sonic_1_lib1_L002_R1_fastqc.zip</text>
<text text-anchor="start" x="508.5" y="-790" font-family="monospace" font-size="10.00" fill="#000000">stats/reads/fastqc/raw/HD827sonic_1_lib1_L002_R2.html</text>
<text text-anchor="start" x="508.5" y="-772" font-family="monospace" font-size="10.00" fill="#000000">stats/reads/fastqc/raw/HD827sonic_1_lib1_L002_R2_fastqc.zip</text>
<text text-anchor="start" x="508.5" y="-754" font-family="monospace" font-size="10.00" fill="#000000">stats/reads/fastqc/trim/HD827sonic_1_lib1_L001_R1.html</text>
<text text-anchor="start" x="508.5" y="-736" font-family="monospace" font-size="10.00" fill="#000000">stats/reads/fastqc/trim/HD827sonic_1_lib1_L001_R1_fastqc.zip</text>
<text text-anchor="start" x="508.5" y="-718" font-family="monospace" font-size="10.00" fill="#000000">stats/reads/fastqc/trim/HD827sonic_1_lib1_L001_R2.html</text>
<text text-anchor="start" x="508.5" y="-700" font-family="monospace" font-size="10.00" fill="#000000">stats/reads/fastqc/trim/HD827sonic_1_lib1_L001_R2_fastqc.zip</text>
<text text-anchor="start" x="508.5" y="-682" font-family="monospace" font-size="10.00" fill="#000000">stats/reads/fastqc/trim/HD827sonic_1_lib1_L001_collapsed.html</text>
<text text-anchor="start" x="508.5" y="-664" font-family="monospace" font-size="10.00" fill="#000000">stats/reads/fastqc/trim/HD827sonic_1_lib1_L001_collapsed_fastqc.zip</text>
<text text-anchor="start" x="508.5" y="-646" font-family="monospace" font-size="10.00" fill="#000000">stats/reads/fastqc/trim/HD827sonic_1_lib1_L001_collapsedtrunc.html</text>
<text text-anchor="start" x="508.5" y="-628" font-family="monospace" font-size="10.00" fill="#000000">stats/reads/fastqc/trim/HD827sonic_1_lib1_L001_collapsedtrunc_fastqc.zip</text>
<text text-anchor="start" x="508.5" y="-610" font-family="monospace" font-size="10.00" fill="#000000">stats/reads/fastqc/trim/HD827sonic_1_lib1_L001_singleton.html</text>
<text text-anchor="start" x="508.5" y="-592" font-family="monospace" font-size="10.00" fill="#000000">stats/reads/fastqc/trim/HD827sonic_1_lib1_L001_singleton_fastqc.zip</text>
<text text-anchor="start" x="508.5" y="-574" font-family="monospace" font-size="10.00" fill="#000000">stats/reads/fastqc/trim/HD827sonic_1_lib1_L002_R1.html</text>
<text text-anchor="start" x="508.5" y="-556" font-family="monospace" font-size="10.00" fill="#000000">stats/reads/fastqc/trim/HD827sonic_1_lib1_L002_R1_fastqc.zip</text>
<text text-anchor="start" x="508.5" y="-538" font-family="monospace" font-size="10.00" fill="#000000">stats/reads/fastqc/trim/HD827sonic_1_lib1_L002_R2.html</text>
<text text-anchor="start" x="508.5" y="-520" font-family="monospace" font-size="10.00" fill="#000000">stats/reads/fastqc/trim/HD827sonic_1_lib1_L002_R2_fastqc.zip</text>
<text text-anchor="start" x="508.5" y="-502" font-family="monospace" font-size="10.00" fill="#000000">stats/reads/fastqc/trim/HD827sonic_1_lib1_L002_collapsed.html</text>
<text text-anchor="start" x="508.5" y="-484" font-family="monospace" font-size="10.00" fill="#000000">stats/reads/fastqc/trim/HD827sonic_1_lib1_L002_collapsed_fastqc.zip</text>
<text text-anchor="start" x="508.5" y="-466" font-family="monospace" font-size="10.00" fill="#000000">stats/reads/fastqc/trim/HD827sonic_1_lib1_L002_collapsedtrunc.html</text>
<text text-anchor="start" x="508.5" y="-448" font-family="monospace" font-size="10.00" fill="#000000">stats/reads/fastqc/trim/HD827sonic_1_lib1_L002_collapsedtrunc_fastqc.zip</text>
<text text-anchor="start" x="508.5" y="-430" font-family="monospace" font-size="10.00" fill="#000000">stats/reads/fastqc/trim/HD827sonic_1_lib1_L002_singleton.html</text>
<text text-anchor="start" x="508.5" y="-412" font-family="monospace" font-size="10.00" fill="#000000">stats/reads/fastqc/trim/HD827sonic_1_lib1_L002_singleton_fastqc.zip</text>
<text text-anchor="start" x="508.5" y="-394" font-family="monospace" font-size="10.00" fill="#000000">stats/reads/trim/HD827sonic_1_lib1_L001_pe.settings</text>
<text text-anchor="start" x="508.5" y="-376" font-family="monospace" font-size="10.00" fill="#000000">stats/reads/trim/HD827sonic_1_lib1_L002_pe.settings</text>
<text text-anchor="start" x="872.5" y="-355.8" font-family="sans" font-size="10.00" fill="#000000"> </text>
<text text-anchor="start" x="876.5" y="-355.8" font-family="sans" font-weight="bold" font-size="14.00" fill="#000000">output →</text>
<text text-anchor="start" x="937.5" y="-355.8" font-family="sans" font-size="10.00" fill="#000000"> </text>
<text text-anchor="start" x="508.5" y="-336" font-family="monospace" font-size="10.00" fill="#000000">reports/multiqc.html</text>
<text text-anchor="start" x="508.5" y="-318" font-family="monospace" font-size="10.00" fill="#000000">reports/multiqc_data.zip</text>
<polygon fill="#5798d9" stroke="#5798d9" points="502.5,-932 502.5,-932 948.5,-932 948.5,-932 502.5,-932"/>
<polygon fill="#5798d9" stroke="#5798d9" points="502.5,-370 502.5,-370 948.5,-370 948.5,-370 502.5,-370"/>
<polygon fill="none" stroke="#5798d9" stroke-width="2" points="502,-309 502,-961 947,-961 947,-309 502,-309"/>
</g>
<!-- 1&#45;&gt;0 -->
<g id="edge2" class="edge">
<title>1&#45;&gt;0</title>
<path fill="none" stroke="#c0c0c0" stroke-width="2" d="M852.3921,-307.7275C855.8606,-298.8516 859.2721,-290.1217 862.6064,-281.5892"/>
<polygon fill="#c0c0c0" stroke="#c0c0c0" stroke-width="2" points="865.9573,-282.6303 866.3372,-272.0423 859.4374,-280.0824 865.9573,-282.6303"/>
</g>
<!-- 2 -->
<g id="node3" class="node">
<title>2</title>
<text text-anchor="start" x="204" y="-1109.6" font-family="sans" font-weight="bold" font-size="18.00" fill="#000000">fastqc_raw</text>
<text text-anchor="start" x="7.5" y="-1085.8" font-family="sans" font-size="10.00" fill="#000000"> </text>
<text text-anchor="start" x="11.5" y="-1085.8" font-family="sans" font-weight="bold" font-size="14.00" fill="#000000">↪ input</text>
<text text-anchor="start" x="64.5" y="-1085.8" font-family="sans" font-size="10.00" fill="#000000"> </text>
<text text-anchor="start" x="7.5" y="-1066" font-family="monospace" font-size="10.00" fill="#000000">results/reads/raw/{sample}_{library}_{lane}_{read_type_raw}.fastq.gz</text>
<text text-anchor="start" x="425.5" y="-1045.8" font-family="sans" font-size="10.00" fill="#000000"> </text>
<text text-anchor="start" x="429.5" y="-1045.8" font-family="sans" font-weight="bold" font-size="14.00" fill="#000000">output →</text>
<text text-anchor="start" x="490.5" y="-1045.8" font-family="sans" font-size="10.00" fill="#000000"> </text>
<text text-anchor="start" x="7.5" y="-1026" font-family="monospace" font-size="10.00" fill="#000000">stats/reads/fastqc/raw/{sample}_{library}_{lane}_{read_type_raw,R1|R2}.html</text>
<text text-anchor="start" x="7.5" y="-1008" font-family="monospace" font-size="10.00" fill="#000000">stats/reads/fastqc/raw/{sample}_{library}_{lane}_{read_type_raw,R1|R2}_fastqc.zip</text>
<polygon fill="#57d957" stroke="#57d957" points="1.5,-1100 1.5,-1100 501.5,-1100 501.5,-1100 1.5,-1100"/>
<polygon fill="#57d957" stroke="#57d957" points="1.5,-1060 1.5,-1060 501.5,-1060 501.5,-1060 1.5,-1060"/>
<polygon fill="none" stroke="#57d957" stroke-width="2" points="1,-999 1,-1129 500,-1129 500,-999 1,-999"/>
</g>
<!-- 2&#45;&gt;1 -->
<g id="edge5" class="edge">
<title>2&#45;&gt;1</title>
<path fill="none" stroke="#c0c0c0" stroke-width="2" d="M323.5237,-997.9089C369.5024,-956.2953 431.6311,-900.0649 493.2422,-844.303"/>
<polygon fill="#c0c0c0" stroke="#c0c0c0" stroke-width="2" points="495.6864,-846.8115 500.752,-837.5061 490.9891,-841.6215 495.6864,-846.8115"/>
</g>
<!-- 3 -->
<g id="node4" class="node">
<title>3</title>
<text text-anchor="start" x="525.5" y="-1517.6" font-family="sans" font-weight="bold" font-size="18.00" fill="#000000">get_fastq_raw</text>
<text text-anchor="start" x="363.5" y="-1493.8" font-family="sans" font-size="10.00" fill="#000000"> </text>
<text text-anchor="start" x="367.5" y="-1493.8" font-family="sans" font-weight="bold" font-size="14.00" fill="#000000">↪ input</text>
<text text-anchor="start" x="420.5" y="-1493.8" font-family="sans" font-size="10.00" fill="#000000"> </text>
<text text-anchor="start" x="363.5" y="-1474" font-family="monospace" font-size="10.00" fill="#000000">&lt;input function&gt;</text>
<text text-anchor="start" x="739.5" y="-1453.8" font-family="sans" font-size="10.00" fill="#000000"> </text>
<text text-anchor="start" x="743.5" y="-1453.8" font-family="sans" font-weight="bold" font-size="14.00" fill="#000000">output →</text>
<text text-anchor="start" x="804.5" y="-1453.8" font-family="sans" font-size="10.00" fill="#000000"> </text>
<text text-anchor="start" x="363.5" y="-1434" font-family="monospace" font-size="10.00" fill="#000000">results/reads/raw/{sample}_{library}_{lane}_{read_type_raw,R1|R2}.fastq.gz</text>
<polygon fill="#57d9d9" stroke="#57d9d9" points="357.5,-1508 357.5,-1508 815.5,-1508 815.5,-1508 357.5,-1508"/>
<polygon fill="#57d9d9" stroke="#57d9d9" points="357.5,-1468 357.5,-1468 815.5,-1468 815.5,-1468 357.5,-1468"/>
<polygon fill="none" stroke="#57d9d9" stroke-width="2" points="357,-1425 357,-1537 814,-1537 814,-1425 357,-1425"/>
</g>
<!-- 3&#45;&gt;2 -->
<g id="edge6" class="edge">
<title>3&#45;&gt;2</title>
<path fill="none" stroke="#c0c0c0" stroke-width="2" d="M534.2165,-1423.9168C523.9154,-1412.1503 513.2612,-1399.7599 503.5,-1388 433.779,-1304.0032 357.0533,-1204.7143 306.5836,-1138.3937"/>
<polygon fill="#c0c0c0" stroke="#c0c0c0" stroke-width="2" points="309.0929,-1135.9112 300.2545,-1130.0688 303.5205,-1140.1477 309.0929,-1135.9112"/>
</g>
<!-- 4 -->
<g id="node5" class="node">
<title>4</title>
<text text-anchor="start" x="617" y="-1367.6" font-family="sans" font-weight="bold" font-size="18.00" fill="#000000">adapterremoval_fastq_pe</text>
<text text-anchor="start" x="520.5" y="-1343.8" font-family="sans" font-size="10.00" fill="#000000"> </text>
<text text-anchor="start" x="524.5" y="-1343.8" font-family="sans" font-weight="bold" font-size="14.00" fill="#000000">↪ input</text>
<text text-anchor="start" x="577.5" y="-1343.8" font-family="sans" font-size="10.00" fill="#000000"> </text>
<text text-anchor="start" x="520.5" y="-1324" font-family="monospace" font-size="10.00" fill="#000000">&lt;input function&gt;</text>
<text text-anchor="start" x="860.5" y="-1303.8" font-family="sans" font-size="10.00" fill="#000000"> </text>
<text text-anchor="start" x="864.5" y="-1303.8" font-family="sans" font-weight="bold" font-size="14.00" fill="#000000">output →</text>
<text text-anchor="start" x="925.5" y="-1303.8" font-family="sans" font-size="10.00" fill="#000000"> </text>
<text text-anchor="start" x="520.5" y="-1284" font-family="monospace" font-size="10.00" fill="#000000">results/reads/trim/{sample}_{library}_{lane}_R1.fastq.gz</text>
<text text-anchor="start" x="520.5" y="-1266" font-family="monospace" font-size="10.00" fill="#000000">results/reads/trim/{sample}_{library}_{lane}_R2.fastq.gz</text>
<text text-anchor="start" x="520.5" y="-1248" font-family="monospace" font-size="10.00" fill="#000000">results/reads/trim/{sample}_{library}_{lane}_collapsed.fastq.gz</text>
<text text-anchor="start" x="520.5" y="-1230" font-family="monospace" font-size="10.00" fill="#000000">results/reads/trim/{sample}_{library}_{lane}_collapsedtrunc.fastq.gz</text>
<text text-anchor="start" x="520.5" y="-1212" font-family="monospace" font-size="10.00" fill="#000000">results/reads/trim/{sample}_{library}_{lane}_discarded.fastq.gz</text>
<text text-anchor="start" x="520.5" y="-1194" font-family="monospace" font-size="10.00" fill="#000000">results/reads/trim/{sample}_{library}_{lane}_singleton.fastq.gz</text>
<text text-anchor="start" x="520.5" y="-1176" font-family="monospace" font-size="10.00" fill="#000000">stats/reads/trim/{sample}_{library}_{lane}_pe.settings</text>
<polygon fill="#d95757" stroke="#d95757" points="514.5,-1358 514.5,-1358 936.5,-1358 936.5,-1358 514.5,-1358"/>
<polygon fill="#d95757" stroke="#d95757" points="514.5,-1318 514.5,-1318 936.5,-1318 936.5,-1318 514.5,-1318"/>
<polygon fill="none" stroke="#d95757" stroke-width="2" points="514,-1167 514,-1387 935,-1387 935,-1167 514,-1167"/>
</g>
<!-- 3&#45;&gt;4 -->
<g id="edge7" class="edge">
<title>3&#45;&gt;4</title>
<path fill="none" stroke="#c0c0c0" stroke-width="2" d="M624.4041,-1423.9034C630.3053,-1415.2425 636.5743,-1406.0421 642.9838,-1396.6352"/>
<polygon fill="#c0c0c0" stroke="#c0c0c0" stroke-width="2" points="645.9085,-1398.5587 648.647,-1388.3239 640.1237,-1394.6171 645.9085,-1398.5587"/>
</g>
<!-- 4&#45;&gt;0 -->
<g id="edge1" class="edge">
<title>4&#45;&gt;0</title>
<path fill="none" stroke="#c0c0c0" stroke-width="2" d="M936.1457,-1249.2447C1077.9706,-1225.8036 1246.516,-1186.8666 1290.5,-1130 1492.4429,-868.9093 1229.8909,-486.2998 1054.1742,-280.2223"/>
<polygon fill="#c0c0c0" stroke="#c0c0c0" stroke-width="2" points="1056.6038,-277.6786 1047.4401,-272.361 1051.2876,-282.2325 1056.6038,-277.6786"/>
</g>
<!-- 4&#45;&gt;1 -->
<g id="edge4" class="edge">
<title>4&#45;&gt;1</title>
<path fill="none" stroke="#c0c0c0" stroke-width="2" d="M570.6679,-1165.7112C561.9819,-1154.5401 554.4031,-1142.6218 548.5,-1130 523.6459,-1076.8582 535.3695,-1055.1784 548.5,-998 550.4931,-989.3207 552.7224,-980.6082 555.1595,-971.887"/>
<polygon fill="#c0c0c0" stroke="#c0c0c0" stroke-width="2" points="558.5917,-972.6163 557.9978,-962.0382 551.8654,-970.6779 558.5917,-972.6163"/>
</g>
<!-- 5 -->
<g id="node6" class="node">
<title>5</title>
<text text-anchor="start" x="871.5" y="-1109.6" font-family="sans" font-weight="bold" font-size="18.00" fill="#000000">fastqc_trim</text>
<text text-anchor="start" x="565.5" y="-1085.8" font-family="sans" font-size="10.00" fill="#000000"> </text>
<text text-anchor="start" x="569.5" y="-1085.8" font-family="sans" font-weight="bold" font-size="14.00" fill="#000000">↪ input</text>
<text text-anchor="start" x="622.5" y="-1085.8" font-family="sans" font-size="10.00" fill="#000000"> </text>
<text text-anchor="start" x="565.5" y="-1066" font-family="monospace" font-size="10.00" fill="#000000">results/reads/trim/{sample}_{library}_{lane}_{read_type_trim}.fastq.gz</text>
<text text-anchor="start" x="1205.5" y="-1045.8" font-family="sans" font-size="10.00" fill="#000000"> </text>
<text text-anchor="start" x="1209.5" y="-1045.8" font-family="sans" font-weight="bold" font-size="14.00" fill="#000000">output →</text>
<text text-anchor="start" x="1270.5" y="-1045.8" font-family="sans" font-size="10.00" fill="#000000"> </text>
<text text-anchor="start" x="565.5" y="-1026" font-family="monospace" font-size="10.00" fill="#000000">stats/reads/fastqc/trim/{sample}_{library}_{lane}_{read_type_trim,collapsedtrunc|singleton|R2|collapsed|R1}.html</text>
<text text-anchor="start" x="565.5" y="-1008" font-family="monospace" font-size="10.00" fill="#000000">stats/reads/fastqc/trim/{sample}_{library}_{lane}_{read_type_trim,collapsedtrunc|singleton|R2|collapsed|R1}_fastqc.zip</text>
<polygon fill="#57d998" stroke="#57d998" points="559.5,-1100 559.5,-1100 1281.5,-1100 1281.5,-1100 559.5,-1100"/>
<polygon fill="#57d998" stroke="#57d998" points="559.5,-1060 559.5,-1060 1281.5,-1060 1281.5,-1060 559.5,-1060"/>
<polygon fill="none" stroke="#57d998" stroke-width="2" points="559,-999 559,-1129 1280,-1129 1280,-999 559,-999"/>
</g>
<!-- 4&#45;&gt;5 -->
<g id="edge8" class="edge">
<title>4&#45;&gt;5</title>
<path fill="none" stroke="#c0c0c0" stroke-width="2" d="M826.2834,-1165.8212C835.013,-1156.2858 843.6967,-1146.8005 852.0539,-1137.6719"/>
<polygon fill="#c0c0c0" stroke="#c0c0c0" stroke-width="2" points="854.82,-1139.8337 858.991,-1130.0944 849.6569,-1135.1069 854.82,-1139.8337"/>
</g>
<!-- 5&#45;&gt;1 -->
<g id="edge3" class="edge">
<title>5&#45;&gt;1</title>
<path fill="none" stroke="#c0c0c0" stroke-width="2" d="M889.4586,-997.9089C885.7328,-989.7121 881.7491,-980.9481 877.5601,-971.7323"/>
<polygon fill="#c0c0c0" stroke="#c0c0c0" stroke-width="2" points="880.629,-970.0255 873.3046,-962.3702 874.2564,-972.9222 880.629,-970.0255"/>
</g>
</g>
</svg>
