<?xml version="1.0" encoding="UTF-8" standalone="no"?>
<!DOCTYPE svg PUBLIC "-//W3C//DTD SVG 1.1//EN"
 "http://www.w3.org/Graphics/SVG/1.1/DTD/svg11.dtd">
<!-- Generated by graphviz version 2.40.1 (0)
 -->
<!-- Title: snakemake_dag Pages: 1 -->
<svg width="1055pt" height="1114pt"
 viewBox="0.00 0.00 1055.24 1114.00" xmlns="http://www.w3.org/2000/svg" xmlns:xlink="http://www.w3.org/1999/xlink">
<g id="graph0" class="graph" transform="scale(1 1) rotate(0) translate(4 1110)">
<title>snakemake_dag</title>
<polygon fill="#ffffff" stroke="transparent" points="-4,4 -4,-1110 1051.2439,-1110 1051.2439,4 -4,4"/>
<!-- 0 -->
<g id="node1" class="node">
<title>0</title>
<text text-anchor="start" x="865.5" y="-143.6" font-family="sans" font-weight="bold" font-size="18.00" fill="#000000">all</text>
<text text-anchor="start" x="719.5" y="-119.8" font-family="sans" font-size="10.00" fill="#000000"> </text>
<text text-anchor="start" x="723.5" y="-119.8" font-family="sans" font-weight="bold" font-size="14.00" fill="#000000">↪ input</text>
<text text-anchor="start" x="776.5" y="-119.8" font-family="sans" font-size="10.00" fill="#000000"> </text>
<text text-anchor="start" x="719.5" y="-100" font-family="monospace" font-size="10.00" fill="#000000">reports/multiqc.html</text>
<text text-anchor="start" x="719.5" y="-82" font-family="monospace" font-size="10.00" fill="#000000">results/reads/trim/HD827sonic_1_lib1_L001_R.fastq.gz</text>
<text text-anchor="start" x="719.5" y="-64" font-family="monospace" font-size="10.00" fill="#000000">results/reads/trim/HD827sonic_1_lib1_L002_R.fastq.gz</text>
<text text-anchor="start" x="719.5" y="-46" font-family="monospace" font-size="10.00" fill="#000000">results/reads/trim/HD827sonic_2_lib1_L001_R.fastq.gz</text>
<text text-anchor="start" x="719.5" y="-28" font-family="monospace" font-size="10.00" fill="#000000">results/reads/trim/HD827sonic_2_lib2_L001_R.fastq.gz</text>
<text text-anchor="start" x="1025.5" y="-10" font-family="sans" font-size="10.00" fill="#000000"> &#160;</text>
<polygon fill="#98d957" stroke="#98d957" points="713.5,-134 713.5,-134 1039.5,-134 1039.5,-134 713.5,-134"/>
<polygon fill="#98d957" stroke="#98d957" points="713.5,-22 713.5,-22 1039.5,-22 1039.5,-22 713.5,-22"/>
<polygon fill="none" stroke="#98d957" stroke-width="2" points="713,-1 713,-163 1038,-163 1038,-1 713,-1"/>
</g>
<!-- 1 -->
<g id="node2" class="node">
<title>1</title>
<text text-anchor="start" x="707.5" y="-581.6" font-family="sans" font-weight="bold" font-size="18.00" fill="#000000">multiqc</text>
<text text-anchor="start" x="562.5" y="-557.8" font-family="sans" font-size="10.00" fill="#000000"> </text>
<text text-anchor="start" x="566.5" y="-557.8" font-family="sans" font-weight="bold" font-size="14.00" fill="#000000">↪ input</text>
<text text-anchor="start" x="619.5" y="-557.8" font-family="sans" font-size="10.00" fill="#000000"> </text>
<text text-anchor="start" x="562.5" y="-538" font-family="monospace" font-size="10.00" fill="#000000">stats/reads/fastqc_raw/HD827sonic_1_lib1_L001_R.html</text>
<text text-anchor="start" x="562.5" y="-520" font-family="monospace" font-size="10.00" fill="#000000">stats/reads/fastqc_raw/HD827sonic_1_lib1_L001_R_fastqc.zip</text>
<text text-anchor="start" x="562.5" y="-502" font-family="monospace" font-size="10.00" fill="#000000">stats/reads/fastqc_raw/HD827sonic_1_lib1_L002_R.html</text>
<text text-anchor="start" x="562.5" y="-484" font-family="monospace" font-size="10.00" fill="#000000">stats/reads/fastqc_raw/HD827sonic_1_lib1_L002_R_fastqc.zip</text>
<text text-anchor="start" x="562.5" y="-466" font-family="monospace" font-size="10.00" fill="#000000">stats/reads/fastqc_raw/HD827sonic_2_lib1_L001_R.html</text>
<text text-anchor="start" x="562.5" y="-448" font-family="monospace" font-size="10.00" fill="#000000">stats/reads/fastqc_raw/HD827sonic_2_lib1_L001_R_fastqc.zip</text>
<text text-anchor="start" x="562.5" y="-430" font-family="monospace" font-size="10.00" fill="#000000">stats/reads/fastqc_raw/HD827sonic_2_lib2_L001_R.html</text>
<text text-anchor="start" x="562.5" y="-412" font-family="monospace" font-size="10.00" fill="#000000">stats/reads/fastqc_raw/HD827sonic_2_lib2_L001_R_fastqc.zip</text>
<text text-anchor="start" x="562.5" y="-394" font-family="monospace" font-size="10.00" fill="#000000">stats/reads/fastqc_trim/HD827sonic_1_lib1_L001_R.html</text>
<text text-anchor="start" x="562.5" y="-376" font-family="monospace" font-size="10.00" fill="#000000">stats/reads/fastqc_trim/HD827sonic_1_lib1_L001_R_fastqc.zip</text>
<text text-anchor="start" x="562.5" y="-358" font-family="monospace" font-size="10.00" fill="#000000">stats/reads/fastqc_trim/HD827sonic_1_lib1_L002_R.html</text>
<text text-anchor="start" x="562.5" y="-340" font-family="monospace" font-size="10.00" fill="#000000">stats/reads/fastqc_trim/HD827sonic_1_lib1_L002_R_fastqc.zip</text>
<text text-anchor="start" x="562.5" y="-322" font-family="monospace" font-size="10.00" fill="#000000">stats/reads/fastqc_trim/HD827sonic_2_lib1_L001_R.html</text>
<text text-anchor="start" x="562.5" y="-304" font-family="monospace" font-size="10.00" fill="#000000">stats/reads/fastqc_trim/HD827sonic_2_lib1_L001_R_fastqc.zip</text>
<text text-anchor="start" x="562.5" y="-286" font-family="monospace" font-size="10.00" fill="#000000">stats/reads/fastqc_trim/HD827sonic_2_lib2_L001_R.html</text>
<text text-anchor="start" x="562.5" y="-268" font-family="monospace" font-size="10.00" fill="#000000">stats/reads/fastqc_trim/HD827sonic_2_lib2_L001_R_fastqc.zip</text>
<text text-anchor="start" x="848.5" y="-247.8" font-family="sans" font-size="10.00" fill="#000000"> </text>
<text text-anchor="start" x="852.5" y="-247.8" font-family="sans" font-weight="bold" font-size="14.00" fill="#000000">output →</text>
<text text-anchor="start" x="913.5" y="-247.8" font-family="sans" font-size="10.00" fill="#000000"> </text>
<text text-anchor="start" x="562.5" y="-228" font-family="monospace" font-size="10.00" fill="#000000">reports/multiqc.html</text>
<text text-anchor="start" x="562.5" y="-210" font-family="monospace" font-size="10.00" fill="#000000">reports/multiqc_data.zip</text>
<polygon fill="#5798d9" stroke="#5798d9" points="556.5,-572 556.5,-572 924.5,-572 924.5,-572 556.5,-572"/>
<polygon fill="#5798d9" stroke="#5798d9" points="556.5,-262 556.5,-262 924.5,-262 924.5,-262 556.5,-262"/>
<polygon fill="none" stroke="#5798d9" stroke-width="2" points="556,-201 556,-601 923,-601 923,-201 556,-201"/>
</g>
<!-- 1&#45;&gt;0 -->
<g id="edge2" class="edge">
<title>1&#45;&gt;0</title>
<path fill="none" stroke="#c0c0c0" stroke-width="2" d="M825.245,-199.8775C829.0603,-190.9284 832.7955,-182.1672 836.3977,-173.7178"/>
<polygon fill="#c0c0c0" stroke="#c0c0c0" stroke-width="2" points="839.7033,-174.8888 840.4055,-164.3173 833.264,-172.1435 839.7033,-174.8888"/>
</g>
<!-- 2 -->
<g id="node3" class="node">
<title>2</title>
<text text-anchor="start" x="192" y="-749.6" font-family="sans" font-weight="bold" font-size="18.00" fill="#000000">fastqc_raw</text>
<text text-anchor="start" x="7.5" y="-725.8" font-family="sans" font-size="10.00" fill="#000000"> </text>
<text text-anchor="start" x="11.5" y="-725.8" font-family="sans" font-weight="bold" font-size="14.00" fill="#000000">↪ input</text>
<text text-anchor="start" x="64.5" y="-725.8" font-family="sans" font-size="10.00" fill="#000000"> </text>
<text text-anchor="start" x="7.5" y="-706" font-family="monospace" font-size="10.00" fill="#000000">results/reads/raw/{sample}_{library}_{lane}_{read_type_raw}.fastq.gz</text>
<text text-anchor="start" x="401.5" y="-685.8" font-family="sans" font-size="10.00" fill="#000000"> </text>
<text text-anchor="start" x="405.5" y="-685.8" font-family="sans" font-weight="bold" font-size="14.00" fill="#000000">output →</text>
<text text-anchor="start" x="466.5" y="-685.8" font-family="sans" font-size="10.00" fill="#000000"> </text>
<text text-anchor="start" x="7.5" y="-666" font-family="monospace" font-size="10.00" fill="#000000">stats/reads/fastqc_raw/{sample}_{library}_{lane}_{read_type_raw,R}.html</text>
<text text-anchor="start" x="7.5" y="-648" font-family="monospace" font-size="10.00" fill="#000000">stats/reads/fastqc_raw/{sample}_{library}_{lane}_{read_type_raw,R}_fastqc.zip</text>
<polygon fill="#57d957" stroke="#57d957" points="1.5,-740 1.5,-740 477.5,-740 477.5,-740 1.5,-740"/>
<polygon fill="#57d957" stroke="#57d957" points="1.5,-700 1.5,-700 477.5,-700 477.5,-700 1.5,-700"/>
<polygon fill="none" stroke="#57d957" stroke-width="2" points="1,-639 1,-769 476,-769 476,-639 1,-639"/>
</g>
<!-- 2&#45;&gt;1 -->
<g id="edge4" class="edge">
<title>2&#45;&gt;1</title>
<path fill="none" stroke="#c0c0c0" stroke-width="2" d="M347.8275,-637.8798C405.8103,-602.8123 478.7761,-558.6833 545.9676,-518.0465"/>
<polygon fill="#c0c0c0" stroke="#c0c0c0" stroke-width="2" points="547.8101,-521.0226 554.5556,-512.8526 544.1875,-515.0328 547.8101,-521.0226"/>
</g>
<!-- 3 -->
<g id="node4" class="node">
<title>3</title>
<text text-anchor="start" x="428.5" y="-1085.6" font-family="sans" font-weight="bold" font-size="18.00" fill="#000000">get_fastq_raw</text>
<text text-anchor="start" x="278.5" y="-1061.8" font-family="sans" font-size="10.00" fill="#000000"> </text>
<text text-anchor="start" x="282.5" y="-1061.8" font-family="sans" font-weight="bold" font-size="14.00" fill="#000000">↪ input</text>
<text text-anchor="start" x="335.5" y="-1061.8" font-family="sans" font-size="10.00" fill="#000000"> </text>
<text text-anchor="start" x="278.5" y="-1042" font-family="monospace" font-size="10.00" fill="#000000">&lt;input function&gt;</text>
<text text-anchor="start" x="630.5" y="-1021.8" font-family="sans" font-size="10.00" fill="#000000"> </text>
<text text-anchor="start" x="634.5" y="-1021.8" font-family="sans" font-weight="bold" font-size="14.00" fill="#000000">output →</text>
<text text-anchor="start" x="695.5" y="-1021.8" font-family="sans" font-size="10.00" fill="#000000"> </text>
<text text-anchor="start" x="278.5" y="-1002" font-family="monospace" font-size="10.00" fill="#000000">results/reads/raw/{sample}_{library}_{lane}_{read_type_raw,R}.fastq.gz</text>
<polygon fill="#57d9d9" stroke="#57d9d9" points="272.5,-1076 272.5,-1076 706.5,-1076 706.5,-1076 272.5,-1076"/>
<polygon fill="#57d9d9" stroke="#57d9d9" points="272.5,-1036 272.5,-1036 706.5,-1036 706.5,-1036 272.5,-1036"/>
<polygon fill="none" stroke="#57d9d9" stroke-width="2" points="272,-993 272,-1105 705,-1105 705,-993 272,-993"/>
</g>
<!-- 3&#45;&gt;2 -->
<g id="edge5" class="edge">
<title>3&#45;&gt;2</title>
<path fill="none" stroke="#c0c0c0" stroke-width="2" d="M446.9369,-991.643C404.615,-933.2388 338.8086,-842.4259 292.4804,-778.493"/>
<polygon fill="#c0c0c0" stroke="#c0c0c0" stroke-width="2" points="295.0639,-776.0933 286.362,-770.0495 289.3957,-780.2008 295.0639,-776.0933"/>
</g>
<!-- 5 -->
<g id="node6" class="node">
<title>5</title>
<text text-anchor="start" x="633" y="-935.6" font-family="sans" font-weight="bold" font-size="18.00" fill="#000000">adapterremoval_fastq_se</text>
<text text-anchor="start" x="550.5" y="-911.8" font-family="sans" font-size="10.00" fill="#000000"> </text>
<text text-anchor="start" x="554.5" y="-911.8" font-family="sans" font-weight="bold" font-size="14.00" fill="#000000">↪ input</text>
<text text-anchor="start" x="607.5" y="-911.8" font-family="sans" font-size="10.00" fill="#000000"> </text>
<text text-anchor="start" x="550.5" y="-892" font-family="monospace" font-size="10.00" fill="#000000">&lt;input function&gt;</text>
<text text-anchor="start" x="860.5" y="-871.8" font-family="sans" font-size="10.00" fill="#000000"> </text>
<text text-anchor="start" x="864.5" y="-871.8" font-family="sans" font-weight="bold" font-size="14.00" fill="#000000">output →</text>
<text text-anchor="start" x="925.5" y="-871.8" font-family="sans" font-size="10.00" fill="#000000"> </text>
<text text-anchor="start" x="550.5" y="-852" font-family="monospace" font-size="10.00" fill="#000000">results/reads/trim/{sample}_{library}_{lane}_R.fastq.gz</text>
<text text-anchor="start" x="550.5" y="-834" font-family="monospace" font-size="10.00" fill="#000000">results/reads/trim/{sample}_{library}_{lane}_discarded.fastq.gz</text>
<text text-anchor="start" x="550.5" y="-816" font-family="monospace" font-size="10.00" fill="#000000">stats/reads/trim/{sample}_{library}_{lane}_se.settings</text>
<polygon fill="#d99857" stroke="#d99857" points="544.5,-926 544.5,-926 936.5,-926 936.5,-926 544.5,-926"/>
<polygon fill="#d99857" stroke="#d99857" points="544.5,-886 544.5,-886 936.5,-886 936.5,-886 544.5,-886"/>
<polygon fill="none" stroke="#d99857" stroke-width="2" points="544,-807 544,-955 935,-955 935,-807 544,-807"/>
</g>
<!-- 3&#45;&gt;5 -->
<g id="edge7" class="edge">
<title>3&#45;&gt;5</title>
<path fill="none" stroke="#c0c0c0" stroke-width="2" d="M573.8274,-991.8884C588.3369,-982.1769 603.6473,-971.9293 618.8623,-961.7456"/>
<polygon fill="#c0c0c0" stroke="#c0c0c0" stroke-width="2" points="620.936,-964.5692 627.2995,-956.0983 617.0424,-958.752 620.936,-964.5692"/>
</g>
<!-- 4 -->
<g id="node5" class="node">
<title>4</title>
<text text-anchor="start" x="691.5" y="-749.6" font-family="sans" font-weight="bold" font-size="18.00" fill="#000000">fastqc_trim</text>
<text text-anchor="start" x="502.5" y="-725.8" font-family="sans" font-size="10.00" fill="#000000"> </text>
<text text-anchor="start" x="506.5" y="-725.8" font-family="sans" font-weight="bold" font-size="14.00" fill="#000000">↪ input</text>
<text text-anchor="start" x="559.5" y="-725.8" font-family="sans" font-size="10.00" fill="#000000"> </text>
<text text-anchor="start" x="502.5" y="-706" font-family="monospace" font-size="10.00" fill="#000000">results/reads/trim/{sample}_{library}_{lane}_{read_type_trim}.fastq.gz</text>
<text text-anchor="start" x="908.5" y="-685.8" font-family="sans" font-size="10.00" fill="#000000"> </text>
<text text-anchor="start" x="912.5" y="-685.8" font-family="sans" font-weight="bold" font-size="14.00" fill="#000000">output →</text>
<text text-anchor="start" x="973.5" y="-685.8" font-family="sans" font-size="10.00" fill="#000000"> </text>
<text text-anchor="start" x="502.5" y="-666" font-family="monospace" font-size="10.00" fill="#000000">stats/reads/fastqc_trim/{sample}_{library}_{lane}_{read_type_trim,R}.html</text>
<text text-anchor="start" x="502.5" y="-648" font-family="monospace" font-size="10.00" fill="#000000">stats/reads/fastqc_trim/{sample}_{library}_{lane}_{read_type_trim,R}_fastqc.zip</text>
<polygon fill="#57d998" stroke="#57d998" points="496.5,-740 496.5,-740 984.5,-740 984.5,-740 496.5,-740"/>
<polygon fill="#57d998" stroke="#57d998" points="496.5,-700 496.5,-700 984.5,-700 984.5,-700 496.5,-700"/>
<polygon fill="none" stroke="#57d998" stroke-width="2" points="496,-639 496,-769 983,-769 983,-639 496,-639"/>
</g>
<!-- 4&#45;&gt;1 -->
<g id="edge3" class="edge">
<title>4&#45;&gt;1</title>
<path fill="none" stroke="#c0c0c0" stroke-width="2" d="M739.5,-637.8798C739.5,-629.7827 739.5,-621.2026 739.5,-612.2939"/>
<polygon fill="#c0c0c0" stroke="#c0c0c0" stroke-width="2" points="743.0001,-612.1042 739.5,-602.1043 736.0001,-612.1043 743.0001,-612.1042"/>
</g>
<!-- 5&#45;&gt;0 -->
<g id="edge1" class="edge">
<title>5&#45;&gt;0</title>
<path fill="none" stroke="#c0c0c0" stroke-width="2" d="M936.2575,-824.3244C958.8372,-810.0648 978.9422,-792.2491 993.5,-770 1114.7526,-584.6865 1002.7747,-313.3714 928.7525,-173.2583"/>
<polygon fill="#c0c0c0" stroke="#c0c0c0" stroke-width="2" points="931.7276,-171.399 923.9345,-164.2214 925.5506,-174.6922 931.7276,-171.399"/>
</g>
<!-- 5&#45;&gt;4 -->
<g id="edge6" class="edge">
<title>5&#45;&gt;4</title>
<path fill="none" stroke="#c0c0c0" stroke-width="2" d="M739.5,-805.9361C739.5,-797.4959 739.5,-788.8888 739.5,-780.4315"/>
<polygon fill="#c0c0c0" stroke="#c0c0c0" stroke-width="2" points="743.0001,-780.2111 739.5,-770.2111 736.0001,-780.2112 743.0001,-780.2111"/>
</g>
</g>
</svg>
