<?xml version="1.0" encoding="UTF-8" standalone="no"?>
<!DOCTYPE svg PUBLIC "-//W3C//DTD SVG 1.1//EN"
 "http://www.w3.org/Graphics/SVG/1.1/DTD/svg11.dtd">
<!-- Generated by graphviz version 2.40.1 (0)
 -->
<!-- Title: snakemake_dag Pages: 1 -->
<svg width="218pt" height="332pt"
 viewBox="0.00 0.00 217.50 332.00" xmlns="http://www.w3.org/2000/svg" xmlns:xlink="http://www.w3.org/1999/xlink">
<g id="graph0" class="graph" transform="scale(1 1) rotate(0) translate(4 328)">
<title>snakemake_dag</title>
<polygon fill="#ffffff" stroke="transparent" points="-4,4 -4,-328 213.5,-328 213.5,4 -4,4"/>
<!-- 0 -->
<g id="node1" class="node">
<title>0</title>
<path fill="none" stroke="#97d856" stroke-width="2" d="M169.5,-36C169.5,-36 139.5,-36 139.5,-36 133.5,-36 127.5,-30 127.5,-24 127.5,-24 127.5,-12 127.5,-12 127.5,-6 133.5,0 139.5,0 139.5,0 169.5,0 169.5,0 175.5,0 181.5,-6 181.5,-12 181.5,-12 181.5,-24 181.5,-24 181.5,-30 175.5,-36 169.5,-36"/>
<text text-anchor="middle" x="154.5" y="-15.5" font-family="sans" font-size="10.00" fill="#000000">all</text>
</g>
<!-- 1 -->
<g id="node2" class="node">
<title>1</title>
<path fill="none" stroke="#569ad8" stroke-width="2" d="M139.5,-108C139.5,-108 109.5,-108 109.5,-108 103.5,-108 97.5,-102 97.5,-96 97.5,-96 97.5,-84 97.5,-84 97.5,-78 103.5,-72 109.5,-72 109.5,-72 139.5,-72 139.5,-72 145.5,-72 151.5,-78 151.5,-84 151.5,-84 151.5,-96 151.5,-96 151.5,-102 145.5,-108 139.5,-108"/>
<text text-anchor="middle" x="124.5" y="-87.5" font-family="sans" font-size="10.00" fill="#000000">multiqc</text>
</g>
<!-- 1&#45;&gt;0 -->
<g id="edge2" class="edge">
<title>1&#45;&gt;0</title>
<path fill="none" stroke="#c0c0c0" stroke-width="2" d="M132.0703,-71.8314C135.3493,-63.9617 139.262,-54.5712 142.8945,-45.8533"/>
<polygon fill="#c0c0c0" stroke="#c0c0c0" stroke-width="2" points="146.2124,-46.9902 146.8278,-36.4133 139.7508,-44.2979 146.2124,-46.9902"/>
</g>
<!-- 2 -->
<g id="node3" class="node">
<title>2</title>
<path fill="none" stroke="#59d856" stroke-width="2" d="M53,-180C53,-180 12,-180 12,-180 6,-180 0,-174 0,-168 0,-168 0,-156 0,-156 0,-150 6,-144 12,-144 12,-144 53,-144 53,-144 59,-144 65,-150 65,-156 65,-156 65,-168 65,-168 65,-174 59,-180 53,-180"/>
<text text-anchor="middle" x="32.5" y="-159.5" font-family="sans" font-size="10.00" fill="#000000">fastqc_raw</text>
</g>
<!-- 2&#45;&gt;1 -->
<g id="edge3" class="edge">
<title>2&#45;&gt;1</title>
<path fill="none" stroke="#c0c0c0" stroke-width="2" d="M55.7155,-143.8314C67.047,-134.9632 80.8464,-124.1637 93.1027,-114.5718"/>
<polygon fill="#c0c0c0" stroke="#c0c0c0" stroke-width="2" points="95.574,-117.0822 101.2919,-108.1628 91.2598,-111.5697 95.574,-117.0822"/>
</g>
<!-- 3 -->
<g id="node4" class="node">
<title>3</title>
<path fill="none" stroke="#56d8d8" stroke-width="2" d="M119.5,-324C119.5,-324 65.5,-324 65.5,-324 59.5,-324 53.5,-318 53.5,-312 53.5,-312 53.5,-300 53.5,-300 53.5,-294 59.5,-288 65.5,-288 65.5,-288 119.5,-288 119.5,-288 125.5,-288 131.5,-294 131.5,-300 131.5,-300 131.5,-312 131.5,-312 131.5,-318 125.5,-324 119.5,-324"/>
<text text-anchor="middle" x="92.5" y="-303.5" font-family="sans" font-size="10.00" fill="#000000">get_fastq_raw</text>
</g>
<!-- 3&#45;&gt;2 -->
<g id="edge6" class="edge">
<title>3&#45;&gt;2</title>
<path fill="none" stroke="#c0c0c0" stroke-width="2" d="M84.901,-287.7623C74.5769,-262.9846 56.0297,-218.4714 43.9975,-189.5939"/>
<polygon fill="#c0c0c0" stroke="#c0c0c0" stroke-width="2" points="47.1143,-187.9742 40.0373,-180.0896 40.6528,-190.6666 47.1143,-187.9742"/>
</g>
<!-- 4 -->
<g id="node5" class="node">
<title>4</title>
<path fill="none" stroke="#d85656" stroke-width="2" d="M197.5,-252C197.5,-252 95.5,-252 95.5,-252 89.5,-252 83.5,-246 83.5,-240 83.5,-240 83.5,-228 83.5,-228 83.5,-222 89.5,-216 95.5,-216 95.5,-216 197.5,-216 197.5,-216 203.5,-216 209.5,-222 209.5,-228 209.5,-228 209.5,-240 209.5,-240 209.5,-246 203.5,-252 197.5,-252"/>
<text text-anchor="middle" x="146.5" y="-231.5" font-family="sans" font-size="10.00" fill="#000000">adapterremoval_fastq_pe</text>
</g>
<!-- 3&#45;&gt;4 -->
<g id="edge7" class="edge">
<title>3&#45;&gt;4</title>
<path fill="none" stroke="#c0c0c0" stroke-width="2" d="M106.1265,-287.8314C112.346,-279.5386 119.8322,-269.557 126.66,-260.4533"/>
<polygon fill="#c0c0c0" stroke="#c0c0c0" stroke-width="2" points="129.49,-262.5133 132.69,-252.4133 123.89,-258.3133 129.49,-262.5133"/>
</g>
<!-- 4&#45;&gt;0 -->
<g id="edge1" class="edge">
<title>4&#45;&gt;0</title>
<path fill="none" stroke="#c0c0c0" stroke-width="2" d="M169.8909,-215.838C180.1333,-206.3937 191.0459,-193.9182 196.5,-180 214.446,-134.2041 190.2906,-78.1342 171.8682,-45.4048"/>
<polygon fill="#c0c0c0" stroke="#c0c0c0" stroke-width="2" points="174.691,-43.298 166.6262,-36.4271 168.646,-46.8276 174.691,-43.298"/>
</g>
<!-- 4&#45;&gt;1 -->
<g id="edge5" class="edge">
<title>4&#45;&gt;1</title>
<path fill="none" stroke="#c0c0c0" stroke-width="2" d="M131.386,-215.7768C124.1451,-205.8586 116.2476,-192.9858 112.5,-180 106.6267,-159.6486 110.2255,-135.8652 114.9708,-117.86"/>
<polygon fill="#c0c0c0" stroke="#c0c0c0" stroke-width="2" points="118.3329,-118.8325 117.7528,-108.2536 111.6091,-116.8852 118.3329,-118.8325"/>
</g>
<!-- 5 -->
<g id="node6" class="node">
<title>5</title>
<path fill="none" stroke="#56d89a" stroke-width="2" d="M175,-180C175,-180 134,-180 134,-180 128,-180 122,-174 122,-168 122,-168 122,-156 122,-156 122,-150 128,-144 134,-144 134,-144 175,-144 175,-144 181,-144 187,-150 187,-156 187,-156 187,-168 187,-168 187,-174 181,-180 175,-180"/>
<text text-anchor="middle" x="154.5" y="-159.5" font-family="sans" font-size="10.00" fill="#000000">fastqc_trim</text>
</g>
<!-- 4&#45;&gt;5 -->
<g id="edge8" class="edge">
<title>4&#45;&gt;5</title>
<path fill="none" stroke="#c0c0c0" stroke-width="2" d="M148.5187,-215.8314C149.3743,-208.131 150.3917,-198.9743 151.3426,-190.4166"/>
<polygon fill="#c0c0c0" stroke="#c0c0c0" stroke-width="2" points="154.8283,-190.7386 152.4541,-180.4133 147.8711,-189.9656 154.8283,-190.7386"/>
</g>
<!-- 5&#45;&gt;1 -->
<g id="edge4" class="edge">
<title>5&#45;&gt;1</title>
<path fill="none" stroke="#c0c0c0" stroke-width="2" d="M146.9297,-143.8314C143.6507,-135.9617 139.738,-126.5712 136.1055,-117.8533"/>
<polygon fill="#c0c0c0" stroke="#c0c0c0" stroke-width="2" points="139.2492,-116.2979 132.1722,-108.4133 132.7876,-118.9902 139.2492,-116.2979"/>
</g>
</g>
</svg>
