<?xml version="1.0" encoding="UTF-8" standalone="no"?>
<!DOCTYPE svg PUBLIC "-//W3C//DTD SVG 1.1//EN"
 "http://www.w3.org/Graphics/SVG/1.1/DTD/svg11.dtd">
<!-- Generated by graphviz version 2.40.1 (0)
 -->
<!-- Title: snakemake_dag Pages: 1 -->
<svg width="212pt" height="332pt"
 viewBox="0.00 0.00 211.57 332.00" xmlns="http://www.w3.org/2000/svg" xmlns:xlink="http://www.w3.org/1999/xlink">
<g id="graph0" class="graph" transform="scale(1 1) rotate(0) translate(4 328)">
<title>snakemake_dag</title>
<polygon fill="#ffffff" stroke="transparent" points="-4,4 -4,-328 207.5743,-328 207.5743,4 -4,4"/>
<!-- 0 -->
<g id="node1" class="node">
<title>0</title>
<path fill="none" stroke="#d89556" stroke-width="2" d="M169.5,-36C169.5,-36 139.5,-36 139.5,-36 133.5,-36 127.5,-30 127.5,-24 127.5,-24 127.5,-12 127.5,-12 127.5,-6 133.5,0 139.5,0 139.5,0 169.5,0 169.5,0 175.5,0 181.5,-6 181.5,-12 181.5,-12 181.5,-24 181.5,-24 181.5,-30 175.5,-36 169.5,-36"/>
<text text-anchor="middle" x="154.5" y="-15.5" font-family="sans" font-size="10.00" fill="#000000">all</text>
</g>
<!-- 1 -->
<g id="node2" class="node">
<title>1</title>
<path fill="none" stroke="#569ad8" stroke-width="2" d="M139.5,-108C139.5,-108 109.5,-108 109.5,-108 103.5,-108 97.5,-102 97.5,-96 97.5,-96 97.5,-84 97.5,-84 97.5,-78 103.5,-72 109.5,-72 109.5,-72 139.5,-72 139.5,-72 145.5,-72 151.5,-78 151.5,-84 151.5,-84 151.5,-96 151.5,-96 151.5,-102 145.5,-108 139.5,-108"/>
<text text-anchor="middle" x="124.5" y="-87.5" font-family="sans" font-size="10.00" fill="#000000">multiqc</text>
</g>
<!-- 1&#45;&gt;0 -->
<g id="edge1" class="edge">
<title>1&#45;&gt;0</title>
<path fill="none" stroke="#c0c0c0" stroke-width="2" d="M132.0703,-71.8314C135.3493,-63.9617 139.262,-54.5712 142.8945,-45.8533"/>
<polygon fill="#c0c0c0" stroke="#c0c0c0" stroke-width="2" points="146.2124,-46.9902 146.8278,-36.4133 139.7508,-44.2979 146.2124,-46.9902"/>
</g>
<!-- 2 -->
<g id="node3" class="node">
<title>2</title>
<path fill="none" stroke="#97d856" stroke-width="2" d="M53,-180C53,-180 12,-180 12,-180 6,-180 0,-174 0,-168 0,-168 0,-156 0,-156 0,-150 6,-144 12,-144 12,-144 53,-144 53,-144 59,-144 65,-150 65,-156 65,-156 65,-168 65,-168 65,-174 59,-180 53,-180"/>
<text text-anchor="middle" x="32.5" y="-159.5" font-family="sans" font-size="10.00" fill="#000000">fastqc_raw</text>
</g>
<!-- 2&#45;&gt;1 -->
<g id="edge5" class="edge">
<title>2&#45;&gt;1</title>
<path fill="none" stroke="#c0c0c0" stroke-width="2" d="M55.7155,-143.8314C67.047,-134.9632 80.8464,-124.1637 93.1027,-114.5718"/>
<polygon fill="#c0c0c0" stroke="#c0c0c0" stroke-width="2" points="95.574,-117.0822 101.2919,-108.1628 91.2598,-111.5697 95.574,-117.0822"/>
</g>
<!-- 3 -->
<g id="node4" class="node">
<title>3</title>
<path fill="none" stroke="#56d8d8" stroke-width="2" d="M119.5,-324C119.5,-324 65.5,-324 65.5,-324 59.5,-324 53.5,-318 53.5,-312 53.5,-312 53.5,-300 53.5,-300 53.5,-294 59.5,-288 65.5,-288 65.5,-288 119.5,-288 119.5,-288 125.5,-288 131.5,-294 131.5,-300 131.5,-300 131.5,-312 131.5,-312 131.5,-318 125.5,-324 119.5,-324"/>
<text text-anchor="middle" x="92.5" y="-303.5" font-family="sans" font-size="10.00" fill="#000000">get_fastq_raw</text>
</g>
<!-- 3&#45;&gt;2 -->
<g id="edge6" class="edge">
<title>3&#45;&gt;2</title>
<path fill="none" stroke="#c0c0c0" stroke-width="2" d="M84.901,-287.7623C74.5769,-262.9846 56.0297,-218.4714 43.9975,-189.5939"/>
<polygon fill="#c0c0c0" stroke="#c0c0c0" stroke-width="2" points="47.1143,-187.9742 40.0373,-180.0896 40.6528,-190.6666 47.1143,-187.9742"/>
</g>
<!-- 4 -->
<g id="node5" class="node">
<title>4</title>
<path fill="none" stroke="#d6d856" stroke-width="2" d="M169,-252C169,-252 112,-252 112,-252 106,-252 100,-246 100,-240 100,-240 100,-228 100,-228 100,-222 106,-216 112,-216 112,-216 169,-216 169,-216 175,-216 181,-222 181,-228 181,-228 181,-240 181,-240 181,-246 175,-252 169,-252"/>
<text text-anchor="middle" x="140.5" y="-231.5" font-family="sans" font-size="10.00" fill="#000000">fastp_fastq_pe</text>
</g>
<!-- 3&#45;&gt;4 -->
<g id="edge7" class="edge">
<title>3&#45;&gt;4</title>
<path fill="none" stroke="#c0c0c0" stroke-width="2" d="M104.6124,-287.8314C110.0281,-279.7079 116.5242,-269.9637 122.4921,-261.0118"/>
<polygon fill="#c0c0c0" stroke="#c0c0c0" stroke-width="2" points="125.5896,-262.6753 128.2245,-252.4133 119.7653,-258.7923 125.5896,-262.6753"/>
</g>
<!-- 4&#45;&gt;0 -->
<g id="edge2" class="edge">
<title>4&#45;&gt;0</title>
<path fill="none" stroke="#c0c0c0" stroke-width="2" d="M167.2231,-215.9104C178.5085,-206.6439 190.426,-194.295 196.5,-180 215.8386,-134.487 190.8985,-77.8857 172.0083,-45.0573"/>
<polygon fill="#c0c0c0" stroke="#c0c0c0" stroke-width="2" points="174.7707,-42.8563 166.6395,-36.0641 168.7602,-46.4445 174.7707,-42.8563"/>
</g>
<!-- 4&#45;&gt;1 -->
<g id="edge4" class="edge">
<title>4&#45;&gt;1</title>
<path fill="none" stroke="#c0c0c0" stroke-width="2" d="M128.3183,-215.882C122.2685,-205.7891 115.6022,-192.7221 112.5,-180 107.5053,-159.5168 111.0053,-135.87 115.487,-117.9566"/>
<polygon fill="#c0c0c0" stroke="#c0c0c0" stroke-width="2" points="118.9099,-118.7091 118.1824,-108.1392 112.1597,-116.8557 118.9099,-118.7091"/>
</g>
<!-- 5 -->
<g id="node6" class="node">
<title>5</title>
<path fill="none" stroke="#56d89a" stroke-width="2" d="M175,-180C175,-180 134,-180 134,-180 128,-180 122,-174 122,-168 122,-168 122,-156 122,-156 122,-150 128,-144 134,-144 134,-144 175,-144 175,-144 181,-144 187,-150 187,-156 187,-156 187,-168 187,-168 187,-174 181,-180 175,-180"/>
<text text-anchor="middle" x="154.5" y="-159.5" font-family="sans" font-size="10.00" fill="#000000">fastqc_trim</text>
</g>
<!-- 4&#45;&gt;5 -->
<g id="edge8" class="edge">
<title>4&#45;&gt;5</title>
<path fill="none" stroke="#c0c0c0" stroke-width="2" d="M144.0328,-215.8314C145.5301,-208.131 147.3105,-198.9743 148.9745,-190.4166"/>
<polygon fill="#c0c0c0" stroke="#c0c0c0" stroke-width="2" points="152.4465,-190.8975 150.9196,-180.4133 145.5752,-189.5614 152.4465,-190.8975"/>
</g>
<!-- 5&#45;&gt;1 -->
<g id="edge3" class="edge">
<title>5&#45;&gt;1</title>
<path fill="none" stroke="#c0c0c0" stroke-width="2" d="M146.9297,-143.8314C143.6507,-135.9617 139.738,-126.5712 136.1055,-117.8533"/>
<polygon fill="#c0c0c0" stroke="#c0c0c0" stroke-width="2" points="139.2492,-116.2979 132.1722,-108.4133 132.7876,-118.9902 139.2492,-116.2979"/>
</g>
</g>
</svg>
