<?xml version="1.0" encoding="UTF-8" standalone="no"?>
<!DOCTYPE svg PUBLIC "-//W3C//DTD SVG 1.1//EN"
 "http://www.w3.org/Graphics/SVG/1.1/DTD/svg11.dtd">
<!-- Generated by graphviz version 2.40.1 (0)
 -->
<!-- Title: snakemake_dag Pages: 1 -->
<svg width="195pt" height="332pt"
 viewBox="0.00 0.00 194.50 332.00" xmlns="http://www.w3.org/2000/svg" xmlns:xlink="http://www.w3.org/1999/xlink">
<g id="graph0" class="graph" transform="scale(1 1) rotate(0) translate(4 328)">
<title>snakemake_dag</title>
<polygon fill="#ffffff" stroke="transparent" points="-4,4 -4,-328 190.5,-328 190.5,4 -4,4"/>
<!-- 0 -->
<g id="node1" class="node">
<title>0</title>
<path fill="none" stroke="#97d856" stroke-width="2" d="M160.5,-36C160.5,-36 130.5,-36 130.5,-36 124.5,-36 118.5,-30 118.5,-24 118.5,-24 118.5,-12 118.5,-12 118.5,-6 124.5,0 130.5,0 130.5,0 160.5,0 160.5,0 166.5,0 172.5,-6 172.5,-12 172.5,-12 172.5,-24 172.5,-24 172.5,-30 166.5,-36 160.5,-36"/>
<text text-anchor="middle" x="145.5" y="-15.5" font-family="sans" font-size="10.00" fill="#000000">all</text>
</g>
<!-- 1 -->
<g id="node2" class="node">
<title>1</title>
<path fill="none" stroke="#569ad8" stroke-width="2" d="M130.5,-108C130.5,-108 100.5,-108 100.5,-108 94.5,-108 88.5,-102 88.5,-96 88.5,-96 88.5,-84 88.5,-84 88.5,-78 94.5,-72 100.5,-72 100.5,-72 130.5,-72 130.5,-72 136.5,-72 142.5,-78 142.5,-84 142.5,-84 142.5,-96 142.5,-96 142.5,-102 136.5,-108 130.5,-108"/>
<text text-anchor="middle" x="115.5" y="-87.5" font-family="sans" font-size="10.00" fill="#000000">multiqc</text>
</g>
<!-- 1&#45;&gt;0 -->
<g id="edge2" class="edge">
<title>1&#45;&gt;0</title>
<path fill="none" stroke="#c0c0c0" stroke-width="2" d="M123.0703,-71.8314C126.3493,-63.9617 130.262,-54.5712 133.8945,-45.8533"/>
<polygon fill="#c0c0c0" stroke="#c0c0c0" stroke-width="2" points="137.2124,-46.9902 137.8278,-36.4133 130.7508,-44.2979 137.2124,-46.9902"/>
</g>
<!-- 2 -->
<g id="node3" class="node">
<title>2</title>
<path fill="none" stroke="#59d856" stroke-width="2" d="M53,-180C53,-180 12,-180 12,-180 6,-180 0,-174 0,-168 0,-168 0,-156 0,-156 0,-150 6,-144 12,-144 12,-144 53,-144 53,-144 59,-144 65,-150 65,-156 65,-156 65,-168 65,-168 65,-174 59,-180 53,-180"/>
<text text-anchor="middle" x="32.5" y="-159.5" font-family="sans" font-size="10.00" fill="#000000">fastqc_raw</text>
</g>
<!-- 2&#45;&gt;1 -->
<g id="edge4" class="edge">
<title>2&#45;&gt;1</title>
<path fill="none" stroke="#c0c0c0" stroke-width="2" d="M53.4444,-143.8314C63.5691,-135.0485 75.8777,-124.3712 86.8548,-114.8489"/>
<polygon fill="#c0c0c0" stroke="#c0c0c0" stroke-width="2" points="89.3019,-117.3595 94.5623,-108.1628 84.7149,-112.0718 89.3019,-117.3595"/>
</g>
<!-- 3 -->
<g id="node4" class="node">
<title>3</title>
<path fill="none" stroke="#56d8d8" stroke-width="2" d="M104.5,-324C104.5,-324 50.5,-324 50.5,-324 44.5,-324 38.5,-318 38.5,-312 38.5,-312 38.5,-300 38.5,-300 38.5,-294 44.5,-288 50.5,-288 50.5,-288 104.5,-288 104.5,-288 110.5,-288 116.5,-294 116.5,-300 116.5,-300 116.5,-312 116.5,-312 116.5,-318 110.5,-324 104.5,-324"/>
<text text-anchor="middle" x="77.5" y="-303.5" font-family="sans" font-size="10.00" fill="#000000">get_fastq_raw</text>
</g>
<!-- 3&#45;&gt;2 -->
<g id="edge5" class="edge">
<title>3&#45;&gt;2</title>
<path fill="none" stroke="#c0c0c0" stroke-width="2" d="M67.4665,-287.9677C62.0929,-277.6852 55.7284,-264.4098 51.5,-252 44.6435,-231.8768 39.78,-208.3447 36.6909,-190.3908"/>
<polygon fill="#c0c0c0" stroke="#c0c0c0" stroke-width="2" points="40.1043,-189.5767 35.0352,-180.2732 33.1962,-190.7073 40.1043,-189.5767"/>
</g>
<!-- 5 -->
<g id="node6" class="node">
<title>5</title>
<path fill="none" stroke="#d89556" stroke-width="2" d="M174.5,-252C174.5,-252 72.5,-252 72.5,-252 66.5,-252 60.5,-246 60.5,-240 60.5,-240 60.5,-228 60.5,-228 60.5,-222 66.5,-216 72.5,-216 72.5,-216 174.5,-216 174.5,-216 180.5,-216 186.5,-222 186.5,-228 186.5,-228 186.5,-240 186.5,-240 186.5,-246 180.5,-252 174.5,-252"/>
<text text-anchor="middle" x="123.5" y="-231.5" font-family="sans" font-size="10.00" fill="#000000">adapterremoval_fastq_se</text>
</g>
<!-- 3&#45;&gt;5 -->
<g id="edge7" class="edge">
<title>3&#45;&gt;5</title>
<path fill="none" stroke="#c0c0c0" stroke-width="2" d="M89.1077,-287.8314C94.2978,-279.7079 100.5232,-269.9637 106.2425,-261.0118"/>
<polygon fill="#c0c0c0" stroke="#c0c0c0" stroke-width="2" points="109.3015,-262.7246 111.736,-252.4133 103.4026,-258.9559 109.3015,-262.7246"/>
</g>
<!-- 4 -->
<g id="node5" class="node">
<title>4</title>
<path fill="none" stroke="#56d89a" stroke-width="2" d="M136,-180C136,-180 95,-180 95,-180 89,-180 83,-174 83,-168 83,-168 83,-156 83,-156 83,-150 89,-144 95,-144 95,-144 136,-144 136,-144 142,-144 148,-150 148,-156 148,-156 148,-168 148,-168 148,-174 142,-180 136,-180"/>
<text text-anchor="middle" x="115.5" y="-159.5" font-family="sans" font-size="10.00" fill="#000000">fastqc_trim</text>
</g>
<!-- 4&#45;&gt;1 -->
<g id="edge3" class="edge">
<title>4&#45;&gt;1</title>
<path fill="none" stroke="#c0c0c0" stroke-width="2" d="M115.5,-143.8314C115.5,-136.131 115.5,-126.9743 115.5,-118.4166"/>
<polygon fill="#c0c0c0" stroke="#c0c0c0" stroke-width="2" points="119.0001,-118.4132 115.5,-108.4133 112.0001,-118.4133 119.0001,-118.4132"/>
</g>
<!-- 5&#45;&gt;0 -->
<g id="edge1" class="edge">
<title>5&#45;&gt;0</title>
<path fill="none" stroke="#c0c0c0" stroke-width="2" d="M138.1752,-215.7088C145.2046,-205.772 152.8695,-192.9031 156.5,-180 169.3145,-134.4559 160.5984,-78.9987 153.075,-46.2025"/>
<polygon fill="#c0c0c0" stroke="#c0c0c0" stroke-width="2" points="156.4551,-45.2894 150.703,-36.392 149.6511,-46.9345 156.4551,-45.2894"/>
</g>
<!-- 5&#45;&gt;4 -->
<g id="edge6" class="edge">
<title>5&#45;&gt;4</title>
<path fill="none" stroke="#c0c0c0" stroke-width="2" d="M121.4813,-215.8314C120.6257,-208.131 119.6083,-198.9743 118.6574,-190.4166"/>
<polygon fill="#c0c0c0" stroke="#c0c0c0" stroke-width="2" points="122.1289,-189.9656 117.5459,-180.4133 115.1717,-190.7386 122.1289,-189.9656"/>
</g>
</g>
</svg>
