<?xml version="1.0" encoding="UTF-8" standalone="no"?>
<!DOCTYPE svg PUBLIC "-//W3C//DTD SVG 1.1//EN"
 "http://www.w3.org/Graphics/SVG/1.1/DTD/svg11.dtd">
<!-- Generated by graphviz version 2.40.1 (0)
 -->
<!-- Title: snakemake_dag Pages: 1 -->
<svg width="763pt" height="359pt"
 viewBox="0.00 0.00 762.67 359.00" xmlns="http://www.w3.org/2000/svg" xmlns:xlink="http://www.w3.org/1999/xlink">
<g id="graph0" class="graph" transform="scale(1 1) rotate(0) translate(4 355)">
<title>snakemake_dag</title>
<polygon fill="#ffffff" stroke="transparent" points="-4,4 -4,-355 758.6732,-355 758.6732,4 -4,4"/>
<!-- 0 -->
<g id="node1" class="node">
<title>0</title>
<path fill="none" stroke="#97d856" stroke-width="2" d="M581.0915,-36C581.0915,-36 551.0915,-36 551.0915,-36 545.0915,-36 539.0915,-30 539.0915,-24 539.0915,-24 539.0915,-12 539.0915,-12 539.0915,-6 545.0915,0 551.0915,0 551.0915,0 581.0915,0 581.0915,0 587.0915,0 593.0915,-6 593.0915,-12 593.0915,-12 593.0915,-24 593.0915,-24 593.0915,-30 587.0915,-36 581.0915,-36"/>
<text text-anchor="middle" x="566.0915" y="-15.5" font-family="sans" font-size="10.00" fill="#000000">all</text>
</g>
<!-- 1 -->
<g id="node2" class="node">
<title>1</title>
<path fill="none" stroke="#d6d856" stroke-width="2" d="M386.0915,-108C386.0915,-108 356.0915,-108 356.0915,-108 350.0915,-108 344.0915,-102 344.0915,-96 344.0915,-96 344.0915,-84 344.0915,-84 344.0915,-78 350.0915,-72 356.0915,-72 356.0915,-72 386.0915,-72 386.0915,-72 392.0915,-72 398.0915,-78 398.0915,-84 398.0915,-84 398.0915,-96 398.0915,-96 398.0915,-102 392.0915,-108 386.0915,-108"/>
<text text-anchor="middle" x="371.0915" y="-87.5" font-family="sans" font-size="10.00" fill="#000000">multiqc</text>
</g>
<!-- 1&#45;&gt;0 -->
<g id="edge1" class="edge">
<title>1&#45;&gt;0</title>
<path fill="none" stroke="#c0c0c0" stroke-width="2" d="M398.2054,-79.9887C432.3085,-67.3968 491.0118,-45.7217 529.1847,-31.6271"/>
<polygon fill="#c0c0c0" stroke="#c0c0c0" stroke-width="2" points="530.7256,-34.7892 538.8942,-28.0421 528.3009,-28.2225 530.7256,-34.7892"/>
</g>
<!-- 2 -->
<g id="node3" class="node">
<title>2</title>
<path fill="none" stroke="#d85656" stroke-width="2" d="M230.5915,-252C230.5915,-252 189.5915,-252 189.5915,-252 183.5915,-252 177.5915,-246 177.5915,-240 177.5915,-240 177.5915,-228 177.5915,-228 177.5915,-222 183.5915,-216 189.5915,-216 189.5915,-216 230.5915,-216 230.5915,-216 236.5915,-216 242.5915,-222 242.5915,-228 242.5915,-228 242.5915,-240 242.5915,-240 242.5915,-246 236.5915,-252 230.5915,-252"/>
<text text-anchor="middle" x="210.0915" y="-231.5" font-family="sans" font-size="10.00" fill="#000000">fastqc_raw</text>
</g>
<!-- 2&#45;&gt;1 -->
<g id="edge3" class="edge">
<title>2&#45;&gt;1</title>
<path fill="none" stroke="#c0c0c0" stroke-width="2" d="M177.4058,-231.1391C108.9205,-223.9467 -39.3651,-201.4047 10.0915,-144 31.0829,-119.635 245.7758,-99.9565 333.7755,-92.8525"/>
<polygon fill="#c0c0c0" stroke="#c0c0c0" stroke-width="2" points="334.1673,-96.3324 343.8576,-92.049 333.6111,-89.3545 334.1673,-96.3324"/>
</g>
<!-- 3 -->
<g id="node4" class="node">
<title>3</title>
<path fill="none" stroke="#569ad8" stroke-width="2" d="M302.5915,-351C302.5915,-351 189.5915,-351 189.5915,-351 183.5915,-351 177.5915,-345 177.5915,-339 177.5915,-339 177.5915,-300 177.5915,-300 177.5915,-294 183.5915,-288 189.5915,-288 189.5915,-288 302.5915,-288 302.5915,-288 308.5915,-288 314.5915,-294 314.5915,-300 314.5915,-300 314.5915,-339 314.5915,-339 314.5915,-345 308.5915,-351 302.5915,-351"/>
<text text-anchor="middle" x="246.0915" y="-339" font-family="sans" font-size="10.00" fill="#000000">get_fastq_raw</text>
<text text-anchor="middle" x="246.0915" y="-328" font-family="sans" font-size="10.00" fill="#000000">lane: L001</text>
<text text-anchor="middle" x="246.0915" y="-317" font-family="sans" font-size="10.00" fill="#000000">library: lib1</text>
<text text-anchor="middle" x="246.0915" y="-306" font-family="sans" font-size="10.00" fill="#000000">read_type_raw: R1</text>
<text text-anchor="middle" x="246.0915" y="-295" font-family="sans" font-size="10.00" fill="#000000">sample: HD827sonic_small</text>
</g>
<!-- 3&#45;&gt;2 -->
<g id="edge11" class="edge">
<title>3&#45;&gt;2</title>
<path fill="none" stroke="#c0c0c0" stroke-width="2" d="M232.6864,-287.663C229.0655,-279.0635 225.1789,-269.8326 221.6675,-261.4932"/>
<polygon fill="#c0c0c0" stroke="#c0c0c0" stroke-width="2" points="224.8628,-260.0624 217.7564,-252.2043 218.4113,-262.7789 224.8628,-260.0624"/>
</g>
<!-- 6 -->
<g id="node7" class="node">
<title>6</title>
<path fill="none" stroke="#d89556" stroke-width="2" d="M422.0915,-252C422.0915,-252 320.0915,-252 320.0915,-252 314.0915,-252 308.0915,-246 308.0915,-240 308.0915,-240 308.0915,-228 308.0915,-228 308.0915,-222 314.0915,-216 320.0915,-216 320.0915,-216 422.0915,-216 422.0915,-216 428.0915,-216 434.0915,-222 434.0915,-228 434.0915,-228 434.0915,-240 434.0915,-240 434.0915,-246 428.0915,-252 422.0915,-252"/>
<text text-anchor="middle" x="371.0915" y="-231.5" font-family="sans" font-size="10.00" fill="#000000">adapterremoval_fastq_pe</text>
</g>
<!-- 3&#45;&gt;6 -->
<g id="edge13" class="edge">
<title>3&#45;&gt;6</title>
<path fill="none" stroke="#c0c0c0" stroke-width="2" d="M292.2817,-287.9059C306.7724,-277.9943 322.5207,-267.2224 336.1033,-257.9319"/>
<polygon fill="#c0c0c0" stroke="#c0c0c0" stroke-width="2" points="338.4033,-260.5991 344.6813,-252.0646 334.4514,-254.8214 338.4033,-260.5991"/>
</g>
<!-- 4 -->
<g id="node5" class="node">
<title>4</title>
<path fill="none" stroke="#d85656" stroke-width="2" d="M662.5915,-252C662.5915,-252 621.5915,-252 621.5915,-252 615.5915,-252 609.5915,-246 609.5915,-240 609.5915,-240 609.5915,-228 609.5915,-228 609.5915,-222 615.5915,-216 621.5915,-216 621.5915,-216 662.5915,-216 662.5915,-216 668.5915,-216 674.5915,-222 674.5915,-228 674.5915,-228 674.5915,-240 674.5915,-240 674.5915,-246 668.5915,-252 662.5915,-252"/>
<text text-anchor="middle" x="642.0915" y="-231.5" font-family="sans" font-size="10.00" fill="#000000">fastqc_raw</text>
</g>
<!-- 4&#45;&gt;1 -->
<g id="edge4" class="edge">
<title>4&#45;&gt;1</title>
<path fill="none" stroke="#c0c0c0" stroke-width="2" d="M674.8941,-225.8881C698.1288,-218.2413 727.6377,-204.2315 742.0915,-180 750.2879,-166.2589 752.5587,-156.1011 742.0915,-144 720.383,-118.9031 497.8426,-99.5242 408.2047,-92.6788"/>
<polygon fill="#c0c0c0" stroke="#c0c0c0" stroke-width="2" points="408.4379,-89.1865 398.2032,-91.9251 407.9118,-96.1668 408.4379,-89.1865"/>
</g>
<!-- 5 -->
<g id="node6" class="node">
<title>5</title>
<path fill="none" stroke="#569ad8" stroke-width="2" d="M475.5915,-351C475.5915,-351 362.5915,-351 362.5915,-351 356.5915,-351 350.5915,-345 350.5915,-339 350.5915,-339 350.5915,-300 350.5915,-300 350.5915,-294 356.5915,-288 362.5915,-288 362.5915,-288 475.5915,-288 475.5915,-288 481.5915,-288 487.5915,-294 487.5915,-300 487.5915,-300 487.5915,-339 487.5915,-339 487.5915,-345 481.5915,-351 475.5915,-351"/>
<text text-anchor="middle" x="419.0915" y="-339" font-family="sans" font-size="10.00" fill="#000000">get_fastq_raw</text>
<text text-anchor="middle" x="419.0915" y="-328" font-family="sans" font-size="10.00" fill="#000000">lane: L001</text>
<text text-anchor="middle" x="419.0915" y="-317" font-family="sans" font-size="10.00" fill="#000000">library: lib1</text>
<text text-anchor="middle" x="419.0915" y="-306" font-family="sans" font-size="10.00" fill="#000000">read_type_raw: R2</text>
<text text-anchor="middle" x="419.0915" y="-295" font-family="sans" font-size="10.00" fill="#000000">sample: HD827sonic_small</text>
</g>
<!-- 5&#45;&gt;4 -->
<g id="edge12" class="edge">
<title>5&#45;&gt;4</title>
<path fill="none" stroke="#c0c0c0" stroke-width="2" d="M487.8184,-293.1495C524.467,-279.0982 568.3822,-262.2607 599.9699,-250.1498"/>
<polygon fill="#c0c0c0" stroke="#c0c0c0" stroke-width="2" points="601.2713,-253.3993 609.3555,-246.5512 598.7653,-246.8632 601.2713,-253.3993"/>
</g>
<!-- 5&#45;&gt;6 -->
<g id="edge14" class="edge">
<title>5&#45;&gt;6</title>
<path fill="none" stroke="#c0c0c0" stroke-width="2" d="M401.218,-287.663C396.2853,-278.8765 390.9825,-269.4309 386.2216,-260.9506"/>
<polygon fill="#c0c0c0" stroke="#c0c0c0" stroke-width="2" points="389.2588,-259.2108 381.3114,-252.2043 383.1549,-262.6375 389.2588,-259.2108"/>
</g>
<!-- 6&#45;&gt;0 -->
<g id="edge2" class="edge">
<title>6&#45;&gt;0</title>
<path fill="none" stroke="#c0c0c0" stroke-width="2" d="M434.2917,-229.2631C534.9122,-221.0734 722.2646,-202.9216 742.0915,-180 794.4212,-119.5021 668.3736,-58.3333 602.7444,-31.7506"/>
<polygon fill="#c0c0c0" stroke="#c0c0c0" stroke-width="2" points="603.7328,-28.3772 593.1472,-27.935 601.1466,-34.8819 603.7328,-28.3772"/>
</g>
<!-- 6&#45;&gt;1 -->
<g id="edge5" class="edge">
<title>6&#45;&gt;1</title>
<path fill="none" stroke="#c0c0c0" stroke-width="2" d="M307.9361,-222.9054C262.8954,-213.5575 207.9518,-198.7197 194.0915,-180 155.1302,-127.3795 271.4037,-103.2998 334.0192,-94.3753"/>
<polygon fill="#c0c0c0" stroke="#c0c0c0" stroke-width="2" points="334.5057,-97.8414 343.9417,-93.0234 333.5607,-90.9055 334.5057,-97.8414"/>
</g>
<!-- 7 -->
<g id="node8" class="node">
<title>7</title>
<path fill="none" stroke="#56d89a" stroke-width="2" d="M291.0915,-180C291.0915,-180 215.0915,-180 215.0915,-180 209.0915,-180 203.0915,-174 203.0915,-168 203.0915,-168 203.0915,-156 203.0915,-156 203.0915,-150 209.0915,-144 215.0915,-144 215.0915,-144 291.0915,-144 291.0915,-144 297.0915,-144 303.0915,-150 303.0915,-156 303.0915,-156 303.0915,-168 303.0915,-168 303.0915,-174 297.0915,-180 291.0915,-180"/>
<text text-anchor="middle" x="253.0915" y="-165" font-family="sans" font-size="10.00" fill="#000000">fastqc_trim</text>
<text text-anchor="middle" x="253.0915" y="-154" font-family="sans" font-size="10.00" fill="#000000">read_type_trim: R2</text>
</g>
<!-- 6&#45;&gt;7 -->
<g id="edge15" class="edge">
<title>6&#45;&gt;7</title>
<path fill="none" stroke="#c0c0c0" stroke-width="2" d="M341.3151,-215.8314C326.2222,-206.6221 307.7158,-195.3301 291.5572,-185.4706"/>
<polygon fill="#c0c0c0" stroke="#c0c0c0" stroke-width="2" points="293.2178,-182.3838 282.8583,-180.1628 289.5717,-188.3593 293.2178,-182.3838"/>
</g>
<!-- 8 -->
<g id="node9" class="node">
<title>8</title>
<path fill="none" stroke="#56d89a" stroke-width="2" d="M409.0915,-180C409.0915,-180 333.0915,-180 333.0915,-180 327.0915,-180 321.0915,-174 321.0915,-168 321.0915,-168 321.0915,-156 321.0915,-156 321.0915,-150 327.0915,-144 333.0915,-144 333.0915,-144 409.0915,-144 409.0915,-144 415.0915,-144 421.0915,-150 421.0915,-156 421.0915,-156 421.0915,-168 421.0915,-168 421.0915,-174 415.0915,-180 409.0915,-180"/>
<text text-anchor="middle" x="371.0915" y="-165" font-family="sans" font-size="10.00" fill="#000000">fastqc_trim</text>
<text text-anchor="middle" x="371.0915" y="-154" font-family="sans" font-size="10.00" fill="#000000">read_type_trim: R1</text>
</g>
<!-- 6&#45;&gt;8 -->
<g id="edge16" class="edge">
<title>6&#45;&gt;8</title>
<path fill="none" stroke="#c0c0c0" stroke-width="2" d="M371.0915,-215.8314C371.0915,-208.131 371.0915,-198.9743 371.0915,-190.4166"/>
<polygon fill="#c0c0c0" stroke="#c0c0c0" stroke-width="2" points="374.5916,-190.4132 371.0915,-180.4133 367.5916,-190.4133 374.5916,-190.4132"/>
</g>
<!-- 9 -->
<g id="node10" class="node">
<title>9</title>
<path fill="none" stroke="#56d89a" stroke-width="2" d="M553.0915,-180C553.0915,-180 451.0915,-180 451.0915,-180 445.0915,-180 439.0915,-174 439.0915,-168 439.0915,-168 439.0915,-156 439.0915,-156 439.0915,-150 445.0915,-144 451.0915,-144 451.0915,-144 553.0915,-144 553.0915,-144 559.0915,-144 565.0915,-150 565.0915,-156 565.0915,-156 565.0915,-168 565.0915,-168 565.0915,-174 559.0915,-180 553.0915,-180"/>
<text text-anchor="middle" x="502.0915" y="-165" font-family="sans" font-size="10.00" fill="#000000">fastqc_trim</text>
<text text-anchor="middle" x="502.0915" y="-154" font-family="sans" font-size="10.00" fill="#000000">read_type_trim: singleton</text>
</g>
<!-- 6&#45;&gt;9 -->
<g id="edge17" class="edge">
<title>6&#45;&gt;9</title>
<path fill="none" stroke="#c0c0c0" stroke-width="2" d="M404.1483,-215.8314C421.0591,-206.5368 441.83,-195.1208 459.8856,-185.1971"/>
<polygon fill="#c0c0c0" stroke="#c0c0c0" stroke-width="2" points="461.9675,-188.0468 469.0452,-180.1628 458.5958,-181.9122 461.9675,-188.0468"/>
</g>
<!-- 10 -->
<g id="node11" class="node">
<title>10</title>
<path fill="none" stroke="#56d89a" stroke-width="2" d="M721.0915,-180C721.0915,-180 595.0915,-180 595.0915,-180 589.0915,-180 583.0915,-174 583.0915,-168 583.0915,-168 583.0915,-156 583.0915,-156 583.0915,-150 589.0915,-144 595.0915,-144 595.0915,-144 721.0915,-144 721.0915,-144 727.0915,-144 733.0915,-150 733.0915,-156 733.0915,-156 733.0915,-168 733.0915,-168 733.0915,-174 727.0915,-180 721.0915,-180"/>
<text text-anchor="middle" x="658.0915" y="-165" font-family="sans" font-size="10.00" fill="#000000">fastqc_trim</text>
<text text-anchor="middle" x="658.0915" y="-154" font-family="sans" font-size="10.00" fill="#000000">read_type_trim: collapsedtrunc</text>
</g>
<!-- 6&#45;&gt;10 -->
<g id="edge18" class="edge">
<title>6&#45;&gt;10</title>
<path fill="none" stroke="#c0c0c0" stroke-width="2" d="M434.4301,-218.1102C476.2612,-207.616 531.473,-193.7649 576.5735,-182.4505"/>
<polygon fill="#c0c0c0" stroke="#c0c0c0" stroke-width="2" points="577.481,-185.8314 586.3287,-180.0032 575.7776,-179.0418 577.481,-185.8314"/>
</g>
<!-- 11 -->
<g id="node12" class="node">
<title>11</title>
<path fill="none" stroke="#56d89a" stroke-width="2" d="M135.0915,-180C135.0915,-180 31.0915,-180 31.0915,-180 25.0915,-180 19.0915,-174 19.0915,-168 19.0915,-168 19.0915,-156 19.0915,-156 19.0915,-150 25.0915,-144 31.0915,-144 31.0915,-144 135.0915,-144 135.0915,-144 141.0915,-144 147.0915,-150 147.0915,-156 147.0915,-156 147.0915,-168 147.0915,-168 147.0915,-174 141.0915,-180 135.0915,-180"/>
<text text-anchor="middle" x="83.0915" y="-165" font-family="sans" font-size="10.00" fill="#000000">fastqc_trim</text>
<text text-anchor="middle" x="83.0915" y="-154" font-family="sans" font-size="10.00" fill="#000000">read_type_trim: collapsed</text>
</g>
<!-- 6&#45;&gt;11 -->
<g id="edge19" class="edge">
<title>6&#45;&gt;11</title>
<path fill="none" stroke="#c0c0c0" stroke-width="2" d="M307.8886,-218.1993C263.368,-207.0691 203.6128,-192.1303 156.9016,-180.4525"/>
<polygon fill="#c0c0c0" stroke="#c0c0c0" stroke-width="2" points="157.6924,-177.0426 147.1421,-178.0127 155.9946,-183.8336 157.6924,-177.0426"/>
</g>
<!-- 7&#45;&gt;1 -->
<g id="edge6" class="edge">
<title>7&#45;&gt;1</title>
<path fill="none" stroke="#c0c0c0" stroke-width="2" d="M282.8678,-143.8314C298.652,-134.2003 318.1695,-122.2913 334.8307,-112.1252"/>
<polygon fill="#c0c0c0" stroke="#c0c0c0" stroke-width="2" points="337.0378,-114.8787 343.7511,-106.6822 333.3917,-108.9032 337.0378,-114.8787"/>
</g>
<!-- 8&#45;&gt;1 -->
<g id="edge7" class="edge">
<title>8&#45;&gt;1</title>
<path fill="none" stroke="#c0c0c0" stroke-width="2" d="M371.0915,-143.8314C371.0915,-136.131 371.0915,-126.9743 371.0915,-118.4166"/>
<polygon fill="#c0c0c0" stroke="#c0c0c0" stroke-width="2" points="374.5916,-118.4132 371.0915,-108.4133 367.5916,-118.4133 374.5916,-118.4132"/>
</g>
<!-- 9&#45;&gt;1 -->
<g id="edge8" class="edge">
<title>9&#45;&gt;1</title>
<path fill="none" stroke="#c0c0c0" stroke-width="2" d="M469.0346,-143.8314C450.1898,-133.4739 426.5516,-120.4819 407.219,-109.8563"/>
<polygon fill="#c0c0c0" stroke="#c0c0c0" stroke-width="2" points="408.8433,-106.7553 398.3939,-105.0059 405.4716,-112.8898 408.8433,-106.7553"/>
</g>
<!-- 10&#45;&gt;1 -->
<g id="edge9" class="edge">
<title>10&#45;&gt;1</title>
<path fill="none" stroke="#c0c0c0" stroke-width="2" d="M586.0397,-143.9243C529.505,-129.7414 453.1065,-110.5752 408.2637,-99.3254"/>
<polygon fill="#c0c0c0" stroke="#c0c0c0" stroke-width="2" points="408.9345,-95.8853 398.3834,-96.8468 407.2311,-102.6749 408.9345,-95.8853"/>
</g>
<!-- 11&#45;&gt;1 -->
<g id="edge10" class="edge">
<title>11&#45;&gt;1</title>
<path fill="none" stroke="#c0c0c0" stroke-width="2" d="M147.3658,-145.9314C204.8208,-131.5677 287.002,-111.0224 334.1101,-99.2453"/>
<polygon fill="#c0c0c0" stroke="#c0c0c0" stroke-width="2" points="335.0372,-102.6214 343.8897,-96.8004 333.3394,-95.8304 335.0372,-102.6214"/>
</g>
</g>
</svg>
