<?xml version="1.0" encoding="UTF-8" standalone="no"?>
<!DOCTYPE svg PUBLIC "-//W3C//DTD SVG 1.1//EN"
 "http://www.w3.org/Graphics/SVG/1.1/DTD/svg11.dtd">
<!-- Generated by graphviz version 2.40.1 (0)
 -->
<!-- Title: snakemake_dag Pages: 1 -->
<svg width="1670pt" height="1186pt"
 viewBox="0.00 0.00 1669.69 1186.00" xmlns="http://www.w3.org/2000/svg" xmlns:xlink="http://www.w3.org/1999/xlink">
<g id="graph0" class="graph" transform="scale(1 1) rotate(0) translate(4 1182)">
<title>snakemake_dag</title>
<polygon fill="#ffffff" stroke="transparent" points="-4,4 -4,-1182 1665.6852,-1182 1665.6852,4 -4,4"/>
<!-- 0 -->
<g id="node1" class="node">
<title>0</title>
<text text-anchor="start" x="1152.5" y="-161.6" font-family="sans" font-weight="bold" font-size="18.00" fill="#000000">all</text>
<text text-anchor="start" x="955.5" y="-137.8" font-family="sans" font-size="10.00" fill="#000000"> </text>
<text text-anchor="start" x="959.5" y="-137.8" font-family="sans" font-weight="bold" font-size="14.00" fill="#000000">↪ input</text>
<text text-anchor="start" x="1012.5" y="-137.8" font-family="sans" font-size="10.00" fill="#000000"> </text>
<text text-anchor="start" x="955.5" y="-118" font-family="monospace" font-size="10.00" fill="#000000">reports/multiqc.html</text>
<text text-anchor="start" x="955.5" y="-100" font-family="monospace" font-size="10.00" fill="#000000">results/reads/trim/HD827sonic_small_lib1_L001_R1.fastq.gz</text>
<text text-anchor="start" x="955.5" y="-82" font-family="monospace" font-size="10.00" fill="#000000">results/reads/trim/HD827sonic_small_lib1_L001_R2.fastq.gz</text>
<text text-anchor="start" x="955.5" y="-64" font-family="monospace" font-size="10.00" fill="#000000">results/reads/trim/HD827sonic_small_lib1_L001_collapsed.fastq.gz</text>
<text text-anchor="start" x="955.5" y="-46" font-family="monospace" font-size="10.00" fill="#000000">results/reads/trim/HD827sonic_small_lib1_L001_collapsedtrunc.fastq.gz</text>
<text text-anchor="start" x="955.5" y="-28" font-family="monospace" font-size="10.00" fill="#000000">results/reads/trim/HD827sonic_small_lib1_L001_singleton.fastq.gz</text>
<text text-anchor="start" x="1363.5" y="-10" font-family="sans" font-size="10.00" fill="#000000"> &#160;</text>
<polygon fill="#d99857" stroke="#d99857" points="949.5,-152 949.5,-152 1377.5,-152 1377.5,-152 949.5,-152"/>
<polygon fill="#d99857" stroke="#d99857" points="949.5,-22 949.5,-22 1377.5,-22 1377.5,-22 949.5,-22"/>
<polygon fill="none" stroke="#d99857" stroke-width="2" points="949,-1 949,-181 1376,-181 1376,-1 949,-1"/>
</g>
<!-- 1 -->
<g id="node2" class="node">
<title>1</title>
<text text-anchor="start" x="895.5" y="-581.6" font-family="sans" font-weight="bold" font-size="18.00" fill="#000000">multiqc</text>
<text text-anchor="start" x="699.5" y="-557.8" font-family="sans" font-size="10.00" fill="#000000"> </text>
<text text-anchor="start" x="703.5" y="-557.8" font-family="sans" font-weight="bold" font-size="14.00" fill="#000000">↪ input</text>
<text text-anchor="start" x="756.5" y="-557.8" font-family="sans" font-size="10.00" fill="#000000"> </text>
<text text-anchor="start" x="699.5" y="-538" font-family="monospace" font-size="10.00" fill="#000000">stats/reads/fastqc_raw/HD827sonic_small_lib1_L001_R1.html</text>
<text text-anchor="start" x="699.5" y="-520" font-family="monospace" font-size="10.00" fill="#000000">stats/reads/fastqc_raw/HD827sonic_small_lib1_L001_R1_fastqc.zip</text>
<text text-anchor="start" x="699.5" y="-502" font-family="monospace" font-size="10.00" fill="#000000">stats/reads/fastqc_raw/HD827sonic_small_lib1_L001_R2.html</text>
<text text-anchor="start" x="699.5" y="-484" font-family="monospace" font-size="10.00" fill="#000000">stats/reads/fastqc_raw/HD827sonic_small_lib1_L001_R2_fastqc.zip</text>
<text text-anchor="start" x="699.5" y="-466" font-family="monospace" font-size="10.00" fill="#000000">stats/reads/fastqc_trim/HD827sonic_small_lib1_L001_R1.html</text>
<text text-anchor="start" x="699.5" y="-448" font-family="monospace" font-size="10.00" fill="#000000">stats/reads/fastqc_trim/HD827sonic_small_lib1_L001_R1_fastqc.zip</text>
<text text-anchor="start" x="699.5" y="-430" font-family="monospace" font-size="10.00" fill="#000000">stats/reads/fastqc_trim/HD827sonic_small_lib1_L001_R2.html</text>
<text text-anchor="start" x="699.5" y="-412" font-family="monospace" font-size="10.00" fill="#000000">stats/reads/fastqc_trim/HD827sonic_small_lib1_L001_R2_fastqc.zip</text>
<text text-anchor="start" x="699.5" y="-394" font-family="monospace" font-size="10.00" fill="#000000">stats/reads/fastqc_trim/HD827sonic_small_lib1_L001_collapsed.html</text>
<text text-anchor="start" x="699.5" y="-376" font-family="monospace" font-size="10.00" fill="#000000">stats/reads/fastqc_trim/HD827sonic_small_lib1_L001_collapsed_fastqc.zip</text>
<text text-anchor="start" x="699.5" y="-358" font-family="monospace" font-size="10.00" fill="#000000">stats/reads/fastqc_trim/HD827sonic_small_lib1_L001_collapsedtrunc.html</text>
<text text-anchor="start" x="699.5" y="-340" font-family="monospace" font-size="10.00" fill="#000000">stats/reads/fastqc_trim/HD827sonic_small_lib1_L001_collapsedtrunc_fastqc.zip</text>
<text text-anchor="start" x="699.5" y="-322" font-family="monospace" font-size="10.00" fill="#000000">stats/reads/fastqc_trim/HD827sonic_small_lib1_L001_singleton.html</text>
<text text-anchor="start" x="699.5" y="-304" font-family="monospace" font-size="10.00" fill="#000000">stats/reads/fastqc_trim/HD827sonic_small_lib1_L001_singleton_fastqc.zip</text>
<text text-anchor="start" x="699.5" y="-286" font-family="monospace" font-size="10.00" fill="#000000">stats/reads/trim/HD827sonic_small_lib1_L001_pe.settings</text>
<text text-anchor="start" x="1087.5" y="-265.8" font-family="sans" font-size="10.00" fill="#000000"> </text>
<text text-anchor="start" x="1091.5" y="-265.8" font-family="sans" font-weight="bold" font-size="14.00" fill="#000000">output →</text>
<text text-anchor="start" x="1152.5" y="-265.8" font-family="sans" font-size="10.00" fill="#000000"> </text>
<text text-anchor="start" x="699.5" y="-246" font-family="monospace" font-size="10.00" fill="#000000">reports/multiqc.html</text>
<text text-anchor="start" x="699.5" y="-228" font-family="monospace" font-size="10.00" fill="#000000">reports/multiqc_data.zip</text>
<polygon fill="#57d957" stroke="#57d957" points="693.5,-572 693.5,-572 1163.5,-572 1163.5,-572 693.5,-572"/>
<polygon fill="#57d957" stroke="#57d957" points="693.5,-280 693.5,-280 1163.5,-280 1163.5,-280 693.5,-280"/>
<polygon fill="none" stroke="#57d957" stroke-width="2" points="693,-219 693,-601 1162,-601 1162,-219 693,-219"/>
</g>
<!-- 1&#45;&gt;0 -->
<g id="edge1" class="edge">
<title>1&#45;&gt;0</title>
<path fill="none" stroke="#c0c0c0" stroke-width="2" d="M1068.9465,-217.9938C1075.868,-208.5984 1082.6736,-199.3601 1089.2618,-190.417"/>
<polygon fill="#c0c0c0" stroke="#c0c0c0" stroke-width="2" points="1092.1349,-192.4179 1095.2482,-182.2908 1086.4991,-188.2661 1092.1349,-192.4179"/>
</g>
<!-- 2 -->
<g id="node3" class="node">
<title>2</title>
<text text-anchor="start" x="285" y="-749.6" font-family="sans" font-weight="bold" font-size="18.00" fill="#000000">fastqc_raw</text>
<text text-anchor="start" x="7.5" y="-725.8" font-family="sans" font-size="10.00" fill="#000000"> </text>
<text text-anchor="start" x="11.5" y="-725.8" font-family="sans" font-weight="bold" font-size="14.00" fill="#000000">↪ input</text>
<text text-anchor="start" x="64.5" y="-725.8" font-family="sans" font-size="10.00" fill="#000000"> </text>
<text text-anchor="start" x="7.5" y="-706" font-family="monospace" font-size="10.00" fill="#000000">results/reads/raw/{sample}_{library}_{lane}_{read_type_raw}.fastq.gz</text>
<text text-anchor="start" x="587.5" y="-685.8" font-family="sans" font-size="10.00" fill="#000000"> </text>
<text text-anchor="start" x="591.5" y="-685.8" font-family="sans" font-weight="bold" font-size="14.00" fill="#000000">output →</text>
<text text-anchor="start" x="652.5" y="-685.8" font-family="sans" font-size="10.00" fill="#000000"> </text>
<text text-anchor="start" x="7.5" y="-666" font-family="monospace" font-size="10.00" fill="#000000">stats/reads/fastqc_raw/{sample,HD827sonic_small}_{library,lib1}_{lane,L001}_{read_type_raw,R1|R2}.html</text>
<text text-anchor="start" x="7.5" y="-648" font-family="monospace" font-size="10.00" fill="#000000">stats/reads/fastqc_raw/{sample,HD827sonic_small}_{library,lib1}_{lane,L001}_{read_type_raw,R1|R2}_fastqc.zip</text>
<polygon fill="#98d957" stroke="#98d957" points="1.5,-740 1.5,-740 663.5,-740 663.5,-740 1.5,-740"/>
<polygon fill="#98d957" stroke="#98d957" points="1.5,-700 1.5,-700 663.5,-700 663.5,-700 1.5,-700"/>
<polygon fill="none" stroke="#98d957" stroke-width="2" points="1,-639 1,-769 662,-769 662,-639 1,-639"/>
</g>
<!-- 2&#45;&gt;1 -->
<g id="edge3" class="edge">
<title>2&#45;&gt;1</title>
<path fill="none" stroke="#c0c0c0" stroke-width="2" d="M465.6254,-637.8375C529.7828,-606.1893 608.6477,-567.2862 682.9328,-530.6422"/>
<polygon fill="#c0c0c0" stroke="#c0c0c0" stroke-width="2" points="684.5482,-533.7481 691.968,-526.1852 681.4514,-527.4703 684.5482,-533.7481"/>
</g>
<!-- 3 -->
<g id="node4" class="node">
<title>3</title>
<text text-anchor="start" x="686.5" y="-1157.6" font-family="sans" font-weight="bold" font-size="18.00" fill="#000000">get_fastq_raw</text>
<text text-anchor="start" x="443.5" y="-1133.8" font-family="sans" font-size="10.00" fill="#000000"> </text>
<text text-anchor="start" x="447.5" y="-1133.8" font-family="sans" font-weight="bold" font-size="14.00" fill="#000000">↪ input</text>
<text text-anchor="start" x="500.5" y="-1133.8" font-family="sans" font-size="10.00" fill="#000000"> </text>
<text text-anchor="start" x="443.5" y="-1114" font-family="monospace" font-size="10.00" fill="#000000">&lt;input function&gt;</text>
<text text-anchor="start" x="981.5" y="-1093.8" font-family="sans" font-size="10.00" fill="#000000"> </text>
<text text-anchor="start" x="985.5" y="-1093.8" font-family="sans" font-weight="bold" font-size="14.00" fill="#000000">output →</text>
<text text-anchor="start" x="1046.5" y="-1093.8" font-family="sans" font-size="10.00" fill="#000000"> </text>
<text text-anchor="start" x="443.5" y="-1074" font-family="monospace" font-size="10.00" fill="#000000">results/reads/raw/{sample,HD827sonic_small}_{library,lib1}_{lane,L001}_{read_type_raw,R1|R2}.fastq.gz</text>
<polygon fill="#57d9d9" stroke="#57d9d9" points="437.5,-1148 437.5,-1148 1057.5,-1148 1057.5,-1148 437.5,-1148"/>
<polygon fill="#57d9d9" stroke="#57d9d9" points="437.5,-1108 437.5,-1108 1057.5,-1108 1057.5,-1108 437.5,-1108"/>
<polygon fill="none" stroke="#57d9d9" stroke-width="2" points="437,-1065 437,-1177 1056,-1177 1056,-1065 437,-1065"/>
</g>
<!-- 3&#45;&gt;2 -->
<g id="edge6" class="edge">
<title>3&#45;&gt;2</title>
<path fill="none" stroke="#c0c0c0" stroke-width="2" d="M666.9973,-1063.7784C652.4702,-1052.3844 637.7335,-1040.1676 624.5,-1028 537.8185,-948.3001 448.5024,-846.0934 391.6335,-777.9987"/>
<polygon fill="#c0c0c0" stroke="#c0c0c0" stroke-width="2" points="394.2944,-775.7246 385.2049,-770.281 388.9158,-780.2047 394.2944,-775.7246"/>
</g>
<!-- 4 -->
<g id="node5" class="node">
<title>4</title>
<text text-anchor="start" x="819" y="-1007.6" font-family="sans" font-weight="bold" font-size="18.00" fill="#000000">adapterremoval_fastq_pe</text>
<text text-anchor="start" x="641.5" y="-983.8" font-family="sans" font-size="10.00" fill="#000000"> </text>
<text text-anchor="start" x="645.5" y="-983.8" font-family="sans" font-weight="bold" font-size="14.00" fill="#000000">↪ input</text>
<text text-anchor="start" x="698.5" y="-983.8" font-family="sans" font-size="10.00" fill="#000000"> </text>
<text text-anchor="start" x="641.5" y="-964" font-family="monospace" font-size="10.00" fill="#000000">&lt;input function&gt;</text>
<text text-anchor="start" x="1143.5" y="-943.8" font-family="sans" font-size="10.00" fill="#000000"> </text>
<text text-anchor="start" x="1147.5" y="-943.8" font-family="sans" font-weight="bold" font-size="14.00" fill="#000000">output →</text>
<text text-anchor="start" x="1208.5" y="-943.8" font-family="sans" font-size="10.00" fill="#000000"> </text>
<text text-anchor="start" x="641.5" y="-924" font-family="monospace" font-size="10.00" fill="#000000">results/reads/trim/{sample,HD827sonic_small}_{library,lib1}_{lane,L001}_R1.fastq.gz</text>
<text text-anchor="start" x="641.5" y="-906" font-family="monospace" font-size="10.00" fill="#000000">results/reads/trim/{sample,HD827sonic_small}_{library,lib1}_{lane,L001}_R2.fastq.gz</text>
<text text-anchor="start" x="641.5" y="-888" font-family="monospace" font-size="10.00" fill="#000000">results/reads/trim/{sample,HD827sonic_small}_{library,lib1}_{lane,L001}_collapsed.fastq.gz</text>
<text text-anchor="start" x="641.5" y="-870" font-family="monospace" font-size="10.00" fill="#000000">results/reads/trim/{sample,HD827sonic_small}_{library,lib1}_{lane,L001}_collapsedtrunc.fastq.gz</text>
<text text-anchor="start" x="641.5" y="-852" font-family="monospace" font-size="10.00" fill="#000000">results/reads/trim/{sample,HD827sonic_small}_{library,lib1}_{lane,L001}_discarded.fastq.gz</text>
<text text-anchor="start" x="641.5" y="-834" font-family="monospace" font-size="10.00" fill="#000000">results/reads/trim/{sample,HD827sonic_small}_{library,lib1}_{lane,L001}_singleton.fastq.gz</text>
<text text-anchor="start" x="641.5" y="-816" font-family="monospace" font-size="10.00" fill="#000000">stats/reads/trim/{sample,HD827sonic_small}_{library,lib1}_{lane,L001}_pe.settings</text>
<polygon fill="#d95757" stroke="#d95757" points="635.5,-998 635.5,-998 1219.5,-998 1219.5,-998 635.5,-998"/>
<polygon fill="#d95757" stroke="#d95757" points="635.5,-958 635.5,-958 1219.5,-958 1219.5,-958 635.5,-958"/>
<polygon fill="none" stroke="#d95757" stroke-width="2" points="635,-807 635,-1027 1218,-1027 1218,-807 635,-807"/>
</g>
<!-- 3&#45;&gt;4 -->
<g id="edge7" class="edge">
<title>3&#45;&gt;4</title>
<path fill="none" stroke="#c0c0c0" stroke-width="2" d="M796.8794,-1063.9034C804.6757,-1055.0676 812.9675,-1045.6701 821.4428,-1036.0649"/>
<polygon fill="#c0c0c0" stroke="#c0c0c0" stroke-width="2" points="824.2812,-1038.138 828.2731,-1028.3239 819.0324,-1033.5066 824.2812,-1038.138"/>
</g>
<!-- 4&#45;&gt;0 -->
<g id="edge2" class="edge">
<title>4&#45;&gt;0</title>
<path fill="none" stroke="#c0c0c0" stroke-width="2" d="M1219.1614,-890.9978C1382.8116,-869.7285 1563.85,-832.6153 1614.5,-770 1772.6814,-574.4508 1493.808,-323.4101 1308.1869,-188.0025"/>
<polygon fill="#c0c0c0" stroke="#c0c0c0" stroke-width="2" points="1310.1211,-185.0816 1299.9721,-182.0407 1306.0096,-190.747 1310.1211,-185.0816"/>
</g>
<!-- 4&#45;&gt;1 -->
<g id="edge4" class="edge">
<title>4&#45;&gt;1</title>
<path fill="none" stroke="#c0c0c0" stroke-width="2" d="M735.3723,-805.7861C725.7539,-794.75 717.288,-782.8304 710.5,-770 683.0651,-718.1434 688.7207,-692.4742 710.5,-638 714.1135,-628.9618 718.2748,-620.0776 722.8901,-611.3696"/>
<polygon fill="#c0c0c0" stroke="#c0c0c0" stroke-width="2" points="726.0946,-612.8065 727.8601,-602.3597 719.9653,-609.4254 726.0946,-612.8065"/>
</g>
<!-- 5 -->
<g id="node6" class="node">
<title>5</title>
<text text-anchor="start" x="1114.5" y="-749.6" font-family="sans" font-weight="bold" font-size="18.00" fill="#000000">fastqc_trim</text>
<text text-anchor="start" x="727.5" y="-725.8" font-family="sans" font-size="10.00" fill="#000000"> </text>
<text text-anchor="start" x="731.5" y="-725.8" font-family="sans" font-weight="bold" font-size="14.00" fill="#000000">↪ input</text>
<text text-anchor="start" x="784.5" y="-725.8" font-family="sans" font-size="10.00" fill="#000000"> </text>
<text text-anchor="start" x="727.5" y="-706" font-family="monospace" font-size="10.00" fill="#000000">results/reads/trim/{sample}_{library}_{lane}_{read_type_trim}.fastq.gz</text>
<text text-anchor="start" x="1529.5" y="-685.8" font-family="sans" font-size="10.00" fill="#000000"> </text>
<text text-anchor="start" x="1533.5" y="-685.8" font-family="sans" font-weight="bold" font-size="14.00" fill="#000000">output →</text>
<text text-anchor="start" x="1594.5" y="-685.8" font-family="sans" font-size="10.00" fill="#000000"> </text>
<text text-anchor="start" x="727.5" y="-666" font-family="monospace" font-size="10.00" fill="#000000">stats/reads/fastqc_trim/{sample,HD827sonic_small}_{library,lib1}_{lane,L001}_{read_type_trim,collapsedtrunc|singleton|R1|collapsed|R2}.html</text>
<text text-anchor="start" x="727.5" y="-648" font-family="monospace" font-size="10.00" fill="#000000">stats/reads/fastqc_trim/{sample,HD827sonic_small}_{library,lib1}_{lane,L001}_{read_type_trim,collapsedtrunc|singleton|R1|collapsed|R2}_fastqc.zip</text>
<polygon fill="#57d998" stroke="#57d998" points="721.5,-740 721.5,-740 1605.5,-740 1605.5,-740 721.5,-740"/>
<polygon fill="#57d998" stroke="#57d998" points="721.5,-700 721.5,-700 1605.5,-700 1605.5,-700 721.5,-700"/>
<polygon fill="none" stroke="#57d998" stroke-width="2" points="721,-639 721,-769 1604,-769 1604,-639 721,-639"/>
</g>
<!-- 4&#45;&gt;5 -->
<g id="edge8" class="edge">
<title>4&#45;&gt;5</title>
<path fill="none" stroke="#c0c0c0" stroke-width="2" d="M1049.6841,-805.8212C1060.566,-795.9997 1071.3891,-786.2314 1081.7822,-776.8513"/>
<polygon fill="#c0c0c0" stroke="#c0c0c0" stroke-width="2" points="1084.1901,-779.3928 1089.2686,-770.0944 1079.5,-774.1963 1084.1901,-779.3928"/>
</g>
<!-- 5&#45;&gt;1 -->
<g id="edge5" class="edge">
<title>5&#45;&gt;1</title>
<path fill="none" stroke="#c0c0c0" stroke-width="2" d="M1109.4684,-637.6541C1102.4718,-628.901 1095.0336,-619.5952 1087.3141,-609.9377"/>
<polygon fill="#c0c0c0" stroke="#c0c0c0" stroke-width="2" points="1090.0438,-607.7469 1081.066,-602.1209 1084.5758,-612.1175 1090.0438,-607.7469"/>
</g>
</g>
</svg>
